<?xml version="1.0" encoding="utf-8"?>
<!-- Generator: Adobe Illustrator 19.2.1, SVG Export Plug-In . SVG Version: 6.00 Build 0)  -->
<svg version="1.1" id="Layer_1" xmlns="http://www.w3.org/2000/svg" xmlns:xlink="http://www.w3.org/1999/xlink" x="0px" y="0px"
	 viewBox="0 0 597.5 336.9" style="enable-background:new 0 0 597.5 336.9;" xml:space="preserve">
<style type="text/css">
	.st0{fill:#822FF7;stroke:#FFFFFF;stroke-miterlimit:10;}
	.st1{fill:#FFFFFF;}
	.st2{fill:url(#SVGID_1_);}
	.st3{fill:url(#SVGID_2_);}
	.st4{fill:url(#SVGID_3_);}
	.st5{fill:url(#SVGID_4_);}
	.st6{fill:url(#SVGID_5_);}
	.st7{fill:url(#SVGID_6_);}
	.st8{fill:url(#SVGID_7_);}
	.st9{fill:url(#SVGID_8_);}
	.st10{fill:url(#SVGID_9_);}
	.st11{fill:none;stroke:#FFFFFF;stroke-width:1.1135;stroke-miterlimit:10;}
</style>
<polygon id="_x3C_Orig_x3E__362_" class="st0" points="331.2,90.6 292.3,110.2 292.3,161.1 331.2,180.6 370.2,161 370.2,110.2 "/>
<polygon id="_x3C_Orig_x3E__3_" class="st0" points="373.3,165.4 334.3,184.9 334.3,235.8 373.3,255.4 412.3,235.8 412.3,184.9 "/>
<polygon id="_x3C_Orig_x3E__4_" class="st0" points="456.4,165.4 417.4,184.9 417.4,235.8 456.3,255.4 495.3,235.8 495.3,184.9 "/>
<polygon id="_x3C_Orig_x3E__1_" class="st0" points="414.5,90.6 375.5,110.2 375.5,161.1 414.4,180.6 453.4,161 453.4,110.2 "/>
<polygon id="_x3C_Orig_x3E__2_" class="st0" points="497.7,90.6 458.7,110.2 458.7,161.1 497.7,180.6 536.6,161 536.6,110.2 "/>
<polygon id="_x3C_Orig_x3E__5_" class="st0" points="455.9,15.3 416.9,34.9 416.9,85.8 455.9,105.3 494.8,85.7 494.8,34.9 "/>
<polygon id="_x3C_Orig_x3E__8_" class="st0" points="539.2,15.3 500.2,34.9 500.2,85.8 539.2,105.3 578.1,85.7 578.1,34.9 "/>
<polygon id="_x3C_Orig_x3E__6_" class="st0" points="415,240 376,259.6 376,310.5 415,330 453.9,310.4 453.9,259.6 "/>
<polygon class="st1" points="90.8,219.8 55.2,186.3 101.9,186.3 155.2,186.3 155.2,185 103.2,185 144.2,148.2 213.1,148.2 
	213.1,147 143.6,147 101.3,185 52,185 4,185 4.8,185 4.8,186.3 4,186.3 53.3,186.3 90.3,221.1 262.7,221.1 262.7,219.8 "/>
<radialGradient id="SVGID_1_" cx="226.5066" cy="4804.7939" r="23.4389" fx="226.9252" fy="4805.3696" gradientTransform="matrix(1 0 0 1 0 -4662)" gradientUnits="userSpaceOnUse">
	<stop  offset="0" style="stop-color:#822FF7"/>
	<stop  offset="1" style="stop-color:#822FF7;stop-opacity:0"/>
</radialGradient>
<circle class="st2" cx="227.1" cy="142.7" r="23.9"/>
<radialGradient id="SVGID_2_" cx="168.5066" cy="4842.6938" r="23.4389" fx="168.9252" fy="4843.2695" gradientTransform="matrix(1 0 0 1 0 -4662)" gradientUnits="userSpaceOnUse">
	<stop  offset="0" style="stop-color:#822FF7"/>
	<stop  offset="1" style="stop-color:#822FF7;stop-opacity:0"/>
</radialGradient>
<circle class="st3" cx="169.1" cy="180.6" r="23.9"/>
<radialGradient id="SVGID_3_" cx="167.5066" cy="4842.6938" r="23.4389" fx="167.9252" fy="4843.2695" gradientTransform="matrix(1 0 0 1 0 -4662)" gradientUnits="userSpaceOnUse">
	<stop  offset="0" style="stop-color:#822FF7"/>
	<stop  offset="1" style="stop-color:#822FF7;stop-opacity:0"/>
</radialGradient>
<circle class="st4" cx="168.1" cy="180.6" r="23.9"/>
<radialGradient id="SVGID_4_" cx="166.5066" cy="4842.6938" r="23.4389" fx="166.9252" fy="4843.2695" gradientTransform="matrix(1 0 0 1 0 -4662)" gradientUnits="userSpaceOnUse">
	<stop  offset="0" style="stop-color:#822FF7"/>
	<stop  offset="1" style="stop-color:#822FF7;stop-opacity:0"/>
</radialGradient>
<circle class="st5" cx="167.1" cy="180.6" r="23.9"/>
<radialGradient id="SVGID_5_" cx="168.5066" cy="4841.6938" r="23.4389" fx="168.9252" fy="4842.2695" gradientTransform="matrix(1 0 0 1 0 -4662)" gradientUnits="userSpaceOnUse">
	<stop  offset="0" style="stop-color:#822FF7"/>
	<stop  offset="1" style="stop-color:#822FF7;stop-opacity:0"/>
</radialGradient>
<circle class="st6" cx="169.1" cy="179.6" r="23.9"/>
<radialGradient id="SVGID_6_" cx="267.0067" cy="4876.4937" r="23.4389" fx="267.4253" fy="4877.0693" gradientTransform="matrix(1 0 0 1 0 -4662)" gradientUnits="userSpaceOnUse">
	<stop  offset="0" style="stop-color:#822FF7"/>
	<stop  offset="1" style="stop-color:#822FF7;stop-opacity:0"/>
</radialGradient>
<circle class="st7" cx="267.6" cy="214.4" r="23.9"/>
<linearGradient id="SVGID_7_" gradientUnits="userSpaceOnUse" x1="-1317.2921" y1="-4896.5537" x2="-1317.2921" y2="-4855.6196" gradientTransform="matrix(-1 0 0 -1 -818.4421 -4821.0278)">
	<stop  offset="0" style="stop-color:#822FF7;stop-opacity:0"/>
	<stop  offset="1" style="stop-color:#822FF7"/>
</linearGradient>
<rect x="400.2" class="st8" width="197.3" height="69.5"/>
<linearGradient id="SVGID_8_" gradientUnits="userSpaceOnUse" x1="37.67" y1="4474.436" x2="37.67" y2="4512.4839" gradientTransform="matrix(1 0 0 1 371.83 -4207.7773)">
	<stop  offset="0" style="stop-color:#822FF7;stop-opacity:0"/>
	<stop  offset="1" style="stop-color:#822FF7"/>
</linearGradient>
<polygon class="st9" points="310.9,272.3 508.1,272.3 508.1,336.9 310.9,336.9 "/>
<linearGradient id="SVGID_9_" gradientUnits="userSpaceOnUse" x1="57" y1="4858.3037" x2="2" y2="4858.3037" gradientTransform="matrix(1 0 0 1 0 -4662)">
	<stop  offset="0" style="stop-color:#822FF7;stop-opacity:0"/>
	<stop  offset="1" style="stop-color:#822FF7"/>
</linearGradient>
<polygon class="st10" points="81,97.7 81,294.9 0,294.9 0,97.7 "/>
<polygon id="_x3C_Orig_x3E__9_" class="st0" points="169.9,166.6 159.2,172 159.2,186 169.9,191.3 180.6,185.9 180.6,172 "/>
<polygon id="_x3C_Orig_x3E__10_" class="st0" points="277.3,201.7 266.6,207.1 266.6,221 277.3,226.4 288,221 288,207 "/>
<polygon id="_x3C_Orig_x3E__7_" class="st0" points="227.1,128.6 216.4,134 216.4,148 227.1,153.4 237.8,148 237.8,134 "/>
<g id="g10" transform="matrix(1.25,0,0,-1.25,0,217.5)">
	<g id="g12" transform="scale(0.1,0.1)">
		<path id="path14" class="st1" d="M3209.5,690.2l-27,9v39.1l27-8V690.2"/>
		<path id="path16" class="st1" d="M3216.6,730.2l27,8l-0.1-39l-26.9-9V730.2"/>
		<path id="path18" class="st1" d="M3238.1,742.5l-25.2,7.8l-24.9-7.8l24.9-6.7L3238.1,742.5"/>
		<path id="path20" class="st1" d="M3277.6,690.2l-27,9v39.1l27-8V690.2"/>
		<path id="path22" class="st1" d="M3284.7,730.2l27,8l-0.1-39l-26.9-9V730.2"/>
		<path id="path24" class="st1" d="M3306.2,742.5l-25.2,7.8l-24.9-7.8l24.9-6.7L3306.2,742.5"/>
		<path id="path26" class="st1" d="M3107.4,673.1l-27,8V642l27-9V673.1"/>
		<path id="path28" class="st1" d="M3114.4,673.1l27,8l-0.1-39l-26.9-9V673.1"/>
		<path id="path30" class="st1" d="M3135.9,685.4l-25.2,7.8l-24.9-7.8l24.9-6.7L3135.9,685.4"/>
		<path id="path32" class="st1" d="M3175.5,633.1l-27,9v39.1l27-8V633.1"/>
		<path id="path34" class="st1" d="M3182.5,673.1l27,8l-0.1-39l-26.9-9V673.1"/>
		<path id="path36" class="st1" d="M3204,685.4l-25.2,7.8l-24.9-7.8l24.9-6.7L3204,685.4"/>
		<path id="path38" class="st1" d="M3141.4,576l-27,9v39.1l27-8V576"/>
		<path id="path40" class="st1" d="M3148.4,616.1l27,8l-0.1-39l-26.9-9V616.1"/>
		<path id="path42" class="st1" d="M3170,628.3l-25.2,7.8l-24.9-7.8l24.9-6.7L3170,628.3"/>
		<path id="path44" class="st1" d="M3261,610.5h-2c-0.7,0-1.7-0.5-1.9-1.3l-6-21.2l-6,21.2c-0.2,0.7-0.8,1.3-1.7,1.3h-2.4
			c-0.8,0-1.5-0.7-1.6-1.4l-5.5-21l-5.7,21c-0.2,0.8-1.2,1.3-1.9,1.3h-2.9c-0.6,0-1.2-0.3-1.5-0.7c-0.2-0.3-0.3-0.6-0.2-0.9
			l8.9-31.3c0.2-0.7,0.8-1.3,1.6-1.3h2.8c0.8,0,1.4,0.6,1.6,1.4l5.4,20.9l5.9-20.9c0.2-0.6,0.8-1.3,1.6-1.3h2.8
			c0.8,0,1.4,0.5,1.6,1.3l8.5,31.3c0.1,0.3,0,0.6-0.2,0.9C3262.2,610.3,3261.6,610.5,3261,610.5"/>
		<path id="path46" class="st1" d="M3285.6,597.2h-15c0.3,4.2,3.1,8.6,7.7,8.8C3283.2,605.8,3285.5,601.5,3285.6,597.2z
			 M3278.3,610.7c-10.1,0-14.8-9-14.8-17.3c0-10.4,5.7-17.1,14.6-17.1c6.4,0,11.2,3.2,13.3,8.8c0.1,0.3,0.1,0.7-0.1,1
			c-0.2,0.4-0.6,0.7-1.1,0.8l-2.8,0.5c-0.8,0.1-1.6-0.3-1.9-1c-1.4-3.1-3.9-4.9-7-5c-3,0.1-5.8,1.9-7,4.6c-1,2.2-1.2,4.3-1.2,6.5
			h20.4c0.4,0,0.9,0.2,1.2,0.5c0.3,0.3,0.4,0.6,0.4,0.9C3292.2,602.1,3288.5,610.7,3278.3,610.7"/>
		<path id="path48" class="st1" d="M3317.4,593.4c0-1.9-0.3-11.5-7.2-11.7c-2.3,0.1-4.6,1.4-5.9,3.4c-0.9,1.5-1.5,3.6-1.6,6.1v5.6
			c0.1,4.3,3.2,9.1,7.5,9.2C3317,605.8,3317.4,595.5,3317.4,593.4L3317.4,593.4z M3311.3,611h-0.5c-3.4,0-6-1.4-8-4.3v13.2
			c0,0.7-0.8,1.4-1.6,1.4h-2.9c-0.8,0-1.6-0.6-1.6-1.4v-41.2c0-0.7,0.8-1.4,1.6-1.4h0.9c0.8,0,1.4,0.7,1.6,1.3l0.9,2.9
			c2.1-3,5.3-4.8,8.8-4.8h0.5c9,0,13.1,8.8,13.1,17.5c0,4.3-1.1,8.5-2.9,11.4C3318.8,609,3315.1,611,3311.3,611"/>
		<path id="path50" class="st1" d="M3356,594.3c-1.9,1.4-4.2,1.8-6.5,2.3l-4.4,0.8c-3.2,0.5-5,1.4-5,4.2c0,2.9,3.1,4.1,5.6,4.1
			c3.2-0.1,5.5-1.5,6.7-4c0.3-0.6,0.9-1,1.5-1c0.1,0,0.2,0,0.3,0l2.7,0.6c0.4,0.1,0.9,0.4,1.1,0.8c0.2,0.3,0.2,0.7,0.1,1
			c-1.7,4.9-6,7.5-12.4,7.5c-5.8,0-12.1-2.6-12.1-9.9c0-5,3.1-8.1,9.3-9.4l4.9-0.9c2.7-0.5,5.5-1.4,5.5-4.3c0-4.3-5-4.7-6.5-4.8
			c-3.4,0.1-7.2,1.6-8.2,4.8c-0.2,0.7-1.1,1.2-1.9,1l-2.9-0.6c-0.4-0.1-0.8-0.4-1.1-0.8c-0.2-0.3-0.2-0.7-0.2-1
			c1.5-5.3,6.6-8.5,13.7-8.6h0.2c6.4,0,13.2,2.7,13.2,10.4C3359.9,589.8,3358.5,592.6,3356,594.3"/>
		<path id="path52" class="st1" d="M3385.1,597.2h-15c0.3,4.2,3.1,8.6,7.7,8.8C3382.7,605.8,3385,601.5,3385.1,597.2z M3377.8,610.7
			c-10.1,0-14.8-9-14.8-17.3c0-10.4,5.7-17.1,14.6-17.1c6.4,0,11.2,3.2,13.3,8.8c0.1,0.3,0.1,0.7-0.1,1c-0.2,0.4-0.6,0.7-1.1,0.8
			l-2.8,0.5c-0.7,0.1-1.6-0.2-1.9-1c-1.4-3.1-3.9-4.9-7-5c-3,0.1-5.8,1.9-7,4.6c-1,2.2-1.2,4.3-1.2,6.5h20.4c0.4,0,0.9,0.2,1.2,0.5
			c0.3,0.3,0.4,0.6,0.4,0.9C3391.7,602.1,3388,610.7,3377.8,610.7"/>
		<path id="path54" class="st1" d="M3411,610.3c-0.4,0-0.8,0.1-1.2,0.1c-3.4,0-6.2-1.9-8.1-5.4v3.1c0,0.8-0.8,1.4-1.6,1.4h-2.5
			c-0.8,0-1.6-0.7-1.6-1.4v-30.2c0-0.8,0.7-1.4,1.6-1.4h3c0.8,0,1.6,0.6,1.7,1.4v15.2c0,2.5,0.2,4.4,1.4,6.6
			c1.7,3.2,4.1,4.8,7.3,4.8c0.8,0,1.5,0.7,1.5,1.5v2.8C3412.5,609.6,3411.8,610.2,3411,610.3"/>
		<path id="path56" class="st1" d="M3442.2,610.9h-2.3c-0.7,0-1.7-0.5-1.9-1.3l-7.6-23.9l-7.8,23.9c-0.2,0.8-1.2,1.3-1.9,1.3h-3.4
			c-0.6,0-1.2-0.3-1.5-0.7c-0.2-0.3-0.3-0.6-0.2-0.9l10.6-31.5c0.2-0.6,0.7-1.4,1.6-1.4h4.1c0.7,0,1.4,0.5,1.6,1.4l10.3,31.5
			c0.1,0.3,0,0.6-0.2,0.9C3443.4,610.7,3442.8,610.9,3442.2,610.9"/>
		<path id="path58" class="st1" d="M3449.9,623.1c-2.2,0-3.9-1.8-3.9-3.9c0-2.2,1.8-3.9,3.9-3.9c2.2,0,3.9,1.8,3.9,3.9
			C3453.9,621.3,3452.1,623.1,3449.9,623.1"/>
		<path id="path60" class="st1" d="M3451.5,611.1h-3.2c-0.9,0-1.7-0.7-1.7-1.5v-32.1c0-0.4,0.2-0.8,0.5-1.1s0.7-0.4,1.1-0.4h3.2l0,0
			c0.9,0,1.7,0.7,1.7,1.5v32.1C3453.2,610.4,3452.4,611.1,3451.5,611.1"/>
		<path id="path62" class="st1" d="M3481.6,589.3h-2.7c-0.8,0-1.4-0.5-1.7-1.2c-1-4.2-3.2-6.4-6.6-6.5c-6.6,0.2-7.1,9.3-7.1,12.1
			c0,5.6,1.9,11.6,7.3,11.8c3.3-0.1,5.6-2.4,6.3-6.2c0.1-0.8,0.7-1.4,1.5-1.5h2.9c0.9,0.1,1.5,0.7,1.5,1.5
			c-1,6.9-5.8,11.3-12.2,11.3h-0.2h-0.2c-9.3,0-13.4-8.7-13.4-17.2c0-7.9,3.5-17,13.4-17h0.5c6.2,0,10.9,4.4,12.2,11.4
			c0,0.3-0.1,0.7-0.3,0.9C3482.7,589.1,3482.2,589.3,3481.6,589.3"/>
		<path id="path64" class="st1" d="M3508.2,597.2h-15c0.3,4.2,3.1,8.6,7.7,8.8C3505.8,605.8,3508.1,601.5,3508.2,597.2z
			 M3500.8,610.7c-10.1,0-14.8-9-14.8-17.3c0-10.4,5.7-17.1,14.6-17.1c6.4,0,11.2,3.2,13.3,8.8c0.1,0.3,0.1,0.7-0.1,1
			c-0.2,0.4-0.6,0.7-1.1,0.8l-2.8,0.5c-0.7,0.1-1.6-0.2-1.9-1c-1.4-3.1-3.9-4.9-7-5c-3,0.1-5.8,1.9-7,4.6c-1,2.2-1.2,4.3-1.2,6.5
			h20.4c0.4,0,0.9,0.2,1.2,0.5c0.3,0.3,0.4,0.6,0.4,0.9C3514.8,602.1,3511.1,610.7,3500.8,610.7"/>
		<path id="path66" class="st1" d="M3540.4,594.3c-1.9,1.4-4.2,1.8-6.5,2.3l-4.4,0.8c-3.2,0.5-5,1.4-5,4.2c0,3.8,4.7,4.1,5.6,4.1
			c3.2-0.1,5.5-1.5,6.7-4c0.3-0.6,0.9-1,1.5-1c0.1,0,0.2,0,0.3,0l2.7,0.6c0.4,0.1,0.9,0.4,1.1,0.8c0.2,0.3,0.2,0.7,0.1,1
			c-1.7,4.9-6,7.5-12.4,7.5c-5.8,0-12.1-2.6-12.1-9.9c0-5,3.1-8.1,9.3-9.4l4.9-0.9c2.7-0.5,5.5-1.4,5.5-4.3c0-4.3-5-4.7-6.5-4.8
			c-3.1,0.1-7.2,1.4-8.2,4.8c-0.2,0.7-1.1,1.2-1.9,1l-2.9-0.6c-0.4-0.1-0.8-0.4-1.1-0.8c-0.2-0.3-0.2-0.7-0.2-1
			c1.5-5.3,6.6-8.5,13.7-8.6h0.2c6.4,0,13.2,2.7,13.2,10.4C3544.2,589.8,3542.8,592.6,3540.4,594.3"/>
		<path id="path68" class="st1" d="M3409.6,672.9v7.3c0,1.1,0.8,1.8,1.9,1.8h32.7c1,0,1.9-0.8,1.9-1.8V674c0-1-0.9-2.4-2.5-4.6
			l-16.9-24.2c6.3,0.1,12.9-0.8,18.6-4c1.3-0.7,1.6-1.8,1.7-2.8v-7.8c0-1.1-1.2-2.3-2.4-1.7c-10.1,5.3-23.4,5.8-34.5-0.1
			c-1.1-0.6-2.3,0.6-2.3,1.7v7.4c0,1.2,0,3.2,1.2,5l19.6,28.1h-17.1C3410.4,671.1,3409.6,671.9,3409.6,672.9"/>
		<path id="path70" class="st1" d="M3290.4,627.4h-9.9c-0.9,0.1-1.7,0.8-1.8,1.7v51c0,1,0.9,1.8,1.9,1.8h9.3c1-0.1,1.7-0.8,1.8-1.7
			v-6.7h0.2c2.4,6.4,7,9.4,13.1,9.4c6.2,0,10.1-3,12.9-9.4c2.4,6.4,7.9,9.4,13.7,9.4c4.2,0,8.7-1.7,11.5-5.6
			c3.2-4.3,2.5-10.5,2.5-16v-32.2c0-1-0.9-1.8-1.9-1.8h-9.9c-1,0.1-1.8,0.9-1.8,1.8v27c0,2.1,0.2,7.5-0.3,9.6
			c-0.7,3.4-3,4.4-5.8,4.4c-2.4,0-4.9-1.6-5.9-4.2c-1-2.6-0.9-6.9-0.9-9.8v-27c0-1-0.9-1.8-1.9-1.8h-9.9c-1,0.1-1.8,0.9-1.8,1.8v27
			c0,5.7,0.9,14.1-6.1,14.1c-7.1,0-6.9-8.2-6.9-14.1v-27C3292.3,628.2,3291.5,627.4,3290.4,627.4"/>
		<path id="path72" class="st1" d="M3474.2,672.6c-7.3,0-7.8-10-7.8-16.2s-0.1-19.5,7.7-19.5c7.7,0,8.1,10.7,8.1,17.3
			c0,4.3-0.2,9.4-1.5,13.5C3479.6,671.2,3477.3,672.6,3474.2,672.6z M3474.1,683c14.7,0,22.7-12.7,22.7-28.8
			c0-15.6-8.8-27.9-22.7-27.9c-14.5,0-22.4,12.7-22.4,28.4C3451.7,670.7,3459.7,683,3474.1,683"/>
		<path id="path74" class="st1" d="M3516,627.4h-9.9c-1,0.1-1.8,0.9-1.8,1.8v51c0.1,0.9,0.9,1.7,1.9,1.7h9.2c0.9,0,1.6-0.6,1.8-1.4
			v-7.8h0.2c2.8,7,6.7,10.3,13.5,10.3c4.5,0,8.8-1.6,11.6-6c2.6-4.1,2.6-10.9,2.6-15.9V629c-0.1-0.9-0.9-1.6-1.9-1.6h-10
			c-0.9,0.1-1.7,0.7-1.8,1.6v27.7c0,5.6,0.7,13.7-6.2,13.7c-2.4,0-4.6-1.6-5.7-4.1c-1.4-3.1-1.6-6.2-1.6-9.7v-27.5
			C3517.9,628.2,3517,627.4,3516,627.4"/>
		<path class="st1" d="M3401.2,636.8c-1.8,2.5-3.8,4.6-3.8,9.2v15.5c0,6.6,0.5,12.6-4.4,17.1c-3.8,3.7-10.1,4.9-15,4.9
			c-9.5,0-20-3.5-22.2-15.2c-0.2-1.2,0.7-1.9,1.5-2.1l9.6-1c0.9,0,1.6,0.9,1.7,1.8c0.8,4,4.2,6,8,6c2,0,4.4-0.8,5.6-2.6
			c1.4-2,1.2-4.8,1.2-7.2v-1.3c-5.8-0.6-13.3-1.1-18.7-3.4c-6.2-2.7-10.6-8.2-10.6-16.2c0-10.3,6.5-15.5,14.9-15.5
			c7.1,0,10.9,1.7,16.4,7.2c1.8-2.6,2.4-3.9,5.7-6.6c0.7-0.4,1.7-0.4,2.3,0.2l0,0c2,1.8,5.6,4.9,7.6,6.6
			C3402,634.8,3401.9,635.9,3401.2,636.8z M3381.7,641.2c-1.6-2.8-4.1-4.5-6.9-4.5c-3.8,0-6,2.9-6,7.2c0,8.5,7.6,10,14.8,10v-2.1
			C3383.5,647.9,3383.6,644.7,3381.7,641.2z"/>
		<path class="st1" d="M3270.9,636.8c-1.8,2.5-3.8,4.6-3.8,9.2v15.5c0,6.6,0.5,12.6-4.4,17.1c-3.8,3.7-10.1,4.9-15,4.9
			c-9.5,0-20-3.5-22.2-15.2c-0.2-1.2,0.7-1.9,1.5-2.1l9.6-1c0.9,0,1.6,0.9,1.7,1.8c0.8,4,4.2,6,8,6c2,0,4.4-0.8,5.6-2.6
			c1.4-2,1.2-4.8,1.2-7.2v-1.3c-5.8-0.6-13.3-1.1-18.7-3.4c-6.2-2.7-10.6-8.2-10.6-16.2c0-10.3,6.5-15.5,14.9-15.5
			c7.1,0,10.9,1.7,16.4,7.2c1.8-2.6,2.4-3.9,5.7-6.6c0.7-0.4,1.7-0.4,2.4,0.2l0,0c2,1.8,5.6,4.9,7.6,6.6
			C3271.7,634.8,3271.6,635.9,3270.9,636.8z M3251.4,641.2c-1.6-2.8-4.1-4.5-6.9-4.5c-3.8,0-6,2.9-6,7.2c0,8.5,7.6,10,14.8,10v-2.1
			C3253.3,647.9,3253.3,644.7,3251.4,641.2z"/>
	</g>
</g>
<g>
	<circle class="st1" cx="330.9" cy="129.1" r="4.1"/>
	<path class="st1" d="M345.9,127.7l-3.6-6.2c0,0,0,0,0-0.1l-2.7-4.7c-0.5-0.9-1.4-1.4-2.4-1.4h-12.6c-1,0-1.9,0.6-2.4,1.4l-3.6,6.2
		l0,0l3.2,5.5l4.3-7.5h15c0.5,0,0.9,0.2,1.2,0.7H336l4.3,7.5l-4.7,8.2l0,0l-2.8,4.8c-0.2,0.4-0.7,0.7-1.2,0.7l3.2-5.5h-8.7l-4.4-7.6
		l0,0l-0.4-0.6l0,0l-2.8-4.8c-0.2-0.4-0.3-0.9,0-1.4l-2.8,4.8c-0.5,0.9-0.5,1.9,0,2.7l6.3,11c0.5,0.9,1.4,1.4,2.4,1.4h7.1
		c0.1,0,0.1,0,0.2,0h5.4c1,0,1.9-0.6,2.4-1.4l6.3-11C346.4,129.5,346.4,128.5,345.9,127.7z M324.6,119.1c-0.5,0-0.8-0.4-0.8-0.8
		c0-0.5,0.4-0.8,0.8-0.8c0.5,0,0.8,0.4,0.8,0.8S325,119.1,324.6,119.1z M337.6,119c-0.4,0.2-0.9,0.1-1.1-0.3
		c-0.2-0.4-0.1-0.9,0.3-1.1c0.4-0.2,0.9-0.1,1.1,0.3C338.1,118.2,338,118.7,337.6,119z M318.9,129.6c-0.2,0.4-0.7,0.5-1.1,0.3
		c-0.4-0.2-0.5-0.7-0.3-1.1c0.2-0.4,0.7-0.5,1.1-0.3S319.2,129.2,318.9,129.6z M325,140.9c-0.4,0.2-0.9,0.1-1.1-0.3
		c-0.2-0.4-0.1-0.9,0.3-1.1c0.4-0.2,0.9-0.1,1.1,0.3C325.5,140.1,325.4,140.6,325,140.9z M337.2,141c-0.5,0-0.8-0.4-0.8-0.8
		c0-0.5,0.4-0.8,0.8-0.8c0.5,0,0.8,0.4,0.8,0.8S337.7,141,337.2,141z M344.2,129.6c-0.2,0.4-0.7,0.5-1.1,0.3
		c-0.4-0.2-0.5-0.7-0.3-1.1c0.2-0.4,0.7-0.5,1.1-0.3S344.5,129.2,344.2,129.6z"/>
	<g>
		<g>
			<path class="st1" d="M326.7,148.4c-0.5,0-0.9,0.2-1.2,0.5s-0.4,0.8-0.4,1.3c0,0.6,0.1,1,0.4,1.3c0.3,0.3,0.7,0.5,1.2,0.5
				c0.3,0,0.7,0,0.9-0.1v0.2c-0.3,0.1-0.6,0.1-1,0.1c-0.6,0-1-0.2-1.3-0.6c-0.3-0.4-0.5-0.9-0.5-1.5c0-0.4,0.1-0.8,0.2-1.1
				c0.2-0.3,0.4-0.6,0.7-0.7c0.3-0.2,0.6-0.3,1-0.3s0.7,0.1,1.1,0.2l-0.1,0.3C327.4,148.4,327,148.4,326.7,148.4"/>
		</g>
		<rect x="328.4" y="147.9" class="st1" width="0.3" height="4.3"/>
		<g>
			<path class="st1" d="M329.7,150.7c0,0.4,0.1,0.7,0.3,1c0.2,0.2,0.4,0.3,0.8,0.3c0.3,0,0.6-0.1,0.8-0.3s0.3-0.6,0.3-1
				s-0.1-0.7-0.3-1c-0.2-0.2-0.4-0.3-0.8-0.3c-0.3,0-0.6,0.1-0.8,0.3C329.8,150,329.7,150.3,329.7,150.7 M332.1,150.7
				c0,0.5-0.1,0.9-0.4,1.2c-0.2,0.3-0.6,0.4-1,0.4c-0.3,0-0.5-0.1-0.7-0.2c-0.2-0.1-0.4-0.3-0.5-0.5s-0.2-0.5-0.2-0.8
				c0-0.5,0.1-0.9,0.4-1.1c0.2-0.3,0.6-0.4,1-0.4s0.7,0.1,1,0.4C332,149.8,332.1,150.2,332.1,150.7"/>
			<path class="st1" d="M333.1,149.2v2c0,0.3,0.1,0.5,0.2,0.7c0.1,0.1,0.3,0.2,0.6,0.2c0.4,0,0.6-0.1,0.8-0.3s0.3-0.5,0.3-0.9v-1.7
				h0.3v3h-0.2v-0.4l0,0c-0.2,0.3-0.5,0.5-1,0.5c-0.7,0-1-0.4-1-1.1L333.1,149.2L333.1,149.2z"/>
			<path class="st1" d="M337.3,149.4c-0.3,0-0.6,0.1-0.7,0.3c-0.2,0.2-0.2,0.6-0.2,1c0,0.9,0.3,1.3,1,1.3c0.3,0,0.6-0.1,0.7-0.3
				c0.2-0.2,0.2-0.5,0.2-1l0,0c0-0.5-0.1-0.8-0.2-1C337.9,149.5,337.6,149.4,337.3,149.4 M337.3,149.1c0.2,0,0.4,0,0.6,0.1
				c0.2,0.1,0.3,0.2,0.4,0.4l0,0c0-0.2,0-0.5,0-0.7v-1.1h0.3v4.3h-0.2l-0.1-0.5l0,0c-0.2,0.3-0.6,0.5-1,0.5s-0.7-0.1-1-0.4
				c-0.2-0.3-0.3-0.6-0.3-1.1s0.1-0.9,0.3-1.2C336.6,149.3,336.9,149.1,337.3,149.1"/>
			<path class="st1" d="M341.3,150.3h0.6c0.5,0,0.8-0.1,1-0.2c0.2-0.2,0.3-0.4,0.3-0.7s-0.1-0.5-0.3-0.7s-0.5-0.2-0.9-0.2h-0.7
				L341.3,150.3L341.3,150.3z M343.4,149.3c0,0.4-0.1,0.7-0.4,0.9c-0.3,0.2-0.6,0.3-1.1,0.3h-0.6v1.7H341v-4.1h1
				C343,148.2,343.4,148.5,343.4,149.3"/>
		</g>
		<rect x="344.2" y="147.9" class="st1" width="0.3" height="4.3"/>
		<path class="st1" d="M346.1,152c0.3,0,0.6-0.1,0.8-0.3s0.3-0.4,0.3-0.8v-0.3h-0.5c-0.4,0-0.7,0.1-0.9,0.2
			c-0.2,0.1-0.3,0.3-0.3,0.5s0.1,0.3,0.2,0.4C345.8,152,345.9,152,346.1,152 M347.2,152.2l-0.1-0.5l0,0c-0.2,0.2-0.3,0.3-0.5,0.4
			c-0.2,0.1-0.3,0.1-0.6,0.1s-0.5-0.1-0.7-0.2c-0.2-0.2-0.2-0.4-0.2-0.6c0-0.3,0.1-0.5,0.4-0.7c0.2-0.2,0.6-0.2,1.1-0.3h0.6v-0.2
			c0-0.3-0.1-0.5-0.2-0.6c-0.1-0.1-0.3-0.2-0.6-0.2s-0.6,0.1-0.9,0.2l-0.1-0.2c0.3-0.2,0.7-0.2,1-0.2s0.6,0.1,0.7,0.3
			c0.2,0.2,0.2,0.4,0.2,0.8v2h-0.1V152.2z"/>
		<path class="st1" d="M349.2,152c0.2,0,0.3,0,0.5,0v0.2c-0.1,0-0.3,0.1-0.5,0.1c-0.3,0-0.5-0.1-0.6-0.2c-0.1-0.1-0.2-0.4-0.2-0.7
			v-1.9H348v-0.2l0.4-0.1l0.1-0.7h0.1v0.7h0.9v0.2h-0.9v1.9c0,0.2,0,0.4,0.1,0.5C348.9,152,349,152,349.2,152"/>
		<path class="st1" d="M351.3,149.4h-0.7v2.8h-0.3v-2.8h-0.5v-0.2l0.6-0.1v-0.2c0-0.4,0.1-0.6,0.2-0.8c0.1-0.2,0.4-0.3,0.7-0.3
			c0.2,0,0.3,0,0.5,0.1l-0.1,0.2c-0.1,0-0.3-0.1-0.4-0.1c-0.2,0-0.4,0.1-0.5,0.2c-0.1,0.1-0.1,0.3-0.1,0.6v0.3h0.7v0.3H351.3z"/>
		<path class="st1" d="M352,150.7c0,0.4,0.1,0.7,0.3,1c0.2,0.2,0.4,0.3,0.8,0.3c0.3,0,0.6-0.1,0.8-0.3s0.3-0.6,0.3-1s-0.1-0.7-0.3-1
			c-0.2-0.2-0.4-0.3-0.8-0.3c-0.3,0-0.6,0.1-0.8,0.3C352.1,150,352,150.3,352,150.7 M354.4,150.7c0,0.5-0.1,0.9-0.4,1.2
			c-0.2,0.3-0.6,0.4-1,0.4c-0.3,0-0.5-0.1-0.7-0.2c-0.2-0.1-0.4-0.3-0.5-0.5s-0.2-0.5-0.2-0.8c0-0.5,0.1-0.9,0.4-1.1
			c0.2-0.3,0.6-0.4,1-0.4s0.7,0.1,1,0.4C354.2,149.8,354.4,150.2,354.4,150.7"/>
		<path class="st1" d="M356.3,149.1c0.1,0,0.3,0,0.4,0l-0.1,0.3c-0.1,0-0.3,0-0.4,0c-0.3,0-0.5,0.1-0.6,0.3
			c-0.2,0.2-0.2,0.5-0.2,0.8v1.7h-0.3v-3h0.2v0.5l0,0c0.1-0.2,0.3-0.4,0.4-0.5C355.9,149.2,356.1,149.1,356.3,149.1"/>
		<path class="st1" d="M361.1,152.2v-2c0-0.3-0.1-0.5-0.2-0.6c-0.1-0.1-0.3-0.2-0.5-0.2c-0.3,0-0.5,0.1-0.7,0.3
			c-0.1,0.2-0.2,0.4-0.2,0.8v1.8h-0.3v-2.1c0-0.5-0.2-0.8-0.7-0.8c-0.3,0-0.5,0.1-0.7,0.3c-0.1,0.2-0.2,0.5-0.2,0.9v1.7h-0.3v-3h0.2
			l0.1,0.4l0,0c0.1-0.1,0.2-0.3,0.4-0.3c0.2-0.1,0.3-0.1,0.5-0.1c0.5,0,0.8,0.2,0.9,0.5l0,0c0.1-0.2,0.2-0.3,0.4-0.4
			c0.2-0.1,0.4-0.1,0.6-0.1c0.3,0,0.6,0.1,0.7,0.3c0.2,0.2,0.2,0.5,0.2,0.8v2h-0.2V152.2z"/>
		<path class="st1" d="M316.4,151c0.2-0.2,0.2-0.4,0.2-0.5c0-0.5-0.3-1.4-0.9-1.4c-0.2,0-0.4,0.1-0.5,0.2c-0.1,0.2-0.2,0.4-0.2,0.6
			c0,0.5,0.3,1.3,0.9,1.3C316,151.3,316.2,151.2,316.4,151 M316.2,152.5c-0.1,0-0.1,0-0.2,0c-0.1,0-0.5,0-0.8,0.1
			c-0.2,0.1-0.6,0.2-0.6,0.8c0,0.5,0.5,0.9,1.3,0.9c0.7,0,1.1-0.3,1.1-0.8C317,153.1,316.7,152.9,316.2,152.5 M316.7,149.1
			c0.2,0.1,0.5,0.4,0.5,1s-0.3,0.8-0.6,1.1c-0.1,0.1-0.2,0.2-0.2,0.4s0.1,0.3,0.2,0.3l0.3,0.2c0.3,0.3,0.6,0.5,0.6,1
			c0,0.7-0.7,1.4-2,1.4c-1.1,0-1.6-0.5-1.6-1.1c0-0.3,0.1-0.6,0.6-0.9c0.5-0.3,1.1-0.3,1.4-0.3c-0.1-0.1-0.2-0.3-0.2-0.5
			c0-0.1,0-0.2,0.1-0.3c-0.1,0-0.2,0-0.2,0c-0.8,0-1.2-0.6-1.2-1.2c0-0.3,0.2-0.7,0.5-1c0.4-0.4,0.9-0.4,1.3-0.4h1.5l-0.5,0.3H316.7
			z"/>
		<path class="st1" d="M312.9,151.7c0.2-0.2,0.2-0.5,0.2-0.8c0-0.7-0.3-1.9-1.2-1.9c-0.2,0-0.5,0.1-0.7,0.3
			c-0.3,0.3-0.3,0.6-0.3,0.9c0,0.7,0.4,2,1.3,2C312.5,152.1,312.8,152,312.9,151.7 M312,152.3c-1.2,0-1.8-0.9-1.8-1.8
			c0-1,0.8-1.8,1.9-1.8c1.1,0,1.8,0.9,1.8,1.8C313.9,151.4,313.2,152.3,312,152.3"/>
		<path class="st1" d="M308.9,151.7c0.2-0.2,0.2-0.5,0.2-0.8c0-0.7-0.3-1.9-1.2-1.9c-0.2,0-0.5,0.1-0.7,0.3
			c-0.3,0.3-0.3,0.6-0.3,0.9c0,0.7,0.4,2,1.3,2C308.4,152.1,308.7,152,308.9,151.7 M308,152.3c-1.2,0-1.8-0.9-1.8-1.8
			c0-1,0.8-1.8,1.9-1.8c1.1,0,1.8,0.9,1.8,1.8C309.9,151.4,309.2,152.3,308,152.3"/>
		<path class="st1" d="M319,152c-0.2,0-0.3-0.1-0.3-0.4v-0.1v-4.2l0,0c0-0.3,0.1-0.3,0.3-0.4h-1.1l-0.6,0.3h0.6l0,0l0,0v4.4v0.2
			c0,0.2,0,0.2-0.2,0.4h1.3l0.3-0.2C319.3,152,319.2,152,319,152"/>
		<path class="st1" d="M321.4,149.9c0.1-0.1,0.2-0.1,0.2-0.2c0-0.3-0.3-0.6-0.7-0.6c-0.3,0-0.9,0.2-0.9,1c0,0.1,0,0.3,0,0.4
			L321.4,149.9z M322.1,152.1c-0.1,0-0.2,0.1-0.2,0.1c-0.2,0.1-0.5,0.1-0.7,0.1s-0.6,0-1-0.3c-0.5-0.4-0.8-1-0.8-1.6
			c0-1.2,0.9-1.7,1.7-1.7c0.3,0,0.5,0.1,0.8,0.2c0.4,0.2,0.5,0.6,0.5,0.7l-1.7,0.7h-0.6c0.2,0.9,0.8,1.5,1.5,1.5
			c0.4,0,0.7-0.1,0.9-0.3L322.1,152.1z"/>
		<path class="st1" d="M305.6,152.2l-1.1,0.2c-0.4,0.1-0.8,0.1-1.2,0.1c-2.1,0-2.8-1.5-2.8-2.7c0-1.5,1.1-2.8,3-2.8
			c0.4,0,0.8,0.1,1.1,0.2c0.6,0.2,0.8,0.4,1,0.5l-0.6,0.6l-0.3,0.1l0.2-0.3c-0.3-0.2-0.7-0.7-1.6-0.7c-1.2,0-2.1,0.9-2.1,2.2
			c0,1.4,1,2.7,2.6,2.7c0.5,0,0.7-0.1,0.9-0.2v-1.2l-1.1,0.1l0.6-0.3h1.6l-0.2,0.2c-0.1,0-0.1,0.1-0.1,0.1c0,0.1,0,0.3,0,0.4
			L305.6,152.2L305.6,152.2z"/>
	</g>
</g>
<g>
	<path id="path4_5_" class="st1" d="M485.7,120.5l10-1.4v9.6l-10,0.1V120.5z M495.7,129.9v9.7l-10-1.4v-8.3H495.7z M496.9,119
		l13.3-1.9v11.6l-13.3,0.1V119z M510.1,130v11.6l-13.3-1.9V130L510.1,130z"/>
	<g>
		<path id="svg_1_5_" class="st1" d="M476.2,151.7h-0.7v-4.1c0-0.3,0-0.7,0-1.2l0,0c-0.1,0.3-0.1,0.5-0.2,0.6l-2.1,4.6h-0.3l-2-4.6
			c-0.1-0.1-0.1-0.3-0.2-0.6l0,0c0,0.2,0,0.6,0,1.2v4.1H470v-6h0.9l1.8,4.2c0.1,0.3,0.2,0.6,0.3,0.7l0,0c0.1-0.3,0.2-0.6,0.3-0.8
			l1.9-4.2h0.9L476.2,151.7L476.2,151.7z"/>
		<path id="svg_2_5_" class="st1" d="M477.9,146.3c-0.1,0-0.2,0-0.3-0.1s-0.1-0.2-0.1-0.3s0-0.2,0.1-0.3s0.2-0.1,0.3-0.1
			s0.2,0,0.3,0.1s0.1,0.2,0.1,0.3s0,0.2-0.1,0.3S478,146.3,477.9,146.3z M478.2,151.7h-0.7v-4.3h0.7V151.7z"/>
		<path id="svg_3_5_" class="st1" d="M482.3,151.5c-0.3,0.2-0.7,0.3-1.2,0.3c-0.6,0-1.1-0.2-1.5-0.6c-0.4-0.4-0.6-0.9-0.6-1.6
			c0-0.7,0.2-1.3,0.6-1.7c0.5-0.4,1-0.6,1.7-0.6c0.4,0,0.7,0.1,1,0.2v0.7c-0.3-0.2-0.6-0.3-1-0.3s-0.8,0.2-1.1,0.5s-0.4,0.7-0.4,1.2
			s0.1,0.9,0.4,1.2c0.3,0.3,0.6,0.4,1.1,0.4c0.4,0,0.7-0.1,1.1-0.4L482.3,151.5L482.3,151.5z"/>
		<path id="svg_4_5_" class="st1" d="M485.4,148.1c-0.1-0.1-0.3-0.1-0.5-0.1c-0.3,0-0.5,0.1-0.8,0.4c-0.2,0.3-0.3,0.6-0.3,1.1v2.2
			h-0.7v-4.3h0.7v0.9l0,0c0.1-0.3,0.2-0.5,0.4-0.7s0.4-0.2,0.7-0.2c0.2,0,0.3,0,0.4,0.1L485.4,148.1L485.4,148.1z"/>
		<path id="svg_5_5_" class="st1" d="M487.6,151.8c-0.6,0-1.2-0.2-1.5-0.6s-0.6-0.9-0.6-1.6c0-0.7,0.2-1.3,0.6-1.7s1-0.6,1.6-0.6
			s1.2,0.2,1.5,0.6c0.4,0.4,0.5,1,0.5,1.6s-0.2,1.2-0.6,1.6C488.8,151.6,488.3,151.8,487.6,151.8z M487.7,147.9
			c-0.4,0-0.8,0.1-1.1,0.4s-0.4,0.7-0.4,1.3c0,0.5,0.1,0.9,0.4,1.2c0.3,0.3,0.6,0.4,1.1,0.4s0.8-0.1,1-0.4c0.2-0.3,0.4-0.7,0.4-1.2
			s-0.1-1-0.4-1.2C488.5,148,488.1,147.9,487.7,147.9z"/>
		<path id="svg_6_5_" class="st1" d="M490.4,151.6v-0.8c0.4,0.3,0.8,0.4,1.2,0.4c0.6,0,0.9-0.2,0.9-0.6c0-0.1,0-0.2-0.1-0.3
			s-0.1-0.1-0.2-0.2c-0.1-0.1-0.2-0.1-0.3-0.2c-0.1,0-0.2-0.1-0.4-0.1c-0.2-0.1-0.3-0.1-0.5-0.2c-0.1-0.1-0.3-0.2-0.4-0.3
			c-0.1-0.1-0.2-0.2-0.2-0.3s-0.1-0.3-0.1-0.4c0-0.2,0-0.4,0.1-0.5s0.2-0.2,0.3-0.3c0.2-0.1,0.3-0.2,0.5-0.2
			c0.2-0.1,0.4-0.1,0.6-0.1c0.4,0,0.7,0.1,1,0.2v0.7c-0.3-0.2-0.7-0.3-1.1-0.3c-0.1,0-0.2,0-0.3,0s-0.2,0.1-0.3,0.1
			s-0.1,0.1-0.2,0.2c0,0.1-0.1,0.2-0.1,0.2c0,0.1,0,0.2,0.1,0.3s0.1,0.1,0.2,0.2s0.2,0.1,0.3,0.2c0.1,0,0.2,0.1,0.4,0.2
			c0.2,0.1,0.4,0.1,0.5,0.2c0.1,0.1,0.3,0.2,0.4,0.3c0.1,0.1,0.2,0.2,0.2,0.3c0.1,0.1,0.1,0.3,0.1,0.4c0,0.2,0,0.4-0.1,0.5
			c-0.1,0.2-0.2,0.3-0.4,0.4c-0.2,0.1-0.3,0.2-0.5,0.2s-0.4,0.1-0.6,0.1C491.1,151.8,490.7,151.7,490.4,151.6z"/>
		<path id="svg_7_5_" class="st1" d="M495.9,151.8c-0.6,0-1.2-0.2-1.5-0.6s-0.6-0.9-0.6-1.6c0-0.7,0.2-1.3,0.6-1.7
			c0.4-0.4,1-0.6,1.6-0.6s1.2,0.2,1.5,0.6c0.4,0.4,0.5,1,0.5,1.6s-0.2,1.2-0.6,1.6C497.1,151.6,496.5,151.8,495.9,151.8z
			 M495.9,147.9c-0.4,0-0.8,0.1-1.1,0.4s-0.4,0.7-0.4,1.3c0,0.5,0.1,0.9,0.4,1.2c0.3,0.3,0.6,0.4,1.1,0.4s0.8-0.1,1-0.4
			c0.2-0.3,0.4-0.7,0.4-1.2s-0.1-1-0.4-1.2C496.7,148,496.4,147.9,495.9,147.9z"/>
		<path id="svg_8_5_" class="st1" d="M503.4,148v-0.6h-1.1v-1.3l-0.7,0.2v1.1h-0.9h-0.5h-0.4v-0.7c0-0.6,0.2-0.9,0.7-0.9
			c0.2,0,0.3,0,0.4,0.1v-0.6c-0.1,0-0.3-0.1-0.5-0.1c-0.4,0-0.7,0.1-1,0.4s-0.4,0.6-0.4,1.1v0.7h-0.8v0.6h0.8v3.8h0.7V148h0.5h0.5
			h0.9v2.6c0,0.9,0.4,1.3,1.1,1.3c0.3,0,0.5,0,0.6-0.1v-0.6c-0.1,0.1-0.3,0.1-0.4,0.1c-0.2,0-0.4-0.1-0.5-0.2
			c-0.1-0.1-0.1-0.3-0.1-0.6V148H503.4z"/>
		<path id="svg_9_5_" class="st1" d="M511,151.7h-0.8l-0.6-1.7H507l-0.6,1.7h-0.8l2.4-6h0.7L511,151.7z M509.4,149.4l-1-2.6
			c0-0.1-0.1-0.2-0.1-0.4l0,0c0,0.2-0.1,0.3-0.1,0.4l-0.9,2.6H509.4z"/>
		<path id="svg_10_5_" class="st1" d="M514.6,147.6l-2.6,3.5h2.5v0.6H511v-0.2l2.6-3.5h-2.3v-0.6h3.3V147.6L514.6,147.6z"/>
		<path id="svg_11_5_" class="st1" d="M518.8,151.7h-0.7V151l0,0c-0.3,0.5-0.7,0.8-1.3,0.8c-1,0-1.5-0.6-1.5-1.8v-2.6h0.7v2.5
			c0,0.9,0.3,1.4,1.1,1.4c0.3,0,0.6-0.1,0.8-0.4c0.2-0.2,0.3-0.6,0.3-1v-2.5h0.7L518.8,151.7L518.8,151.7z"/>
		<path id="svg_12_5_" class="st1" d="M522.2,148.1c-0.1-0.1-0.3-0.1-0.5-0.1c-0.3,0-0.5,0.1-0.8,0.4c-0.2,0.3-0.3,0.6-0.3,1.1v2.2
			h-0.7v-4.3h0.7v0.9l0,0c0.1-0.3,0.2-0.5,0.4-0.7s0.4-0.2,0.7-0.2c0.2,0,0.3,0,0.4,0.1L522.2,148.1L522.2,148.1L522.2,148.1z"/>
		<path id="svg_13_5_" class="st1" d="M526.1,149.7h-3c0,0.5,0.1,0.9,0.4,1.1c0.2,0.3,0.6,0.4,1,0.4c0.5,0,0.9-0.2,1.3-0.5v0.6
			c-0.4,0.3-0.9,0.4-1.5,0.4s-1.1-0.2-1.4-0.6c-0.3-0.4-0.5-1-0.5-1.6s0.2-1.2,0.6-1.6s0.9-0.6,1.4-0.6s1,0.2,1.3,0.5
			c0.3,0.4,0.5,0.9,0.5,1.5L526.1,149.7L526.1,149.7z M525.4,149.1c0-0.4-0.1-0.7-0.3-0.9s-0.4-0.3-0.8-0.3c-0.3,0-0.6,0.1-0.8,0.3
			s-0.4,0.5-0.4,0.9H525.4z"/>
	</g>
</g>
<g>
	<g>
		<g>
			<rect x="457.1" y="214.2" class="st1" width="5.4" height="0.9"/>
			<rect x="449.2" y="214.2" class="st1" width="5.4" height="0.9"/>
			<path class="st1" d="M455.9,213.9c-0.4,0-0.8,0.4-0.8,0.8s0.4,0.8,0.8,0.8c0.4,0,0.8-0.4,0.8-0.8S456.3,213.9,455.9,213.9z
				 M455.9,216.4c-0.9,0-1.7-0.7-1.7-1.7c0-0.9,0.7-1.7,1.7-1.7c0.9,0,1.7,0.7,1.7,1.7C457.6,215.6,456.8,216.4,455.9,216.4z"/>
			<rect x="455.4" y="211.2" class="st1" width="0.9" height="2.2"/>
			<g>
				<rect x="450.5" y="198.5" class="st1" width="0.9" height="1.1"/>
				<rect x="452.2" y="198.5" class="st1" width="0.9" height="1.1"/>
				<rect x="457.3" y="198.6" class="st1" width="3.4" height="0.9"/>
			</g>
			<g>
				<rect x="450.5" y="203.3" class="st1" width="0.9" height="1.1"/>
				<rect x="452.2" y="203.3" class="st1" width="0.9" height="1.1"/>
				<rect x="457.3" y="203.3" class="st1" width="3.4" height="0.9"/>
			</g>
			<g>
				<rect x="450.5" y="208.1" class="st1" width="0.9" height="1.1"/>
				<rect x="452.2" y="208.1" class="st1" width="0.9" height="1.1"/>
				<rect x="457.3" y="208.2" class="st1" width="3.4" height="0.9"/>
			</g>
			<rect x="447.7" y="196.7" class="st11" width="16.2" height="4.8"/>
			<rect x="447.7" y="201.4" class="st11" width="16.2" height="4.8"/>
			<rect x="447.7" y="206.3" class="st11" width="16.2" height="4.8"/>
		</g>
		<g>
			<g>
				<path class="st1" d="M436.3,225.5h1.4c0.6,0,1.1,0.1,1.4,0.3c0.3,0.2,0.4,0.5,0.4,0.9c0,0.3-0.1,0.5-0.2,0.7s-0.3,0.3-0.6,0.3
					l0,0c0.3,0.1,0.6,0.2,0.7,0.4c0.2,0.2,0.2,0.4,0.2,0.7c0,0.4-0.1,0.7-0.4,1c-0.3,0.2-0.7,0.3-1.2,0.3h-1.7L436.3,225.5
					L436.3,225.5z M437.1,227.4h0.7c0.3,0,0.5,0,0.7-0.1c0.1-0.1,0.2-0.3,0.2-0.5s-0.1-0.4-0.2-0.5c-0.2-0.1-0.4-0.1-0.7-0.1h-0.6
					v1.2H437.1z M437.1,228v1.5h0.8c0.3,0,0.6-0.1,0.7-0.2c0.2-0.1,0.2-0.3,0.2-0.6c0-0.2-0.1-0.4-0.2-0.5c-0.2-0.1-0.4-0.2-0.7-0.2
					H437.1z"/>
				<path class="st1" d="M443.7,230.1l-0.5-1.3h-1.8l-0.4,1.3h-0.8l1.7-4.6h0.8l1.7,4.6H443.7z M443.1,228.2l-0.4-1.2
					c0-0.1-0.1-0.2-0.1-0.4s-0.1-0.3-0.1-0.4c-0.1,0.3-0.1,0.5-0.2,0.8l-0.4,1.2L443.1,228.2L443.1,228.2z"/>
				<path class="st1" d="M446.2,228.2v1.8h-0.8v-4.6h1.3c0.6,0,1,0.1,1.3,0.3s0.4,0.6,0.4,1c0,0.6-0.3,1-0.9,1.2l1.3,2h-0.9
					l-1.1-1.8h-0.6V228.2z M446.2,227.6h0.5c0.3,0,0.6-0.1,0.8-0.2s0.2-0.3,0.2-0.6s-0.1-0.4-0.3-0.6c-0.2-0.1-0.4-0.2-0.8-0.2h-0.5
					L446.2,227.6L446.2,227.6z"/>
				<path class="st1" d="M452.5,230.1h-2.6v-4.6h2.6v0.6h-1.8v1.2h1.7v0.6h-1.7v1.4h1.8V230.1z"/>
				<path class="st1" d="M455.8,230.1l-1.3-3.8l0,0c0,0.6,0.1,1.1,0.1,1.6v2.2h-0.8v-4.6h1.1l1.3,3.6l0,0l1.3-3.6h1.1v4.6h-0.8v-2.3
					c0-0.2,0-0.5,0-0.9s0-0.6,0-0.7l0,0l-1.4,3.8L455.8,230.1L455.8,230.1z"/>
				<path class="st1" d="M462.6,230.1H460v-4.6h2.6v0.6h-1.8v1.2h1.7v0.6h-1.7v1.4h1.8V230.1z"/>
				<path class="st1" d="M465.5,230.1h-0.7v-3.9h-1.3v-0.6h3.4v0.6h-1.3v3.9H465.5z"/>
				<path class="st1" d="M470.7,230.1l-0.5-1.3h-1.8l-0.4,1.3h-0.8l1.7-4.6h0.8l1.7,4.6H470.7z M470.1,228.2l-0.4-1.2
					c0-0.1-0.1-0.2-0.1-0.4s-0.1-0.3-0.1-0.4c-0.1,0.3-0.1,0.5-0.2,0.8l-0.4,1.2L470.1,228.2L470.1,228.2z"/>
				<path class="st1" d="M472.5,230.1v-4.6h0.8v3.9h1.9v0.6h-2.7V230.1z"/>
			</g>
		</g>
	</g>
</g>
<g>
	<g>
		<path class="st1" d="M357.9,227.8c0,2.2-1.1,2.9-2,2.9c-1.1,0-2-0.9-2-2.9s1-2.9,2-2.9C357,224.9,357.9,225.8,357.9,227.8z
			 M354.9,227.8c0,0.9,0.2,2.2,1.1,2.2c0.8,0,1-1.3,1-2.2s-0.2-2.2-1-2.2C355,225.6,354.9,226.9,354.9,227.8z"/>
		<path class="st1" d="M359,226.7c0-0.9,0-1.4-0.1-1.8h0.9l0.1,0.7l0,0c0.3-0.6,0.8-0.8,1.3-0.8c1.1,0,1.8,1,1.8,2.9
			c0,2.1-0.9,2.9-1.9,2.9c-0.6,0-0.9-0.3-1.1-0.7l0,0v2.8h-1V226.7z M359.9,228.5c0,0.2,0,0.3,0.1,0.5c0.2,0.8,0.6,0.9,0.9,0.9
			c0.8,0,1.1-1,1.1-2.1c0-1.2-0.3-2.1-1.1-2.1c-0.4,0-0.8,0.5-0.9,1c0,0.1,0,0.3,0,0.4L359.9,228.5L359.9,228.5z"/>
		<path class="st1" d="M364.7,227.9c0,1.7,0.7,2.1,1.4,2.1c0.4,0,0.8-0.1,1-0.2l0.2,0.6c-0.3,0.2-0.9,0.3-1.3,0.3
			c-1.5,0-2.2-1.1-2.2-2.8c0-1.8,0.8-2.9,2.1-2.9c1.2,0,1.7,1.2,1.7,2.5c0,0.2,0,0.4,0,0.5h-2.9V227.9z M366.6,227.2
			c0-1.1-0.4-1.6-0.9-1.6c-0.6,0-1,0.8-1,1.6H366.6z"/>
		<path class="st1" d="M368.5,226.4c0-0.7,0-1-0.1-1.4h0.8l0.1,0.7l0,0c0.3-0.5,0.8-0.8,1.4-0.8c0.8,0,1.5,0.6,1.5,1.9v3.8h-1V227
			c0-0.7-0.1-1.3-0.8-1.3c-0.4,0-0.8,0.3-0.9,0.9c0,0.1,0,0.3,0,0.5v3.5h-1V226.4z"/>
		<path class="st1" d="M373.5,229.7c0.2,0.1,0.6,0.3,1,0.3c0.5,0,0.9-0.3,0.9-0.8c0-0.4-0.2-0.7-0.8-1.1c-0.8-0.5-1.2-1-1.2-1.6
			c0-0.9,0.7-1.6,1.7-1.6c0.5,0,0.8,0.2,1.1,0.3l-0.3,0.7c-0.2-0.2-0.5-0.3-0.8-0.3c-0.5,0-0.8,0.3-0.8,0.7s0.2,0.6,0.8,1
			c0.7,0.4,1.3,0.9,1.3,1.7c0,1.1-0.8,1.7-1.8,1.7c-0.4,0-0.9-0.1-1.2-0.3L373.5,229.7z"/>
		<path class="st1" d="M378.4,223.7v1.3h1.2v0.7h-1.2v3.3c0,0.7,0.3,0.9,0.6,0.9c0.2,0,0.3,0,0.4,0l0.1,0.7
			c-0.2,0.1-0.4,0.1-0.7,0.1c-0.4,0-0.7-0.1-1-0.3c-0.3-0.3-0.4-0.6-0.4-1.4v-3.3h-0.7V225h0.7v-1L378.4,223.7z"/>
		<path class="st1" d="M383.7,229.3c0,0.4,0,0.9,0.1,1.3h-0.9l-0.1-0.6l0,0c-0.3,0.4-0.7,0.7-1.2,0.7c-0.8,0-1.4-0.6-1.4-1.6
			c0-1.4,1.2-2,2.6-2v-0.2c0-0.8-0.2-1.3-1-1.3c-0.4,0-0.7,0.1-1,0.3l-0.2-0.6c0.3-0.2,0.8-0.4,1.4-0.4c1.2,0,1.7,0.7,1.7,2
			L383.7,229.3L383.7,229.3z M382.7,227.7c-0.5,0-1.7,0.1-1.7,1.3c0,0.7,0.4,1,0.7,1c0.4,0,0.8-0.3,0.9-0.8c0-0.1,0-0.2,0-0.3
			L382.7,227.7L382.7,227.7z"/>
		<path class="st1" d="M388,230.4c-0.2,0.1-0.6,0.2-1,0.2c-1.3,0-2.2-1-2.2-2.8c0-1.6,0.9-2.9,2.4-2.9c0.3,0,0.7,0.1,0.9,0.2
			l-0.2,0.7c-0.1-0.1-0.4-0.2-0.7-0.2c-1,0-1.4,1.1-1.4,2.2c0,1.3,0.5,2.1,1.4,2.1c0.3,0,0.5,0,0.7-0.2L388,230.4z"/>
		<path class="st1" d="M389.8,227.6L389.8,227.6c0.1-0.2,0.2-0.4,0.4-0.6l1.2-2h1l-1.6,2.4l1.8,3.2h-1.1l-1.3-2.6l-0.4,0.5v2.1h-1
			v-8h1L389.8,227.6L389.8,227.6z"/>
	</g>
	<g>
		<path class="st1" d="M358.5,200.9l3.5,3.2c0.1-0.1,0.2-0.1,0.3-0.2l0.7-0.1l1.3-0.1l1.3-0.1l0.7-0.1c0.2,0.1,0.5,0.2,0.7,0.3
			l-1.2-1.1l1.2-0.1v-1c0-0.5,0.4-0.9,0.9-0.9l10.2-0.9v7.7l1.1,1.1l-0.8,0.1l3.1,3.1l4.9-0.4l-0.8-0.8l1.1-0.1v-8.3
			c-0.2,0.2-0.4,0.3-0.6,0.4l-0.7,0.1l-1.3,0.1l-1.3,0.1l-0.7,0.1c-0.1,0-0.2-0.1-0.3-0.1l-0.3-0.1c0,0-0.1,0-0.1-0.1l0,0l-3.1-2.8
			h0.5l2.9,2.7c0.1-0.1,0.2-0.1,0.3-0.2l0.7-0.1l1.3-0.1l1.3-0.1l0.7-0.1c0.2,0.1,0.5,0.2,0.7,0.3l-1.1-1.1l1.2-0.1v-5.5
			c-0.1-0.5-0.4-1-0.9-1.2c-0.2-0.1-0.5-0.1-0.7-0.1l-0.8,0.2l-3.2,0.3l-6.5,0.6l-6.5,0.6l-3.2,0.3h-1.6c-0.5,0-1,0.3-1.3,0.7
			c0.2-0.5,0.7-0.9,1.3-1.1l1.6-0.3l3.2-0.3l6.5-0.6l6.5-0.6l3.2-0.3h0.8c0.2,0,0.4,0,0.5,0.1l-2.8-2.8c0,0,0,0-0.1-0.1l0,0l0,0l0,0
			l0,0c0,0,0,0-0.1,0l0,0l0,0l0,0c0,0-0.1,0-0.1-0.1l0,0l0,0l0,0h-0.1c0,0,0,0-0.1,0l0,0l0,0h-0.1l0,0l0,0l0,0c0,0,0,0-0.1,0
			c0,0,0,0-0.1,0l0,0l0,0H382l0,0l0,0l0,0h-0.1c0,0,0,0-0.1,0l-21.7,1.9H360c0,0,0,0-0.1,0s-0.2,0.1-0.4,0.1l0,0c0,0,0,0-0.1,0l0,0
			h-0.1l0,0c-0.1,0-0.1,0.1-0.2,0.1l0,0c0,0-0.1,0-0.1,0.1l0,0l0,0l0,0l0,0l0,0l0,0c0,0,0,0-0.1,0.1l0,0l0,0l0,0c0,0,0,0-0.1,0.1
			l0,0c0,0,0,0-0.1,0.1l0,0l0,0l0,0l0,0l0,0v0.1l0,0l0,0l0,0l0,0v0.1l0,0l0,0c0,0,0,0,0,0.1c0,0,0,0,0,0.1l0,0v0.1c0,0,0,0,0,0.1
			l0,0l0,0v0.1v0.1l0,0v5.5l1.2,1.1L358.5,200.9z"/>
		<path class="st1" d="M365.6,204.3l-1.3,0.1l-1.3,0.1l-0.7,0.1c-0.2-0.1-0.3-0.1-0.5-0.2l0,0l0,0c-0.1,0-0.1-0.1-0.2-0.1l0,0
			l-3.5-3.2v8.1l1.1,1.1l-1,0.1l3.3,3.2v-0.1l5.6-0.5v1.6c0,0.1,0,0.2,0.1,0.3s0.2,0.1,0.3,0.1l12.9-1.1c0.3,0,0.5-0.3,0.5-0.6V212
			l-3.1-3.1v1l0,0c0,0,0,0,0,0.1c0,0,0,0,0,0.1c0,0,0,0,0,0.1l0,0l0,0l0,0l0,0l0,0l0,0l0,0l0,0l0,0l0,0l0,0l0,0l0,0l0,0
			c0,0,0,0-0.1,0.1l0,0c0,0-0.1,0-0.1,0.1l0,0c-0.1,0-0.1,0.1-0.2,0.1h-0.1l0,0l-10.3,0.9v-7.8c-0.2,0.2-0.4,0.3-0.6,0.4
			L365.6,204.3z"/>
		<path class="st1" d="M381.8,212.4v0.9c0,0.7-0.5,1.2-1.2,1.3l-12.9,1.1h-0.1c-0.3,0-0.6-0.1-0.8-0.3s-0.4-0.5-0.4-0.9v-0.8
			l-4.8,0.4l-3.5-3.4v5.3v0.1l0,0v0.1c0,0,0,0,0,0.1c0,0,0,0,0,0.1v0.1c0,0,0,0,0,0.1v0.1l0,0v0.1l0,0v0.1l0,0c0,0,0,0,0.1,0.1l0,0
			l0.1,0.1l3.5,3.4l0,0l0.1,0.1l0,0l0.1,0.1l0,0c0,0,0.1,0,0.1,0.1l0,0c0,0,0.1,0,0.1,0.1l0,0h0.1l0,0h0.1l0,0h0.1l0,0
			c0.1,0,0.1,0,0.2,0l21.7-1.9c0.9-0.1,1.7-0.9,1.7-1.8v-5.3L381.8,212.4z M361.7,219.6c0,0,0-0.1,0-0.2
			C361.7,219.5,361.7,219.5,361.7,219.6L361.7,219.6z M361.7,219.7L361.7,219.7L361.7,219.7L361.7,219.7z M361.7,219.9
			C361.7,219.8,361.7,219.8,361.7,219.9C361.7,219.8,361.7,219.8,361.7,219.9L361.7,219.9z M361.8,220L361.8,220L361.8,220
			L361.8,220z M361.8,220.2C361.8,220.2,361.8,220.1,361.8,220.2C361.8,220.1,361.8,220.1,361.8,220.2
			C361.8,220.1,361.8,220.1,361.8,220.2C361.8,220.1,361.8,220.2,361.8,220.2L361.8,220.2z M361.9,220.3L361.9,220.3
			C361.9,220.2,361.9,220.2,361.9,220.3L361.9,220.3L361.9,220.3z M362,220.4L362,220.4L362,220.4L362,220.4L362,220.4z"/>
		<path class="st1" d="M358.2,200.9L358.2,200.9L358.2,200.9z"/>
	</g>
</g>
</svg>
