<?xml version="1.0" encoding="utf-8"?>
<!-- Generator: Adobe Illustrator 19.2.1, SVG Export Plug-In . SVG Version: 6.00 Build 0)  -->
<svg version="1.1" id="Layer_1" xmlns="http://www.w3.org/2000/svg" xmlns:xlink="http://www.w3.org/1999/xlink" x="0px" y="0px"
	 viewBox="0 0 810.6 633.6" style="enable-background:new 0 0 810.6 633.6;" xml:space="preserve">
<style type="text/css">
	.st0{opacity:0.52;fill:url(#SVGID_1_);}
	.st1{opacity:0.52;fill:url(#SVGID_2_);}
	.st2{opacity:0.52;fill:url(#SVGID_3_);}
	.st3{opacity:0.52;fill:url(#SVGID_4_);}
	.st4{opacity:0.52;fill:url(#SVGID_5_);}
	.st5{fill:url(#SVGID_6_);}
	.st6{fill:#822FF7;}
	.st7{clip-path:url(#SVGID_8_);}
	.st8{clip-path:url(#SVGID_10_);fill:#822FF7;}
	.st9{clip-path:url(#SVGID_12_);}
	.st10{clip-path:url(#SVGID_14_);fill:#822FF7;}
	.st11{clip-path:url(#SVGID_16_);}
	.st12{clip-path:url(#SVGID_18_);fill:#822FF7;}
	.st13{clip-path:url(#SVGID_20_);}
	.st14{clip-path:url(#SVGID_22_);fill:#822FF7;}
</style>
<linearGradient id="SVGID_1_" gradientUnits="userSpaceOnUse" x1="315.2711" y1="104.6378" x2="628.9543" y2="104.6378">
	<stop  offset="0" style="stop-color:#FFFFFF"/>
	<stop  offset="5.420001e-02" style="stop-color:#FCF9FF;stop-opacity:0.9447"/>
	<stop  offset="0.1296" style="stop-color:#F4E7FF;stop-opacity:0.8678"/>
	<stop  offset="0.2174" style="stop-color:#E7C9FF;stop-opacity:0.7782"/>
	<stop  offset="0.3146" style="stop-color:#D4A0FF;stop-opacity:0.679"/>
	<stop  offset="0.4183" style="stop-color:#BC6CFF;stop-opacity:0.5732"/>
	<stop  offset="0.49" style="stop-color:#AA43FF;stop-opacity:0.5"/>
	<stop  offset="0.5514" style="stop-color:#BD6DFF;stop-opacity:0.5602"/>
	<stop  offset="0.6261" style="stop-color:#D199FF;stop-opacity:0.6334"/>
	<stop  offset="0.7017" style="stop-color:#E2BEFF;stop-opacity:0.7075"/>
	<stop  offset="0.7769" style="stop-color:#EEDAFF;stop-opacity:0.7813"/>
	<stop  offset="0.8519" style="stop-color:#F8EFFF;stop-opacity:0.8548"/>
	<stop  offset="0.9264" style="stop-color:#FDFBFF;stop-opacity:0.9278"/>
	<stop  offset="1" style="stop-color:#FFFFFF"/>
</linearGradient>
<path class="st0" d="M315.4,184L315.4,184c-0.2-0.4,0-1,0.4-1.2L628.2,24.8l0.8,1.6L316.5,184.4C316.1,184.6,315.6,184.5,315.4,184z
	"/>
<linearGradient id="SVGID_2_" gradientUnits="userSpaceOnUse" x1="562.3262" y1="357.9178" x2="786.2966" y2="357.9178">
	<stop  offset="0" style="stop-color:#FFFFFF"/>
	<stop  offset="5.420001e-02" style="stop-color:#FCF9FF;stop-opacity:0.9447"/>
	<stop  offset="0.1296" style="stop-color:#F4E7FF;stop-opacity:0.8678"/>
	<stop  offset="0.2174" style="stop-color:#E7C9FF;stop-opacity:0.7782"/>
	<stop  offset="0.3146" style="stop-color:#D4A0FF;stop-opacity:0.679"/>
	<stop  offset="0.4183" style="stop-color:#BC6CFF;stop-opacity:0.5732"/>
	<stop  offset="0.49" style="stop-color:#AA43FF;stop-opacity:0.5"/>
	<stop  offset="0.5514" style="stop-color:#BD6DFF;stop-opacity:0.5602"/>
	<stop  offset="0.6261" style="stop-color:#D199FF;stop-opacity:0.6334"/>
	<stop  offset="0.7017" style="stop-color:#E2BEFF;stop-opacity:0.7075"/>
	<stop  offset="0.7769" style="stop-color:#EEDAFF;stop-opacity:0.7813"/>
	<stop  offset="0.8519" style="stop-color:#F8EFFF;stop-opacity:0.8548"/>
	<stop  offset="0.9264" style="stop-color:#FDFBFF;stop-opacity:0.9278"/>
	<stop  offset="1" style="stop-color:#FFFFFF"/>
</linearGradient>
<path class="st1" d="M786.2,420.7c-0.2,0.4-0.8,0.6-1.2,0.3L562.8,296.4c-0.4-0.2-0.6-0.8-0.3-1.2l0,0c0.2-0.4,0.8-0.6,1.2-0.3
	l222.2,124.6C786.3,419.7,786.4,420.2,786.2,420.7L786.2,420.7z"/>
<linearGradient id="SVGID_3_" gradientUnits="userSpaceOnUse" x1="5760.6606" y1="5576.5513" x2="5977.4663" y2="5576.5513" gradientTransform="matrix(-0.9952 -0.1382 0.134 -0.9995 5257.4233 6729.3804)">
	<stop  offset="0" style="stop-color:#FFFFFF"/>
	<stop  offset="5.420001e-02" style="stop-color:#FCF9FF;stop-opacity:0.9447"/>
	<stop  offset="0.1296" style="stop-color:#F4E7FF;stop-opacity:0.8678"/>
	<stop  offset="0.2174" style="stop-color:#E7C9FF;stop-opacity:0.7782"/>
	<stop  offset="0.3146" style="stop-color:#D4A0FF;stop-opacity:0.679"/>
	<stop  offset="0.4183" style="stop-color:#BC6CFF;stop-opacity:0.5732"/>
	<stop  offset="0.49" style="stop-color:#AA43FF;stop-opacity:0.5"/>
	<stop  offset="0.5514" style="stop-color:#BD6DFF;stop-opacity:0.5602"/>
	<stop  offset="0.6261" style="stop-color:#D199FF;stop-opacity:0.6334"/>
	<stop  offset="0.7017" style="stop-color:#E2BEFF;stop-opacity:0.7075"/>
	<stop  offset="0.7769" style="stop-color:#EEDAFF;stop-opacity:0.7813"/>
	<stop  offset="0.8519" style="stop-color:#F8EFFF;stop-opacity:0.8548"/>
	<stop  offset="0.9264" style="stop-color:#FDFBFF;stop-opacity:0.9278"/>
	<stop  offset="1" style="stop-color:#FFFFFF"/>
</linearGradient>
<polygon class="st2" points="265,403 61.3,287.8 62.2,286.3 265.9,401.5 "/>
<linearGradient id="SVGID_4_" gradientUnits="userSpaceOnUse" x1="89.4641" y1="464.9892" x2="511.7357" y2="464.9892">
	<stop  offset="0" style="stop-color:#FFFFFF"/>
	<stop  offset="5.420001e-02" style="stop-color:#FCF9FF;stop-opacity:0.9447"/>
	<stop  offset="0.1296" style="stop-color:#F4E7FF;stop-opacity:0.8678"/>
	<stop  offset="0.2174" style="stop-color:#E7C9FF;stop-opacity:0.7782"/>
	<stop  offset="0.3146" style="stop-color:#D4A0FF;stop-opacity:0.679"/>
	<stop  offset="0.4183" style="stop-color:#BC6CFF;stop-opacity:0.5732"/>
	<stop  offset="0.49" style="stop-color:#AA43FF;stop-opacity:0.5"/>
	<stop  offset="0.5514" style="stop-color:#BD6DFF;stop-opacity:0.5602"/>
	<stop  offset="0.6261" style="stop-color:#D199FF;stop-opacity:0.6334"/>
	<stop  offset="0.7017" style="stop-color:#E2BEFF;stop-opacity:0.7075"/>
	<stop  offset="0.7769" style="stop-color:#EEDAFF;stop-opacity:0.7813"/>
	<stop  offset="0.8519" style="stop-color:#F8EFFF;stop-opacity:0.8548"/>
	<stop  offset="0.9264" style="stop-color:#FDFBFF;stop-opacity:0.9278"/>
	<stop  offset="1" style="stop-color:#FFFFFF"/>
</linearGradient>
<polygon class="st3" points="90.3,585.2 89.5,583.7 510.9,344.8 511.7,346.3 "/>
<linearGradient id="SVGID_5_" gradientUnits="userSpaceOnUse" x1="4054.2095" y1="452.0744" x2="4379.9136" y2="452.0744" gradientTransform="matrix(0.4437 -0.8962 0.8962 0.4437 -1741.7764 3761.9136)">
	<stop  offset="0" style="stop-color:#FFFFFF"/>
	<stop  offset="5.420001e-02" style="stop-color:#FCF9FF;stop-opacity:0.9447"/>
	<stop  offset="0.1296" style="stop-color:#F4E7FF;stop-opacity:0.8678"/>
	<stop  offset="0.2174" style="stop-color:#E7C9FF;stop-opacity:0.7782"/>
	<stop  offset="0.3146" style="stop-color:#D4A0FF;stop-opacity:0.679"/>
	<stop  offset="0.4183" style="stop-color:#BC6CFF;stop-opacity:0.5732"/>
	<stop  offset="0.49" style="stop-color:#AA43FF;stop-opacity:0.5"/>
	<stop  offset="0.5514" style="stop-color:#BD6DFF;stop-opacity:0.5602"/>
	<stop  offset="0.6261" style="stop-color:#D199FF;stop-opacity:0.6334"/>
	<stop  offset="0.7017" style="stop-color:#E2BEFF;stop-opacity:0.7075"/>
	<stop  offset="0.7769" style="stop-color:#EEDAFF;stop-opacity:0.7813"/>
	<stop  offset="0.8519" style="stop-color:#F8EFFF;stop-opacity:0.8548"/>
	<stop  offset="0.9264" style="stop-color:#FDFBFF;stop-opacity:0.9278"/>
	<stop  offset="1" style="stop-color:#FFFFFF"/>
</linearGradient>
<rect x="533.5" y="2" class="st4" width="1.7" height="362.5"/>
<linearGradient id="SVGID_6_" gradientUnits="userSpaceOnUse" x1="3909.9014" y1="267.9263" x2="4172.8086" y2="267.9263" gradientTransform="matrix(0.4437 -0.8962 0.8962 0.4437 -1741.7764 3761.9136)">
	<stop  offset="0" style="stop-color:#FFFFFF"/>
	<stop  offset="5.420001e-02" style="stop-color:#FCF9FF;stop-opacity:0.9447"/>
	<stop  offset="0.1296" style="stop-color:#F4E7FF;stop-opacity:0.8678"/>
	<stop  offset="0.2174" style="stop-color:#E7C9FF;stop-opacity:0.7782"/>
	<stop  offset="0.3146" style="stop-color:#D4A0FF;stop-opacity:0.679"/>
	<stop  offset="0.4183" style="stop-color:#BC6CFF;stop-opacity:0.5732"/>
	<stop  offset="0.49" style="stop-color:#AA43FF;stop-opacity:0.5"/>
	<stop  offset="0.5514" style="stop-color:#BD6DFF;stop-opacity:0.5602"/>
	<stop  offset="0.6261" style="stop-color:#D199FF;stop-opacity:0.6334"/>
	<stop  offset="0.7017" style="stop-color:#E2BEFF;stop-opacity:0.7075"/>
	<stop  offset="0.7769" style="stop-color:#EEDAFF;stop-opacity:0.7813"/>
	<stop  offset="0.8519" style="stop-color:#F8EFFF;stop-opacity:0.8548"/>
	<stop  offset="0.9264" style="stop-color:#FDFBFF;stop-opacity:0.9278"/>
	<stop  offset="1" style="stop-color:#FFFFFF"/>
</linearGradient>
<rect x="290.6" y="112.8" class="st5" width="1.7" height="292.4"/>
<g>
	<g>
		<path class="st6" d="M111.2,158.2l33.5,19.4v38.7l-33.5,19.4l-33.5-19.4v-38.7L111.2,158.2 M111.2,155.9l-35.5,20.5v41l35.5,20.5
			l35.5-20.5v-41L111.2,155.9L111.2,155.9z"/>
	</g>
</g>
<g>
	<g>
		<path class="st6" d="M148,94.3l33.5,19.4v38.7L148,171.8l-33.5-19.4v-38.7L148,94.3 M148,92l-35.5,20.5v41l35.5,20.5l35.5-20.5
			v-41L148,92L148,92z"/>
	</g>
</g>
<g>
	<g>
		<path class="st6" d="M221.7,94.3l33.5,19.4v38.7l-33.5,19.4l-33.5-19.4v-38.7L221.7,94.3 M221.7,92l-35.5,20.5v41l35.5,20.5
			l35.5-20.5v-41L221.7,92L221.7,92z"/>
	</g>
</g>
<g>
	<g>
		<path class="st6" d="M148,222l33.5,19.4v38.7L148,299.4l-33.5-19.4v-38.7L148,222 M148,219.7l-35.5,20.5v41l35.5,20.5l35.5-20.5
			v-41L148,219.7L148,219.7z"/>
	</g>
</g>
<g>
	<g>
		<path class="st6" d="M37.5,159l32.8,19v37.9l-32.8,19l-32.8-19v-37.9L37.5,159 M37.5,156.7L2.6,176.8V217l34.8,20.1L72.3,217
			v-40.2L37.5,156.7L37.5,156.7z"/>
	</g>
</g>
<g>
	<g>
		<path class="st6" d="M184.8,158.2l33.5,19.4v38.7l-33.5,19.4l-33.5-19.4v-38.7L184.8,158.2 M184.8,155.9l-35.5,20.5v41l35.5,20.5
			l35.5-20.5v-41L184.8,155.9L184.8,155.9z"/>
	</g>
</g>
<g>
	<g>
		<path class="st6" d="M662.3,159.3l33.5,19.4v38.7l-33.5,19.4l-33.5-19.4v-38.7L662.3,159.3 M662.3,157l-35.5,20.5v41l35.5,20.5
			l35.5-20.5v-41L662.3,157L662.3,157z"/>
	</g>
</g>
<g>
	<g>
		<path class="st6" d="M699.2,95.5l33.5,19.4v38.7L699.2,173l-33.5-19.4v-38.7L699.2,95.5 M699.2,93.2l-35.5,20.5v41l35.5,20.5
			l35.5-20.5v-41L699.2,93.2L699.2,93.2z"/>
	</g>
</g>
<g>
	<g>
		<path class="st6" d="M772.8,95.5l33.5,19.4v38.7L772.8,173l-33.5-19.4v-38.7L772.8,95.5 M772.8,93.2l-35.5,20.5v41l35.5,20.5
			l35.5-20.5v-41L772.8,93.2L772.8,93.2z"/>
	</g>
</g>
<g>
	<g>
		<path class="st6" d="M699.2,223.1l33.5,19.4v38.7l-33.5,19.4l-33.5-19.4v-38.7L699.2,223.1 M699.2,220.8l-35.5,20.5v41l35.5,20.5
			l35.5-20.5v-41L699.2,220.8L699.2,220.8z"/>
	</g>
</g>
<g>
	<g>
		<path class="st6" d="M588.6,160.1l32.8,19V217l-32.8,19l-32.8-19v-37.9L588.6,160.1 M588.6,157.8l-34.8,20.1v40.2l34.8,20.1
			l34.8-20.1v-40.2L588.6,157.8L588.6,157.8z"/>
	</g>
</g>
<g>
	<g>
		<path class="st6" d="M736,159.3l33.5,19.4v38.7L736,236.8l-33.5-19.4v-38.7L736,159.3 M736,157l-35.5,20.5v41l35.5,20.5l35.5-20.5
			v-41L736,157L736,157z"/>
	</g>
</g>
<g>
	<g>
		<g>
			<path class="st6" d="M400.7,488.7l33.5,19.4v38.7l-33.5,19.4l-33.5-19.4V508L400.7,488.7 M400.7,486.4l-35.5,20.5v41l35.5,20.5
				l35.5-20.5v-41L400.7,486.4L400.7,486.4z"/>
		</g>
	</g>
	<g>
		<g>
			<path class="st6" d="M437.6,424.9l33.5,19.4V483l-33.5,19.4L404,483v-38.7L437.6,424.9 M437.6,422.6L402,443.1v41l35.5,20.5
				l35.5-20.5v-41L437.6,422.6L437.6,422.6z"/>
		</g>
	</g>
	<g>
		<g>
			<path class="st6" d="M511.2,424.9l33.5,19.4V483l-33.5,19.4L477.7,483v-38.7L511.2,424.9 M511.2,422.6l-35.5,20.5v41l35.5,20.5
				l35.5-20.5v-41L511.2,422.6L511.2,422.6z"/>
		</g>
	</g>
	<g>
		<g>
			<path class="st6" d="M437.6,552.5l33.5,19.4v38.7l-33.5,19.4L404,610.6v-38.7L437.6,552.5 M437.6,550.2L402,570.7v41l35.5,20.5
				l35.5-20.5v-41L437.6,550.2L437.6,550.2z"/>
		</g>
	</g>
	<g>
		<g>
			<path class="st6" d="M327,489.5l32.8,19v37.9l-32.8,19l-32.8-19v-37.9L327,489.5 M327,487.2l-34.8,20.1v40.2l34.8,20.1l34.8-20.1
				v-40.2L327,487.2L327,487.2z"/>
		</g>
	</g>
	<g>
		<g>
			<path class="st6" d="M474.4,488.7l33.5,19.4v38.7l-33.5,19.4l-33.5-19.4V508L474.4,488.7 M474.4,486.4l-35.5,20.5v41l35.5,20.5
				l35.5-20.5v-41L474.4,486.4L474.4,486.4z"/>
		</g>
	</g>
</g>
<g>
	<defs>
		<polygon id="SVGID_7_" points="396.5,227.2 433.9,249.1 433.9,292.5 396.5,270.7 		"/>
	</defs>
	<use xlink:href="#SVGID_7_"  style="overflow:visible;fill-rule:evenodd;clip-rule:evenodd;fill:#822FF7;"/>
	<clipPath id="SVGID_8_">
		<use xlink:href="#SVGID_7_"  style="overflow:visible;"/>
	</clipPath>
	<g class="st7">
		<defs>
			<rect id="SVGID_9_" x="49.9" y="-1575" width="4031.2" height="2687.5"/>
		</defs>
		<use xlink:href="#SVGID_9_"  style="overflow:visible;fill:#822FF7;"/>
		<clipPath id="SVGID_10_">
			<use xlink:href="#SVGID_9_"  style="overflow:visible;"/>
		</clipPath>
		<rect x="379.7" y="210.4" class="st8" width="71" height="98.9"/>
	</g>
</g>
<g>
	<defs>
		<polygon id="SVGID_11_" points="440.6,249.1 478,227.2 478,270.7 440.6,292.5 		"/>
	</defs>
	<use xlink:href="#SVGID_11_"  style="overflow:visible;fill-rule:evenodd;clip-rule:evenodd;fill:#822FF7;"/>
	<clipPath id="SVGID_12_">
		<use xlink:href="#SVGID_11_"  style="overflow:visible;"/>
	</clipPath>
	<g class="st9">
		<defs>
			<rect id="SVGID_13_" x="49.9" y="-1575" width="4031.2" height="2687.5"/>
		</defs>
		<use xlink:href="#SVGID_13_"  style="overflow:visible;fill:#822FF7;"/>
		<clipPath id="SVGID_14_">
			<use xlink:href="#SVGID_13_"  style="overflow:visible;"/>
		</clipPath>
		<rect x="423.8" y="210.4" class="st10" width="71" height="98.9"/>
	</g>
</g>
<g>
	<defs>
		<polygon id="SVGID_15_" points="352.2,202.1 352.2,245.6 389.6,267.4 389.6,224 		"/>
	</defs>
	<use xlink:href="#SVGID_15_"  style="overflow:visible;fill-rule:evenodd;clip-rule:evenodd;fill:#822FF7;"/>
	<clipPath id="SVGID_16_">
		<use xlink:href="#SVGID_15_"  style="overflow:visible;"/>
	</clipPath>
	<g class="st11">
		<defs>
			<rect id="SVGID_17_" x="49.9" y="-1575" width="4031.2" height="2687.5"/>
		</defs>
		<use xlink:href="#SVGID_17_"  style="overflow:visible;fill:#822FF7;"/>
		<clipPath id="SVGID_18_">
			<use xlink:href="#SVGID_17_"  style="overflow:visible;"/>
		</clipPath>
		<rect x="335.4" y="185.3" class="st12" width="71" height="98.9"/>
	</g>
</g>
<g>
	<defs>
		<polygon id="SVGID_19_" points="396.5,323.4 433.9,345.3 433.9,302.1 433.9,301.5 396.5,280 		"/>
	</defs>
	<use xlink:href="#SVGID_19_"  style="overflow:visible;fill-rule:evenodd;clip-rule:evenodd;fill:#822FF7;"/>
	<clipPath id="SVGID_20_">
		<use xlink:href="#SVGID_19_"  style="overflow:visible;"/>
	</clipPath>
	<g class="st13">
		<defs>
			<rect id="SVGID_21_" x="49.9" y="-1575" width="4031.2" height="2687.5"/>
		</defs>
		<use xlink:href="#SVGID_21_"  style="overflow:visible;fill:#822FF7;"/>
		<clipPath id="SVGID_22_">
			<use xlink:href="#SVGID_21_"  style="overflow:visible;"/>
		</clipPath>
		<rect x="379.7" y="263.2" class="st14" width="71" height="98.9"/>
	</g>
</g>
</svg>
