<?xml version="1.0" encoding="utf-8"?>
<!-- Generator: Adobe Illustrator 19.2.1, SVG Export Plug-In . SVG Version: 6.00 Build 0)  -->
<svg version="1.1" id="Layer_1" xmlns="http://www.w3.org/2000/svg" xmlns:xlink="http://www.w3.org/1999/xlink" x="0px" y="0px"
	 viewBox="0 0 275.8 75.8" style="enable-background:new 0 0 275.8 75.8;" xml:space="preserve">
<style type="text/css">
	.st0{fill:#822FF7;}
</style>
<g>
	<polygon class="st0" points="92.2,43.2 169.3,43.2 169.3,41.2 131.7,41.2 145.3,14.8 216,14.8 216,12.8 144.1,12.8 129.4,41.2 
		89.7,41.2 87.2,41.2 0,41.2 0,43.2 89.3,43.2 118.3,70.5 253.7,70.5 253.7,68.5 119.1,68.5 	"/>
	<polygon class="st0" points="266.9,55.8 258.5,60 258.5,71 266.9,75.2 275.3,71 275.3,60 	"/>
	<polygon class="st0" points="238.8,15.7 238.8,4.8 230.4,0.6 222,4.8 222,15.7 230.4,20 	"/>
	<polygon class="st0" points="176.9,42.8 185.3,47 193.7,42.8 193.7,31.8 185.3,27.6 176.9,31.8 	"/>
</g>
</svg>
