<svg xmlns="http://www.w3.org/2000/svg" viewBox="0 0 806 618">
  <defs>
    <linearGradient id="create-a" x1="50%" x2="50%" y1="0%" y2="100%">
      <stop stop-color="#FFF" stop-opacity=".1" offset="0%"/>
      <stop stop-color="#5C4EE5" offset="49.139%"/>
      <stop stop-color="#5C4EE5" stop-opacity=".1" offset="100%"/>
    </linearGradient>
  </defs>
  <g fill="none" fill-rule="evenodd">
    <g fill="#5C4EE5" fill-rule="nonzero">
      <path d="M2.36 164.655v37.69L35 221.19l32.64-18.845v-37.69L35 145.81 2.36 164.654zM35 143.5l34.64 20v40L35 223.5l-34.64-20v-40l34.64-20z"/>
      <path d="M76.36 164.655v37.69L109 221.19l32.64-18.845v-37.69L109 145.81l-32.64 18.845zM109 143.5l34.64 20v40l-34.64 20-34.64-20v-40l34.64-20z"/>
      <path d="M113.36 101.155v37.69L146 157.69l32.64-18.845v-37.69L146 82.31l-32.64 18.845zM146 80l34.64 20v40L146 160l-34.64-20v-40L146 80z"/>
      <path d="M186.36 101.155v37.69L219 157.69l32.64-18.845v-37.69L219 82.31l-32.64 18.845zM219 80l34.64 20v40L219 160l-34.64-20v-40L219 80z"/>
      <path d="M182 145.81l-32.64 18.845v37.69L182 221.19l32.64-18.845v-37.69L182 145.81zm0-2.31l34.64 20v40l-34.64 20-34.64-20v-40l34.64-20z"/>
      <path d="M113.36 228.155v37.69L146 284.69l32.64-18.845v-37.69L146 209.31l-32.64 18.845zM146 207l34.64 20v40L146 287l-34.64-20v-40L146 207z"/>
    </g>
    <g fill="#5C4EE5" fill-rule="nonzero">
      <path d="M554.36 165.655v37.69L587 222.19l32.64-18.845v-37.69L587 146.81l-32.64 18.845zM587 144.5l34.64 20v40l-34.64 20-34.64-20v-40l34.64-20z"/>
      <path d="M628.36 165.655v37.69L661 222.19l32.64-18.845v-37.69L661 146.81l-32.64 18.845zM661 144.5l34.64 20v40l-34.64 20-34.64-20v-40l34.64-20z"/>
      <path d="M665.36 102.155v37.69L698 158.69l32.64-18.845v-37.69L698 83.31l-32.64 18.845zM698 81l34.64 20v40L698 161l-34.64-20v-40L698 81z"/>
      <path d="M738.36 102.155v37.69L771 158.69l32.64-18.845v-37.69L771 83.31l-32.64 18.845zM771 81l34.64 20v40L771 161l-34.64-20v-40L771 81z"/>
      <path d="M734 146.81l-32.64 18.845v37.69L734 222.19l32.64-18.845v-37.69L734 146.81zm0-2.31l34.64 20v40l-34.64 20-34.64-20v-40l34.64-20z"/>
      <path d="M665.36 229.155v37.69L698 285.69l32.64-18.845v-37.69L698 210.31l-32.64 18.845zM698 208l34.64 20v40L698 288l-34.64-20v-40L698 208z"/>
    </g>
    <g fill="#5C4EE5" fill-rule="nonzero">
      <path d="M292.36 495.655v37.69L325 552.19l32.64-18.845v-37.69L325 476.81l-32.64 18.845zM325 474.5l34.64 20v40l-34.64 20-34.64-20v-40l34.64-20z"/>
      <path d="M366.36 495.655v37.69L399 552.19l32.64-18.845v-37.69L399 476.81l-32.64 18.845zM399 474.5l34.64 20v40l-34.64 20-34.64-20v-40l34.64-20z"/>
      <path d="M403.36 432.155v37.69L436 488.69l32.64-18.845v-37.69L436 413.31l-32.64 18.845zM436 411l34.64 20v40L436 491l-34.64-20v-40L436 411z"/>
      <path d="M476.36 432.155v37.69L509 488.69l32.64-18.845v-37.69L509 413.31l-32.64 18.845zM509 411l34.64 20v40L509 491l-34.64-20v-40L509 411z"/>
      <path d="M439.36 495.655v37.69L472 552.19l32.64-18.845v-37.69L472 476.81l-32.64 18.845zM472 474.5l34.64 20v40l-34.64 20-34.64-20v-40l34.64-20z"/>
      <path d="M436 540.31l-32.64 18.845v37.69L436 615.69l32.64-18.845v-37.69L436 540.31zm0-2.31l34.64 20v40L436 618l-34.64-20v-40L436 538z"/>
    </g>
    <path fill="#5C4EE5" d="M393.576 213.425l39.308 22.725v45.45l-39.308-22.725"/>
    <path fill="#4040B2" d="M437.152 236.15v45.45l39.308-22.725v-45.45"/>
    <path fill="#5C4EE5" d="M350 188v45.45l39.308 22.725v-45.45"/>
    <path fill="#5C4EE5" d="M393.576 309.275L432.884 332v-45.45l-39.308-22.725"/>
    <path stroke="url(#create-a)" d="M288.5 119.5l-.1 247.018" stroke-linecap="square"/>
    <path stroke="url(#create-a)" d="M59 274l206 116" stroke-linecap="square"/>
    <path stroke="url(#create-a)" d="M557 281l206 116" stroke-linecap="square"/>
    <path stroke="url(#create-a)" d="M531.333 1l-.103 337" stroke-linecap="square"/>
    <path stroke="url(#create-a)" d="M612 20L332 162.518" stroke-linecap="square"/>
    <path stroke="url(#create-a)" d="M470 356L102 561.79" stroke-linecap="square"/>
  </g>
</svg>
