<svg xmlns="http://www.w3.org/2000/svg" viewBox="0 0 894 317">
  <g fill="none" fill-rule="evenodd" transform="translate(0 1)">
    <path fill-rule="nonzero" stroke="#FFF" d="M646.4 75.6l-38.9 19.6v50.9l38.9 19.5 39-19.6V95.2zm42.1 74.8l-39 19.5v50.9l39 19.6 39-19.6v-50.9zm83.1 0l-39 19.5v50.9l38.9 19.6 39-19.6v-50.9zm-41.9-74.8l-39 19.6v50.9l38.9 19.5 39-19.6V95.2zm83.2 0l-39 19.6v50.9l39 19.5 38.9-19.6V95.2zM771.1.3l-39 19.6v50.9l39 19.5L810 70.7V19.9zm83.3 0l-39 19.6v50.9l39 19.5 38.9-19.6V19.9zM730.2 225l-39 19.6v50.9l39 19.5 38.9-19.6v-50.8z"/>
    <path fill="#FFF" fill-rule="nonzero" d="M406 204.8l-35.6-33.5h100V170h-52l41-36.8h68.9V132h-69.5l-42.3 38H0v1.3h368.5l37 34.8h172.4v-1.3"/>
    <circle cx="63.807" cy="170.602" r="10.701" fill="#FFF" fill-rule="nonzero" transform="rotate(-30 63.807 170.602)"/>
    <circle cx="310.02" cy="170.601" r="10.701" fill="#FFF" fill-rule="nonzero" transform="rotate(-30 310.02 170.6)"/>
    <circle cx="186.913" cy="170.601" r="10.701" fill="#FFF" fill-rule="nonzero" transform="rotate(-30 186.913 170.6)"/>
    <path fill="#FFF" fill-rule="nonzero" d="M485.1 158.3l-10.7 5.4v14l10.7 5.3 10.7-5.4v-13.9m96.7 29.4l-10.7 5.4v13.9l10.7 5.4 10.7-5.4v-14m-60.9-78.2l-10.7 5.4v14l10.7 5.4 10.7-5.4v-14m163.388-9.375l-3.375-1.125v-4.888l3.375 1v5.013m.887-5l3.375-1-.012 4.875-3.363 1.125v-5m2.687-1.537l-3.15-.976-3.112.976 3.113.837 3.15-.837m4.937 6.537l-3.375-1.125v-4.888l3.375 1v5.013m.888-5l3.375-1-.013 4.875-3.362 1.125v-5m2.687-1.537l-3.15-.976-3.113.976 3.113.837 3.15-.837m-24.85 8.674l-3.375-1v4.888l3.375 1.125v-5.012m.875 0l3.375-1-.012 4.875-3.363 1.124v-5m2.688-1.537l-3.15-.975-3.113.975 3.113.838 3.15-.838m4.95 6.537l-3.375-1.124v-4.888l3.375 1v5.013m.875-5l3.375-1-.013 4.875-3.363 1.124v-5m2.688-1.537l-3.15-.975-3.112.975 3.112.838 3.15-.838m-7.825 13.675l-3.375-1.125v-4.888l3.375 1v5.013m.875-5.013l3.375-1-.012 4.876-3.363 1.125v-5m2.7-1.525l-3.15-.975-3.112.975 3.112.837 3.15-.837m11.375 2.225h-.25c-.087 0-.212.062-.238.162l-.75 2.65-.75-2.65c-.024-.087-.1-.162-.212-.162h-.3c-.1 0-.187.087-.2.174l-.687 2.626-.713-2.625c-.025-.1-.15-.163-.237-.163h-.363c-.075 0-.15.038-.187.088-.025.037-.038.075-.025.112l1.112 3.913c.025.087.1.162.2.162h.35c.1 0 .175-.075.2-.175l.675-2.612.738 2.612c.025.075.1.163.2.163h.35c.1 0 .175-.063.2-.163l1.062-3.912c.013-.038 0-.075-.025-.113 0-.062-.075-.087-.15-.087m3.075 1.662h-1.875c.038-.525.388-1.075.963-1.1.612.025.9.562.912 1.1zm-.912-1.688c-1.263 0-1.85 1.125-1.85 2.163 0 1.3.712 2.137 1.824 2.137.8 0 1.4-.4 1.663-1.1.012-.037.012-.087-.012-.125-.026-.05-.076-.087-.138-.1l-.35-.062c-.1-.012-.2.038-.238.125-.175.388-.487.613-.875.625-.375-.012-.725-.237-.875-.575-.125-.275-.15-.538-.15-.813h2.55c.05 0 .113-.025.15-.062.038-.038.05-.075.05-.112-.012-1.026-.475-2.1-1.75-2.1zm4.887 2.163c0 .237-.038 1.437-.9 1.462-.288-.012-.575-.175-.738-.425-.112-.187-.187-.45-.2-.762v-.7c.013-.538.4-1.138.938-1.15.85.025.9 1.312.9 1.575zm-.762-2.2h-.063c-.425 0-.75.175-1 .537v-1.65c0-.087-.1-.175-.2-.175h-.363c-.1 0-.2.075-.2.175v5.15c0 .088.1.175.2.175h.113c.1 0 .175-.087.2-.162l.113-.363c.262.375.662.6 1.1.6h.062c1.125 0 1.637-1.1 1.637-2.187 0-.538-.137-1.063-.362-1.425-.3-.425-.763-.675-1.238-.675zm5.587 2.088c-.238-.175-.525-.225-.813-.288l-.55-.1c-.4-.062-.624-.175-.624-.525 0-.362.387-.512.7-.512.4.012.687.187.837.5.038.075.113.125.188.125h.037l.338-.075c.05-.013.112-.05.137-.1.025-.038.025-.088.013-.125-.213-.613-.75-.938-1.55-.938-.725 0-1.513.325-1.513 1.238 0 .625.388 1.012 1.163 1.175l.612.112c.338.063.688.175.688.538 0 .537-.625.587-.813.6-.425-.013-.9-.2-1.025-.6-.025-.088-.137-.15-.237-.125l-.363.075c-.05.012-.1.05-.137.1-.025.037-.025.087-.025.124.187.663.825 1.063 1.712 1.075h.025c.8 0 1.65-.337 1.65-1.3.038-.412-.137-.762-.45-.975m3.637-.362h-1.875c.038-.525.388-1.075.963-1.1.613.025.9.562.913 1.1zm-.912-1.688c-1.262 0-1.85 1.125-1.85 2.163 0 1.3.712 2.137 1.825 2.137.8 0 1.4-.4 1.663-1.1.012-.037.012-.087-.013-.125-.025-.05-.075-.087-.137-.1l-.35-.062c-.088-.012-.2.025-.238.125-.175.388-.488.613-.875.625-.375-.012-.725-.237-.875-.575-.125-.275-.15-.538-.15-.813h2.55c.05 0 .112-.025.15-.062.037-.038.05-.075.05-.112-.013-1.026-.475-2.1-1.75-2.1zm4.15.05c-.05 0-.1-.012-.15-.012-.425 0-.775.237-1.012.675v-.388c0-.1-.1-.175-.2-.175h-.313c-.1 0-.2.088-.2.175v3.775c0 .1.087.175.2.175h.375c.1 0 .2-.075.212-.175v-1.9c0-.312.025-.55.175-.825.213-.4.513-.6.913-.6.1 0 .187-.087.187-.187v-.35c0-.1-.087-.175-.187-.188m3.9-.075h-.288c-.087 0-.212.063-.237.163l-.95 2.987-.975-2.987c-.025-.1-.15-.162-.237-.162h-.425c-.075 0-.15.037-.188.087-.025.038-.037.075-.025.113l1.325 3.937c.025.075.088.175.2.175h.513c.087 0 .175-.062.2-.175l1.287-3.937c.013-.038 0-.075-.025-.113-.025-.062-.1-.087-.175-.087m.963-1.526c-.275 0-.488.226-.488.488 0 .275.225.488.487.488.275 0 .488-.226.488-.488.013-.262-.212-.487-.487-.487m.2 1.5h-.4c-.113 0-.213.087-.213.187v4.013c0 .05.025.1.063.137.037.037.087.05.137.05h.4c.113 0 .213-.088.213-.188V126.3c.012-.1-.088-.188-.2-.187m3.762 2.725h-.337c-.1 0-.175.062-.213.15-.125.525-.4.8-.825.812-.825-.025-.887-1.163-.887-1.512 0-.7.237-1.45.912-1.475.413.012.7.3.788.775.012.1.087.175.187.187h.363c.112-.012.187-.087.187-.187-.125-.863-.725-1.413-1.525-1.413H749c-1.163 0-1.675 1.088-1.675 2.15 0 .988.438 2.125 1.675 2.125h.063c.775 0 1.362-.55 1.525-1.425 0-.037-.013-.087-.038-.112-.012-.05-.075-.075-.15-.075m3.325-.988h-1.875c.038-.525.387-1.075.962-1.1.613.025.9.562.913 1.1zm-.925-1.688c-1.262 0-1.85 1.125-1.85 2.163 0 1.3.712 2.137 1.825 2.137.8 0 1.4-.4 1.663-1.1.012-.037.012-.087-.013-.125-.025-.05-.075-.087-.137-.1l-.35-.062c-.088-.012-.2.025-.238.125-.175.388-.488.613-.875.625-.375-.012-.725-.237-.875-.575-.125-.275-.15-.538-.15-.813h2.55c.05 0 .112-.025.15-.062.038-.038.05-.075.05-.112 0-1.026-.462-2.1-1.75-2.1zm4.95 2.05c-.237-.174-.525-.224-.813-.287l-.55-.1c-.4-.062-.624-.175-.624-.525 0-.475.587-.512.7-.512.4.012.687.187.837.5.038.075.113.125.188.125h.037l.338-.075c.05-.013.112-.05.137-.1.025-.038.025-.088.013-.125-.213-.613-.75-.938-1.55-.938-.725 0-1.513.325-1.513 1.238 0 .625.388 1.012 1.163 1.175l.612.112c.338.063.688.175.688.538 0 .537-.625.587-.813.6-.387-.013-.9-.175-1.025-.6-.025-.088-.137-.15-.237-.125l-.363.075c-.05.012-.1.05-.137.1-.025.037-.025.087-.025.124.187.663.825 1.063 1.712 1.075h.025c.8 0 1.65-.337 1.65-1.3.025-.412-.15-.762-.45-.975m-16.35-9.825v-.912c0-.137.1-.225.238-.225h4.087c.125 0 .237.1.237.225v.775c0 .125-.112.3-.312.575l-2.113 3.025c.788-.012 1.613.1 2.325.5.163.088.2.225.213.35v.975c0 .138-.15.288-.3.213-1.262-.663-2.925-.726-4.313.012-.137.075-.287-.075-.287-.213v-.924c0-.15 0-.4.15-.626l2.45-3.512h-2.137c-.138-.012-.238-.113-.238-.238m-14.9 5.688h-1.238c-.112-.013-.212-.1-.224-.213v-6.374c0-.126.112-.226.237-.226h1.163c.125.013.212.1.225.213v.838h.025c.3-.8.875-1.176 1.637-1.176.775 0 1.262.376 1.613 1.176.3-.8.987-1.176 1.712-1.176.525 0 1.087.213 1.438.7.4.538.312 1.313.312 2v4.026c0 .125-.112.225-.237.225h-1.238c-.125-.013-.225-.113-.225-.225v-3.375c0-.263.025-.938-.037-1.2-.088-.425-.375-.55-.725-.55-.3 0-.613.2-.738.525s-.113.862-.113 1.225v3.375c0 .125-.112.225-.237.225h-1.237c-.125-.013-.225-.113-.225-.225v-3.375c0-.713.112-1.763-.763-1.763-.887 0-.862 1.025-.862 1.763v3.375c-.025.112-.125.212-.263.212m22.975-5.65c-.913 0-.975 1.25-.975 2.025 0 .775-.013 2.437.962 2.437.963 0 1.013-1.337 1.013-2.162 0-.537-.025-1.175-.188-1.688-.137-.437-.425-.612-.812-.612zm-.013-1.3c1.838 0 2.838 1.587 2.838 3.6 0 1.95-1.1 3.488-2.837 3.488-1.813 0-2.8-1.588-2.8-3.55 0-2 1-3.538 2.8-3.538zm5.238 6.95h-1.238c-.124-.013-.224-.113-.224-.225v-6.375c.012-.112.112-.213.237-.213h1.15c.112 0 .2.075.225.175v.975h.025c.35-.875.837-1.287 1.687-1.287.563 0 1.1.2 1.45.75.326.512.326 1.362.326 1.987v4.013c-.013.112-.113.2-.238.2h-1.25c-.112-.013-.212-.088-.225-.2v-3.463c0-.7.088-1.712-.775-1.712-.3 0-.575.2-.712.512-.175.388-.2.775-.2 1.213v3.437c0 .113-.113.213-.238.213m-14.35-1.175c-.225-.313-.475-.575-.475-1.15v-1.938c0-.825.062-1.575-.55-2.137-.475-.463-1.263-.613-1.875-.613-1.188 0-2.5.438-2.775 1.9-.025.15.088.238.188.263l1.2.125c.112 0 .2-.112.212-.225.1-.5.525-.75 1-.75.25 0 .55.1.7.325.175.25.15.6.15.9v.163c-.725.074-1.662.137-2.337.424-.775.338-1.325 1.026-1.325 2.026 0 1.287.812 1.937 1.862 1.937.887 0 1.362-.213 2.05-.9.225.325.3.487.712.825.088.05.213.05.288-.025.25-.225.7-.612.95-.825.125-.075.112-.212.025-.325zm-2.438-.55c-.2.35-.512.563-.862.563-.475 0-.75-.363-.75-.9 0-1.063.95-1.25 1.85-1.25v.262c-.012.487 0 .887-.237 1.325zm-13.85.55c-.224-.313-.474-.575-.474-1.15v-1.938c0-.825.062-1.575-.55-2.137-.475-.463-1.263-.613-1.875-.613-1.188 0-2.5.438-2.775 1.9-.025.15.087.238.187.263l1.2.125c.113 0 .2-.112.213-.225.1-.5.525-.75 1-.75.25 0 .55.1.7.325.175.25.15.6.15.9v.163c-.725.074-1.663.137-2.338.424-.775.338-1.325 1.026-1.325 2.026 0 1.287.813 1.937 1.863 1.937.887 0 1.362-.213 2.05-.9.225.325.3.487.712.825.087.05.212.05.3-.025.25-.225.7-.612.95-.825.113-.075.1-.212.012-.325zm-2.437-.55c-.2.35-.512.563-.863.563-.474 0-.75-.363-.75-.9 0-1.063.95-1.25 1.85-1.25v.262c0 .487 0 .887-.237 1.325z"/>
    <g fill="#FFF" fill-rule="nonzero" transform="translate(616 100)">
      <circle cx="31.1" cy="14.1" r="4.1"/>
      <path d="M46.1 12.7l-3.6-6.2v-.1l-2.7-4.7C39.3.8 38.4.3 37.4.3H24.8c-1 0-1.9.6-2.4 1.4l-3.6 6.2 3.2 5.5 4.3-7.5h15c.5 0 .9.2 1.2.7h-6.3l4.3 7.5-4.7 8.2-2.8 4.8c-.2.4-.7.7-1.2.7l3.2-5.5h-8.7l-4.4-7.6-.4-.6-2.8-4.8c-.2-.4-.3-.9 0-1.4l-2.8 4.8c-.5.9-.5 1.9 0 2.7l6.3 11c.5.9 1.4 1.4 2.4 1.4h12.7c1 0 1.9-.6 2.4-1.4l6.3-11c.6-.9.6-1.9.1-2.7zM24.8 4.1c-.5 0-.8-.4-.8-.8 0-.5.4-.8.8-.8.5 0 .8.4.8.8s-.4.8-.8.8zm13-.1c-.4.2-.9.1-1.1-.3-.2-.4-.1-.9.3-1.1.4-.2.9-.1 1.1.3.2.3.1.8-.3 1.1zM19.1 14.6c-.2.4-.7.5-1.1.3-.4-.2-.5-.7-.3-1.1.2-.4.7-.5 1.1-.3.4.2.6.7.3 1.1zm6.1 11.3c-.4.2-.9.1-1.1-.3-.2-.4-.1-.9.3-1.1.4-.2.9-.1 1.1.3.2.3.1.8-.3 1.1zm12.2.1c-.5 0-.8-.4-.8-.8 0-.5.4-.8.8-.8.5 0 .8.4.8.8s-.3.8-.8.8zm7-11.4c-.2.4-.7.5-1.1.3-.4-.2-.5-.7-.3-1.1.2-.4.7-.5 1.1-.3.4.2.6.7.3 1.1zM26.9 33.4c-.5 0-.9.2-1.2.5-.3.3-.4.8-.4 1.3 0 .6.1 1 .4 1.3.3.3.7.5 1.2.5.3 0 .7 0 .9-.1v.2c-.3.1-.6.1-1 .1-.6 0-1-.2-1.3-.6-.3-.4-.5-.9-.5-1.5 0-.4.1-.8.2-1.1.2-.3.4-.6.7-.7.3-.2.6-.3 1-.3s.7.1 1.1.2l-.1.3c-.3-.1-.7-.1-1-.1m1.7-.5h.3v4.3h-.3zm1.3 2.8c0 .4.1.7.3 1 .2.2.4.3.8.3.3 0 .6-.1.8-.3.2-.2.3-.6.3-1s-.1-.7-.3-1c-.2-.2-.4-.3-.8-.3-.3 0-.6.1-.8.3-.2.3-.3.6-.3 1m2.4 0c0 .5-.1.9-.4 1.2-.2.3-.6.4-1 .4-.3 0-.5-.1-.7-.2-.2-.1-.4-.3-.5-.5-.1-.2-.2-.5-.2-.8 0-.5.1-.9.4-1.1.2-.3.6-.4 1-.4s.7.1 1 .4c.3.1.4.5.4 1m1-1.5v2c0 .3.1.5.2.7.1.1.3.2.6.2.4 0 .6-.1.8-.3.2-.2.3-.5.3-.9v-1.7h.3v3h-.2v-.4c-.2.3-.5.5-1 .5-.7 0-1-.4-1-1.1v-2zm4.2.2c-.3 0-.6.1-.7.3-.2.2-.2.6-.2 1 0 .9.3 1.3 1 1.3.3 0 .6-.1.7-.3.2-.2.2-.5.2-1s-.1-.8-.2-1c-.2-.2-.5-.3-.8-.3m0-.3c.2 0 .4 0 .6.1.2.1.3.2.4.4v-1.8h.3v4.3h-.2l-.1-.5c-.2.3-.6.5-1 .5s-.7-.1-1-.4c-.2-.3-.3-.6-.3-1.1 0-.5.1-.9.3-1.2.3-.1.6-.3 1-.3m4 1.2h.6c.5 0 .8-.1 1-.2.2-.2.3-.4.3-.7 0-.3-.1-.5-.3-.7-.2-.2-.5-.2-.9-.2h-.7v1.8zm2.1-1c0 .4-.1.7-.4.9-.3.2-.6.3-1.1.3h-.6v1.7h-.3v-4.1h1c1 .1 1.4.4 1.4 1.2zm.8-1.4h.3v4.3h-.3zm1.9 4.1c.3 0 .6-.1.8-.3.2-.2.3-.4.3-.8v-.3h-.5c-.4 0-.7.1-.9.2-.2.1-.3.3-.3.5s.1.3.2.4c.1.3.2.3.4.3zm1.1.2l-.1-.5c-.2.2-.3.3-.5.4-.2.1-.3.1-.6.1s-.5-.1-.7-.2c-.2-.2-.2-.4-.2-.6 0-.3.1-.5.4-.7.2-.2.6-.2 1.1-.3h.6v-.2c0-.3-.1-.5-.2-.6-.1-.1-.3-.2-.6-.2s-.6.1-.9.2l-.1-.2c.3-.2.7-.2 1-.2.3 0 .6.1.7.3.2.2.2.4.2.8v2h-.1v-.1zm2-.2h.5v.2c-.1 0-.3.1-.5.1-.3 0-.5-.1-.6-.2-.1-.1-.2-.4-.2-.7v-1.9h-.4v-.2l.4-.1.1-.7h.1v.7h.9v.2h-.9v1.9c0 .2 0 .4.1.5.2.2.3.2.5.2m2.1-2.6h-.7v2.8h-.3v-2.8H50v-.2l.6-.1v-.2c0-.4.1-.6.2-.8.1-.2.4-.3.7-.3.2 0 .3 0 .5.1l-.1.2c-.1 0-.3-.1-.4-.1-.2 0-.4.1-.5.2-.1.1-.1.3-.1.6v.3h.7v.3h-.1zm.7 1.3c0 .4.1.7.3 1 .2.2.4.3.8.3.3 0 .6-.1.8-.3.2-.2.3-.6.3-1s-.1-.7-.3-1c-.2-.2-.4-.3-.8-.3-.3 0-.6.1-.8.3-.2.3-.3.6-.3 1m2.4 0c0 .5-.1.9-.4 1.2-.2.3-.6.4-1 .4-.3 0-.5-.1-.7-.2-.2-.1-.4-.3-.5-.5-.1-.2-.2-.5-.2-.8 0-.5.1-.9.4-1.1.2-.3.6-.4 1-.4s.7.1 1 .4c.2.1.4.5.4 1m1.9-1.6h.4l-.1.3h-.4c-.3 0-.5.1-.6.3-.2.2-.2.5-.2.8v1.7h-.3v-3h.2v.5c.1-.2.3-.4.4-.5.2 0 .4-.1.6-.1m4.8 3.1v-2c0-.3-.1-.5-.2-.6-.1-.1-.3-.2-.5-.2-.3 0-.5.1-.7.3-.1.2-.2.4-.2.8v1.8h-.3v-2.1c0-.5-.2-.8-.7-.8-.3 0-.5.1-.7.3-.1.2-.2.5-.2.9v1.7h-.3v-3h.2l.1.4c.1-.1.2-.3.4-.3.2-.1.3-.1.5-.1.5 0 .8.2.9.5.1-.2.2-.3.4-.4.2-.1.4-.1.6-.1.3 0 .6.1.7.3.2.2.2.5.2.8v2h-.2v-.2zM16.6 36c.2-.2.2-.4.2-.5 0-.5-.3-1.4-.9-1.4-.2 0-.4.1-.5.2-.1.2-.2.4-.2.6 0 .5.3 1.3.9 1.3.1.1.3 0 .5-.2zm-.2 1.5h-.2c-.1 0-.5 0-.8.1-.2.1-.6.2-.6.8 0 .5.5.9 1.3.9.7 0 1.1-.3 1.1-.8 0-.4-.3-.6-.8-1zm.5-3.4c.2.1.5.4.5 1s-.3.8-.6 1.1c-.1.1-.2.2-.2.4s.1.3.2.3l.3.2c.3.3.6.5.6 1 0 .7-.7 1.4-2 1.4-1.1 0-1.6-.5-1.6-1.1 0-.3.1-.6.6-.9.5-.3 1.1-.3 1.4-.3-.1-.1-.2-.3-.2-.5 0-.1 0-.2.1-.3h-.2c-.8 0-1.2-.6-1.2-1.2 0-.3.2-.7.5-1 .4-.4.9-.4 1.3-.4h1.5l-.5.3h-.5zm-3.8 2.6c.2-.2.2-.5.2-.8 0-.7-.3-1.9-1.2-1.9-.2 0-.5.1-.7.3-.3.3-.3.6-.3.9 0 .7.4 2 1.3 2 .3-.1.6-.2.7-.5m-.9.6c-1.2 0-1.8-.9-1.8-1.8 0-1 .8-1.8 1.9-1.8 1.1 0 1.8.9 1.8 1.8s-.7 1.8-1.9 1.8m-3.1-.6c.2-.2.2-.5.2-.8 0-.7-.3-1.9-1.2-1.9-.2 0-.5.1-.7.3-.3.3-.3.6-.3.9 0 .7.4 2 1.3 2 .2-.1.5-.2.7-.5m-.9.6c-1.2 0-1.8-.9-1.8-1.8 0-1 .8-1.8 1.9-1.8 1.1 0 1.8.9 1.8 1.8s-.7 1.8-1.9 1.8"/>
      <path d="M19.2 37c-.2 0-.3-.1-.3-.4v-4.3c0-.3.1-.3.3-.4h-1.1l-.6.3h.6v4.6c0 .2 0 .2-.2.4h1.3l.3-.2h-.3m2.4-2.1c.1-.1.2-.1.2-.2 0-.3-.3-.6-.7-.6-.3 0-.9.2-.9 1v.4l1.4-.6zm.7 2.2c-.1 0-.2.1-.2.1-.2.1-.5.1-.7.1-.2 0-.6 0-1-.3-.5-.4-.8-1-.8-1.6 0-1.2.9-1.7 1.7-1.7.3 0 .5.1.8.2.4.2.5.6.5.7l-1.7.7h-.6c.2.9.8 1.5 1.5 1.5.4 0 .7-.1.9-.3l-.4.6zm-16.5.1l-1.1.2c-.4.1-.8.1-1.2.1-2.1 0-2.8-1.5-2.8-2.7 0-1.5 1.1-2.8 3-2.8.4 0 .8.1 1.1.2.6.2.8.4 1 .5l-.6.6-.3.1.2-.3c-.3-.2-.7-.7-1.6-.7-1.2 0-2.1.9-2.1 2.2 0 1.4 1 2.7 2.6 2.7.5 0 .7-.1.9-.2v-1.2l-1.1.1.6-.3H6l-.2.2c-.1 0-.1.1-.1.1v1.2h.1z"/>
    </g>
    <g fill="#FFF" fill-rule="nonzero">
      <path d="M799.9 105.5l10-1.4v9.6l-10 .1v-8.3zm10 9.4v9.7l-10-1.4v-8.3h10zm1.2-10.9l13.3-1.9v11.6l-13.3.1V104zm13.2 11v11.6l-13.3-1.9V115h13.3zm-33.9 21.7h-.7v-5.3c-.1.3-.1.5-.2.6l-2.1 4.6h-.3l-2-4.6c-.1-.1-.1-.3-.2-.6v5.3h-.7v-6h.9l1.8 4.2c.1.3.2.6.3.7.1-.3.2-.6.3-.8l1.9-4.2h.9v6.1h.1zm1.7-5.4c-.1 0-.2 0-.3-.1-.1-.1-.1-.2-.1-.3 0-.1 0-.2.1-.3.1-.1.2-.1.3-.1.1 0 .2 0 .3.1.1.1.1.2.1.3 0 .1 0 .2-.1.3-.1.1-.2.1-.3.1zm.3 5.4h-.7v-4.3h.7v4.3zm4.1-.2c-.3.2-.7.3-1.2.3-.6 0-1.1-.2-1.5-.6-.4-.4-.6-.9-.6-1.6 0-.7.2-1.3.6-1.7.5-.4 1-.6 1.7-.6.4 0 .7.1 1 .2v.7c-.3-.2-.6-.3-1-.3s-.8.2-1.1.5c-.3.3-.4.7-.4 1.2s.1.9.4 1.2c.3.3.6.4 1.1.4.4 0 .7-.1 1.1-.4l-.1.7zm3.1-3.4c-.1-.1-.3-.1-.5-.1-.3 0-.5.1-.8.4-.2.3-.3.6-.3 1.1v2.2h-.7v-4.3h.7v.9c.1-.3.2-.5.4-.7.2-.2.4-.2.7-.2.2 0 .3 0 .4.1l.1.6zm2.2 3.7c-.6 0-1.2-.2-1.5-.6-.3-.4-.6-.9-.6-1.6 0-.7.2-1.3.6-1.7.4-.4 1-.6 1.6-.6.6 0 1.2.2 1.5.6.4.4.5 1 .5 1.6 0 .6-.2 1.2-.6 1.6-.3.5-.8.7-1.5.7zm.1-3.9c-.4 0-.8.1-1.1.4-.3.3-.4.7-.4 1.3 0 .5.1.9.4 1.2.3.3.6.4 1.1.4.5 0 .8-.1 1-.4.2-.3.4-.7.4-1.2s-.1-1-.4-1.2c-.2-.4-.6-.5-1-.5zm2.7 3.7v-.8c.4.3.8.4 1.2.4.6 0 .9-.2.9-.6 0-.1 0-.2-.1-.3l-.2-.2c-.1-.1-.2-.1-.3-.2-.1 0-.2-.1-.4-.1-.2-.1-.3-.1-.5-.2-.1-.1-.3-.2-.4-.3-.1-.1-.2-.2-.2-.3 0-.1-.1-.3-.1-.4 0-.2 0-.4.1-.5l.3-.3c.2-.1.3-.2.5-.2.2-.1.4-.1.6-.1.4 0 .7.1 1 .2v.7c-.3-.2-.7-.3-1.1-.3h-.3c-.1 0-.2.1-.3.1-.1 0-.1.1-.2.2 0 .1-.1.2-.1.2 0 .1 0 .2.1.3l.2.2c.1.1.2.1.3.2.1 0 .2.1.4.2s.4.1.5.2c.1.1.3.2.4.3.1.1.2.2.2.3.1.1.1.3.1.4 0 .2 0 .4-.1.5-.1.2-.2.3-.4.4-.2.1-.3.2-.5.2s-.4.1-.6.1c-.3-.1-.7-.2-1-.3zm5.5.2c-.6 0-1.2-.2-1.5-.6-.3-.4-.6-.9-.6-1.6 0-.7.2-1.3.6-1.7.4-.4 1-.6 1.6-.6.6 0 1.2.2 1.5.6.4.4.5 1 .5 1.6 0 .6-.2 1.2-.6 1.6-.3.5-.9.7-1.5.7zm0-3.9c-.4 0-.8.1-1.1.4-.3.3-.4.7-.4 1.3 0 .5.1.9.4 1.2.3.3.6.4 1.1.4.5 0 .8-.1 1-.4.2-.3.4-.7.4-1.2s-.1-1-.4-1.2c-.2-.4-.5-.5-1-.5zm7.5.1v-.6h-1.1v-1.3l-.7.2v1.1H814v-.7c0-.6.2-.9.7-.9.2 0 .3 0 .4.1v-.6c-.1 0-.3-.1-.5-.1-.4 0-.7.1-1 .4-.3.3-.4.6-.4 1.1v.7h-.8v.6h.8v3.8h.7V133h1.9v2.6c0 .9.4 1.3 1.1 1.3.3 0 .5 0 .6-.1v-.6c-.1.1-.3.1-.4.1-.2 0-.4-.1-.5-.2-.1-.1-.1-.3-.1-.6V133h1.1zm7.6 3.7h-.8l-.6-1.7h-2.6l-.6 1.7h-.8l2.4-6h.7l2.3 6zm-1.6-2.3l-1-2.6c0-.1-.1-.2-.1-.4 0 .2-.1.3-.1.4l-.9 2.6h2.1z"/>
      <path d="M828.8 132.6l-2.6 3.5h2.5v.6h-3.5v-.2l2.6-3.5h-2.3v-.6h3.3m4.2 4.3h-.7v-.7c-.3.5-.7.8-1.3.8-1 0-1.5-.6-1.5-1.8v-2.6h.7v2.5c0 .9.3 1.4 1.1 1.4.3 0 .6-.1.8-.4.2-.2.3-.6.3-1v-2.5h.7l-.1 4.3zm3.4-3.6c-.1-.1-.3-.1-.5-.1-.3 0-.5.1-.8.4-.2.3-.3.6-.3 1.1v2.2h-.7v-4.3h.7v.9c.1-.3.2-.5.4-.7.2-.2.4-.2.7-.2.2 0 .3 0 .4.1l.1.6zm3.9 1.6h-3c0 .5.1.9.4 1.1.2.3.6.4 1 .4.5 0 .9-.2 1.3-.5v.6c-.4.3-.9.4-1.5.4s-1.1-.2-1.4-.6c-.3-.4-.5-1-.5-1.6 0-.6.2-1.2.6-1.6.4-.4.9-.6 1.4-.6.5 0 1 .2 1.3.5.3.4.5.9.5 1.5v.4h-.1zm-.7-.6c0-.4-.1-.7-.3-.9-.2-.2-.4-.3-.8-.3-.3 0-.6.1-.8.3-.2.2-.4.5-.4.9h2.3z"/>
    </g>
    <path fill="#FFF" fill-rule="nonzero" d="M772.3 199.2h5.4v.9h-5.4zm-7.9 0h5.4v.9h-5.4z"/>
    <path fill="#FFF" fill-rule="nonzero" d="M771.1 198.9c-.4 0-.8.4-.8.8s.4.8.8.8.8-.4.8-.8-.4-.8-.8-.8zm0 2.5c-.9 0-1.7-.7-1.7-1.7 0-.9.7-1.7 1.7-1.7.9 0 1.7.7 1.7 1.7 0 .9-.8 1.7-1.7 1.7z"/>
    <path fill="#FFF" fill-rule="nonzero" d="M770.6 196.2h.9v2.2h-.9zm-4.9-12.7h.9v1.1h-.9zm1.7 0h.9v1.1h-.9zm5.1.1h3.4v.9h-3.4zm-6.8 4.7h.9v1.1h-.9zm1.7 0h.9v1.1h-.9zm5.1 0h3.4v.9h-3.4zm-6.8 4.8h.9v1.1h-.9zm1.7 0h.9v1.1h-.9zm5.1.1h3.4v.9h-3.4z"/>
    <path stroke="#FFF" stroke-width="1.113" d="M762.9 181.7h16.2v4.8h-16.2z"/>
    <path stroke="#FFF" stroke-width="1.113" d="M762.9 186.4h16.2v4.8h-16.2zm0 4.9h16.2v4.8h-16.2z"/>
    <path fill="#FFF" fill-rule="nonzero" d="M751.5 210.5h1.4c.6 0 1.1.1 1.4.3.3.2.4.5.4.9 0 .3-.1.5-.2.7-.1.2-.3.3-.6.3.3.1.6.2.7.4.2.2.2.4.2.7 0 .4-.1.7-.4 1-.3.2-.7.3-1.2.3h-1.7v-4.6zm.8 1.9h.7c.3 0 .5 0 .7-.1.1-.1.2-.3.2-.5s-.1-.4-.2-.5c-.2-.1-.4-.1-.7-.1h-.6v1.2h-.1zm0 .6v1.5h.8c.3 0 .6-.1.7-.2.2-.1.2-.3.2-.6 0-.2-.1-.4-.2-.5-.2-.1-.4-.2-.7-.2h-.8zm6.6 2.1l-.5-1.3h-1.8l-.4 1.3h-.8l1.7-4.6h.8l1.7 4.6h-.7zm-.6-1.9l-.4-1.2c0-.1-.1-.2-.1-.4s-.1-.3-.1-.4c-.1.3-.1.5-.2.8l-.4 1.2h1.2zm3.1 0v1.8h-.8v-4.6h1.3c.6 0 1 .1 1.3.3.3.2.4.6.4 1 0 .6-.3 1-.9 1.2l1.3 2h-.9l-1.1-1.8h-.6v.1zm0-.6h.5c.3 0 .6-.1.8-.2.2-.1.2-.3.2-.6s-.1-.4-.3-.6c-.2-.1-.4-.2-.8-.2h-.5v1.6h.1zm6.3 2.5h-2.6v-4.6h2.6v.6h-1.8v1.2h1.7v.6h-1.7v1.4h1.8m3.3.8l-1.3-3.8c0 .6.1 1.1.1 1.6v2.2h-.8v-4.6h1.1l1.3 3.6 1.3-3.6h1.1v4.6h-.8v-3.9l-1.4 3.8h-.6v.1zm6.8 0h-2.6v-4.6h2.6v.6H776v1.2h1.7v.6H776v1.4h1.8m2.9.8h-.7v-3.9h-1.3v-.6h3.4v.6h-1.3v3.9m5.1 0l-.5-1.3h-1.8l-.4 1.3h-.8l1.7-4.6h.8l1.7 4.6h-.7zm-.6-1.9l-.4-1.2c0-.1-.1-.2-.1-.4s-.1-.3-.1-.4c-.1.3-.1.5-.2.8l-.4 1.2h1.2zm2.4 1.9v-4.6h.8v3.9h1.9v.6h-2.7"/>
    <g fill="#FFF" fill-rule="nonzero">
      <path d="M673.1 212.8c0 2.2-1.1 2.9-2 2.9-1.1 0-2-.9-2-2.9s1-2.9 2-2.9c1.1 0 2 .9 2 2.9zm-3 0c0 .9.2 2.2 1.1 2.2.8 0 1-1.3 1-2.2 0-.9-.2-2.2-1-2.2-1 0-1.1 1.3-1.1 2.2zm4.1-1.1c0-.9 0-1.4-.1-1.8h.9l.1.7c.3-.6.8-.8 1.3-.8 1.1 0 1.8 1 1.8 2.9 0 2.1-.9 2.9-1.9 2.9-.6 0-.9-.3-1.1-.7v2.8h-1v-6zm.9 1.8c0 .2 0 .3.1.5.2.8.6.9.9.9.8 0 1.1-1 1.1-2.1 0-1.2-.3-2.1-1.1-2.1-.4 0-.8.5-.9 1v1.8h-.1zm4.8-.6c0 1.7.7 2.1 1.4 2.1.4 0 .8-.1 1-.2l.2.6c-.3.2-.9.3-1.3.3-1.5 0-2.2-1.1-2.2-2.8 0-1.8.8-2.9 2.1-2.9 1.2 0 1.7 1.2 1.7 2.5v.5h-2.9v-.1zm1.9-.7c0-1.1-.4-1.6-.9-1.6-.6 0-1 .8-1 1.6h1.9zm1.9-.8c0-.7 0-1-.1-1.4h.8l.1.7c.3-.5.8-.8 1.4-.8.8 0 1.5.6 1.5 1.9v3.8h-1V212c0-.7-.1-1.3-.8-1.3-.4 0-.8.3-.9.9v4h-1v-4.2zm5 3.3c.2.1.6.3 1 .3.5 0 .9-.3.9-.8 0-.4-.2-.7-.8-1.1-.8-.5-1.2-1-1.2-1.6 0-.9.7-1.6 1.7-1.6.5 0 .8.2 1.1.3l-.3.7c-.2-.2-.5-.3-.8-.3-.5 0-.8.3-.8.7 0 .4.2.6.8 1 .7.4 1.3.9 1.3 1.7 0 1.1-.8 1.7-1.8 1.7-.4 0-.9-.1-1.2-.3l.1-.7zm4.9-6v1.3h1.2v.7h-1.2v3.3c0 .7.3.9.6.9h.4l.1.7c-.2.1-.4.1-.7.1-.4 0-.7-.1-1-.3-.3-.3-.4-.6-.4-1.4v-3.3h-.7v-.7h.7v-1l1-.3zm5.3 5.6c0 .4 0 .9.1 1.3h-.9l-.1-.6c-.3.4-.7.7-1.2.7-.8 0-1.4-.6-1.4-1.6 0-1.4 1.2-2 2.6-2v-.2c0-.8-.2-1.3-1-1.3-.4 0-.7.1-1 .3l-.2-.6c.3-.2.8-.4 1.4-.4 1.2 0 1.7.7 1.7 2v2.4zm-1-1.6c-.5 0-1.7.1-1.7 1.3 0 .7.4 1 .7 1 .4 0 .8-.3.9-.8v-1.5h.1zm5.3 2.7c-.2.1-.6.2-1 .2-1.3 0-2.2-1-2.2-2.8 0-1.6.9-2.9 2.4-2.9.3 0 .7.1.9.2l-.2.7c-.1-.1-.4-.2-.7-.2-1 0-1.4 1.1-1.4 2.2 0 1.3.5 2.1 1.4 2.1.3 0 .5 0 .7-.2l.1.7zm1.8-2.8c.1-.2.2-.4.4-.6l1.2-2h1l-1.6 2.4 1.8 3.2h-1.1l-1.3-2.6-.4.5v2.1h-1v-8h1v5zm-31.3-26.7l3.5 3.2c.1-.1.2-.1.3-.2l.7-.1 1.3-.1 1.3-.1.7-.1c.2.1.5.2.7.3l-1.2-1.1 1.2-.1v-1c0-.5.4-.9.9-.9l10.2-.9v7.7l1.1 1.1-.8.1 3.1 3.1 4.9-.4-.8-.8 1.1-.1v-8.3c-.2.2-.4.3-.6.4l-.7.1-1.3.1-1.3.1-.7.1c-.1 0-.2-.1-.3-.1l-.3-.1s-.1 0-.1-.1l-3.1-2.8h.5l2.9 2.7c.1-.1.2-.1.3-.2l.7-.1 1.3-.1 1.3-.1.7-.1c.2.1.5.2.7.3l-1.1-1.1 1.2-.1v-5.5c-.1-.5-.4-1-.9-1.2-.2-.1-.5-.1-.7-.1l-.8.2-3.2.3-6.5.6-6.5.6-3.2.3h-1.6c-.5 0-1 .3-1.3.7.2-.5.7-.9 1.3-1.1l1.6-.3 3.2-.3 6.5-.6 6.5-.6 3.2-.3h.8c.2 0 .4 0 .5.1l-2.8-2.8-.1-.1h-.1s-.1 0-.1-.1h-.8l-21.7 1.9h-.2c-.1 0-.2.1-.4.1h-.2c-.1 0-.1.1-.2.1 0 0-.1 0-.1.1l-.1.1-.1.1-.1.1v6.3l1.2 1.1-1.4.1z"/>
      <path d="M680.8 189.3l-1.3.1-1.3.1-.7.1c-.2-.1-.3-.1-.5-.2-.1 0-.1-.1-.2-.1l-3.5-3.2v8.1l1.1 1.1-1 .1 3.3 3.2v-.1l5.6-.5v1.6c0 .1 0 .2.1.3.1.1.2.1.3.1l12.9-1.1c.3 0 .5-.3.5-.6V197l-3.1-3.1v1.3l-.1.1s-.1 0-.1.1c-.1 0-.1.1-.2.1h-.1l-10.3.9v-7.8c-.2.2-.4.3-.6.4l-.8.3z"/>
      <path d="M697 197.4v.9c0 .7-.5 1.2-1.2 1.3l-12.9 1.1h-.1c-.3 0-.6-.1-.8-.3-.2-.2-.4-.5-.4-.9v-.8l-4.8.4-3.5-3.4v6.2l.1.1.1.1 3.5 3.4.1.1.1.1s.1 0 .1.1c0 0 .1 0 .1.1h.5l21.7-1.9c.9-.1 1.7-.9 1.7-1.8v-5.3l-4.3.5zm-20.1 7.2v-.2.2zm0 .3c0-.1 0-.1 0 0 0-.1 0-.1 0 0zm.1.3s0-.1 0 0c0-.1 0-.1 0 0 0-.1 0-.1 0 0 0-.1 0 0 0 0zm.1.1c0-.1 0-.1 0 0z"/>
    </g>
  </g>
</svg>
