<?xml version="1.0" encoding="utf-8"?>
<!-- Generator: Adobe Illustrator 19.2.1, SVG Export Plug-In . SVG Version: 6.00 Build 0)  -->
<svg version="1.1" id="Layer_1" xmlns="http://www.w3.org/2000/svg" xmlns:xlink="http://www.w3.org/1999/xlink" x="0px" y="0px"
	 viewBox="0 0 915.7 336.9" style="enable-background:new 0 0 915.7 336.9;" xml:space="preserve">
<style type="text/css">
	.st0{fill:#822FF7;stroke:#FFFFFF;stroke-miterlimit:10;}
	.st1{fill:#FFFFFF;}
	.st2{fill:none;stroke:#FFFFFF;stroke-width:1.1135;stroke-miterlimit:10;}
	.st3{font-family:'OpenSans-Semibold';}
	.st4{font-size:6.4259px;}
	.st5{fill:url(#SVGID_1_);}
	.st6{fill:url(#SVGID_2_);}
	.st7{fill:url(#SVGID_3_);}
	.st8{fill:url(#SVGID_4_);}
	.st9{fill:url(#SVGID_5_);}
	.st10{fill:url(#SVGID_6_);}
	.st11{fill:url(#SVGID_7_);}
	.st12{fill:url(#SVGID_8_);}
	.st13{fill:url(#SVGID_9_);}
</style>
<polygon id="_x3C_Orig_x3E__362_" class="st0" points="649.4,90.6 610.5,110.2 610.5,161.1 649.4,180.6 688.4,161 688.4,110.2 "/>
<polygon id="_x3C_Orig_x3E__3_" class="st0" points="691.5,165.4 652.5,184.9 652.5,235.8 691.5,255.4 730.5,235.8 730.5,184.9 "/>
<polygon id="_x3C_Orig_x3E__4_" class="st0" points="774.6,165.4 735.6,184.9 735.6,235.8 774.5,255.4 813.5,235.8 813.5,184.9 "/>
<polygon id="_x3C_Orig_x3E__1_" class="st0" points="732.7,90.6 693.7,110.2 693.7,161.1 732.6,180.6 771.6,161 771.6,110.2 "/>
<polygon id="_x3C_Orig_x3E__2_" class="st0" points="815.9,90.6 776.9,110.2 776.9,161.1 815.9,180.6 854.8,161 854.8,110.2 "/>
<polygon id="_x3C_Orig_x3E__5_" class="st0" points="774.1,15.3 735.1,34.9 735.1,85.8 774.1,105.3 813,85.7 813,34.9 "/>
<polygon id="_x3C_Orig_x3E__8_" class="st0" points="857.4,15.3 818.4,34.9 818.4,85.8 857.4,105.3 896.3,85.7 896.3,34.9 "/>
<polygon id="_x3C_Orig_x3E__6_" class="st0" points="733.2,240 694.2,259.6 694.2,310.5 733.2,330 772.1,310.4 772.1,259.6 "/>
<g id="g10" transform="matrix(1.25,0,0,-1.25,0,217.5)">
	<g id="g12" transform="scale(0.1,0.1)">
		<path id="path14" class="st1" d="M5768.6,698.9l-25.1,8.4v36.3l25.1-7.4L5768.6,698.9"/>
		<path id="path16" class="st1" d="M5775.2,736.1l25.1,7.4l-0.1-36.3l-25-8.4V736.1"/>
		<path id="path18" class="st1" d="M5795.2,747.5l-23.4,7.2l-23.1-7.2l23.1-6.2L5795.2,747.5"/>
		<path id="path20" class="st1" d="M5831.9,698.9l-25.1,8.4v36.3l25.1-7.4L5831.9,698.9"/>
		<path id="path22" class="st1" d="M5838.4,736.1l25.1,7.4l-0.1-36.3l-25-8.4V736.1"/>
		<path id="path24" class="st1" d="M5858.5,747.5l-23.4,7.2l-23.1-7.2l23.1-6.2L5858.5,747.5"/>
		<path id="path26" class="st1" d="M5673.7,683.1l-25.1,7.4v-36.3l25.1-8.4L5673.7,683.1"/>
		<path id="path28" class="st1" d="M5680.2,683.1l25.1,7.4l-0.1-36.3l-25-8.4V683.1"/>
		<path id="path30" class="st1" d="M5700.2,694.5l-23.4,7.2l-23.1-7.2l23.1-6.2L5700.2,694.5"/>
		<path id="path32" class="st1" d="M5737,645.9l-25.1,8.4v36.3l25.1-7.4L5737,645.9"/>
		<path id="path34" class="st1" d="M5743.5,683.1l25.1,7.4l-0.1-36.3l-25-8.4V683.1"/>
		<path id="path36" class="st1" d="M5763.5,694.5l-23.4,7.2l-23.1-7.2l23.1-6.2L5763.5,694.5"/>
		<path id="path38" class="st1" d="M5705.3,592.8l-25.1,8.4v36.3l25.1-7.4L5705.3,592.8"/>
		<path id="path40" class="st1" d="M5711.9,630.1l25.1,7.4l-0.1-36.3l-25-8.4V630.1"/>
		<path id="path42" class="st1" d="M5731.9,641.4l-23.4,7.2l-23.1-7.2l23.1-6.2L5731.9,641.4"/>
		<path id="path44" class="st1" d="M5816.5,624.9l-1.8,0c-0.7,0-1.5-0.5-1.8-1.2l-5.6-19.7l-5.5,19.7c-0.2,0.6-0.7,1.2-1.5,1.2h-2.2
			c-0.8,0-1.4-0.6-1.5-1.3l-5.2-19.5l-5.3,19.5c-0.2,0.7-1.1,1.2-1.8,1.2l-2.7,0c-0.6,0-1.1-0.2-1.4-0.6c-0.2-0.3-0.2-0.6-0.2-0.8
			l8.2-29.1c0.2-0.6,0.7-1.2,1.5-1.2h2.6c0.7,0,1.3,0.5,1.5,1.3l5.1,19.4l5.5-19.4c0.2-0.6,0.7-1.2,1.5-1.2h2.6
			c0.7,0,1.3,0.5,1.5,1.2l7.9,29.1c0.1,0.3,0,0.6-0.1,0.9C5817.6,624.7,5817,624.9,5816.5,624.9"/>
		<path id="path46" class="st1" d="M5839.3,612.5h-14c0.3,3.9,2.9,8,7.2,8.1C5837.1,620.5,5839.2,616.6,5839.3,612.5z M5832.5,625.1
			c-9.4,0-13.7-8.3-13.7-16.1c0-9.7,5.3-15.9,13.6-15.9c5.9,0,10.4,3,12.4,8.2c0.1,0.3,0.1,0.6-0.1,0.9c-0.2,0.4-0.6,0.6-1,0.7
			l-2.6,0.5c-0.7,0.1-1.5-0.3-1.8-0.9c-1.3-2.9-3.6-4.5-6.5-4.6c-2.8,0.1-5.4,1.7-6.5,4.2c-1,2-1.1,4-1.1,6.1l18.9,0
			c0.4,0,0.8,0.2,1.1,0.5c0.2,0.2,0.4,0.5,0.4,0.9C5845.5,617.1,5842,625.1,5832.5,625.1"/>
		<path id="path48" class="st1" d="M5868.8,609c0-1.8-0.3-10.7-6.6-10.9c-2.1,0.1-4.3,1.3-5.5,3.2c-0.9,1.4-1.4,3.3-1.5,5.7v5.2
			c0.1,4,2.9,8.4,7,8.6C5868.5,620.5,5868.8,610.9,5868.8,609L5868.8,609z M5863.2,625.4h-0.5c-3.1,0-5.6-1.3-7.5-4l0,12.3
			c0,0.7-0.7,1.3-1.5,1.3h-2.7c-0.7,0-1.5-0.6-1.5-1.3v-38.3c0-0.7,0.7-1.3,1.5-1.3l0.8,0c0.8,0,1.3,0.6,1.5,1.2l0.9,2.7
			c2-2.8,5-4.5,8.2-4.5h0.5c8.4,0,12.2,8.2,12.2,16.3c0,4-1,7.9-2.7,10.6C5870.2,623.5,5866.7,625.4,5863.2,625.4"/>
		<path id="path50" class="st1" d="M5904.8,609.9c-1.8,1.3-3.9,1.7-6,2.1l-4.1,0.8c-2.9,0.5-4.6,1.3-4.6,3.9c0,2.7,2.8,3.8,5.2,3.9
			c2.9-0.1,5.1-1.4,6.2-3.7c0.3-0.5,0.8-0.9,1.4-0.9c0.1,0,0.2,0,0.3,0l2.6,0.6c0.4,0.1,0.8,0.4,1,0.7c0.2,0.3,0.2,0.6,0.1,0.9
			c-1.6,4.6-5.5,7-11.5,7c-5.4,0-11.2-2.4-11.2-9.2c0-4.6,2.9-7.5,8.6-8.7l4.6-0.9c2.5-0.5,5.1-1.3,5.1-4c0-4-4.7-4.4-6.1-4.4
			c-3.2,0.1-6.7,1.5-7.6,4.5c-0.2,0.7-1,1.1-1.7,1l-2.7-0.6c-0.4-0.1-0.8-0.3-1-0.7c-0.2-0.3-0.2-0.6-0.1-0.9
			c1.4-4.9,6.2-7.9,12.8-8l0.1,0c5.9,0,12.2,2.5,12.2,9.6C5908.3,605.7,5907,608.2,5904.8,609.9"/>
		<path id="path52" class="st1" d="M5931.8,612.5h-14c0.3,3.9,2.9,8,7.2,8.1C5929.6,620.5,5931.7,616.5,5931.8,612.5z M5925,625.1
			c-9.4,0-13.7-8.3-13.7-16.1c0-9.7,5.3-15.9,13.6-15.9c5.9,0,10.4,3,12.4,8.2c0.1,0.3,0.1,0.6-0.1,0.9c-0.2,0.4-0.6,0.6-1,0.7
			l-2.6,0.5c-0.6,0.1-1.5-0.2-1.8-0.9c-1.3-2.9-3.6-4.5-6.5-4.6c-2.8,0.1-5.4,1.8-6.5,4.2c-1,2-1.1,4-1.1,6.1l18.9,0
			c0.4,0,0.8,0.2,1.1,0.5c0.2,0.2,0.4,0.5,0.4,0.9C5937.9,617,5934.5,625.1,5925,625.1"/>
		<path id="path54" class="st1" d="M5955.9,624.7c-0.4,0-0.7,0.1-1.1,0.1c-3.2,0-5.8-1.7-7.6-5l0,2.9c0,0.7-0.7,1.3-1.5,1.3h-2.4
			c-0.8,0-1.5-0.6-1.5-1.3l0-28.1c0-0.7,0.7-1.3,1.5-1.3l2.8,0c0.7,0,1.5,0.6,1.5,1.3l0,14.2c0,2.3,0.2,4.1,1.3,6.2
			c1.6,3,3.8,4.4,6.8,4.4c0.7,0,1.4,0.7,1.4,1.4v2.6C5957.2,624,5956.6,624.7,5955.9,624.7"/>
		<path id="path56" class="st1" d="M5984.9,625.3l-2.2,0c-0.7,0-1.6-0.5-1.8-1.2l-7.1-22.2l-7.2,22.2c-0.2,0.7-1.1,1.2-1.8,1.2
			l-3.1,0c-0.6,0-1.1-0.3-1.4-0.6c-0.2-0.3-0.2-0.6-0.1-0.8l9.9-29.3c0.2-0.6,0.7-1.3,1.5-1.3h3.8c0.7,0,1.3,0.5,1.5,1.3l9.6,29.3
			c0.1,0.3,0,0.6-0.1,0.8C5986,625,5985.4,625.3,5984.9,625.3"/>
		<path id="path58" class="st1" d="M5992,636.6c-2,0-3.6-1.6-3.6-3.7c0-2,1.6-3.7,3.6-3.7c2,0,3.6,1.6,3.6,3.7
			C5995.7,634.9,5994,636.6,5992,636.6"/>
		<path id="path60" class="st1" d="M5993.5,625.5l-3,0c-0.8,0-1.6-0.7-1.6-1.4l0-29.8c0-0.4,0.2-0.7,0.5-1c0.3-0.2,0.7-0.4,1.1-0.4
			l3,0h0c0.8,0,1.6,0.6,1.6,1.4v29.8C5995.1,624.8,5994.4,625.5,5993.5,625.5"/>
		<path id="path62" class="st1" d="M6021.5,605.2l-2.5,0c-0.7,0-1.3-0.4-1.5-1.1c-0.9-3.9-3-6-6.1-6.1c-6.1,0.2-6.6,8.7-6.6,11.3
			c0,5.2,1.8,10.8,6.8,10.9c3-0.1,5.2-2.3,5.9-5.8c0.1-0.7,0.7-1.3,1.4-1.4l2.7,0c0.8,0.1,1.4,0.7,1.4,1.4
			c-0.9,6.4-5.4,10.5-11.3,10.5l-0.2,0l-0.2,0c-8.6,0-12.5-8-12.5-16c0-7.3,3.3-15.8,12.4-15.8h0.4c5.8,0,10.1,4,11.4,10.6
			c0,0.3-0.1,0.6-0.3,0.9C6022.4,605,6022,605.2,6021.5,605.2"/>
		<path id="path64" class="st1" d="M6046.1,612.5h-14c0.3,3.9,2.9,8,7.2,8.1C6043.9,620.5,6046,616.5,6046.1,612.5z M6039.3,625.1
			c-9.4,0-13.7-8.3-13.7-16.1c0-9.7,5.3-15.9,13.6-15.9c5.9,0,10.4,3,12.4,8.2c0.1,0.3,0.1,0.6-0.1,0.9c-0.2,0.4-0.6,0.6-1,0.7
			l-2.6,0.5c-0.6,0.1-1.5-0.2-1.8-0.9c-1.3-2.9-3.6-4.5-6.5-4.6c-2.8,0.1-5.4,1.8-6.5,4.2c-1,2-1.1,4-1.1,6.1l18.9,0
			c0.4,0,0.8,0.2,1.1,0.5c0.2,0.2,0.4,0.6,0.4,0.9C6052.3,617,6048.8,625.1,6039.3,625.1"/>
		<path id="path66" class="st1" d="M6076.1,609.9c-1.8,1.3-3.9,1.7-6,2.1l-4.1,0.8c-2.9,0.5-4.6,1.3-4.6,3.9c0,3.5,4.4,3.8,5.2,3.9
			c2.9-0.1,5.2-1.4,6.2-3.7c0.3-0.5,0.8-0.9,1.4-0.9c0.1,0,0.2,0,0.3,0l2.6,0.6c0.4,0.1,0.8,0.4,1,0.7c0.2,0.3,0.2,0.6,0.1,0.9
			c-1.6,4.6-5.5,7-11.5,7c-5.4,0-11.2-2.4-11.2-9.2c0-4.6,2.9-7.5,8.6-8.7l4.6-0.9c2.5-0.5,5.1-1.3,5.1-4c0-4-4.7-4.4-6.1-4.4
			c-2.9,0.1-6.7,1.3-7.6,4.5c-0.2,0.7-1,1.1-1.7,1l-2.7-0.6c-0.4-0.1-0.8-0.3-1-0.7c-0.2-0.3-0.2-0.6-0.1-0.9
			c1.4-4.9,6.1-7.9,12.8-8l0.1,0c5.9,0,12.2,2.5,12.2,9.6C6079.6,605.7,6078.3,608.2,6076.1,609.9"/>
		<path id="path68" class="st1" d="M5954.5,682.9v6.8c0,1,0.8,1.7,1.7,1.7l30.4,0c1,0,1.8-0.7,1.8-1.7v-5.8c0-1-0.8-2.2-2.3-4.3
			l-15.7-22.4c5.8,0.1,12-0.7,17.3-3.7c1.2-0.7,1.5-1.7,1.6-2.6v-7.2c0-1-1.1-2.1-2.2-1.5c-9.3,4.9-21.7,5.4-32.1-0.1
			c-1.1-0.6-2.2,0.6-2.2,1.6v6.9c0,1.1,0,3,1.1,4.7l18.2,26.1l-15.9,0C5955.3,681.2,5954.5,681.9,5954.5,682.9"/>
		<path id="path70" class="st1" d="M5843.8,640.6h-9.2c-0.9,0.1-1.6,0.7-1.6,1.6l0,47.4c0,0.9,0.8,1.7,1.8,1.7l8.6,0
			c0.9-0.1,1.6-0.7,1.7-1.6v-6.2h0.2c2.2,6,6.5,8.8,12.2,8.8c5.8,0,9.4-2.8,12-8.8c2.2,6,7.3,8.8,12.8,8.8c3.9,0,8.1-1.6,10.7-5.2
			c2.9-4,2.3-9.8,2.3-14.9l0-29.9c0-0.9-0.8-1.7-1.8-1.7h-9.2c-0.9,0.1-1.7,0.8-1.7,1.7v25.1c0,2,0.2,7-0.3,8.9
			c-0.7,3.2-2.8,4.1-5.4,4.1c-2.2,0-4.6-1.5-5.5-3.9c-0.9-2.4-0.9-6.4-0.9-9.1v-25.1c0-0.9-0.8-1.7-1.8-1.7h-9.2
			c-0.9,0.1-1.7,0.8-1.7,1.7l0,25.1c0,5.3,0.9,13.1-5.7,13.1c-6.6,0-6.4-7.6-6.4-13.1l0-25.1
			C5845.6,641.4,5844.8,640.6,5843.8,640.6"/>
		<path id="path72" class="st1" d="M6014.6,682.6c-6.8,0-7.2-9.3-7.2-15.1c0-5.8-0.1-18.1,7.2-18.1c7.2,0,7.5,10,7.5,16.1
			c0,4-0.2,8.8-1.4,12.6C6019.6,681.3,6017.5,682.6,6014.6,682.6z M6014.5,692.3c13.7,0,21.1-11.8,21.1-26.7
			c0-14.5-8.2-25.9-21.1-25.9c-13.4,0-20.8,11.8-20.8,26.4C5993.7,680.8,6001.1,692.3,6014.5,692.3"/>
		<path id="path74" class="st1" d="M6053.4,640.6h-9.2c-0.9,0.1-1.7,0.8-1.7,1.7l0,47.4c0.1,0.9,0.8,1.5,1.8,1.5l8.6,0
			c0.8,0,1.5-0.6,1.6-1.3v-7.3h0.2c2.6,6.5,6.2,9.6,12.6,9.6c4.1,0,8.2-1.5,10.8-5.6c2.4-3.8,2.4-10.2,2.4-14.8v-29.8
			c-0.1-0.8-0.9-1.5-1.8-1.5h-9.3c-0.9,0.1-1.5,0.7-1.6,1.5v25.7c0,5.2,0.6,12.8-5.8,12.8c-2.2,0-4.3-1.5-5.3-3.8
			c-1.3-2.9-1.5-5.8-1.5-9v-25.5C6055.1,641.4,6054.3,640.6,6053.4,640.6"/>
		<path class="st1" d="M5946.8,649.3c-1.7,2.3-3.5,4.2-3.5,8.6v14.4c0,6.1,0.4,11.7-4.1,15.9c-3.5,3.4-9.4,4.6-13.9,4.6
			c-8.8,0-18.6-3.3-20.6-14.1c-0.2-1.2,0.6-1.8,1.4-1.9l8.9-1c0.8,0,1.4,0.9,1.6,1.7c0.8,3.7,3.9,5.5,7.4,5.5c1.9,0,4.1-0.7,5.2-2.4
			c1.3-1.9,1.1-4.5,1.1-6.7v-1.2c-5.4-0.6-12.4-1-17.4-3.2c-5.8-2.5-9.8-7.6-9.8-15.1c0-9.6,6-14.4,13.8-14.4
			c6.6,0,10.2,1.5,15.2,6.7c1.7-2.4,2.2-3.6,5.3-6.2c0.7-0.4,1.6-0.3,2.2,0.2l0,0c1.8,1.6,5.2,4.6,7.1,6.1
			C5947.5,647.5,5947.4,648.5,5946.8,649.3z M5928.6,653.5c-1.5-2.6-3.8-4.2-6.4-4.2c-3.5,0-5.6,2.7-5.6,6.7c0,7.9,7.1,9.3,13.7,9.3
			v-2C5930.3,659.6,5930.4,656.6,5928.6,653.5z"/>
		<path class="st1" d="M5825.7,649.3c-1.7,2.3-3.5,4.2-3.5,8.6v14.4c0,6.1,0.4,11.7-4.1,15.9c-3.5,3.4-9.4,4.6-13.9,4.6
			c-8.8,0-18.6-3.3-20.6-14.1c-0.2-1.2,0.6-1.8,1.4-1.9l9-1c0.8,0,1.4,0.9,1.6,1.7c0.8,3.7,3.9,5.5,7.4,5.5c1.9,0,4.1-0.7,5.2-2.4
			c1.3-1.9,1.1-4.5,1.1-6.7v-1.2c-5.4-0.6-12.4-1-17.4-3.2c-5.8-2.5-9.8-7.6-9.8-15.1c0-9.6,6-14.4,13.8-14.4
			c6.6,0,10.2,1.5,15.2,6.7c1.7-2.4,2.2-3.6,5.3-6.2c0.7-0.4,1.6-0.3,2.2,0.2l0,0c1.8,1.6,5.2,4.6,7.1,6.1
			C5826.4,647.5,5826.3,648.5,5825.7,649.3z M5807.5,653.5c-1.5-2.6-3.8-4.2-6.4-4.2c-3.5,0-5.6,2.7-5.6,6.7c0,7.9,7.1,9.3,13.7,9.3
			v-2C5809.3,659.6,5809.3,656.6,5807.5,653.5z"/>
	</g>
</g>
<g>
	<circle class="st1" cx="650.9" cy="128.3" r="3.7"/>
	<path class="st1" d="M664.5,127l-3.2-5.6c0,0,0,0,0-0.1l-2.5-4.3c-0.5-0.8-1.3-1.2-2.2-1.2h-11.5c-0.9,0-1.7,0.5-2.2,1.2l-3.2,5.6
		l0,0l2.9,5l4-6.9l13.7,0c0.4,0,0.8,0.2,1.1,0.6h-5.8l4,6.9l-4.3,7.5h0l-2.5,4.4c-0.2,0.4-0.6,0.6-1.1,0.6l2.9-5h-7.9l-4-6.9l0,0
		l-0.3-0.6l0,0l-2.5-4.4c-0.2-0.4-0.2-0.8,0-1.2l-2.5,4.4c-0.5,0.8-0.4,1.7,0,2.5l5.8,10c0.5,0.8,1.3,1.2,2.2,1.2l6.5,0
		c0,0,0.1,0,0.1,0l4.9,0c0.9,0,1.7-0.5,2.2-1.2l5.8-10C665,128.7,665,127.8,664.5,127z M645.1,119.2c-0.4,0-0.7-0.3-0.7-0.7
		c0-0.4,0.3-0.7,0.7-0.7c0.4,0,0.7,0.3,0.7,0.7C645.8,118.8,645.5,119.2,645.1,119.2z M657,119.1c-0.4,0.2-0.8,0.1-1-0.3
		c-0.2-0.4-0.1-0.8,0.3-1c0.4-0.2,0.8-0.1,1,0.3C657.5,118.4,657.3,118.9,657,119.1z M640,128.8c-0.2,0.4-0.7,0.5-1,0.3
		c-0.4-0.2-0.5-0.7-0.3-1c0.2-0.4,0.7-0.5,1-0.3C640.1,127.9,640.2,128.4,640,128.8z M645.5,139c-0.4,0.2-0.8,0.1-1-0.3
		c-0.2-0.4-0.1-0.8,0.3-1c0.4-0.2,0.8-0.1,1,0.3C645.9,138.3,645.8,138.8,645.5,139z M656.6,139.1c-0.4,0-0.7-0.3-0.7-0.7
		c0-0.4,0.3-0.7,0.7-0.7c0.4,0,0.7,0.3,0.7,0.7C657.4,138.8,657,139.1,656.6,139.1z M663,128.8c-0.2,0.4-0.7,0.5-1,0.3
		c-0.4-0.2-0.5-0.7-0.3-1c0.2-0.4,0.7-0.5,1-0.3C663.1,127.9,663.2,128.4,663,128.8z"/>
	<g>
		<g>
			<path class="st1" d="M647.1,145.8c-0.5,0-0.8,0.1-1.1,0.4c-0.3,0.3-0.4,0.7-0.4,1.2c0,0.5,0.1,0.9,0.4,1.2
				c0.3,0.3,0.6,0.4,1.1,0.4c0.3,0,0.6,0,0.9-0.1v0.2c-0.2,0.1-0.5,0.1-0.9,0.1c-0.5,0-0.9-0.2-1.2-0.5c-0.3-0.3-0.4-0.8-0.4-1.4
				c0-0.4,0.1-0.7,0.2-1c0.1-0.3,0.3-0.5,0.6-0.7c0.3-0.2,0.6-0.2,0.9-0.2c0.4,0,0.7,0.1,1,0.2l-0.1,0.2
				C647.6,145.9,647.4,145.8,647.1,145.8"/>
		</g>
		<rect x="648.6" y="145.4" class="st1" width="0.3" height="3.9"/>
		<g>
			<path class="st1" d="M649.8,148c0,0.4,0.1,0.7,0.2,0.9c0.2,0.2,0.4,0.3,0.7,0.3c0.3,0,0.5-0.1,0.7-0.3c0.2-0.2,0.2-0.5,0.2-0.9
				c0-0.4-0.1-0.7-0.3-0.9c-0.2-0.2-0.4-0.3-0.7-0.3c-0.3,0-0.5,0.1-0.7,0.3C649.9,147.3,649.8,147.6,649.8,148 M652,148
				c0,0.4-0.1,0.8-0.3,1c-0.2,0.3-0.5,0.4-0.9,0.4c-0.2,0-0.5-0.1-0.6-0.2c-0.2-0.1-0.3-0.3-0.4-0.5c-0.1-0.2-0.1-0.5-0.1-0.8
				c0-0.4,0.1-0.8,0.3-1c0.2-0.3,0.5-0.4,0.9-0.4c0.4,0,0.7,0.1,0.9,0.4C651.9,147.2,652,147.5,652,148"/>
			<path class="st1" d="M652.9,146.6v1.8c0,0.3,0.1,0.5,0.2,0.6c0.1,0.1,0.3,0.2,0.5,0.2c0.3,0,0.6-0.1,0.7-0.2
				c0.2-0.2,0.2-0.4,0.2-0.8v-1.5h0.2v2.7h-0.2l0-0.4h0c-0.2,0.3-0.5,0.4-1,0.4c-0.6,0-0.9-0.3-0.9-1v-1.8H652.9z"/>
			<path class="st1" d="M656.7,146.8c-0.3,0-0.5,0.1-0.7,0.3c-0.2,0.2-0.2,0.5-0.2,0.9c0,0.8,0.3,1.2,0.9,1.2c0.3,0,0.5-0.1,0.7-0.3
				c0.1-0.2,0.2-0.5,0.2-0.9v0c0-0.4-0.1-0.7-0.2-0.9C657.2,146.9,657,146.8,656.7,146.8 M656.7,146.5c0.2,0,0.4,0,0.5,0.1
				c0.1,0.1,0.3,0.2,0.4,0.4h0c0-0.2,0-0.4,0-0.6v-1h0.2v3.9h-0.2l-0.1-0.4h0c-0.2,0.3-0.5,0.5-0.9,0.5c-0.4,0-0.7-0.1-0.9-0.4
				c-0.2-0.2-0.3-0.6-0.3-1c0-0.5,0.1-0.8,0.3-1.1C656,146.7,656.3,146.5,656.7,146.5"/>
			<path class="st1" d="M660.3,147.6h0.5c0.4,0,0.7-0.1,0.9-0.2c0.2-0.1,0.3-0.4,0.3-0.7c0-0.3-0.1-0.5-0.3-0.6
				c-0.2-0.1-0.4-0.2-0.8-0.2h-0.6V147.6z M662.3,146.7c0,0.4-0.1,0.6-0.4,0.8c-0.2,0.2-0.6,0.3-1,0.3h-0.6v1.5h-0.3v-3.7h0.9
				C661.8,145.7,662.3,146,662.3,146.7"/>
		</g>
		<rect x="663" y="145.4" class="st1" width="0.3" height="3.9"/>
		<path class="st1" d="M664.7,149.2c0.3,0,0.5-0.1,0.7-0.3c0.2-0.2,0.3-0.4,0.3-0.7v-0.3l-0.5,0c-0.4,0-0.7,0.1-0.8,0.2
			c-0.2,0.1-0.2,0.3-0.2,0.5c0,0.2,0.1,0.3,0.2,0.4C664.4,149.1,664.6,149.2,664.7,149.2 M665.8,149.3l-0.1-0.4h0
			c-0.1,0.2-0.3,0.3-0.4,0.4c-0.1,0.1-0.3,0.1-0.5,0.1c-0.3,0-0.5-0.1-0.6-0.2c-0.1-0.1-0.2-0.3-0.2-0.6c0-0.3,0.1-0.5,0.3-0.6
			c0.2-0.1,0.5-0.2,1-0.2l0.5,0v-0.2c0-0.3-0.1-0.5-0.2-0.6c-0.1-0.1-0.3-0.2-0.5-0.2c-0.3,0-0.5,0.1-0.8,0.2l-0.1-0.2
			c0.3-0.1,0.6-0.2,0.9-0.2c0.3,0,0.5,0.1,0.7,0.2c0.1,0.2,0.2,0.4,0.2,0.7v1.8H665.8z"/>
		<path class="st1" d="M667.5,149.2c0.2,0,0.3,0,0.4,0v0.2c-0.1,0-0.3,0.1-0.4,0.1c-0.2,0-0.4-0.1-0.5-0.2c-0.1-0.1-0.2-0.3-0.2-0.6
			v-1.8h-0.4v-0.1l0.4-0.1l0.1-0.6h0.1v0.7h0.8v0.2H667v1.7c0,0.2,0,0.4,0.1,0.5S667.3,149.2,667.5,149.2"/>
		<path class="st1" d="M669.5,146.8h-0.6v2.5h-0.3v-2.5h-0.5v-0.1l0.5-0.1v-0.2c0-0.3,0.1-0.6,0.2-0.7c0.1-0.2,0.3-0.2,0.6-0.2
			c0.2,0,0.3,0,0.5,0.1l-0.1,0.2c-0.1,0-0.3-0.1-0.4-0.1c-0.2,0-0.3,0.1-0.4,0.2c-0.1,0.1-0.1,0.3-0.1,0.6v0.3h0.6V146.8z"/>
		<path class="st1" d="M670.1,148c0,0.4,0.1,0.7,0.2,0.9c0.2,0.2,0.4,0.3,0.7,0.3c0.3,0,0.5-0.1,0.7-0.3c0.2-0.2,0.2-0.5,0.2-0.9
			c0-0.4-0.1-0.7-0.3-0.9c-0.2-0.2-0.4-0.3-0.7-0.3c-0.3,0-0.5,0.1-0.7,0.3C670.1,147.3,670.1,147.6,670.1,148 M672.2,148
			c0,0.4-0.1,0.8-0.3,1c-0.2,0.3-0.5,0.4-0.9,0.4c-0.2,0-0.5-0.1-0.6-0.2c-0.2-0.1-0.3-0.3-0.4-0.5c-0.1-0.2-0.1-0.5-0.1-0.8
			c0-0.4,0.1-0.8,0.3-1s0.5-0.4,0.9-0.4c0.4,0,0.7,0.1,0.9,0.4C672.1,147.2,672.2,147.5,672.2,148"/>
		<path class="st1" d="M674,146.5c0.1,0,0.2,0,0.4,0l0,0.2c-0.1,0-0.2,0-0.4,0c-0.2,0-0.4,0.1-0.6,0.3c-0.1,0.2-0.2,0.4-0.2,0.8v1.5
			h-0.3v-2.7h0.2l0,0.5h0c0.1-0.2,0.2-0.3,0.4-0.4C673.7,146.6,673.8,146.5,674,146.5"/>
		<path class="st1" d="M678.3,149.3v-1.8c0-0.3-0.1-0.5-0.2-0.6c-0.1-0.1-0.3-0.2-0.5-0.2c-0.3,0-0.5,0.1-0.6,0.2
			c-0.1,0.2-0.2,0.4-0.2,0.7v1.6h-0.3v-1.9c0-0.5-0.2-0.7-0.6-0.7c-0.3,0-0.5,0.1-0.6,0.3c-0.1,0.2-0.2,0.4-0.2,0.8v1.5h-0.3v-2.7
			h0.2l0.1,0.4h0c0.1-0.1,0.2-0.2,0.3-0.3c0.1-0.1,0.3-0.1,0.5-0.1c0.4,0,0.7,0.2,0.8,0.5h0c0.1-0.2,0.2-0.3,0.4-0.4
			c0.2-0.1,0.3-0.1,0.5-0.1c0.3,0,0.5,0.1,0.7,0.2c0.1,0.2,0.2,0.4,0.2,0.8v1.8H678.3z"/>
		<path class="st1" d="M637.6,148.3c0.2-0.2,0.2-0.4,0.2-0.5c0-0.5-0.3-1.3-0.9-1.3c-0.2,0-0.4,0.1-0.5,0.2
			c-0.1,0.1-0.1,0.3-0.1,0.5c0,0.5,0.3,1.2,0.8,1.2C637.3,148.5,637.5,148.4,637.6,148.3 M637.4,149.6c-0.1,0-0.1,0-0.2,0
			c-0.1,0-0.4,0-0.7,0.1c-0.1,0.1-0.6,0.2-0.6,0.7c0,0.5,0.5,0.8,1.2,0.8c0.6,0,1-0.3,1-0.7C638.2,150.1,638,149.9,637.4,149.6
			 M637.9,146.5c0.2,0.1,0.5,0.4,0.5,0.9c0,0.5-0.3,0.7-0.6,1c-0.1,0.1-0.2,0.2-0.2,0.3c0,0.1,0.1,0.2,0.2,0.3l0.2,0.2
			c0.3,0.3,0.6,0.5,0.6,1c0,0.6-0.6,1.3-1.8,1.3c-1,0-1.5-0.5-1.5-1c0-0.2,0.1-0.6,0.5-0.8c0.4-0.3,1-0.3,1.3-0.3
			c-0.1-0.1-0.2-0.3-0.2-0.5c0-0.1,0-0.2,0.1-0.3c-0.1,0-0.1,0-0.2,0c-0.7,0-1.1-0.5-1.1-1.1c0-0.3,0.1-0.7,0.4-0.9
			c0.4-0.3,0.8-0.4,1.2-0.4h1.4l-0.4,0.2H637.9z"/>
		<path class="st1" d="M634.5,148.9c0.2-0.2,0.2-0.5,0.2-0.8c0-0.6-0.3-1.7-1.1-1.7c-0.2,0-0.4,0.1-0.6,0.2
			c-0.3,0.2-0.3,0.5-0.3,0.8c0,0.7,0.3,1.8,1.2,1.8C634.1,149.3,634.3,149.1,634.5,148.9 M633.7,149.5c-1.1,0-1.7-0.8-1.7-1.6
			c0-0.9,0.7-1.7,1.8-1.7c1,0,1.6,0.8,1.6,1.6C635.4,148.6,634.8,149.5,633.7,149.5"/>
		<path class="st1" d="M630.8,148.9c0.2-0.2,0.2-0.5,0.2-0.8c0-0.6-0.3-1.7-1.1-1.7c-0.2,0-0.4,0.1-0.6,0.2
			c-0.3,0.2-0.3,0.5-0.3,0.8c0,0.7,0.3,1.8,1.2,1.8C630.4,149.3,630.7,149.1,630.8,148.9 M630,149.5c-1.1,0-1.7-0.8-1.7-1.6
			c0-0.9,0.7-1.7,1.8-1.7c1,0,1.6,0.8,1.6,1.6C631.7,148.6,631.1,149.5,630,149.5"/>
		<path class="st1" d="M640.1,149.2c-0.2,0-0.3-0.1-0.3-0.3v-0.1V145c0,0,0,0,0,0c0-0.2,0.1-0.3,0.3-0.4h-1l-0.5,0.2h0.5v0l0,0v4
			v0.2c0,0.1,0,0.2-0.2,0.4h1.2l0.3-0.2C640.3,149.2,640.2,149.2,640.1,149.2"/>
		<path class="st1" d="M642.2,147.2c0.1,0,0.2-0.1,0.2-0.2c0-0.3-0.3-0.6-0.7-0.6c-0.3,0-0.8,0.2-0.8,0.9c0,0.1,0,0.2,0,0.4
			L642.2,147.2z M642.8,149.2c-0.1,0-0.1,0.1-0.2,0.1c-0.2,0.1-0.5,0.1-0.7,0.1c-0.2,0-0.6,0-0.9-0.3c-0.5-0.3-0.7-0.9-0.7-1.4
			c0-1.1,0.9-1.6,1.5-1.6c0.2,0,0.5,0.1,0.7,0.2c0.3,0.2,0.4,0.5,0.5,0.7l-1.6,0.6l-0.5,0c0.2,0.9,0.8,1.4,1.4,1.4
			c0.3,0,0.6-0.1,0.8-0.2L642.8,149.2z"/>
		<path class="st1" d="M627.8,149.4l-1,0.2c-0.4,0.1-0.7,0.1-1.1,0.1c-1.9,0-2.6-1.4-2.6-2.5c0-1.3,1-2.6,2.7-2.6
			c0.4,0,0.7,0.1,1,0.1c0.5,0.1,0.7,0.3,0.9,0.4l-0.6,0.5l-0.2,0.1l0.2-0.3c-0.2-0.2-0.7-0.6-1.5-0.6c-1.1,0-1.9,0.8-1.9,2
			c0,1.3,0.9,2.5,2.4,2.5c0.4,0,0.7-0.1,0.9-0.2v-1.1l-1,0.1l0.5-0.3h1.4l-0.2,0.2c0,0-0.1,0.1-0.1,0.1c0,0.1,0,0.3,0,0.3V149.4z"/>
	</g>
</g>
<polygon class="st1" points="409,219.8 373.4,186.3 420.1,186.3 473.4,186.3 473.4,185 421.4,185 462.4,148.2 536.3,148.2 
	536.3,147 461.8,147 419.5,185 370.2,185 322.2,185 3,185 3,186.3 322.2,186.3 371.5,186.3 408.5,221.1 580.9,221.1 580.9,219.8 "/>
<g>
	<path id="path4_5_" class="st1" d="M805.7,122.4l9.2-1.2l0,8.8l-9.2,0.1L805.7,122.4z M814.8,131l0,8.9l-9.2-1.3l0-7.7L814.8,131z
		 M816,121l12.2-1.8v10.7L816,130V121z M828.1,131.1l0,10.6L816,140l0-8.9L828.1,131.1z"/>
	<g>
		<path id="svg_1_5_" class="st1" d="M797,151h-0.6v-3.7c0-0.3,0-0.7,0-1.1l0,0c-0.1,0.3-0.1,0.4-0.2,0.5l-1.9,4.3H794l-1.9-4.2
			c-0.1-0.1-0.1-0.3-0.2-0.6l0,0c0,0.2,0,0.6,0,1.1v3.7h-0.6v-5.5h0.8l1.7,3.9c0.1,0.3,0.2,0.5,0.3,0.7h0c0.1-0.3,0.2-0.5,0.3-0.7
			l1.7-3.9h0.8V151z"/>
		<path id="svg_2_5_" class="st1" d="M798.5,146c-0.1,0-0.2,0-0.3-0.1c-0.1-0.1-0.1-0.2-0.1-0.3c0-0.1,0-0.2,0.1-0.3
			c0.1-0.1,0.2-0.1,0.3-0.1c0.1,0,0.2,0,0.3,0.1c0.1,0.1,0.1,0.2,0.1,0.3c0,0.1,0,0.2-0.1,0.3C798.7,146,798.6,146,798.5,146z
			 M798.8,151h-0.6v-4h0.6V151z"/>
		<path id="svg_3_5_" class="st1" d="M802.6,150.8c-0.3,0.2-0.7,0.3-1.1,0.3c-0.6,0-1-0.2-1.4-0.6c-0.3-0.4-0.5-0.8-0.5-1.4
			c0-0.7,0.2-1.2,0.6-1.6c0.4-0.4,0.9-0.6,1.5-0.6c0.3,0,0.7,0.1,0.9,0.2v0.7c-0.3-0.2-0.6-0.3-0.9-0.3c-0.4,0-0.7,0.2-1,0.4
			c-0.3,0.3-0.4,0.7-0.4,1.1s0.1,0.8,0.4,1.1c0.3,0.3,0.6,0.4,1,0.4c0.3,0,0.7-0.1,1-0.3L802.6,150.8L802.6,150.8z"/>
		<path id="svg_4_5_" class="st1" d="M805.4,147.6c-0.1-0.1-0.3-0.1-0.5-0.1c-0.3,0-0.5,0.1-0.7,0.4c-0.2,0.3-0.3,0.6-0.3,1v2h-0.6
			v-4h0.6v0.8l0,0c0.1-0.3,0.2-0.5,0.4-0.7c0.2-0.2,0.4-0.2,0.6-0.2c0.2,0,0.3,0,0.4,0.1L805.4,147.6L805.4,147.6z"/>
		<path id="svg_5_5_" class="st1" d="M807.5,151.1c-0.6,0-1.1-0.2-1.4-0.6c-0.3-0.4-0.5-0.8-0.5-1.5c0-0.7,0.2-1.2,0.5-1.6
			c0.3-0.4,0.9-0.6,1.5-0.6c0.6,0,1.1,0.2,1.4,0.5c0.3,0.4,0.5,0.9,0.5,1.5c0,0.6-0.2,1.1-0.5,1.5
			C808.5,150.8,808.1,151.1,807.5,151.1z M807.5,147.4c-0.4,0-0.7,0.1-1,0.4s-0.3,0.7-0.3,1.2c0,0.5,0.1,0.8,0.3,1.1
			c0.3,0.3,0.6,0.4,1,0.4c0.4,0,0.7-0.1,0.9-0.4c0.2-0.3,0.3-0.6,0.3-1.1s-0.1-0.9-0.3-1.1S807.9,147.4,807.5,147.4z"/>
		<path id="svg_6_5_" class="st1" d="M810,150.8v-0.7c0.3,0.3,0.7,0.4,1.1,0.4c0.6,0,0.8-0.2,0.8-0.6c0-0.1,0-0.2-0.1-0.3
			c-0.1-0.1-0.1-0.1-0.2-0.2c-0.1-0.1-0.2-0.1-0.3-0.2c-0.1,0-0.2-0.1-0.3-0.1c-0.2-0.1-0.3-0.1-0.5-0.2c-0.1-0.1-0.3-0.2-0.3-0.3
			c-0.1-0.1-0.2-0.2-0.2-0.3c0-0.1-0.1-0.3-0.1-0.4c0-0.2,0-0.3,0.1-0.5c0.1-0.1,0.2-0.2,0.3-0.3c0.2-0.1,0.3-0.2,0.5-0.2
			c0.2-0.1,0.4-0.1,0.6-0.1c0.3,0,0.7,0.1,0.9,0.2v0.6c-0.3-0.2-0.6-0.3-1-0.3c-0.1,0-0.2,0-0.3,0c-0.1,0-0.2,0.1-0.3,0.1
			s-0.1,0.1-0.2,0.2c0,0.1-0.1,0.2-0.1,0.2c0,0.1,0,0.2,0.1,0.3c0,0.1,0.1,0.1,0.2,0.2s0.2,0.1,0.3,0.2c0.1,0,0.2,0.1,0.3,0.2
			c0.2,0.1,0.3,0.1,0.5,0.2c0.1,0.1,0.3,0.2,0.3,0.3c0.1,0.1,0.2,0.2,0.2,0.3c0.1,0.1,0.1,0.3,0.1,0.4c0,0.2,0,0.4-0.1,0.5
			c-0.1,0.2-0.2,0.3-0.3,0.3c-0.2,0.1-0.3,0.2-0.5,0.2c-0.2,0-0.4,0.1-0.6,0.1C810.7,151.1,810.3,151,810,150.8z"/>
		<path id="svg_7_5_" class="st1" d="M815.1,151.1c-0.6,0-1.1-0.2-1.4-0.6c-0.3-0.4-0.5-0.8-0.5-1.5c0-0.7,0.2-1.2,0.5-1.6
			c0.4-0.4,0.9-0.6,1.5-0.6c0.6,0,1.1,0.2,1.4,0.5c0.3,0.4,0.5,0.9,0.5,1.5c0,0.6-0.2,1.1-0.5,1.5
			C816.1,150.8,815.6,151.1,815.1,151.1z M815.1,147.4c-0.4,0-0.7,0.1-1,0.4s-0.3,0.7-0.3,1.2c0,0.5,0.1,0.8,0.3,1.1
			c0.3,0.3,0.6,0.4,1,0.4s0.7-0.1,0.9-0.4c0.2-0.3,0.3-0.6,0.3-1.1s-0.1-0.9-0.3-1.1C815.8,147.6,815.5,147.4,815.1,147.4z"/>
		<path id="svg_8_5_" class="st1" d="M821.9,147.6V147h-1v-1.2l-0.6,0.2v1h-0.8H819h-0.4v-0.6c0-0.6,0.2-0.8,0.7-0.8
			c0.2,0,0.3,0,0.4,0.1v-0.6c-0.1,0-0.3-0.1-0.5-0.1c-0.3,0-0.7,0.1-0.9,0.4c-0.3,0.3-0.3,0.6-0.3,1v0.6h-0.7v0.5h0.7v3.4h0.6v-3.4
			h0.4h0.5h0.8v2.3c0,0.8,0.3,1.2,1,1.2c0.3,0,0.4,0,0.6-0.1v-0.5c-0.1,0.1-0.3,0.1-0.4,0.1c-0.2,0-0.3-0.1-0.4-0.2
			c-0.1-0.1-0.1-0.3-0.1-0.6v-2.3H821.9z"/>
		<path id="svg_9_5_" class="st1" d="M828.9,151h-0.7l-0.6-1.6h-2.3l-0.6,1.6H824l2.2-5.5h0.7L828.9,151z M827.4,148.8l-0.9-2.3
			c0-0.1-0.1-0.2-0.1-0.4l0,0c0,0.2-0.1,0.3-0.1,0.4l-0.8,2.3H827.4z"/>
		<path id="svg_10_5_" class="st1" d="M832.2,147.2l-2.3,3.2h2.3v0.6h-3.2v-0.2l2.3-3.2h-2.1V147h3L832.2,147.2L832.2,147.2z"/>
		<path id="svg_11_5_" class="st1" d="M836,151h-0.6v-0.6l0,0c-0.3,0.5-0.7,0.7-1.2,0.7c-0.9,0-1.4-0.6-1.4-1.7V147h0.6v2.3
			c0,0.8,0.3,1.3,1,1.3c0.3,0,0.6-0.1,0.8-0.3c0.2-0.2,0.3-0.5,0.3-0.9V147h0.6L836,151L836,151z"/>
		<path id="svg_12_5_" class="st1" d="M839.2,147.6c-0.1-0.1-0.3-0.1-0.5-0.1c-0.3,0-0.5,0.1-0.7,0.4c-0.2,0.3-0.3,0.6-0.3,1v2h-0.6
			v-4h0.6v0.8l0,0c0.1-0.3,0.2-0.5,0.4-0.7c0.2-0.2,0.4-0.2,0.6-0.2c0.2,0,0.3,0,0.4,0.1L839.2,147.6L839.2,147.6L839.2,147.6z"/>
		<path id="svg_13_5_" class="st1" d="M842.7,149.1h-2.8c0,0.4,0.1,0.8,0.3,1s0.5,0.3,0.9,0.3c0.4,0,0.8-0.2,1.2-0.4v0.6
			c-0.3,0.3-0.8,0.4-1.4,0.4c-0.6,0-1-0.2-1.3-0.5c-0.3-0.3-0.5-0.9-0.5-1.5c0-0.6,0.2-1.1,0.5-1.5c0.3-0.4,0.8-0.6,1.3-0.6
			c0.5,0,0.9,0.2,1.2,0.5c0.3,0.3,0.4,0.8,0.4,1.4V149.1L842.7,149.1z M842.1,148.6c0-0.4-0.1-0.7-0.3-0.8c-0.2-0.2-0.4-0.3-0.7-0.3
			c-0.3,0-0.6,0.1-0.8,0.3c-0.2,0.2-0.3,0.5-0.4,0.8H842.1z"/>
	</g>
</g>
<g>
	<g>
		<g>
			<rect x="776.1" y="212.9" class="st1" width="5.4" height="0.9"/>
			<rect x="768.2" y="212.9" class="st1" width="5.4" height="0.9"/>
			<path class="st1" d="M774.8,212.6c-0.4,0-0.8,0.4-0.8,0.8s0.4,0.8,0.8,0.8c0.4,0,0.8-0.4,0.8-0.8S775.3,212.6,774.8,212.6z
				 M774.8,215c-0.9,0-1.7-0.7-1.7-1.7c0-0.9,0.7-1.7,1.7-1.7c0.9,0,1.7,0.7,1.7,1.7C776.5,214.3,775.8,215,774.8,215z"/>
			<rect x="774.4" y="209.9" class="st1" width="0.9" height="2.2"/>
			<g>
				<rect x="769.5" y="197.2" class="st1" width="0.9" height="1.1"/>
				<rect x="771.2" y="197.2" class="st1" width="0.9" height="1.1"/>
				<rect x="776.3" y="197.2" class="st1" width="3.4" height="0.9"/>
			</g>
			<g>
				<rect x="769.5" y="201.9" class="st1" width="0.9" height="1.1"/>
				<rect x="771.2" y="201.9" class="st1" width="0.9" height="1.1"/>
				<rect x="776.3" y="202" class="st1" width="3.4" height="0.9"/>
			</g>
			<g>
				<rect x="769.5" y="206.8" class="st1" width="0.9" height="1.1"/>
				<rect x="771.2" y="206.8" class="st1" width="0.9" height="1.1"/>
				<rect x="776.3" y="206.8" class="st1" width="3.4" height="0.9"/>
			</g>
			<rect x="766.7" y="195.3" class="st2" width="16.2" height="4.8"/>
			<rect x="766.7" y="200.1" class="st2" width="16.2" height="4.8"/>
			<rect x="766.7" y="204.9" class="st2" width="16.2" height="4.8"/>
		</g>
		<g>
			<text transform="matrix(1 0 0 1 754.6709 228.7469)" class="st1 st3 st4">BAREMETAL</text>
		</g>
	</g>
</g>
<g>
	<g>
		<path class="st1" d="M678.3,224.9c0,2-1,2.6-1.8,2.6c-1,0-1.8-0.8-1.8-2.6c0-1.8,0.9-2.6,1.8-2.6
			C677.6,222.3,678.3,223.1,678.3,224.9z M675.6,224.9c0,0.8,0.2,2,1,2c0.7,0,0.9-1.2,0.9-2c0-0.8-0.2-2-0.9-2
			C675.8,222.9,675.6,224.1,675.6,224.9z"/>
		<path class="st1" d="M679.3,223.9c0-0.8,0-1.2,0-1.6h0.8l0,0.6h0c0.3-0.5,0.7-0.7,1.2-0.7c1,0,1.6,0.9,1.6,2.6
			c0,1.9-0.8,2.6-1.7,2.6c-0.5,0-0.8-0.3-1-0.6h0v2.5h-0.9V223.9z M680.2,225.6c0,0.1,0,0.3,0,0.4c0.2,0.7,0.6,0.9,0.8,0.9
			c0.7,0,1-0.9,1-1.9c0-1-0.3-1.9-1-1.9c-0.4,0-0.8,0.5-0.8,0.9c0,0.1,0,0.3,0,0.4V225.6z"/>
		<path class="st1" d="M684.5,225c0,1.6,0.7,1.9,1.3,1.9c0.4,0,0.7-0.1,0.9-0.2l0.1,0.6c-0.3,0.1-0.8,0.2-1.2,0.2c-1.3,0-2-1-2-2.5
			c0-1.6,0.8-2.7,1.9-2.7c1.1,0,1.6,1.1,1.6,2.2c0,0.2,0,0.3,0,0.5H684.5z M686.2,224.4c0-1-0.4-1.5-0.8-1.5c-0.6,0-0.9,0.8-0.9,1.5
			H686.2z"/>
		<path class="st1" d="M688,223.7c0-0.6,0-0.9,0-1.3h0.8l0,0.6h0c0.2-0.4,0.7-0.7,1.3-0.7c0.8,0,1.3,0.5,1.3,1.7v3.4h-0.9v-3.3
			c0-0.6-0.1-1.2-0.8-1.2c-0.4,0-0.7,0.3-0.8,0.8c0,0.1,0,0.3,0,0.5v3.2H688V223.7z"/>
		<path class="st1" d="M692.4,226.6c0.2,0.1,0.5,0.3,0.9,0.3c0.5,0,0.8-0.3,0.8-0.7c0-0.4-0.1-0.7-0.7-1c-0.7-0.4-1.1-0.9-1.1-1.4
			c0-0.8,0.7-1.4,1.5-1.4c0.4,0,0.7,0.1,1,0.3l-0.2,0.6c-0.2-0.1-0.4-0.2-0.7-0.2c-0.5,0-0.7,0.3-0.7,0.7c0,0.3,0.1,0.5,0.7,0.9
			c0.6,0.4,1.1,0.8,1.1,1.5c0,1-0.7,1.5-1.7,1.5c-0.4,0-0.8-0.1-1.1-0.3L692.4,226.6z"/>
		<path class="st1" d="M696.9,221.2v1.2h1.1v0.6h-1.1v3c0,0.7,0.2,0.8,0.6,0.8c0.1,0,0.3,0,0.4,0l0,0.6c-0.2,0.1-0.4,0.1-0.6,0.1
			c-0.4,0-0.7-0.1-0.9-0.3c-0.2-0.2-0.3-0.6-0.3-1.3V223h-0.7v-0.6h0.7v-0.9L696.9,221.2z"/>
		<path class="st1" d="M701.6,226.3c0,0.4,0,0.8,0.1,1.2h-0.8l-0.1-0.5h0c-0.2,0.4-0.6,0.6-1.1,0.6c-0.7,0-1.3-0.6-1.3-1.4
			c0-1.3,1.1-1.8,2.3-1.8v-0.2c0-0.7-0.2-1.1-0.9-1.1c-0.3,0-0.6,0.1-0.9,0.3l-0.2-0.6c0.2-0.2,0.7-0.3,1.3-0.3
			c1.1,0,1.6,0.7,1.6,1.8V226.3z M700.8,224.8c-0.5,0-1.5,0.1-1.5,1.2c0,0.7,0.4,0.9,0.7,0.9c0.4,0,0.7-0.3,0.8-0.8
			c0-0.1,0-0.2,0-0.3V224.8z"/>
		<path class="st1" d="M705.6,227.3c-0.2,0.1-0.5,0.2-0.9,0.2c-1.2,0-2-0.9-2-2.6c0-1.5,0.8-2.6,2.2-2.6c0.3,0,0.6,0.1,0.8,0.2
			l-0.2,0.7c-0.1-0.1-0.3-0.1-0.6-0.1c-0.9,0-1.3,1-1.3,2c0,1.2,0.5,1.9,1.3,1.9c0.2,0,0.4,0,0.6-0.1L705.6,227.3z"/>
		<path class="st1" d="M707.2,224.7L707.2,224.7c0.1-0.2,0.2-0.4,0.3-0.6l1.1-1.8h0.9l-1.5,2.1l1.6,2.9h-1l-1.2-2.4l-0.3,0.5v1.9
			h-0.9v-7.3h0.9V224.7z"/>
	</g>
	<g>
		<path class="st1" d="M678.9,200.6l3.2,2.9c0.1-0.1,0.2-0.1,0.2-0.2l0.6,0l1.2-0.1l1.2-0.1l0.6-0.1c0.2,0.1,0.4,0.2,0.6,0.3l-1-1
			l1.1-0.1l0-0.9c0-0.4,0.4-0.8,0.8-0.8l9.3-0.8l0,7l1,1l-0.7,0.1l2.8,2.8l4.4-0.4l-0.7-0.7l1-0.1l0-7.5c-0.2,0.1-0.4,0.3-0.6,0.4
			l-0.6,0.1l-1.2,0.1l-1.2,0.1l-0.6,0.1c-0.1,0-0.2-0.1-0.3-0.1l-0.2-0.1c0,0-0.1,0-0.1-0.1c0,0,0,0,0,0l-2.8-2.6l0.5,0l2.7,2.4
			c0.1-0.1,0.2-0.1,0.3-0.2l0.6,0l1.2-0.1l1.2-0.1l0.6-0.1c0.2,0.1,0.4,0.2,0.6,0.3l-1-1l1.1-0.1l0-4.9c-0.1-0.5-0.4-0.9-0.8-1.1
			c-0.2-0.1-0.4-0.1-0.6-0.1l-0.7,0.1l-2.9,0.3l-5.9,0.5l-5.9,0.5l-2.9,0.3l-1.5,0c-0.4,0-0.9,0.2-1.2,0.6c0.2-0.5,0.6-0.8,1.2-1
			l1.5-0.3l2.9-0.3l5.9-0.5l5.9-0.5l2.9-0.3l0.8,0c0.2,0,0.3,0,0.5,0.1l-2.6-2.5c0,0,0,0-0.1-0.1c0,0,0,0,0,0c0,0,0,0,0,0l0,0
			c0,0,0,0,0,0c0,0,0,0-0.1,0l0,0c0,0,0,0,0,0c0,0,0,0,0,0c0,0-0.1,0-0.1,0c0,0,0,0,0,0c0,0,0,0,0,0v0c0,0,0,0-0.1,0c0,0,0,0-0.1,0
			c0,0,0,0,0,0c0,0,0,0,0,0c0,0-0.1,0-0.1,0c0,0,0,0,0,0v0c0,0,0,0,0,0c0,0,0,0-0.1,0c0,0,0,0-0.1,0c0,0,0,0,0,0c0,0,0,0,0,0
			c0,0-0.1,0-0.1,0c0,0,0,0,0,0h0c0,0,0,0,0,0c0,0-0.1,0-0.1,0c0,0,0,0-0.1,0l-19.6,1.7c0,0-0.1,0-0.1,0c0,0,0,0-0.1,0
			c-0.1,0-0.2,0-0.3,0.1l0,0c0,0,0,0-0.1,0l0,0c0,0-0.1,0-0.1,0c0,0,0,0,0,0c-0.1,0-0.1,0.1-0.2,0.1c0,0,0,0,0,0c0,0,0,0-0.1,0.1
			l0,0c0,0,0,0,0,0c0,0,0,0,0,0v0c0,0,0,0,0,0l0,0c0,0,0,0-0.1,0c0,0,0,0,0,0c0,0,0,0,0,0c0,0,0,0,0,0c0,0,0,0-0.1,0.1c0,0,0,0,0,0
			c0,0,0,0,0,0.1c0,0,0,0,0,0l0,0c0,0,0,0,0,0v0c0,0,0,0,0,0c0,0,0,0.1,0,0.1c0,0,0,0,0,0l0,0c0,0,0,0,0,0c0,0,0,0,0,0
			c0,0,0,0.1,0,0.1c0,0,0,0,0,0c0,0,0,0,0,0c0,0,0,0,0,0.1c0,0,0,0,0,0c0,0,0,0,0,0c0,0,0,0.1,0,0.1c0,0,0,0,0,0c0,0,0,0,0,0
			c0,0,0,0,0,0c0,0,0,0.1,0,0.1c0,0,0,0.1,0,0.1c0,0,0,0,0,0l0,4.9l1,1L678.9,200.6z"/>
		<path class="st1" d="M685.3,203.7l-1.2,0.1l-1.2,0.1l-0.6,0.1c-0.1-0.1-0.3-0.1-0.4-0.2l0,0l0,0c-0.1,0-0.1-0.1-0.2-0.1
			c0,0,0,0,0,0l-3.2-2.9l0,7.3l1,1l-0.9,0.1l2.9,2.9l0-0.1l5.1-0.4l0,1.4c0,0.1,0,0.2,0.1,0.3c0.1,0.1,0.2,0.1,0.3,0.1l11.6-1
			c0.3,0,0.5-0.3,0.5-0.5l0-1.2l-2.8-2.8l0,0.9c0,0,0,0,0,0c0,0,0,0,0,0.1c0,0,0,0,0,0.1c0,0,0,0,0,0c0,0,0,0,0,0c0,0,0,0,0,0
			c0,0,0,0,0,0c0,0,0,0,0,0c0,0,0,0,0,0c0,0,0,0,0,0c0,0,0,0,0,0c0,0,0,0,0,0c0,0,0,0,0,0c0,0,0,0,0,0c0,0,0,0,0,0c0,0,0,0,0,0
			c0,0,0,0,0,0c0,0,0,0,0,0c0,0,0,0-0.1,0c0,0,0,0,0,0c0,0-0.1,0-0.1,0.1c0,0,0,0,0,0c-0.1,0-0.1,0-0.2,0.1c0,0-0.1,0-0.1,0
			c0,0,0,0,0,0l-9.3,0.8l0-7.1c-0.2,0.1-0.4,0.3-0.6,0.4L685.3,203.7z"/>
		<path class="st1" d="M700,211l0,0.8c0,0.6-0.5,1.1-1.1,1.2l-11.6,1c0,0-0.1,0-0.1,0c-0.3,0-0.5-0.1-0.7-0.3
			c-0.2-0.2-0.3-0.5-0.3-0.8l0-0.7l-4.4,0.4l-3.2-3.1l0,4.8c0,0,0,0.1,0,0.1c0,0,0,0,0,0c0,0,0,0,0,0.1c0,0,0,0,0,0.1c0,0,0,0,0,0.1
			c0,0,0,0.1,0,0.1c0,0,0,0,0,0c0,0,0,0.1,0,0.1c0,0,0,0,0,0c0,0,0,0,0,0.1c0,0,0,0,0,0c0,0,0,0,0,0.1c0,0,0,0,0,0c0,0,0,0,0,0.1
			c0,0,0,0,0,0c0,0,0.1,0.1,0.1,0.1l3.1,3.1c0,0,0,0,0,0c0,0,0.1,0.1,0.1,0.1c0,0,0,0,0,0c0,0,0.1,0.1,0.1,0.1c0,0,0,0,0,0
			c0,0,0.1,0,0.1,0.1c0,0,0,0,0,0c0,0,0.1,0,0.1,0c0,0,0,0,0,0c0,0,0.1,0,0.1,0c0,0,0,0,0,0c0,0,0.1,0,0.1,0c0,0,0,0,0,0
			c0,0,0.1,0,0.1,0c0,0,0,0,0,0c0.1,0,0.1,0,0.2,0l19.6-1.7c0.8-0.1,1.5-0.8,1.5-1.6l0-4.7L700,211z M681.7,217.5c0,0,0-0.1,0-0.1
			C681.7,217.4,681.7,217.4,681.7,217.5C681.7,217.5,681.7,217.5,681.7,217.5z M681.8,217.6C681.8,217.6,681.8,217.6,681.8,217.6
			C681.8,217.6,681.8,217.6,681.8,217.6C681.8,217.6,681.8,217.6,681.8,217.6z M681.8,217.7C681.8,217.7,681.8,217.7,681.8,217.7
			C681.8,217.7,681.8,217.7,681.8,217.7C681.8,217.7,681.8,217.7,681.8,217.7z M681.8,217.9C681.8,217.8,681.8,217.8,681.8,217.9
			C681.8,217.8,681.8,217.9,681.8,217.9C681.8,217.9,681.8,217.9,681.8,217.9z M681.9,218C681.9,218,681.9,218,681.9,218
			C681.9,218,681.9,218,681.9,218C681.9,218,681.9,218,681.9,218C681.9,218,681.9,218,681.9,218L681.9,218z M682,218.1
			C682,218.1,682,218.1,682,218.1C682,218.1,681.9,218.1,682,218.1C682,218.1,682,218.1,682,218.1C682,218.1,682,218.1,682,218.1z
			 M682.1,218.2C682,218.2,682,218.2,682.1,218.2C682,218.2,682,218.2,682.1,218.2C682,218.2,682.1,218.2,682.1,218.2
			C682.1,218.2,682.1,218.2,682.1,218.2z"/>
		<polygon class="st1" points="678.6,200.6 678.6,200.6 678.6,200.6 		"/>
	</g>
</g>
<radialGradient id="SVGID_1_" cx="475.8066" cy="184.4938" r="27.1822" fx="476.2921" fy="185.1613" gradientUnits="userSpaceOnUse">
	<stop  offset="0" style="stop-color:#822FF7"/>
	<stop  offset="1" style="stop-color:#822FF7;stop-opacity:0"/>
</radialGradient>
<circle class="st5" cx="476.4" cy="184.4" r="23.9"/>
<radialGradient id="SVGID_2_" cx="531.1497" cy="147.3396" r="27.3051" fx="531.6373" fy="148.0101" gradientUnits="userSpaceOnUse">
	<stop  offset="0" style="stop-color:#822FF7"/>
	<stop  offset="1" style="stop-color:#822FF7;stop-opacity:0"/>
</radialGradient>
<path class="st6" d="M541.9,168c11.4-6.6,17.9-21.2,11.3-32.7c-6.6-11.4-21.2-15.4-32.7-8.8c-11.4,6.6-16.7,21.2-10.1,32.7
	C517.1,170.7,530.4,174.6,541.9,168z"/>
<radialGradient id="SVGID_3_" cx="580.3604" cy="218.7639" r="27.1822" fx="580.8459" fy="219.4314" gradientUnits="userSpaceOnUse">
	<stop  offset="0" style="stop-color:#822FF7"/>
	<stop  offset="1" style="stop-color:#822FF7;stop-opacity:0"/>
</radialGradient>
<circle class="st7" cx="580.9" cy="218.7" r="23.9"/>
<linearGradient id="SVGID_4_" gradientUnits="userSpaceOnUse" x1="4.9346" y1="-234.5535" x2="4.9346" y2="-193.6198" gradientTransform="matrix(-1 0 0 -1 821.9579 -159.0278)">
	<stop  offset="0" style="stop-color:#822FF7;stop-opacity:0"/>
	<stop  offset="1" style="stop-color:#822FF7"/>
</linearGradient>
<rect x="718.4" y="0" class="st8" width="197.3" height="69.5"/>
<linearGradient id="SVGID_5_" gradientUnits="userSpaceOnUse" x1="355.8582" y1="-187.5638" x2="355.8582" y2="-149.5161" gradientTransform="matrix(1 0 0 1 371.83 454.2226)">
	<stop  offset="0" style="stop-color:#822FF7;stop-opacity:0"/>
	<stop  offset="1" style="stop-color:#822FF7"/>
</linearGradient>
<polygon class="st9" points="629.1,272.3 826.3,272.3 826.3,336.9 629.1,336.9 "/>
<radialGradient id="SVGID_6_" cx="66.2293" cy="185.6843" r="27.1822" fx="66.7148" fy="186.3518" gradientUnits="userSpaceOnUse">
	<stop  offset="0" style="stop-color:#822FF7"/>
	<stop  offset="1" style="stop-color:#822FF7;stop-opacity:0"/>
</radialGradient>
<circle class="st10" cx="66.8" cy="185.6" r="23.9"/>
<radialGradient id="SVGID_7_" cx="189.3356" cy="185.6843" r="27.1822" fx="189.8211" fy="186.3518" gradientUnits="userSpaceOnUse">
	<stop  offset="0" style="stop-color:#822FF7"/>
	<stop  offset="1" style="stop-color:#822FF7;stop-opacity:0"/>
</radialGradient>
<circle class="st11" cx="189.9" cy="185.6" r="23.9"/>
<radialGradient id="SVGID_8_" cx="312.4419" cy="185.6843" r="27.1822" fx="312.9274" fy="186.3518" gradientUnits="userSpaceOnUse">
	<stop  offset="0" style="stop-color:#822FF7"/>
	<stop  offset="1" style="stop-color:#822FF7;stop-opacity:0"/>
</radialGradient>
<circle class="st12" cx="313" cy="185.6" r="23.9"/>
<ellipse transform="matrix(0.8666 -0.4991 0.4991 0.8666 -83.7302 58.0963)" class="st0" cx="66.8" cy="185.6" rx="10.7" ry="10.7"/>
<ellipse transform="matrix(0.8666 -0.4991 0.4991 0.8666 -50.8757 180.9741)" class="st0" cx="313" cy="185.6" rx="10.7" ry="10.7"/>
<ellipse transform="matrix(0.8666 -0.4991 0.4991 0.8666 -67.3029 119.5352)" class="st0" cx="189.9" cy="185.6" rx="10.7" ry="10.7"/>
<linearGradient id="SVGID_9_" gradientUnits="userSpaceOnUse" x1="57" y1="191.1987" x2="2" y2="191.1987">
	<stop  offset="0" style="stop-color:#822FF7;stop-opacity:0"/>
	<stop  offset="1" style="stop-color:#822FF7"/>
</linearGradient>
<polygon class="st13" points="81,92.6 81,289.8 0,289.8 0,92.6 "/>
<polygon id="_x3C_Orig_x3E__9_" class="st0" points="488.1,166.6 477.4,172 477.4,186 488.1,191.3 498.8,185.9 498.8,172 "/>
<polygon id="_x3C_Orig_x3E__10_" class="st0" points="595.5,202.7 584.8,208.1 584.8,222 595.5,227.4 606.2,222 606.2,208 "/>
<polygon id="_x3C_Orig_x3E__7_" class="st0" points="544.3,128.6 533.6,134 533.6,148 544.3,153.4 555,148 555,134 "/>
</svg>
