<?xml version="1.0" encoding="utf-8"?>
<!-- Generator: Adobe Illustrator 19.2.1, SVG Export Plug-In . SVG Version: 6.00 Build 0)  -->
<svg version="1.1" id="Layer_1" xmlns="http://www.w3.org/2000/svg" xmlns:xlink="http://www.w3.org/1999/xlink" x="0px" y="0px"
	 viewBox="0 0 360 20.7" style="enable-background:new 0 0 360 20.7;" xml:space="preserve">
<style type="text/css">
	.st0{fill:#822FF7;}
	.st1{fill:#FFFFFF;}
</style>
<rect y="9.4" class="st0" width="360" height="2"/>
<g>
	<path class="st0" d="M83.3,19.7c-3.3,0-6.5-1.8-8.1-4.7c-2.6-4.5-1-10.2,3.4-12.8C80,1.4,81.7,1,83.3,1c3.3,0,6.5,1.8,8.1,4.7
		c2.6,4.5,1,10.2-3.4,12.8C86.5,19.3,84.9,19.7,83.3,19.7C83.3,19.7,83.3,19.7,83.3,19.7z"/>
	<path class="st1" d="M83.3,2c2.9,0,5.7,1.5,7.3,4.2c2.3,4,0.9,9.1-3.1,11.4c-1.3,0.8-2.7,1.1-4.2,1.1c-2.9,0-5.7-1.5-7.3-4.2
		c-2.3-4-0.9-9.1,3.1-11.4C80.4,2.4,81.9,2,83.3,2 M83.3,0c-1.8,0-3.6,0.5-5.2,1.4c-4.9,2.9-6.7,9.2-3.8,14.1c1.8,3.2,5.3,5.2,9,5.2
		c1.8,0,3.6-0.5,5.2-1.4c4.9-2.9,6.7-9.2,3.8-14.1C90.4,2,87,0,83.3,0L83.3,0z"/>
</g>
<g>
	<path class="st0" d="M276.4,19.7c-3.3,0-6.5-1.8-8.1-4.7c-2.6-4.5-1-10.2,3.4-12.8c1.4-0.8,3-1.2,4.7-1.2c3.3,0,6.5,1.8,8.1,4.7
		c1.2,2.2,1.6,4.7,0.9,7.1c-0.6,2.4-2.2,4.4-4.4,5.7C279.6,19.3,278,19.7,276.4,19.7C276.4,19.7,276.4,19.7,276.4,19.7z"/>
	<path class="st1" d="M276.4,2c2.9,0,5.7,1.5,7.3,4.2c2.3,4,0.9,9.1-3.1,11.4c-1.3,0.8-2.7,1.1-4.2,1.1c-2.9,0-5.7-1.5-7.3-4.2
		c-2.3-4-0.9-9.1,3.1-11.4C273.5,2.4,275,2,276.4,2 M276.4,0c-1.8,0-3.6,0.5-5.2,1.4c-4.9,2.9-6.7,9.2-3.8,14.1
		c1.8,3.2,5.3,5.2,9,5.2c1.8,0,3.6-0.5,5.2-1.4c4.9-2.9,6.7-9.2,3.8-14.1C283.5,2,280.1,0,276.4,0L276.4,0z"/>
</g>
<g>
	<path class="st0" d="M179.9,19.7c-3.3,0-6.5-1.8-8.1-4.7c-2.6-4.5-1-10.2,3.4-12.8c1.4-0.8,3-1.2,4.7-1.2c3.3,0,6.5,1.8,8.1,4.7
		c1.2,2.2,1.6,4.7,0.9,7.1c-0.6,2.4-2.2,4.4-4.4,5.7C183.1,19.3,181.5,19.7,179.9,19.7C179.9,19.7,179.9,19.7,179.9,19.7z"/>
	<path class="st1" d="M179.8,2c2.9,0,5.7,1.5,7.3,4.2c2.3,4,0.9,9.1-3.1,11.4c-1.3,0.8-2.7,1.1-4.2,1.1c-2.9,0-5.7-1.5-7.3-4.2
		c-2.3-4-0.9-9.1,3.1-11.4C177,2.4,178.4,2,179.8,2 M179.8,0c-1.8,0-3.6,0.5-5.2,1.4c-4.9,2.9-6.7,9.2-3.8,14.1
		c1.8,3.2,5.3,5.2,9,5.2c1.8,0,3.6-0.5,5.2-1.4c4.9-2.9,6.7-9.2,3.8-14.1C187,2,183.5,0,179.8,0L179.8,0z"/>
</g>
</svg>
