<svg xmlns="http://www.w3.org/2000/svg" viewBox="0 0 275 76">
  <path fill="#5C4EE5" fill-rule="nonzero" d="M53.99 37.8h71.02c-.027.665 0 1.333.08 2H53.91c.08-.662.11-1.33.082-2h-.002zm-24.98 0H-43v2h72.09c-.08-.667-.107-1.335-.08-2zm120.977 0h71.023c-.027.665 0 1.333.08 2h-71.18c.082-.66.108-1.33.077-2zm96 0H317v2h-71.09c.082-.66.108-1.33.077-2zM41.352 48.5c-3.3 0-6.5-1.8-8.1-4.7-2.6-4.5-1-10.2 3.4-12.8 1.4-.8 3-1.2 4.7-1.2 3.3 0 6.5 1.8 8.1 4.7 1.2 2.2 1.6 4.7.9 7.1-.6 2.4-2.2 4.4-4.4 5.7-1.4.8-3 1.2-4.6 1.2zm96 0c-3.3 0-6.5-1.8-8.1-4.7-2.6-4.5-1-10.2 3.4-12.8 1.4-.8 3-1.2 4.7-1.2 3.3 0 6.5 1.8 8.1 4.7 1.2 2.2 1.6 4.7.9 7.1-.6 2.4-2.2 4.4-4.4 5.7-1.4.8-3 1.2-4.6 1.2zm96 0c-3.3 0-6.5-1.8-8.1-4.7-2.6-4.5-1-10.2 3.4-12.8 1.4-.8 3-1.2 4.7-1.2 3.3 0 6.5 1.8 8.1 4.7 1.2 2.2 1.6 4.7.9 7.1-.6 2.4-2.2 4.4-4.4 5.7-1.4.8-3 1.2-4.6 1.2z"/>
</svg>
