<?xml version="1.0" encoding="utf-8"?>
<!-- Generator: Adobe Illustrator 19.2.1, SVG Export Plug-In . SVG Version: 6.00 Build 0)  -->
<svg version="1.1" id="Layer_1" xmlns="http://www.w3.org/2000/svg" xmlns:xlink="http://www.w3.org/1999/xlink" x="0px" y="0px"
	 viewBox="0 0 915.7 336.9" style="enable-background:new 0 0 915.7 336.9;" xml:space="preserve">
<style type="text/css">
	.st0{fill:#822FF7;stroke:#FFFFFF;stroke-miterlimit:10;}
	.st1{fill:#FFFFFF;}
	.st2{fill:url(#SVGID_1_);}
	.st3{fill:url(#SVGID_2_);}
	.st4{fill:url(#SVGID_3_);}
	.st5{fill:url(#SVGID_4_);}
	.st6{fill:url(#SVGID_5_);}
	.st7{fill:url(#SVGID_6_);}
	.st8{fill:url(#SVGID_7_);}
	.st9{fill:url(#SVGID_8_);}
	.st10{fill:url(#SVGID_9_);}
	.st11{fill:url(#SVGID_10_);}
	.st12{fill:url(#SVGID_11_);}
	.st13{fill:url(#SVGID_12_);}
	.st14{fill:none;stroke:#FFFFFF;stroke-width:1.1135;stroke-miterlimit:10;}
</style>
<polygon id="_x3C_Orig_x3E__362_" class="st0" points="649.4,90.6 610.5,110.2 610.5,161.1 649.4,180.6 688.4,161 688.4,110.2 "/>
<polygon id="_x3C_Orig_x3E__3_" class="st0" points="691.5,165.4 652.5,184.9 652.5,235.8 691.5,255.4 730.5,235.8 730.5,184.9 "/>
<polygon id="_x3C_Orig_x3E__4_" class="st0" points="774.6,165.4 735.6,184.9 735.6,235.8 774.5,255.4 813.5,235.8 813.5,184.9 "/>
<polygon id="_x3C_Orig_x3E__1_" class="st0" points="732.7,90.6 693.7,110.2 693.7,161.1 732.6,180.6 771.6,161 771.6,110.2 "/>
<polygon id="_x3C_Orig_x3E__2_" class="st0" points="815.9,90.6 776.9,110.2 776.9,161.1 815.9,180.6 854.8,161 854.8,110.2 "/>
<polygon id="_x3C_Orig_x3E__5_" class="st0" points="774.1,15.3 735.1,34.9 735.1,85.8 774.1,105.3 813,85.7 813,34.9 "/>
<polygon id="_x3C_Orig_x3E__8_" class="st0" points="857.4,15.3 818.4,34.9 818.4,85.8 857.4,105.3 896.3,85.7 896.3,34.9 "/>
<polygon id="_x3C_Orig_x3E__6_" class="st0" points="733.2,240 694.2,259.6 694.2,310.5 733.2,330 772.1,310.4 772.1,259.6 "/>
<polygon class="st1" points="409,219.8 373.4,186.3 420.1,186.3 473.4,186.3 473.4,185 421.4,185 462.4,148.2 531.3,148.2 
	531.3,147 461.8,147 419.5,185 370.2,185 322.2,185 3,185 3,186.3 322.2,186.3 371.5,186.3 408.5,221.1 580.9,221.1 580.9,219.8 "/>
<radialGradient id="SVGID_1_" cx="544.7066" cy="195.2062" r="23.4389" fx="545.1252" fy="195.7818" gradientTransform="matrix(1 0 0 -1 0 338)" gradientUnits="userSpaceOnUse">
	<stop  offset="0" style="stop-color:#822FF7"/>
	<stop  offset="1" style="stop-color:#822FF7;stop-opacity:0"/>
</radialGradient>
<circle class="st2" cx="545.3" cy="142.7" r="23.9"/>
<radialGradient id="SVGID_2_" cx="486.7066" cy="157.3062" r="23.4389" fx="487.1252" fy="157.8818" gradientTransform="matrix(1 0 0 -1 0 338)" gradientUnits="userSpaceOnUse">
	<stop  offset="0" style="stop-color:#822FF7"/>
	<stop  offset="1" style="stop-color:#822FF7;stop-opacity:0"/>
</radialGradient>
<circle class="st3" cx="487.3" cy="180.6" r="23.9"/>
<radialGradient id="SVGID_3_" cx="485.7066" cy="157.3062" r="23.4389" fx="486.1252" fy="157.8818" gradientTransform="matrix(1 0 0 -1 0 338)" gradientUnits="userSpaceOnUse">
	<stop  offset="0" style="stop-color:#822FF7"/>
	<stop  offset="1" style="stop-color:#822FF7;stop-opacity:0"/>
</radialGradient>
<circle class="st4" cx="486.3" cy="180.6" r="23.9"/>
<radialGradient id="SVGID_4_" cx="484.7066" cy="157.3062" r="23.4389" fx="485.1252" fy="157.8818" gradientTransform="matrix(1 0 0 -1 0 338)" gradientUnits="userSpaceOnUse">
	<stop  offset="0" style="stop-color:#822FF7"/>
	<stop  offset="1" style="stop-color:#822FF7;stop-opacity:0"/>
</radialGradient>
<circle class="st5" cx="485.3" cy="180.6" r="23.9"/>
<radialGradient id="SVGID_5_" cx="486.7066" cy="158.3062" r="23.4389" fx="487.1252" fy="158.8818" gradientTransform="matrix(1 0 0 -1 0 338)" gradientUnits="userSpaceOnUse">
	<stop  offset="0" style="stop-color:#822FF7"/>
	<stop  offset="1" style="stop-color:#822FF7;stop-opacity:0"/>
</radialGradient>
<circle class="st6" cx="487.3" cy="179.6" r="23.9"/>
<radialGradient id="SVGID_6_" cx="585.2067" cy="123.5062" r="23.4389" fx="585.6253" fy="124.0818" gradientTransform="matrix(1 0 0 -1 0 338)" gradientUnits="userSpaceOnUse">
	<stop  offset="0" style="stop-color:#822FF7"/>
	<stop  offset="1" style="stop-color:#822FF7;stop-opacity:0"/>
</radialGradient>
<circle class="st7" cx="585.8" cy="214.4" r="23.9"/>
<linearGradient id="SVGID_7_" gradientUnits="userSpaceOnUse" x1="-497.0921" y1="5234.5537" x2="-497.0921" y2="5193.6196" gradientTransform="matrix(-1 0 0 1 319.9579 -5159.0278)">
	<stop  offset="0" style="stop-color:#822FF7;stop-opacity:0"/>
	<stop  offset="1" style="stop-color:#822FF7"/>
</linearGradient>
<rect x="718.4" class="st8" width="197.3" height="69.5"/>
<linearGradient id="SVGID_8_" gradientUnits="userSpaceOnUse" x1="355.87" y1="525.5638" x2="355.87" y2="487.5161" gradientTransform="matrix(1 0 0 -1 371.83 792.2226)">
	<stop  offset="0" style="stop-color:#822FF7;stop-opacity:0"/>
	<stop  offset="1" style="stop-color:#822FF7"/>
</linearGradient>
<polygon class="st9" points="629.1,272.3 826.3,272.3 826.3,336.9 629.1,336.9 "/>
<radialGradient id="SVGID_9_" cx="312.2066" cy="152.5062" r="23.4389" fx="312.6253" fy="153.0818" gradientTransform="matrix(1 0 0 -1 0 338)" gradientUnits="userSpaceOnUse">
	<stop  offset="0" style="stop-color:#822FF7"/>
	<stop  offset="1" style="stop-color:#822FF7;stop-opacity:0"/>
</radialGradient>
<circle class="st10" cx="312.8" cy="185.4" r="23.9"/>
<radialGradient id="SVGID_10_" cx="189.304" cy="152.5062" r="23.4389" fx="189.7226" fy="153.0818" gradientTransform="matrix(1 0 0 -1 0 338)" gradientUnits="userSpaceOnUse">
	<stop  offset="0" style="stop-color:#822FF7"/>
	<stop  offset="1" style="stop-color:#822FF7;stop-opacity:0"/>
</radialGradient>
<circle class="st11" cx="189.9" cy="185.4" r="23.9"/>
<radialGradient id="SVGID_11_" cx="63.8066" cy="152.5062" r="23.4389" fx="64.2253" fy="153.0818" gradientTransform="matrix(1 0 0 -1 0 338)" gradientUnits="userSpaceOnUse">
	<stop  offset="0" style="stop-color:#822FF7"/>
	<stop  offset="1" style="stop-color:#822FF7;stop-opacity:0"/>
</radialGradient>
<circle class="st12" cx="64.4" cy="185.4" r="23.9"/>
<ellipse transform="matrix(0.8666 -0.4991 0.4991 0.8666 -83.7144 58.1005)" class="st0" cx="66.8" cy="185.6" rx="10.7" ry="10.7"/>
<ellipse transform="matrix(0.8666 -0.4991 0.4991 0.8666 -50.8592 180.9787)" class="st0" cx="313" cy="185.6" rx="10.7" ry="10.7"/>
<ellipse transform="matrix(0.8666 -0.4991 0.4991 0.8666 -67.2868 119.5396)" class="st0" cx="189.9" cy="185.6" rx="10.7" ry="10.7"/>
<linearGradient id="SVGID_12_" gradientUnits="userSpaceOnUse" x1="57" y1="146.8" x2="2" y2="146.8" gradientTransform="matrix(1 0 0 -1 0 338)">
	<stop  offset="0" style="stop-color:#822FF7;stop-opacity:0"/>
	<stop  offset="1" style="stop-color:#822FF7"/>
</linearGradient>
<polygon class="st13" points="81,92.6 81,289.8 0,289.8 0,92.6 "/>
<polygon id="_x3C_Orig_x3E__9_" class="st0" points="488.1,166.6 477.4,172 477.4,186 488.1,191.3 498.8,185.9 498.8,172 "/>
<polygon id="_x3C_Orig_x3E__10_" class="st0" points="595.5,201.7 584.8,207.1 584.8,221 595.5,226.4 606.2,221 606.2,207 "/>
<polygon id="_x3C_Orig_x3E__7_" class="st0" points="545.3,128.6 534.6,134 534.6,148 545.3,153.4 556,148 556,134 "/>
<g id="g10" transform="matrix(1.25,0,0,-1.25,0,217.5)">
	<g id="g12" transform="scale(0.1,0.1)">
		<path id="path14" class="st1" d="M5755.1,690.2l-27,9v39.1l27-8L5755.1,690.2"/>
		<path id="path16" class="st1" d="M5762.2,730.2l27,8l-0.1-39l-26.9-9V730.2"/>
		<path id="path18" class="st1" d="M5783.7,742.5l-25.2,7.8l-24.9-7.8l24.9-6.7L5783.7,742.5"/>
		<path id="path20" class="st1" d="M5823.2,690.2l-27,9v39.1l27-8L5823.2,690.2"/>
		<path id="path22" class="st1" d="M5830.3,730.2l27,8l-0.1-39l-26.9-9V730.2"/>
		<path id="path24" class="st1" d="M5851.8,742.5l-25.2,7.8l-24.9-7.8l24.9-6.7L5851.8,742.5"/>
		<path id="path26" class="st1" d="M5653,673.1l-27,8v-39.1l27-9L5653,673.1"/>
		<path id="path28" class="st1" d="M5660,673.1l27,8l-0.1-39l-26.9-9V673.1"/>
		<path id="path30" class="st1" d="M5681.5,685.4l-25.2,7.8l-24.9-7.8l24.9-6.7L5681.5,685.4"/>
		<path id="path32" class="st1" d="M5721.1,633.1l-27,9v39.1l27-8L5721.1,633.1"/>
		<path id="path34" class="st1" d="M5728.1,673.1l27,8l-0.1-39l-26.9-9V673.1"/>
		<path id="path36" class="st1" d="M5749.6,685.4l-25.2,7.8l-24.9-7.8l24.9-6.7L5749.6,685.4"/>
		<path id="path38" class="st1" d="M5687,576l-27,9v39.1l27-8L5687,576"/>
		<path id="path40" class="st1" d="M5694,616.1l27,8l-0.1-39l-26.9-9V616.1"/>
		<path id="path42" class="st1" d="M5715.6,628.3l-25.2,7.8l-24.9-7.8l24.9-6.7L5715.6,628.3"/>
		<path id="path44" class="st1" d="M5806.6,610.5l-2,0c-0.7,0-1.7-0.5-1.9-1.3l-6-21.2l-6,21.2c-0.2,0.7-0.8,1.3-1.7,1.3h-2.4
			c-0.8,0-1.5-0.7-1.6-1.4l-5.5-21l-5.7,21c-0.2,0.8-1.2,1.3-1.9,1.3l-2.9,0c-0.6,0-1.2-0.3-1.5-0.7c-0.2-0.3-0.3-0.6-0.2-0.9
			l8.9-31.3c0.2-0.7,0.8-1.3,1.6-1.3h2.8c0.8,0,1.4,0.6,1.6,1.4l5.4,20.9l5.9-20.9c0.2-0.6,0.8-1.3,1.6-1.3h2.8
			c0.8,0,1.4,0.5,1.6,1.3l8.5,31.3c0.1,0.3,0,0.6-0.2,0.9C5807.8,610.3,5807.2,610.5,5806.6,610.5"/>
		<path id="path46" class="st1" d="M5831.2,597.2h-15c0.3,4.2,3.1,8.6,7.7,8.8C5828.8,605.8,5831.1,601.5,5831.2,597.2z
			 M5823.9,610.7c-10.1,0-14.8-9-14.8-17.3c0-10.4,5.7-17.1,14.6-17.1c6.4,0,11.2,3.2,13.3,8.8c0.1,0.3,0.1,0.7-0.1,1
			c-0.2,0.4-0.6,0.7-1.1,0.8l-2.8,0.5c-0.8,0.1-1.6-0.3-1.9-1c-1.4-3.1-3.9-4.9-7-5c-3,0.1-5.8,1.9-7,4.6c-1,2.2-1.2,4.3-1.2,6.5
			l20.4,0c0.4,0,0.9,0.2,1.2,0.5c0.3,0.3,0.4,0.6,0.4,0.9C5837.8,602.1,5834.1,610.7,5823.9,610.7"/>
		<path id="path48" class="st1" d="M5863,593.4c0-1.9-0.3-11.5-7.2-11.7c-2.3,0.1-4.6,1.4-5.9,3.4c-0.9,1.5-1.5,3.6-1.6,6.1v5.6
			c0.1,4.3,3.2,9.1,7.5,9.2C5862.6,605.8,5863,595.5,5863,593.4L5863,593.4z M5856.9,611h-0.5c-3.4,0-6-1.4-8-4.3l0,13.2
			c0,0.7-0.8,1.4-1.6,1.4h-2.9c-0.8,0-1.6-0.6-1.6-1.4v-41.2c0-0.7,0.8-1.4,1.6-1.4l0.9,0c0.8,0,1.4,0.7,1.6,1.3l0.9,2.9
			c2.1-3,5.3-4.8,8.8-4.8h0.5c9,0,13.1,8.8,13.1,17.5c0,4.3-1.1,8.5-2.9,11.4C5864.4,609,5860.7,611,5856.9,611"/>
		<path id="path50" class="st1" d="M5901.6,594.3c-1.9,1.4-4.2,1.8-6.5,2.3l-4.4,0.8c-3.2,0.5-5,1.4-5,4.2c0,2.9,3.1,4.1,5.6,4.1
			c3.2-0.1,5.5-1.5,6.7-4c0.3-0.6,0.9-1,1.5-1c0.1,0,0.2,0,0.3,0l2.7,0.6c0.4,0.1,0.9,0.4,1.1,0.8c0.2,0.3,0.2,0.7,0.1,1
			c-1.7,4.9-6,7.5-12.4,7.5c-5.8,0-12.1-2.6-12.1-9.9c0-5,3.1-8.1,9.3-9.4l4.9-0.9c2.7-0.5,5.5-1.4,5.5-4.3c0-4.3-5-4.7-6.5-4.8
			c-3.4,0.1-7.2,1.6-8.2,4.8c-0.2,0.7-1.1,1.2-1.9,1l-2.9-0.6c-0.4-0.1-0.8-0.4-1.1-0.8c-0.2-0.3-0.2-0.7-0.2-1
			c1.5-5.3,6.6-8.5,13.7-8.6l0.2,0c6.4,0,13.2,2.7,13.2,10.4C5905.5,589.8,5904.1,592.6,5901.6,594.3"/>
		<path id="path52" class="st1" d="M5930.7,597.2h-15c0.3,4.2,3.1,8.6,7.7,8.8C5928.3,605.8,5930.6,601.5,5930.7,597.2z
			 M5923.4,610.7c-10.1,0-14.8-9-14.8-17.3c0-10.4,5.7-17.1,14.6-17.1c6.4,0,11.2,3.2,13.3,8.8c0.1,0.3,0.1,0.7-0.1,1
			c-0.2,0.4-0.6,0.7-1.1,0.8l-2.8,0.5c-0.7,0.1-1.6-0.2-1.9-1c-1.4-3.1-3.9-4.9-7-5c-3,0.1-5.8,1.9-7,4.6c-1,2.2-1.2,4.3-1.2,6.5
			l20.4,0c0.4,0,0.9,0.2,1.2,0.5c0.3,0.3,0.4,0.6,0.4,0.9C5937.3,602.1,5933.6,610.7,5923.4,610.7"/>
		<path id="path54" class="st1" d="M5956.6,610.3c-0.4,0-0.8,0.1-1.2,0.1c-3.4,0-6.2-1.9-8.1-5.4l0,3.1c0,0.8-0.8,1.4-1.6,1.4h-2.5
			c-0.8,0-1.6-0.7-1.6-1.4l0-30.2c0-0.8,0.7-1.4,1.6-1.4l3,0c0.8,0,1.6,0.6,1.7,1.4l0,15.2c0,2.5,0.2,4.4,1.4,6.6
			c1.7,3.2,4.1,4.8,7.3,4.8c0.8,0,1.5,0.7,1.5,1.5v2.8C5958.1,609.6,5957.4,610.2,5956.6,610.3"/>
		<path id="path56" class="st1" d="M5987.8,610.9l-2.3,0c-0.7,0-1.7-0.5-1.9-1.3l-7.6-23.9l-7.8,23.9c-0.2,0.8-1.2,1.3-1.9,1.3
			l-3.4,0c-0.6,0-1.2-0.3-1.5-0.7c-0.2-0.3-0.3-0.6-0.2-0.9l10.6-31.5c0.2-0.6,0.7-1.4,1.6-1.4h4.1c0.7,0,1.4,0.5,1.6,1.4l10.3,31.5
			c0.1,0.3,0,0.6-0.2,0.9C5989,610.7,5988.4,610.9,5987.8,610.9"/>
		<path id="path58" class="st1" d="M5995.5,623.1c-2.2,0-3.9-1.8-3.9-3.9c0-2.2,1.8-3.9,3.9-3.9c2.2,0,3.9,1.8,3.9,3.9
			C5999.5,621.3,5997.7,623.1,5995.5,623.1"/>
		<path id="path60" class="st1" d="M5997.1,611.1l-3.2,0c-0.9,0-1.7-0.7-1.7-1.5l0-32.1c0-0.4,0.2-0.8,0.5-1.1
			c0.3-0.3,0.7-0.4,1.1-0.4l3.2,0h0c0.9,0,1.7,0.7,1.7,1.5v32.1C5998.8,610.4,5998,611.1,5997.1,611.1"/>
		<path id="path62" class="st1" d="M6027.2,589.3l-2.7,0c-0.8,0-1.4-0.5-1.7-1.2c-1-4.2-3.2-6.4-6.6-6.5c-6.6,0.2-7.1,9.3-7.1,12.1
			c0,5.6,1.9,11.6,7.3,11.8c3.3-0.1,5.6-2.4,6.3-6.2c0.1-0.8,0.7-1.4,1.5-1.5l2.9,0c0.9,0.1,1.5,0.7,1.5,1.5
			c-1,6.9-5.8,11.3-12.2,11.3l-0.2,0l-0.2,0c-9.3,0-13.4-8.7-13.4-17.2c0-7.9,3.5-17,13.4-17h0.5c6.2,0,10.9,4.4,12.2,11.4
			c0,0.3-0.1,0.7-0.3,0.9C6028.3,589.1,6027.8,589.3,6027.2,589.3"/>
		<path id="path64" class="st1" d="M6053.8,597.2h-15c0.3,4.2,3.1,8.6,7.7,8.8C6051.4,605.8,6053.7,601.5,6053.8,597.2z
			 M6046.4,610.7c-10.1,0-14.8-9-14.8-17.3c0-10.4,5.7-17.1,14.6-17.1c6.4,0,11.2,3.2,13.3,8.8c0.1,0.3,0.1,0.7-0.1,1
			c-0.2,0.4-0.6,0.7-1.1,0.8l-2.8,0.5c-0.7,0.1-1.6-0.2-1.9-1c-1.4-3.1-3.9-4.9-7-5c-3,0.1-5.8,1.9-7,4.6c-1,2.2-1.2,4.3-1.2,6.5
			l20.4,0c0.4,0,0.9,0.2,1.2,0.5c0.3,0.3,0.4,0.6,0.4,0.9C6060.4,602.1,6056.7,610.7,6046.4,610.7"/>
		<path id="path66" class="st1" d="M6086,594.3c-1.9,1.4-4.2,1.8-6.5,2.3l-4.4,0.8c-3.2,0.5-5,1.4-5,4.2c0,3.8,4.7,4.1,5.6,4.1
			c3.2-0.1,5.5-1.5,6.7-4c0.3-0.6,0.9-1,1.5-1c0.1,0,0.2,0,0.3,0l2.7,0.6c0.4,0.1,0.9,0.4,1.1,0.8c0.2,0.3,0.2,0.7,0.1,1
			c-1.7,4.9-6,7.5-12.4,7.5c-5.8,0-12.1-2.6-12.1-9.9c0-5,3.1-8.1,9.3-9.4l4.9-0.9c2.7-0.5,5.5-1.4,5.5-4.3c0-4.3-5-4.7-6.5-4.8
			c-3.1,0.1-7.2,1.4-8.2,4.8c-0.2,0.7-1.1,1.2-1.9,1l-2.9-0.6c-0.4-0.1-0.8-0.4-1.1-0.8c-0.2-0.3-0.2-0.7-0.2-1
			c1.5-5.3,6.6-8.5,13.7-8.6l0.2,0c6.4,0,13.2,2.7,13.2,10.4C6089.8,589.8,6088.4,592.6,6086,594.3"/>
		<path id="path68" class="st1" d="M5955.2,672.9v7.3c0,1.1,0.8,1.8,1.9,1.8l32.7,0c1,0,1.9-0.8,1.9-1.8V674c0-1-0.9-2.4-2.5-4.6
			l-16.9-24.2c6.3,0.1,12.9-0.8,18.6-4c1.3-0.7,1.6-1.8,1.7-2.8v-7.8c0-1.1-1.2-2.3-2.4-1.7c-10.1,5.3-23.4,5.8-34.5-0.1
			c-1.1-0.6-2.3,0.6-2.3,1.7v7.4c0,1.2,0,3.2,1.2,5l19.6,28.1l-17.1,0C5956,671.1,5955.2,671.9,5955.2,672.9"/>
		<path id="path70" class="st1" d="M5836,627.4h-9.9c-0.9,0.1-1.7,0.8-1.8,1.7l0,51c0,1,0.9,1.8,1.9,1.8l9.3,0
			c1-0.1,1.7-0.8,1.8-1.7v-6.7h0.2c2.4,6.4,7,9.4,13.1,9.4c6.2,0,10.1-3,12.9-9.4c2.4,6.4,7.9,9.4,13.7,9.4c4.2,0,8.7-1.7,11.5-5.6
			c3.2-4.3,2.5-10.5,2.5-16l0-32.2c0-1-0.9-1.8-1.9-1.8h-9.9c-1,0.1-1.8,0.9-1.8,1.8v27c0,2.1,0.2,7.5-0.3,9.6
			c-0.7,3.4-3,4.4-5.8,4.4c-2.4,0-4.9-1.6-5.9-4.2c-1-2.6-0.9-6.9-0.9-9.8v-27c0-1-0.9-1.8-1.9-1.8h-9.9c-1,0.1-1.8,0.9-1.8,1.8
			l0,27c0,5.7,0.9,14.1-6.1,14.1c-7.1,0-6.9-8.2-6.9-14.1l0-27C5837.9,628.2,5837.1,627.4,5836,627.4"/>
		<path id="path72" class="st1" d="M6019.8,672.6c-7.3,0-7.8-10-7.8-16.2c0-6.2-0.1-19.5,7.7-19.5c7.7,0,8.1,10.7,8.1,17.3
			c0,4.3-0.2,9.4-1.5,13.5C6025.2,671.2,6022.9,672.6,6019.8,672.6z M6019.7,683c14.7,0,22.7-12.7,22.7-28.8
			c0-15.6-8.8-27.9-22.7-27.9c-14.5,0-22.4,12.7-22.4,28.4C5997.3,670.7,6005.3,683,6019.7,683"/>
		<path id="path74" class="st1" d="M6061.6,627.4h-9.9c-1,0.1-1.8,0.9-1.8,1.8l0,51c0.1,0.9,0.9,1.7,1.9,1.7l9.2,0
			c0.9,0,1.6-0.6,1.8-1.4v-7.8h0.2c2.8,7,6.7,10.3,13.5,10.3c4.5,0,8.8-1.6,11.6-6c2.6-4.1,2.6-10.9,2.6-15.9V629
			c-0.1-0.9-0.9-1.6-1.9-1.6h-10c-0.9,0.1-1.7,0.7-1.8,1.6v27.7c0,5.6,0.7,13.7-6.2,13.7c-2.4,0-4.6-1.6-5.7-4.1
			c-1.4-3.1-1.6-6.2-1.6-9.7v-27.5C6063.5,628.2,6062.6,627.4,6061.6,627.4"/>
		<path class="st1" d="M5946.8,636.8c-1.8,2.5-3.8,4.6-3.8,9.2v15.5c0,6.6,0.5,12.6-4.4,17.1c-3.8,3.7-10.1,4.9-15,4.9
			c-9.5,0-20-3.5-22.2-15.2c-0.2-1.2,0.7-1.9,1.5-2.1l9.6-1c0.9,0,1.6,0.9,1.7,1.8c0.8,4,4.2,6,8,6c2,0,4.4-0.8,5.6-2.6
			c1.4-2,1.2-4.8,1.2-7.2v-1.3c-5.8-0.6-13.3-1.1-18.7-3.4c-6.2-2.7-10.6-8.2-10.6-16.2c0-10.3,6.5-15.5,14.9-15.5
			c7.1,0,10.9,1.7,16.4,7.2c1.8-2.6,2.4-3.9,5.7-6.6c0.7-0.4,1.7-0.4,2.3,0.2l0,0c2,1.8,5.6,4.9,7.6,6.6
			C5947.6,634.8,5947.5,635.9,5946.8,636.8z M5927.3,641.2c-1.6-2.8-4.1-4.5-6.9-4.5c-3.8,0-6,2.9-6,7.2c0,8.5,7.6,10,14.8,10v-2.1
			C5929.1,647.9,5929.2,644.7,5927.3,641.2z"/>
		<path class="st1" d="M5816.5,636.8c-1.8,2.5-3.8,4.6-3.8,9.2v15.5c0,6.6,0.5,12.6-4.4,17.1c-3.8,3.7-10.1,4.9-15,4.9
			c-9.5,0-20-3.5-22.2-15.2c-0.2-1.2,0.7-1.9,1.5-2.1l9.6-1c0.9,0,1.6,0.9,1.7,1.8c0.8,4,4.2,6,8,6c2,0,4.4-0.8,5.6-2.6
			c1.4-2,1.2-4.8,1.2-7.2v-1.3c-5.8-0.6-13.3-1.1-18.7-3.4c-6.2-2.7-10.6-8.2-10.6-16.2c0-10.3,6.5-15.5,14.9-15.5
			c7.1,0,10.9,1.7,16.4,7.2c1.8-2.6,2.4-3.9,5.7-6.6c0.7-0.4,1.7-0.4,2.4,0.2l0,0c2,1.8,5.6,4.9,7.6,6.6
			C5817.3,634.8,5817.2,635.9,5816.5,636.8z M5797,641.2c-1.6-2.8-4.1-4.5-6.9-4.5c-3.8,0-6,2.9-6,7.2c0,8.5,7.6,10,14.8,10v-2.1
			C5798.9,647.9,5798.9,644.7,5797,641.2z"/>
	</g>
</g>
<g>
	<circle class="st1" cx="649.1" cy="129.1" r="4.1"/>
	<path class="st1" d="M664.1,127.7l-3.6-6.2c0,0,0,0,0-0.1l-2.7-4.7c-0.5-0.9-1.4-1.4-2.4-1.4h-12.6c-1,0-1.9,0.6-2.4,1.4l-3.6,6.2
		l0,0l3.2,5.5l4.3-7.5l15,0c0.5,0,0.9,0.2,1.2,0.7h-6.3l4.3,7.5l-4.7,8.2h0l-2.8,4.8c-0.2,0.4-0.7,0.7-1.2,0.7l3.2-5.5h-8.7
		l-4.4-7.6l0,0l-0.4-0.6l0,0l-2.8-4.8c-0.2-0.4-0.3-0.9,0-1.4l-2.8,4.8c-0.5,0.9-0.5,1.9,0,2.7l6.3,11c0.5,0.9,1.4,1.4,2.4,1.4
		l7.1,0c0.1,0,0.1,0,0.2,0l5.4,0c1,0,1.9-0.6,2.4-1.4l6.3-11C664.6,129.5,664.6,128.5,664.1,127.7z M642.8,119.1
		c-0.5,0-0.8-0.4-0.8-0.8c0-0.5,0.4-0.8,0.8-0.8c0.5,0,0.8,0.4,0.8,0.8C643.6,118.7,643.2,119.1,642.8,119.1z M655.8,119
		c-0.4,0.2-0.9,0.1-1.1-0.3c-0.2-0.4-0.1-0.9,0.3-1.1c0.4-0.2,0.9-0.1,1.1,0.3C656.3,118.2,656.2,118.7,655.8,119z M637.1,129.6
		c-0.2,0.4-0.7,0.5-1.1,0.3c-0.4-0.2-0.5-0.7-0.3-1.1c0.2-0.4,0.7-0.5,1.1-0.3S637.4,129.2,637.1,129.6z M643.2,140.9
		c-0.4,0.2-0.9,0.1-1.1-0.3c-0.2-0.4-0.1-0.9,0.3-1.1c0.4-0.2,0.9-0.1,1.1,0.3C643.7,140.1,643.6,140.6,643.2,140.9z M655.4,141
		c-0.5,0-0.8-0.4-0.8-0.8c0-0.5,0.4-0.8,0.8-0.8c0.5,0,0.8,0.4,0.8,0.8C656.2,140.6,655.9,141,655.4,141z M662.4,129.6
		c-0.2,0.4-0.7,0.5-1.1,0.3c-0.4-0.2-0.5-0.7-0.3-1.1c0.2-0.4,0.7-0.5,1.1-0.3C662.5,128.7,662.7,129.2,662.4,129.6z"/>
	<g>
		<g>
			<path class="st1" d="M644.9,148.4c-0.5,0-0.9,0.2-1.2,0.5c-0.3,0.3-0.4,0.8-0.4,1.3c0,0.6,0.1,1,0.4,1.3c0.3,0.3,0.7,0.5,1.2,0.5
				c0.3,0,0.7,0,0.9-0.1v0.2c-0.3,0.1-0.6,0.1-1,0.1c-0.6,0-1-0.2-1.3-0.6c-0.3-0.4-0.5-0.9-0.5-1.5c0-0.4,0.1-0.8,0.2-1.1
				c0.2-0.3,0.4-0.6,0.7-0.7c0.3-0.2,0.6-0.3,1-0.3c0.4,0,0.7,0.1,1.1,0.2l-0.1,0.3C645.6,148.4,645.2,148.4,644.9,148.4"/>
		</g>
		<rect x="646.6" y="147.9" class="st1" width="0.3" height="4.3"/>
		<g>
			<path class="st1" d="M647.9,150.7c0,0.4,0.1,0.7,0.3,1c0.2,0.2,0.4,0.3,0.8,0.3c0.3,0,0.6-0.1,0.8-0.3c0.2-0.2,0.3-0.6,0.3-1
				c0-0.4-0.1-0.7-0.3-1c-0.2-0.2-0.4-0.3-0.8-0.3c-0.3,0-0.6,0.1-0.8,0.3C648,150,647.9,150.3,647.9,150.7 M650.3,150.7
				c0,0.5-0.1,0.9-0.4,1.2c-0.2,0.3-0.6,0.4-1,0.4c-0.3,0-0.5-0.1-0.7-0.2c-0.2-0.1-0.4-0.3-0.5-0.5c-0.1-0.2-0.2-0.5-0.2-0.8
				c0-0.5,0.1-0.9,0.4-1.1c0.2-0.3,0.6-0.4,1-0.4c0.4,0,0.7,0.1,1,0.4C650.2,149.8,650.3,150.2,650.3,150.7"/>
			<path class="st1" d="M651.3,149.2v2c0,0.3,0.1,0.5,0.2,0.7c0.1,0.1,0.3,0.2,0.6,0.2c0.4,0,0.6-0.1,0.8-0.3
				c0.2-0.2,0.3-0.5,0.3-0.9v-1.7h0.3v3h-0.2l0-0.4h0c-0.2,0.3-0.5,0.5-1,0.5c-0.7,0-1-0.4-1-1.1v-2H651.3z"/>
			<path class="st1" d="M655.5,149.4c-0.3,0-0.6,0.1-0.7,0.3c-0.2,0.2-0.2,0.6-0.2,1c0,0.9,0.3,1.3,1,1.3c0.3,0,0.6-0.1,0.7-0.3
				c0.2-0.2,0.2-0.5,0.2-1v0c0-0.5-0.1-0.8-0.2-1C656.1,149.5,655.8,149.4,655.5,149.4 M655.5,149.1c0.2,0,0.4,0,0.6,0.1
				c0.2,0.1,0.3,0.2,0.4,0.4h0c0-0.2,0-0.5,0-0.7v-1.1h0.3v4.3h-0.2l-0.1-0.5h0c-0.2,0.3-0.6,0.5-1,0.5c-0.4,0-0.7-0.1-1-0.4
				c-0.2-0.3-0.3-0.6-0.3-1.1c0-0.5,0.1-0.9,0.3-1.2C654.8,149.3,655.1,149.1,655.5,149.1"/>
			<path class="st1" d="M659.5,150.3h0.6c0.5,0,0.8-0.1,1-0.2c0.2-0.2,0.3-0.4,0.3-0.7c0-0.3-0.1-0.5-0.3-0.7
				c-0.2-0.2-0.5-0.2-0.9-0.2h-0.7V150.3z M661.6,149.3c0,0.4-0.1,0.7-0.4,0.9c-0.3,0.2-0.6,0.3-1.1,0.3h-0.6v1.7h-0.3v-4.1h1
				C661.2,148.2,661.6,148.5,661.6,149.3"/>
		</g>
		<rect x="662.4" y="147.9" class="st1" width="0.3" height="4.3"/>
		<path class="st1" d="M664.3,152c0.3,0,0.6-0.1,0.8-0.3c0.2-0.2,0.3-0.4,0.3-0.8v-0.3l-0.5,0c-0.4,0-0.7,0.1-0.9,0.2
			c-0.2,0.1-0.3,0.3-0.3,0.5c0,0.2,0.1,0.3,0.2,0.4C664,152,664.1,152,664.3,152 M665.4,152.2l-0.1-0.5h0c-0.2,0.2-0.3,0.3-0.5,0.4
			c-0.2,0.1-0.3,0.1-0.6,0.1c-0.3,0-0.5-0.1-0.7-0.2c-0.2-0.2-0.2-0.4-0.2-0.6c0-0.3,0.1-0.5,0.4-0.7c0.2-0.2,0.6-0.2,1.1-0.3l0.6,0
			v-0.2c0-0.3-0.1-0.5-0.2-0.6c-0.1-0.1-0.3-0.2-0.6-0.2c-0.3,0-0.6,0.1-0.9,0.2l-0.1-0.2c0.3-0.2,0.7-0.2,1-0.2
			c0.3,0,0.6,0.1,0.7,0.3c0.2,0.2,0.2,0.4,0.2,0.8v2H665.4z"/>
		<path class="st1" d="M667.4,152c0.2,0,0.3,0,0.5,0v0.2c-0.1,0-0.3,0.1-0.5,0.1c-0.3,0-0.5-0.1-0.6-0.2c-0.1-0.1-0.2-0.4-0.2-0.7
			v-1.9h-0.4v-0.2l0.4-0.1l0.1-0.7h0.1v0.7h0.9v0.2h-0.9v1.9c0,0.2,0,0.4,0.1,0.5C667.1,152,667.2,152,667.4,152"/>
		<path class="st1" d="M669.5,149.4h-0.7v2.8h-0.3v-2.8H668v-0.2l0.6-0.1v-0.2c0-0.4,0.1-0.6,0.2-0.8c0.1-0.2,0.4-0.3,0.7-0.3
			c0.2,0,0.3,0,0.5,0.1l-0.1,0.2c-0.1,0-0.3-0.1-0.4-0.1c-0.2,0-0.4,0.1-0.5,0.2c-0.1,0.1-0.1,0.3-0.1,0.6v0.3h0.7V149.4z"/>
		<path class="st1" d="M670.2,150.7c0,0.4,0.1,0.7,0.3,1c0.2,0.2,0.4,0.3,0.8,0.3c0.3,0,0.6-0.1,0.8-0.3c0.2-0.2,0.3-0.6,0.3-1
			c0-0.4-0.1-0.7-0.3-1c-0.2-0.2-0.4-0.3-0.8-0.3c-0.3,0-0.6,0.1-0.8,0.3C670.3,150,670.2,150.3,670.2,150.7 M672.6,150.7
			c0,0.5-0.1,0.9-0.4,1.2c-0.2,0.3-0.6,0.4-1,0.4c-0.3,0-0.5-0.1-0.7-0.2c-0.2-0.1-0.4-0.3-0.5-0.5c-0.1-0.2-0.2-0.5-0.2-0.8
			c0-0.5,0.1-0.9,0.4-1.1c0.2-0.3,0.6-0.4,1-0.4c0.4,0,0.7,0.1,1,0.4C672.4,149.8,672.6,150.2,672.6,150.7"/>
		<path class="st1" d="M674.5,149.1c0.1,0,0.3,0,0.4,0l-0.1,0.3c-0.1,0-0.3,0-0.4,0c-0.3,0-0.5,0.1-0.6,0.3
			c-0.2,0.2-0.2,0.5-0.2,0.8v1.7h-0.3v-3h0.2l0,0.5h0c0.1-0.2,0.3-0.4,0.4-0.5C674.1,149.2,674.3,149.1,674.5,149.1"/>
		<path class="st1" d="M679.3,152.2v-2c0-0.3-0.1-0.5-0.2-0.6c-0.1-0.1-0.3-0.2-0.5-0.2c-0.3,0-0.5,0.1-0.7,0.3
			c-0.1,0.2-0.2,0.4-0.2,0.8v1.8h-0.3v-2.1c0-0.5-0.2-0.8-0.7-0.8c-0.3,0-0.5,0.1-0.7,0.3c-0.1,0.2-0.2,0.5-0.2,0.9v1.7h-0.3v-3h0.2
			l0.1,0.4h0c0.1-0.1,0.2-0.3,0.4-0.3c0.2-0.1,0.3-0.1,0.5-0.1c0.5,0,0.8,0.2,0.9,0.5h0c0.1-0.2,0.2-0.3,0.4-0.4
			c0.2-0.1,0.4-0.1,0.6-0.1c0.3,0,0.6,0.1,0.7,0.3c0.2,0.2,0.2,0.5,0.2,0.8v2H679.3z"/>
		<path class="st1" d="M634.6,151c0.2-0.2,0.2-0.4,0.2-0.5c0-0.5-0.3-1.4-0.9-1.4c-0.2,0-0.4,0.1-0.5,0.2c-0.1,0.2-0.2,0.4-0.2,0.6
			c0,0.5,0.3,1.3,0.9,1.3C634.2,151.3,634.4,151.2,634.6,151 M634.4,152.5c-0.1,0-0.1,0-0.2,0c-0.1,0-0.5,0-0.8,0.1
			c-0.2,0.1-0.6,0.2-0.6,0.8c0,0.5,0.5,0.9,1.3,0.9c0.7,0,1.1-0.3,1.1-0.8C635.2,153.1,634.9,152.9,634.4,152.5 M634.9,149.1
			c0.2,0.1,0.5,0.4,0.5,1c0,0.6-0.3,0.8-0.6,1.1c-0.1,0.1-0.2,0.2-0.2,0.4c0,0.2,0.1,0.3,0.2,0.3l0.3,0.2c0.3,0.3,0.6,0.5,0.6,1
			c0,0.7-0.7,1.4-2,1.4c-1.1,0-1.6-0.5-1.6-1.1c0-0.3,0.1-0.6,0.6-0.9c0.5-0.3,1.1-0.3,1.4-0.3c-0.1-0.1-0.2-0.3-0.2-0.5
			c0-0.1,0-0.2,0.1-0.3c-0.1,0-0.2,0-0.2,0c-0.8,0-1.2-0.6-1.2-1.2c0-0.3,0.2-0.7,0.5-1c0.4-0.4,0.9-0.4,1.3-0.4h1.5l-0.5,0.3H634.9
			z"/>
		<path class="st1" d="M631.1,151.7c0.2-0.2,0.2-0.5,0.2-0.8c0-0.7-0.3-1.9-1.2-1.9c-0.2,0-0.5,0.1-0.7,0.3
			c-0.3,0.3-0.3,0.6-0.3,0.9c0,0.7,0.4,2,1.3,2C630.7,152.1,631,152,631.1,151.7 M630.2,152.3c-1.2,0-1.8-0.9-1.8-1.8
			c0-1,0.8-1.8,1.9-1.8c1.1,0,1.8,0.9,1.8,1.8C632.1,151.4,631.4,152.3,630.2,152.3"/>
		<path class="st1" d="M627.1,151.7c0.2-0.2,0.2-0.5,0.2-0.8c0-0.7-0.3-1.9-1.2-1.9c-0.2,0-0.5,0.1-0.7,0.3
			c-0.3,0.3-0.3,0.6-0.3,0.9c0,0.7,0.4,2,1.3,2C626.6,152.1,626.9,152,627.1,151.7 M626.2,152.3c-1.2,0-1.8-0.9-1.8-1.8
			c0-1,0.8-1.8,1.9-1.8c1.1,0,1.8,0.9,1.8,1.8C628.1,151.4,627.4,152.3,626.2,152.3"/>
		<path class="st1" d="M637.2,152c-0.2,0-0.3-0.1-0.3-0.4v-0.1v-4.2c0,0,0,0,0,0c0-0.3,0.1-0.3,0.3-0.4h-1.1l-0.6,0.3h0.6v0l0,0v4.4
			v0.2c0,0.2,0,0.2-0.2,0.4h1.3l0.3-0.2C637.5,152,637.4,152,637.2,152"/>
		<path class="st1" d="M639.6,149.9c0.1-0.1,0.2-0.1,0.2-0.2c0-0.3-0.3-0.6-0.7-0.6c-0.3,0-0.9,0.2-0.9,1c0,0.1,0,0.3,0,0.4
			L639.6,149.9z M640.3,152.1c-0.1,0-0.2,0.1-0.2,0.1c-0.2,0.1-0.5,0.1-0.7,0.1c-0.2,0-0.6,0-1-0.3c-0.5-0.4-0.8-1-0.8-1.6
			c0-1.2,0.9-1.7,1.7-1.7c0.3,0,0.5,0.1,0.8,0.2c0.4,0.2,0.5,0.6,0.5,0.7l-1.7,0.7l-0.6,0c0.2,0.9,0.8,1.5,1.5,1.5
			c0.4,0,0.7-0.1,0.9-0.3L640.3,152.1z"/>
		<path class="st1" d="M623.8,152.2l-1.1,0.2c-0.4,0.1-0.8,0.1-1.2,0.1c-2.1,0-2.8-1.5-2.8-2.7c0-1.5,1.1-2.8,3-2.8
			c0.4,0,0.8,0.1,1.1,0.2c0.6,0.2,0.8,0.4,1,0.5l-0.6,0.6l-0.3,0.1l0.2-0.3c-0.3-0.2-0.7-0.7-1.6-0.7c-1.2,0-2.1,0.9-2.1,2.2
			c0,1.4,1,2.7,2.6,2.7c0.5,0,0.7-0.1,0.9-0.2v-1.2l-1.1,0.1l0.6-0.3h1.6l-0.2,0.2c-0.1,0-0.1,0.1-0.1,0.1c0,0.1,0,0.3,0,0.4V152.2z
			"/>
	</g>
</g>
<g>
	<path id="path4_5_" class="st1" d="M803.9,120.5l10-1.4l0,9.6l-10,0.1L803.9,120.5z M813.9,129.9l0,9.7l-10-1.4l0-8.3L813.9,129.9z
		 M815.1,119l13.3-1.9v11.6l-13.3,0.1V119z M828.3,130l0,11.6l-13.3-1.9l0-9.7L828.3,130z"/>
	<g>
		<path id="svg_1_5_" class="st1" d="M794.4,151.7h-0.7v-4.1c0-0.3,0-0.7,0-1.2l0,0c-0.1,0.3-0.1,0.5-0.2,0.6l-2.1,4.6h-0.3l-2-4.6
			c-0.1-0.1-0.1-0.3-0.2-0.6l0,0c0,0.2,0,0.6,0,1.2v4.1h-0.7v-6h0.9l1.8,4.2c0.1,0.3,0.2,0.6,0.3,0.7h0c0.1-0.3,0.2-0.6,0.3-0.8
			l1.9-4.2h0.9V151.7z"/>
		<path id="svg_2_5_" class="st1" d="M796.1,146.3c-0.1,0-0.2,0-0.3-0.1c-0.1-0.1-0.1-0.2-0.1-0.3c0-0.1,0-0.2,0.1-0.3
			c0.1-0.1,0.2-0.1,0.3-0.1c0.1,0,0.2,0,0.3,0.1c0.1,0.1,0.1,0.2,0.1,0.3c0,0.1,0,0.2-0.1,0.3C796.3,146.3,796.2,146.3,796.1,146.3z
			 M796.4,151.7h-0.7v-4.3h0.7V151.7z"/>
		<path id="svg_3_5_" class="st1" d="M800.5,151.5c-0.3,0.2-0.7,0.3-1.2,0.3c-0.6,0-1.1-0.2-1.5-0.6c-0.4-0.4-0.6-0.9-0.6-1.6
			c0-0.7,0.2-1.3,0.6-1.7c0.5-0.4,1-0.6,1.7-0.6c0.4,0,0.7,0.1,1,0.2v0.7c-0.3-0.2-0.6-0.3-1-0.3c-0.4,0-0.8,0.2-1.1,0.5
			c-0.3,0.3-0.4,0.7-0.4,1.2c0,0.5,0.1,0.9,0.4,1.2c0.3,0.3,0.6,0.4,1.1,0.4c0.4,0,0.7-0.1,1.1-0.4L800.5,151.5L800.5,151.5z"/>
		<path id="svg_4_5_" class="st1" d="M803.6,148.1c-0.1-0.1-0.3-0.1-0.5-0.1c-0.3,0-0.5,0.1-0.8,0.4c-0.2,0.3-0.3,0.6-0.3,1.1v2.2
			h-0.7v-4.3h0.7v0.9l0,0c0.1-0.3,0.2-0.5,0.4-0.7c0.2-0.2,0.4-0.2,0.7-0.2c0.2,0,0.3,0,0.4,0.1L803.6,148.1L803.6,148.1z"/>
		<path id="svg_5_5_" class="st1" d="M805.8,151.8c-0.6,0-1.2-0.2-1.5-0.6s-0.6-0.9-0.6-1.6c0-0.7,0.2-1.3,0.6-1.7s1-0.6,1.6-0.6
			c0.6,0,1.2,0.2,1.5,0.6c0.4,0.4,0.5,1,0.5,1.6s-0.2,1.2-0.6,1.6C807,151.6,806.5,151.8,805.8,151.8z M805.9,147.9
			c-0.4,0-0.8,0.1-1.1,0.4s-0.4,0.7-0.4,1.3c0,0.5,0.1,0.9,0.4,1.2c0.3,0.3,0.6,0.4,1.1,0.4s0.8-0.1,1-0.4c0.2-0.3,0.4-0.7,0.4-1.2
			c0-0.5-0.1-1-0.4-1.2C806.7,148,806.3,147.9,805.9,147.9z"/>
		<path id="svg_6_5_" class="st1" d="M808.6,151.6v-0.8c0.4,0.3,0.8,0.4,1.2,0.4c0.6,0,0.9-0.2,0.9-0.6c0-0.1,0-0.2-0.1-0.3
			c-0.1-0.1-0.1-0.1-0.2-0.2c-0.1-0.1-0.2-0.1-0.3-0.2c-0.1,0-0.2-0.1-0.4-0.1c-0.2-0.1-0.3-0.1-0.5-0.2c-0.1-0.1-0.3-0.2-0.4-0.3
			c-0.1-0.1-0.2-0.2-0.2-0.3s-0.1-0.3-0.1-0.4c0-0.2,0-0.4,0.1-0.5c0.1-0.1,0.2-0.2,0.3-0.3c0.2-0.1,0.3-0.2,0.5-0.2
			c0.2-0.1,0.4-0.1,0.6-0.1c0.4,0,0.7,0.1,1,0.2v0.7c-0.3-0.2-0.7-0.3-1.1-0.3c-0.1,0-0.2,0-0.3,0c-0.1,0-0.2,0.1-0.3,0.1
			s-0.1,0.1-0.2,0.2c0,0.1-0.1,0.2-0.1,0.2c0,0.1,0,0.2,0.1,0.3s0.1,0.1,0.2,0.2s0.2,0.1,0.3,0.2c0.1,0,0.2,0.1,0.4,0.2
			c0.2,0.1,0.4,0.1,0.5,0.2c0.1,0.1,0.3,0.2,0.4,0.3c0.1,0.1,0.2,0.2,0.2,0.3c0.1,0.1,0.1,0.3,0.1,0.4c0,0.2,0,0.4-0.1,0.5
			c-0.1,0.2-0.2,0.3-0.4,0.4c-0.2,0.1-0.3,0.2-0.5,0.2c-0.2,0-0.4,0.1-0.6,0.1C809.3,151.8,808.9,151.7,808.6,151.6z"/>
		<path id="svg_7_5_" class="st1" d="M814.1,151.8c-0.6,0-1.2-0.2-1.5-0.6s-0.6-0.9-0.6-1.6c0-0.7,0.2-1.3,0.6-1.7
			c0.4-0.4,1-0.6,1.6-0.6c0.6,0,1.2,0.2,1.5,0.6c0.4,0.4,0.5,1,0.5,1.6s-0.2,1.2-0.6,1.6C815.3,151.6,814.7,151.8,814.1,151.8z
			 M814.1,147.9c-0.4,0-0.8,0.1-1.1,0.4s-0.4,0.7-0.4,1.3c0,0.5,0.1,0.9,0.4,1.2c0.3,0.3,0.6,0.4,1.1,0.4s0.8-0.1,1-0.4
			c0.2-0.3,0.4-0.7,0.4-1.2c0-0.5-0.1-1-0.4-1.2C814.9,148,814.6,147.9,814.1,147.9z"/>
		<path id="svg_8_5_" class="st1" d="M821.6,148v-0.6h-1.1v-1.3l-0.7,0.2v1.1h-0.9h-0.5H818v-0.7c0-0.6,0.2-0.9,0.7-0.9
			c0.2,0,0.3,0,0.4,0.1v-0.6c-0.1,0-0.3-0.1-0.5-0.1c-0.4,0-0.7,0.1-1,0.4s-0.4,0.6-0.4,1.1v0.7h-0.8v0.6h0.8v3.8h0.7V148h0.5h0.5
			h0.9v2.6c0,0.9,0.4,1.3,1.1,1.3c0.3,0,0.5,0,0.6-0.1v-0.6c-0.1,0.1-0.3,0.1-0.4,0.1c-0.2,0-0.4-0.1-0.5-0.2
			c-0.1-0.1-0.1-0.3-0.1-0.6V148H821.6z"/>
		<path id="svg_9_5_" class="st1" d="M829.2,151.7h-0.8l-0.6-1.7h-2.6l-0.6,1.7h-0.8l2.4-6h0.7L829.2,151.7z M827.6,149.4l-1-2.6
			c0-0.1-0.1-0.2-0.1-0.4l0,0c0,0.2-0.1,0.3-0.1,0.4l-0.9,2.6H827.6z"/>
		<path id="svg_10_5_" class="st1" d="M832.8,147.6l-2.6,3.5h2.5v0.6h-3.5v-0.2l2.6-3.5h-2.3v-0.6h3.3V147.6L832.8,147.6z"/>
		<path id="svg_11_5_" class="st1" d="M837,151.7h-0.7v-0.7l0,0c-0.3,0.5-0.7,0.8-1.3,0.8c-1,0-1.5-0.6-1.5-1.8v-2.6h0.7v2.5
			c0,0.9,0.3,1.4,1.1,1.4c0.3,0,0.6-0.1,0.8-0.4c0.2-0.2,0.3-0.6,0.3-1v-2.5h0.7L837,151.7L837,151.7z"/>
		<path id="svg_12_5_" class="st1" d="M840.4,148.1c-0.1-0.1-0.3-0.1-0.5-0.1c-0.3,0-0.5,0.1-0.8,0.4c-0.2,0.3-0.3,0.6-0.3,1.1v2.2
			h-0.7v-4.3h0.7v0.9l0,0c0.1-0.3,0.2-0.5,0.4-0.7c0.2-0.2,0.4-0.2,0.7-0.2c0.2,0,0.3,0,0.4,0.1L840.4,148.1L840.4,148.1
			L840.4,148.1z"/>
		<path id="svg_13_5_" class="st1" d="M844.3,149.7h-3c0,0.5,0.1,0.9,0.4,1.1c0.2,0.3,0.6,0.4,1,0.4c0.5,0,0.9-0.2,1.3-0.5v0.6
			c-0.4,0.3-0.9,0.4-1.5,0.4s-1.1-0.2-1.4-0.6c-0.3-0.4-0.5-1-0.5-1.6s0.2-1.2,0.6-1.6s0.9-0.6,1.4-0.6c0.5,0,1,0.2,1.3,0.5
			c0.3,0.4,0.5,0.9,0.5,1.5V149.7L844.3,149.7z M843.6,149.1c0-0.4-0.1-0.7-0.3-0.9c-0.2-0.2-0.4-0.3-0.8-0.3
			c-0.3,0-0.6,0.1-0.8,0.3c-0.2,0.2-0.4,0.5-0.4,0.9H843.6z"/>
	</g>
</g>
<g>
	<g>
		<g>
			<rect x="775.3" y="214.2" class="st1" width="5.4" height="0.9"/>
			<rect x="767.4" y="214.2" class="st1" width="5.4" height="0.9"/>
			<path class="st1" d="M774.1,213.9c-0.4,0-0.8,0.4-0.8,0.8s0.4,0.8,0.8,0.8c0.4,0,0.8-0.4,0.8-0.8S774.5,213.9,774.1,213.9z
				 M774.1,216.4c-0.9,0-1.7-0.7-1.7-1.7c0-0.9,0.7-1.7,1.7-1.7c0.9,0,1.7,0.7,1.7,1.7C775.8,215.6,775,216.4,774.1,216.4z"/>
			<rect x="773.6" y="211.2" class="st1" width="0.9" height="2.2"/>
			<g>
				<rect x="768.7" y="198.5" class="st1" width="0.9" height="1.1"/>
				<rect x="770.4" y="198.5" class="st1" width="0.9" height="1.1"/>
				<rect x="775.5" y="198.6" class="st1" width="3.4" height="0.9"/>
			</g>
			<g>
				<rect x="768.7" y="203.3" class="st1" width="0.9" height="1.1"/>
				<rect x="770.4" y="203.3" class="st1" width="0.9" height="1.1"/>
				<rect x="775.5" y="203.3" class="st1" width="3.4" height="0.9"/>
			</g>
			<g>
				<rect x="768.7" y="208.1" class="st1" width="0.9" height="1.1"/>
				<rect x="770.4" y="208.1" class="st1" width="0.9" height="1.1"/>
				<rect x="775.5" y="208.2" class="st1" width="3.4" height="0.9"/>
			</g>
			<rect x="765.9" y="196.7" class="st14" width="16.2" height="4.8"/>
			<rect x="765.9" y="201.4" class="st14" width="16.2" height="4.8"/>
			<rect x="765.9" y="206.3" class="st14" width="16.2" height="4.8"/>
		</g>
		<g>
			<g>
				<path class="st1" d="M754.5,225.5h1.4c0.6,0,1.1,0.1,1.4,0.3c0.3,0.2,0.4,0.5,0.4,0.9c0,0.3-0.1,0.5-0.2,0.7s-0.3,0.3-0.6,0.3v0
					c0.3,0.1,0.6,0.2,0.7,0.4c0.2,0.2,0.2,0.4,0.2,0.7c0,0.4-0.1,0.7-0.4,1c-0.3,0.2-0.7,0.3-1.2,0.3h-1.7V225.5z M755.3,227.4h0.7
					c0.3,0,0.5,0,0.7-0.1c0.1-0.1,0.2-0.3,0.2-0.5c0-0.2-0.1-0.4-0.2-0.5c-0.2-0.1-0.4-0.1-0.7-0.1h-0.6V227.4z M755.3,228v1.5h0.8
					c0.3,0,0.6-0.1,0.7-0.2c0.2-0.1,0.2-0.3,0.2-0.6c0-0.2-0.1-0.4-0.2-0.5c-0.2-0.1-0.4-0.2-0.7-0.2H755.3z"/>
				<path class="st1" d="M761.9,230.1l-0.5-1.3h-1.8l-0.4,1.3h-0.8l1.7-4.6h0.8l1.7,4.6H761.9z M761.3,228.2l-0.4-1.2
					c0-0.1-0.1-0.2-0.1-0.4s-0.1-0.3-0.1-0.4c-0.1,0.3-0.1,0.5-0.2,0.8l-0.4,1.2H761.3z"/>
				<path class="st1" d="M764.4,228.2v1.8h-0.8v-4.6h1.3c0.6,0,1,0.1,1.3,0.3c0.3,0.2,0.4,0.6,0.4,1c0,0.6-0.3,1-0.9,1.2l1.3,2h-0.9
					l-1.1-1.8H764.4z M764.4,227.6h0.5c0.3,0,0.6-0.1,0.8-0.2s0.2-0.3,0.2-0.6c0-0.3-0.1-0.4-0.3-0.6c-0.2-0.1-0.4-0.2-0.8-0.2h-0.5
					V227.6z"/>
				<path class="st1" d="M770.7,230.1h-2.6v-4.6h2.6v0.6h-1.8v1.2h1.7v0.6h-1.7v1.4h1.8V230.1z"/>
				<path class="st1" d="M774,230.1l-1.3-3.8h0c0,0.6,0.1,1.1,0.1,1.6v2.2H772v-4.6h1.1l1.3,3.6h0l1.3-3.6h1.1v4.6H776v-2.3
					c0-0.2,0-0.5,0-0.9c0-0.4,0-0.6,0-0.7h0l-1.4,3.8H774z"/>
				<path class="st1" d="M780.8,230.1h-2.6v-4.6h2.6v0.6H779v1.2h1.7v0.6H779v1.4h1.8V230.1z"/>
				<path class="st1" d="M783.7,230.1H783v-3.9h-1.3v-0.6h3.4v0.6h-1.3V230.1z"/>
				<path class="st1" d="M788.9,230.1l-0.5-1.3h-1.8l-0.4,1.3h-0.8l1.7-4.6h0.8l1.7,4.6H788.9z M788.3,228.2l-0.4-1.2
					c0-0.1-0.1-0.2-0.1-0.4s-0.1-0.3-0.1-0.4c-0.1,0.3-0.1,0.5-0.2,0.8l-0.4,1.2H788.3z"/>
				<path class="st1" d="M790.7,230.1v-4.6h0.8v3.9h1.9v0.6H790.7z"/>
			</g>
		</g>
	</g>
</g>
<g>
	<g>
		<path class="st1" d="M676.1,227.8c0,2.2-1.1,2.9-2,2.9c-1.1,0-2-0.9-2-2.9c0-2,1-2.9,2-2.9C675.2,224.9,676.1,225.8,676.1,227.8z
			 M673.1,227.8c0,0.9,0.2,2.2,1.1,2.2c0.8,0,1-1.3,1-2.2c0-0.9-0.2-2.2-1-2.2C673.2,225.6,673.1,226.9,673.1,227.8z"/>
		<path class="st1" d="M677.2,226.7c0-0.9,0-1.4-0.1-1.8h0.9l0.1,0.7h0c0.3-0.6,0.8-0.8,1.3-0.8c1.1,0,1.8,1,1.8,2.9
			c0,2.1-0.9,2.9-1.9,2.9c-0.6,0-0.9-0.3-1.1-0.7h0v2.8h-1V226.7z M678.1,228.5c0,0.2,0,0.3,0.1,0.5c0.2,0.8,0.6,0.9,0.9,0.9
			c0.8,0,1.1-1,1.1-2.1c0-1.2-0.3-2.1-1.1-2.1c-0.4,0-0.8,0.5-0.9,1c0,0.1,0,0.3,0,0.4V228.5z"/>
		<path class="st1" d="M682.9,227.9c0,1.7,0.7,2.1,1.4,2.1c0.4,0,0.8-0.1,1-0.2l0.2,0.6c-0.3,0.2-0.9,0.3-1.3,0.3
			c-1.5,0-2.2-1.1-2.2-2.8c0-1.8,0.8-2.9,2.1-2.9c1.2,0,1.7,1.2,1.7,2.5c0,0.2,0,0.4,0,0.5H682.9z M684.8,227.2
			c0-1.1-0.4-1.6-0.9-1.6c-0.6,0-1,0.8-1,1.6H684.8z"/>
		<path class="st1" d="M686.7,226.4c0-0.7,0-1-0.1-1.4h0.8l0.1,0.7h0c0.3-0.5,0.8-0.8,1.4-0.8c0.8,0,1.5,0.6,1.5,1.9v3.8h-1V227
			c0-0.7-0.1-1.3-0.8-1.3c-0.4,0-0.8,0.3-0.9,0.9c0,0.1,0,0.3,0,0.5v3.5h-1V226.4z"/>
		<path class="st1" d="M691.7,229.7c0.2,0.1,0.6,0.3,1,0.3c0.5,0,0.9-0.3,0.9-0.8c0-0.4-0.2-0.7-0.8-1.1c-0.8-0.5-1.2-1-1.2-1.6
			c0-0.9,0.7-1.6,1.7-1.6c0.5,0,0.8,0.2,1.1,0.3l-0.3,0.7c-0.2-0.2-0.5-0.3-0.8-0.3c-0.5,0-0.8,0.3-0.8,0.7c0,0.4,0.2,0.6,0.8,1
			c0.7,0.4,1.3,0.9,1.3,1.7c0,1.1-0.8,1.7-1.8,1.7c-0.4,0-0.9-0.1-1.2-0.3L691.7,229.7z"/>
		<path class="st1" d="M696.6,223.7v1.3h1.2v0.7h-1.2v3.3c0,0.7,0.3,0.9,0.6,0.9c0.2,0,0.3,0,0.4,0l0.1,0.7
			c-0.2,0.1-0.4,0.1-0.7,0.1c-0.4,0-0.7-0.1-1-0.3c-0.3-0.3-0.4-0.6-0.4-1.4v-3.3h-0.7V225h0.7v-1L696.6,223.7z"/>
		<path class="st1" d="M701.9,229.3c0,0.4,0,0.9,0.1,1.3h-0.9L701,230h0c-0.3,0.4-0.7,0.7-1.2,0.7c-0.8,0-1.4-0.6-1.4-1.6
			c0-1.4,1.2-2,2.6-2v-0.2c0-0.8-0.2-1.3-1-1.3c-0.4,0-0.7,0.1-1,0.3l-0.2-0.6c0.3-0.2,0.8-0.4,1.4-0.4c1.2,0,1.7,0.7,1.7,2V229.3z
			 M700.9,227.7c-0.5,0-1.7,0.1-1.7,1.3c0,0.7,0.4,1,0.7,1c0.4,0,0.8-0.3,0.9-0.8c0-0.1,0-0.2,0-0.3V227.7z"/>
		<path class="st1" d="M706.2,230.4c-0.2,0.1-0.6,0.2-1,0.2c-1.3,0-2.2-1-2.2-2.8c0-1.6,0.9-2.9,2.4-2.9c0.3,0,0.7,0.1,0.9,0.2
			l-0.2,0.7c-0.1-0.1-0.4-0.2-0.7-0.2c-1,0-1.4,1.1-1.4,2.2c0,1.3,0.5,2.1,1.4,2.1c0.3,0,0.5,0,0.7-0.2L706.2,230.4z"/>
		<path class="st1" d="M708,227.6L708,227.6c0.1-0.2,0.2-0.4,0.4-0.6l1.2-2h1l-1.6,2.4l1.8,3.2h-1.1l-1.3-2.6l-0.4,0.5v2.1h-1v-8h1
			V227.6z"/>
	</g>
	<g>
		<path class="st1" d="M676.7,200.9l3.5,3.2c0.1-0.1,0.2-0.1,0.3-0.2l0.7-0.1l1.3-0.1l1.3-0.1l0.7-0.1c0.2,0.1,0.5,0.2,0.7,0.3
			l-1.2-1.1l1.2-0.1l0-1c0-0.5,0.4-0.9,0.9-0.9l10.2-0.9l0,7.7l1.1,1.1l-0.8,0.1l3.1,3.1l4.9-0.4l-0.8-0.8l1.1-0.1l0-8.3
			c-0.2,0.2-0.4,0.3-0.6,0.4l-0.7,0.1l-1.3,0.1l-1.3,0.1l-0.7,0.1c-0.1,0-0.2-0.1-0.3-0.1l-0.3-0.1c0,0-0.1,0-0.1-0.1c0,0,0,0,0,0
			l-3.1-2.8l0.5,0l2.9,2.7c0.1-0.1,0.2-0.1,0.3-0.2l0.7-0.1l1.3-0.1l1.3-0.1l0.7-0.1c0.2,0.1,0.5,0.2,0.7,0.3l-1.1-1.1l1.2-0.1
			l0-5.5c-0.1-0.5-0.4-1-0.9-1.2c-0.2-0.1-0.5-0.1-0.7-0.1l-0.8,0.2l-3.2,0.3l-6.5,0.6l-6.5,0.6l-3.2,0.3l-1.6,0
			c-0.5,0-1,0.3-1.3,0.7c0.2-0.5,0.7-0.9,1.3-1.1l1.6-0.3l3.2-0.3l6.5-0.6l6.5-0.6l3.2-0.3l0.8,0c0.2,0,0.4,0,0.5,0.1l-2.8-2.8
			c0,0,0,0-0.1-0.1c0,0,0,0,0,0c0,0,0,0,0,0v0c0,0,0,0,0,0c0,0,0,0-0.1,0v0c0,0,0,0,0,0c0,0,0,0,0,0c0,0-0.1,0-0.1-0.1c0,0,0,0,0,0
			c0,0,0,0,0,0l0,0c0,0-0.1,0-0.1,0c0,0,0,0-0.1,0c0,0,0,0,0,0c0,0,0,0,0,0c0,0-0.1,0-0.1,0c0,0,0,0,0,0h0c0,0,0,0,0,0
			c0,0,0,0-0.1,0c0,0,0,0-0.1,0c0,0,0,0,0,0c0,0,0,0,0,0c0,0-0.1,0-0.1,0c0,0,0,0,0,0l0,0c0,0,0,0,0,0c0,0-0.1,0-0.1,0
			c0,0,0,0-0.1,0l-21.7,1.9c0,0-0.1,0-0.1,0c0,0,0,0-0.1,0c-0.1,0-0.2,0.1-0.4,0.1l0,0c0,0,0,0-0.1,0l0,0c0,0-0.1,0-0.1,0
			c0,0,0,0,0,0c-0.1,0-0.1,0.1-0.2,0.1c0,0,0,0,0,0c0,0-0.1,0-0.1,0.1v0c0,0,0,0,0,0c0,0,0,0,0,0v0c0,0,0,0,0,0l0,0c0,0,0,0-0.1,0.1
			c0,0,0,0,0,0c0,0,0,0,0,0c0,0,0,0,0,0c0,0,0,0-0.1,0.1c0,0,0,0,0,0c0,0,0,0-0.1,0.1c0,0,0,0,0,0v0c0,0,0,0,0,0v0c0,0,0,0,0,0
			c0,0,0,0.1,0,0.1c0,0,0,0,0,0v0c0,0,0,0,0,0c0,0,0,0,0,0c0,0,0,0.1,0,0.1c0,0,0,0,0,0c0,0,0,0,0,0c0,0,0,0,0,0.1c0,0,0,0,0,0.1
			c0,0,0,0,0,0c0,0,0,0.1,0,0.1c0,0,0,0,0,0.1c0,0,0,0,0,0c0,0,0,0,0,0c0,0,0,0.1,0,0.1c0,0,0,0.1,0,0.1c0,0,0,0,0,0l0,5.5l1.2,1.1
			L676.7,200.9z"/>
		<path class="st1" d="M683.8,204.3l-1.3,0.1l-1.3,0.1l-0.7,0.1c-0.2-0.1-0.3-0.1-0.5-0.2l0,0l0,0c-0.1,0-0.1-0.1-0.2-0.1
			c0,0,0,0,0,0l-3.5-3.2l0,8.1l1.1,1.1l-1,0.1l3.3,3.2l0-0.1l5.6-0.5l0,1.6c0,0.1,0,0.2,0.1,0.3c0.1,0.1,0.2,0.1,0.3,0.1l12.9-1.1
			c0.3,0,0.5-0.3,0.5-0.6l0-1.3l-3.1-3.1l0,1c0,0,0,0,0,0c0,0,0,0,0,0.1c0,0,0,0,0,0.1c0,0,0,0,0,0.1c0,0,0,0,0,0c0,0,0,0,0,0
			c0,0,0,0,0,0c0,0,0,0,0,0c0,0,0,0,0,0c0,0,0,0,0,0c0,0,0,0,0,0c0,0,0,0,0,0c0,0,0,0,0,0c0,0,0,0,0,0c0,0,0,0,0,0c0,0,0,0,0,0
			c0,0,0,0,0,0c0,0,0,0,0,0c0,0,0,0-0.1,0.1c0,0,0,0,0,0c0,0-0.1,0-0.1,0.1c0,0,0,0,0,0c-0.1,0-0.1,0.1-0.2,0.1c0,0-0.1,0-0.1,0
			c0,0,0,0,0,0l-10.3,0.9l0-7.8c-0.2,0.2-0.4,0.3-0.6,0.4L683.8,204.3z"/>
		<path class="st1" d="M700,212.4l0,0.9c0,0.7-0.5,1.2-1.2,1.3l-12.9,1.1c0,0-0.1,0-0.1,0c-0.3,0-0.6-0.1-0.8-0.3
			c-0.2-0.2-0.4-0.5-0.4-0.9l0-0.8l-4.8,0.4l-3.5-3.4l0,5.3c0,0,0,0.1,0,0.1c0,0,0,0,0,0c0,0,0,0.1,0,0.1c0,0,0,0,0,0.1
			c0,0,0,0,0,0.1c0,0,0,0.1,0,0.1c0,0,0,0,0,0.1c0,0,0,0.1,0,0.1c0,0,0,0,0,0c0,0,0,0.1,0,0.1c0,0,0,0,0,0c0,0,0,0.1,0,0.1
			c0,0,0,0,0,0c0,0,0,0,0.1,0.1c0,0,0,0,0,0c0,0,0.1,0.1,0.1,0.1l3.5,3.4c0,0,0,0,0,0c0,0,0.1,0.1,0.1,0.1c0,0,0,0,0,0
			c0,0,0.1,0.1,0.1,0.1c0,0,0,0,0,0c0,0,0.1,0,0.1,0.1c0,0,0,0,0,0c0,0,0.1,0,0.1,0.1c0,0,0,0,0,0c0,0,0.1,0,0.1,0c0,0,0,0,0,0
			c0,0,0.1,0,0.1,0c0,0,0,0,0,0c0,0,0.1,0,0.1,0c0,0,0,0,0,0c0.1,0,0.1,0,0.2,0l21.7-1.9c0.9-0.1,1.7-0.9,1.7-1.8l0-5.3L700,212.4z
			 M679.9,219.6c0,0,0-0.1,0-0.2C679.9,219.5,679.9,219.5,679.9,219.6C679.9,219.6,679.9,219.6,679.9,219.6z M679.9,219.7
			C679.9,219.7,679.9,219.7,679.9,219.7C679.9,219.7,679.9,219.7,679.9,219.7C679.9,219.7,679.9,219.7,679.9,219.7z M679.9,219.9
			C679.9,219.8,679.9,219.8,679.9,219.9C679.9,219.8,679.9,219.8,679.9,219.9C679.9,219.9,679.9,219.9,679.9,219.9z M680,220
			C680,220,680,220,680,220C680,220,680,220,680,220C680,220,680,220,680,220z M680,220.2C680,220.2,680,220.1,680,220.2
			C680,220.1,680,220.1,680,220.2C680,220.1,680,220.1,680,220.2C680,220.1,680,220.2,680,220.2L680,220.2z M680.1,220.3
			C680.1,220.3,680.1,220.3,680.1,220.3C680.1,220.2,680.1,220.2,680.1,220.3C680.1,220.3,680.1,220.3,680.1,220.3
			C680.1,220.3,680.1,220.3,680.1,220.3z M680.2,220.4C680.2,220.4,680.2,220.4,680.2,220.4C680.2,220.4,680.2,220.4,680.2,220.4
			C680.2,220.4,680.2,220.4,680.2,220.4C680.2,220.4,680.2,220.4,680.2,220.4z"/>
		<polygon class="st1" points="676.4,200.9 676.4,200.9 676.4,200.9 		"/>
	</g>
</g>
</svg>
