<?xml version="1.0" encoding="utf-8"?>
<!-- Generator: Adobe Illustrator 19.2.1, SVG Export Plug-In . SVG Version: 6.00 Build 0)  -->
<svg version="1.1" id="Layer_1" xmlns="http://www.w3.org/2000/svg" xmlns:xlink="http://www.w3.org/1999/xlink" x="0px" y="0px"
	 viewBox="0 0 1896.6 895.7" style="enable-background:new 0 0 1896.6 895.7;" xml:space="preserve">
<style type="text/css">
	.st0{enable-background:new    ;}
	.st1{clip-path:url(#SVGID_2_);}
	.st2{clip-path:url(#SVGID_4_);fill:none;stroke:#6311AA;stroke-width:1;stroke-miterlimit:10;}
	.st3{fill:url(#SVGID_5_);}
</style>
<g class="st0">
	<g>
		<defs>
			<rect id="SVGID_1_" x="-0.4" width="1891.2" height="895.7"/>
		</defs>
		<clipPath id="SVGID_2_">
			<use xlink:href="#SVGID_1_"  style="overflow:visible;"/>
		</clipPath>
		<g class="st1">
			<defs>
				<rect id="SVGID_3_" x="-0.4" width="1891.2" height="895.7"/>
			</defs>
			<clipPath id="SVGID_4_">
				<use xlink:href="#SVGID_3_"  style="overflow:visible;"/>
			</clipPath>
			<polygon class="st2" points="6.1,-437.2 -178.5,492.8 -61.6,-75.9 			"/>
			<polygon class="st2" points="1440.2,-172.5 1114.2,-150 1294.6,-4.4 			"/>
			<polygon class="st2" points="1440.2,-172.5 1294.6,-4.4 1565.5,-76 			"/>
			<polygon class="st2" points="1799.5,-142.5 1738.5,-52 1971,41.9 			"/>
			<polygon class="st2" points="1799.5,-142.5 1971,41.9 1989.4,-102.6 			"/>
			<polygon class="st2" points="244.7,-237.8 -61.6,-75.9 172.4,7.3 			"/>
			<polygon class="st2" points="244.7,-237.8 172.4,7.3 359.1,-226.3 			"/>
			<polygon class="st2" points="359.1,-226.3 172.4,7.3 348.8,81.8 			"/>
			<polygon class="st2" points="359.1,-226.3 348.8,81.8 617.4,-21.1 			"/>
			<polygon class="st2" points="788.6,-208.2 617.4,-21.1 682.3,52.2 			"/>
			<polygon class="st2" points="788.6,-208.2 682.3,52.2 870.4,69.9 			"/>
			<polygon class="st2" points="788.6,-208.2 870.4,69.9 999.1,-21.1 			"/>
			<polygon class="st2" points="999.1,-21.1 870.4,69.9 1120.3,148.4 			"/>
			<polygon class="st2" points="999.1,-21.1 1120.3,148.4 1294.6,-4.4 			"/>
			<polygon class="st2" points="999.1,-21.1 1294.6,-4.4 1114.2,-150 			"/>
			<polygon class="st2" points="1294.6,-4.4 1120.3,148.4 1380,125.5 			"/>
			<polygon class="st2" points="1294.6,-4.4 1380,125.5 1565.5,-76 			"/>
			<polygon class="st2" points="1565.5,-76 1380,125.5 1506,210.7 			"/>
			<polygon class="st2" points="1506,210.7 1700,144.2 1565.5,-76 			"/>
			<polygon class="st2" points="1565.5,-76 1700,144.2 1738.5,-52 			"/>
			<polygon class="st2" points="1738.5,-52 1700,144.2 1971,41.9 			"/>
			<polygon class="st2" points="1971,41.9 1700,144.2 1967.5,222.8 			"/>
			<polygon class="st2" points="-61.6,-75.9 -98.7,114.4 111.1,108.7 			"/>
			<polygon class="st2" points="-61.6,-75.9 111.1,108.7 172.4,7.3 			"/>
			<polygon class="st2" points="172.4,7.3 111.1,108.7 240.5,232.7 			"/>
			<polygon class="st2" points="172.4,7.3 240.5,232.7 348.8,81.8 			"/>
			<polygon class="st2" points="348.8,81.8 240.5,232.7 481.4,301.3 			"/>
			<polygon class="st2" points="348.8,81.8 481.4,301.3 617.4,-21.1 			"/>
			<polygon class="st2" points="617.4,-21.1 481.4,301.3 682.3,52.2 			"/>
			<polygon class="st2" points="682.3,52.2 481.4,301.3 748,195.7 			"/>
			<polygon class="st2" points="682.3,52.2 748,195.7 870.4,69.9 			"/>
			<polygon class="st2" points="870.4,69.9 748,195.7 948.4,346.5 			"/>
			<polygon class="st2" points="870.4,69.9 948.4,346.5 1027.4,324 			"/>
			<polygon class="st2" points="870.4,69.9 1027.4,324 1120.3,148.4 			"/>
			<polygon class="st2" points="1120.3,148.4 1027.4,324 1220.9,382.3 			"/>
			<polygon class="st2" points="1120.3,148.4 1220.9,382.3 1380,125.5 			"/>
			<polygon class="st2" points="1380,125.5 1220.9,382.3 1433.4,340.9 			"/>
			<polygon class="st2" points="1380,125.5 1433.4,340.9 1506,210.7 			"/>
			<polygon class="st2" points="1506,210.7 1433.4,340.9 1679.3,422.1 			"/>
			<polygon class="st2" points="1679.3,422.1 1700,144.2 1506,210.7 			"/>
			<polygon class="st2" points="1700,144.2 1679.3,422.1 1967.5,222.8 			"/>
			<polygon class="st2" points="1967.5,222.8 1679.3,422.1 1916.3,455.7 			"/>
			<polygon class="st2" points="1967.5,222.9 1907.8,509 1875.7,924.2 			"/>
			<polygon class="st2" points="-98.7,114.4 -46.9,335.4 111.1,108.7 			"/>
			<polygon class="st2" points="111.1,108.7 -46.9,335.4 155.3,323.9 			"/>
			<polygon class="st2" points="111.1,108.7 155.3,323.9 240.5,232.7 			"/>
			<polygon class="st2" points="240.5,232.7 155.3,323.9 203.4,436.6 			"/>
			<polygon class="st2" points="240.5,232.7 203.4,436.6 481.4,301.3 			"/>
			<polygon class="st2" points="481.4,301.3 203.4,436.6 542.4,463.8 			"/>
			<polygon class="st2" points="481.4,301.3 542.4,463.8 650.9,408.7 			"/>
			<polygon class="st2" points="481.4,301.3 650.9,408.7 748,195.7 			"/>
			<polygon class="st2" points="748,195.7 650.9,408.7 873,446.1 			"/>
			<polygon class="st2" points="748,195.7 873,446.1 948.4,346.5 			"/>
			<polygon class="st2" points="948.4,346.5 873,446.1 1109,536.2 			"/>
			<polygon class="st2" points="948.4,346.5 1109,536.2 1027.4,324 			"/>
			<polygon class="st2" points="1027.4,324 1109,536.2 1220.9,382.3 			"/>
			<polygon class="st2" points="1220.9,382.3 1109,536.2 1298.5,551.5 			"/>
			<polygon class="st2" points="1220.9,382.3 1298.5,551.5 1433.4,340.9 			"/>
			<polygon class="st2" points="1433.4,340.9 1298.5,551.5 1510.5,589.7 			"/>
			<polygon class="st2" points="1433.4,340.9 1510.5,589.7 1679.3,422.1 			"/>
			<polygon class="st2" points="1679.3,422.1 1510.5,589.7 1589.8,663.8 			"/>
			<polygon class="st2" points="1679.3,422.1 1589.8,663.8 1801.8,580.1 			"/>
			<polygon class="st2" points="1679.3,422.1 1801.8,580.1 1916.3,455.7 			"/>
			<polygon class="st2" points="1916.3,455.7 1801.8,580.1 1896.1,795.2 			"/>
			<polygon class="st2" points="-46.9,335.4 -15.6,575.2 203.4,436.6 			"/>
			<polygon class="st2" points="-46.9,335.4 203.4,436.6 155.3,323.9 			"/>
			<polygon class="st2" points="203.4,436.6 -15.6,575.2 226.1,528.6 			"/>
			<polygon class="st2" points="203.4,436.6 226.1,528.6 542.4,463.8 			"/>
			<polygon class="st2" points="542.4,463.8 226.1,528.6 531.7,569.5 			"/>
			<polygon class="st2" points="542.4,463.8 531.7,569.5 650.9,408.7 			"/>
			<polygon class="st2" points="650.9,408.7 531.7,569.5 713.2,698.7 			"/>
			<polygon class="st2" points="650.9,408.7 713.2,698.7 873,446.1 			"/>
			<polygon class="st2" points="873,446.1 713.2,698.7 811.2,717.8 			"/>
			<polygon class="st2" points="873,446.1 811.2,717.8 1109,536.2 			"/>
			<polygon class="st2" points="1109,536.2 811.2,717.8 1081.9,776.6 			"/>
			<polygon class="st2" points="1109,536.2 1081.9,776.6 1195.6,706.7 			"/>
			<polygon class="st2" points="1109,536.2 1195.6,706.7 1298.5,551.5 			"/>
			<polygon class="st2" points="1298.5,551.5 1195.6,706.7 1487.4,769.2 			"/>
			<polygon class="st2" points="1298.5,551.5 1487.4,769.2 1510.5,589.7 			"/>
			<polygon class="st2" points="1510.5,589.7 1487.4,769.2 1589.8,663.8 			"/>
			<polygon class="st2" points="1589.8,663.8 1487.4,769.2 1599,787.8 			"/>
			<polygon class="st2" points="1589.8,663.8 1599,787.8 1801.8,580.1 			"/>
			<polygon class="st2" points="1801.8,580.1 1598.9,787.8 1896.1,795.2 			"/>
			<polygon class="st2" points="-15.6,575.2 -7.7,762.4 226.1,528.6 			"/>
			<polygon class="st2" points="226.1,528.6 -7.7,762.4 226.1,838.9 			"/>
			<polygon class="st2" points="226.1,528.6 226.1,838.9 452.5,756.3 			"/>
			<polygon class="st2" points="226.1,528.6 452.5,756.3 531.7,569.5 			"/>
			<polygon class="st2" points="531.7,569.5 452.5,756.3 543.3,831 			"/>
			<polygon class="st2" points="531.7,569.5 543.3,831 713.2,698.7 			"/>
			<polygon class="st2" points="713.2,698.7 543.3,831 787.8,829 			"/>
			<polygon class="st2" points="713.2,698.7 787.8,829 811.2,717.8 			"/>
			<polygon class="st2" points="811.2,717.8 787.8,829 1081.9,776.6 			"/>
			<polygon class="st2" points="1081.9,776.6 787.8,829 1067.3,891.2 			"/>
			<polygon class="st2" points="1081.9,776.6 1067.3,891.2 1232.6,976.2 			"/>
			<polygon class="st2" points="1081.9,776.6 1232.6,976.2 1195.6,706.7 			"/>
			<polygon class="st2" points="1195.6,706.7 1232.6,976.2 1487.4,769.2 			"/>
			<polygon class="st2" points="1487.4,769.2 1232.6,976.2 1351.8,1038.1 			"/>
			<polygon class="st2" points="1487.4,769.2 1351.8,1038.1 1630.6,1025 			"/>
			<polygon class="st2" points="1487.4,769.2 1630.6,1025 1599,787.8 			"/>
			<polygon class="st2" points="1599,787.8 1630.6,1025 1896.1,795.2 			"/>
			<polygon class="st2" points="1896.1,795.2 1630.6,1025 1847.9,1098.6 			"/>
			<polygon class="st2" points="-139.5,793.1 1351.8,1038.1 226.1,838.9 			"/>
			<polygon class="st2" points="-139.5,793.1 226.1,838.9 -7.7,762.4 			"/>
			<polygon class="st2" points="226.1,838.9 1351.8,1038.1 543.3,831 			"/>
			<polygon class="st2" points="226.1,838.9 543.3,831 452.5,756.3 			"/>
			<polygon class="st2" points="543.3,831 1351.8,1038.1 1232.6,976.2 			"/>
			<polygon class="st2" points="543.3,831 1232.6,976.2 787.8,829 			"/>
			<polygon class="st2" points="787.8,829 1232.6,976.2 1067.3,891.2 			"/>
		</g>
	</g>
</g>
<linearGradient id="SVGID_5_" gradientUnits="userSpaceOnUse" x1="948.6955" y1="868.5212" x2="948.6955" y2="-258.3916">
	<stop  offset="0" style="stop-color:#822FF7"/>
	<stop  offset="1" style="stop-color:#822FF7;stop-opacity:0"/>
</linearGradient>
<rect x="0.4" y="215.2" class="st3" width="1896.6" height="680.5"/>
</svg>
