<?xml version="1.0" encoding="utf-8"?>
<!-- Generator: Adobe Illustrator 19.2.1, SVG Export Plug-In . SVG Version: 6.00 Build 0)  -->
<svg version="1.1" id="Layer_1" xmlns="http://www.w3.org/2000/svg" xmlns:xlink="http://www.w3.org/1999/xlink" x="0px" y="0px"
	 viewBox="0 0 1896.6 997" style="enable-background:new 0 0 1896.6 997;" xml:space="preserve">
<style type="text/css">
	.st0{fill:none;}
	.st1{clip-path:url(#SVGID_2_);}
	.st2{enable-background:new    ;}
	.st3{clip-path:url(#SVGID_4_);}
	.st4{clip-path:url(#SVGID_113_);}
	.st5{clip-path:url(#SVGID_114_);}
	.st6{clip-path:url(#SVGID_115_);}
	.st7{clip-path:url(#SVGID_116_);}
	.st8{clip-path:url(#SVGID_117_);}
	.st9{clip-path:url(#SVGID_118_);}
	.st10{clip-path:url(#SVGID_119_);}
	.st11{clip-path:url(#SVGID_120_);}
	.st12{clip-path:url(#SVGID_121_);}
	.st13{clip-path:url(#SVGID_122_);}
	.st14{clip-path:url(#SVGID_123_);}
	.st15{clip-path:url(#SVGID_124_);}
	.st16{clip-path:url(#SVGID_125_);}
	.st17{clip-path:url(#SVGID_126_);}
	.st18{clip-path:url(#SVGID_127_);}
	.st19{clip-path:url(#SVGID_128_);}
	.st20{clip-path:url(#SVGID_129_);}
	.st21{clip-path:url(#SVGID_130_);}
	.st22{clip-path:url(#SVGID_131_);}
	.st23{clip-path:url(#SVGID_132_);}
	.st24{clip-path:url(#SVGID_133_);}
	.st25{clip-path:url(#SVGID_134_);}
	.st26{clip-path:url(#SVGID_135_);}
	.st27{clip-path:url(#SVGID_136_);}
	.st28{clip-path:url(#SVGID_137_);}
	.st29{clip-path:url(#SVGID_138_);}
	.st30{clip-path:url(#SVGID_139_);}
	.st31{clip-path:url(#SVGID_140_);}
	.st32{clip-path:url(#SVGID_141_);}
	.st33{clip-path:url(#SVGID_142_);}
	.st34{clip-path:url(#SVGID_143_);}
	.st35{clip-path:url(#SVGID_144_);}
	.st36{clip-path:url(#SVGID_145_);}
	.st37{clip-path:url(#SVGID_146_);}
	.st38{clip-path:url(#SVGID_147_);}
	.st39{clip-path:url(#SVGID_148_);}
	.st40{clip-path:url(#SVGID_149_);}
	.st41{clip-path:url(#SVGID_150_);}
	.st42{clip-path:url(#SVGID_151_);}
	.st43{clip-path:url(#SVGID_152_);}
	.st44{clip-path:url(#SVGID_153_);}
	.st45{clip-path:url(#SVGID_154_);}
	.st46{clip-path:url(#SVGID_155_);}
	.st47{clip-path:url(#SVGID_156_);}
	.st48{clip-path:url(#SVGID_157_);}
	.st49{clip-path:url(#SVGID_158_);}
	.st50{clip-path:url(#SVGID_159_);}
	.st51{clip-path:url(#SVGID_160_);}
	.st52{clip-path:url(#SVGID_161_);}
	.st53{clip-path:url(#SVGID_162_);}
	.st54{clip-path:url(#SVGID_163_);}
	.st55{clip-path:url(#SVGID_164_);}
	.st56{clip-path:url(#SVGID_165_);}
	.st57{clip-path:url(#SVGID_166_);}
	.st58{clip-path:url(#SVGID_167_);}
	.st59{clip-path:url(#SVGID_168_);}
	.st60{clip-path:url(#SVGID_169_);}
	.st61{clip-path:url(#SVGID_170_);}
	.st62{clip-path:url(#SVGID_171_);}
	.st63{clip-path:url(#SVGID_172_);}
	.st64{clip-path:url(#SVGID_173_);}
	.st65{clip-path:url(#SVGID_174_);}
	.st66{clip-path:url(#SVGID_175_);}
	.st67{clip-path:url(#SVGID_176_);}
	.st68{clip-path:url(#SVGID_177_);}
	.st69{clip-path:url(#SVGID_178_);}
	.st70{clip-path:url(#SVGID_179_);}
	.st71{clip-path:url(#SVGID_180_);}
	.st72{clip-path:url(#SVGID_181_);}
	.st73{clip-path:url(#SVGID_182_);}
	.st74{clip-path:url(#SVGID_183_);}
	.st75{clip-path:url(#SVGID_184_);}
	.st76{clip-path:url(#SVGID_185_);}
	.st77{clip-path:url(#SVGID_186_);}
	.st78{clip-path:url(#SVGID_187_);}
	.st79{clip-path:url(#SVGID_188_);}
	.st80{clip-path:url(#SVGID_189_);}
	.st81{clip-path:url(#SVGID_190_);}
	.st82{clip-path:url(#SVGID_191_);}
	.st83{clip-path:url(#SVGID_192_);}
	.st84{clip-path:url(#SVGID_193_);}
	.st85{clip-path:url(#SVGID_194_);}
	.st86{clip-path:url(#SVGID_195_);}
	.st87{clip-path:url(#SVGID_196_);}
	.st88{clip-path:url(#SVGID_197_);}
	.st89{clip-path:url(#SVGID_198_);}
	.st90{clip-path:url(#SVGID_199_);}
	.st91{clip-path:url(#SVGID_200_);}
	.st92{clip-path:url(#SVGID_201_);}
	.st93{clip-path:url(#SVGID_202_);}
	.st94{clip-path:url(#SVGID_203_);}
	.st95{clip-path:url(#SVGID_204_);}
	.st96{clip-path:url(#SVGID_205_);}
	.st97{clip-path:url(#SVGID_206_);}
	.st98{clip-path:url(#SVGID_207_);}
	.st99{clip-path:url(#SVGID_208_);}
	.st100{clip-path:url(#SVGID_209_);}
	.st101{clip-path:url(#SVGID_210_);}
	.st102{clip-path:url(#SVGID_211_);}
	.st103{clip-path:url(#SVGID_212_);}
	.st104{clip-path:url(#SVGID_213_);}
	.st105{clip-path:url(#SVGID_214_);}
	.st106{clip-path:url(#SVGID_215_);}
	.st107{clip-path:url(#SVGID_216_);}
	.st108{clip-path:url(#SVGID_217_);}
	.st109{clip-path:url(#SVGID_218_);}
	.st110{clip-path:url(#SVGID_219_);}
	.st111{clip-path:url(#SVGID_220_);fill:none;stroke:#6311AA;stroke-width:1.5;stroke-miterlimit:10;}
	.st112{clip-path:url(#SVGID_2_);fill:url(#SVGID_221_);}
</style>
<g>
	<polygon class="st0" points="0,232.6 1889.9,89 1889.9,897 0,786.7 	"/>
	<g>
		<g>
			<defs>
				<rect id="SVGID_1_" y="-7877.4" width="1889.9" height="9743.1"/>
			</defs>
			<clipPath id="SVGID_2_">
				<use xlink:href="#SVGID_1_"  style="overflow:visible;"/>
			</clipPath>
			<g class="st1">
				<g>
					<g class="st2">
						<defs>
							<rect id="SVGID_3_" x="-0.8" y="90.6" class="st2" width="1891.2" height="806.8"/>
						</defs>
						<clipPath id="SVGID_4_">
							<use xlink:href="#SVGID_3_"  style="overflow:visible;"/>
						</clipPath>
						<g class="st3">
							<g>
								<defs>
									<rect id="SVGID_5_" x="-0.8" y="90.6" width="1891.2" height="806.8"/>
								</defs>
								<defs>
									<rect id="SVGID_6_" x="-0.8" y="90.6" width="1891.2" height="806.8"/>
								</defs>
								<defs>
									<rect id="SVGID_7_" x="-0.8" y="90.6" width="1891.2" height="806.8"/>
								</defs>
								<defs>
									<rect id="SVGID_8_" x="-0.8" y="90.6" width="1891.2" height="806.8"/>
								</defs>
								<defs>
									<rect id="SVGID_9_" x="-0.8" y="90.6" width="1891.2" height="806.8"/>
								</defs>
								<defs>
									<rect id="SVGID_10_" x="-0.8" y="90.6" width="1891.2" height="806.8"/>
								</defs>
								<defs>
									<rect id="SVGID_11_" x="-0.8" y="90.6" width="1891.2" height="806.8"/>
								</defs>
								<defs>
									<rect id="SVGID_12_" x="-0.8" y="90.6" width="1891.2" height="806.8"/>
								</defs>
								<defs>
									<rect id="SVGID_13_" x="-0.8" y="90.6" width="1891.2" height="806.8"/>
								</defs>
								<defs>
									<rect id="SVGID_14_" x="-0.8" y="90.6" width="1891.2" height="806.8"/>
								</defs>
								<defs>
									<rect id="SVGID_15_" x="-0.8" y="90.6" width="1891.2" height="806.8"/>
								</defs>
								<defs>
									<rect id="SVGID_16_" x="-0.8" y="90.6" width="1891.2" height="806.8"/>
								</defs>
								<defs>
									<rect id="SVGID_17_" x="-0.8" y="90.6" width="1891.2" height="806.8"/>
								</defs>
								<defs>
									<rect id="SVGID_18_" x="-0.8" y="90.6" width="1891.2" height="806.8"/>
								</defs>
								<defs>
									<rect id="SVGID_19_" x="-0.8" y="90.6" width="1891.2" height="806.8"/>
								</defs>
								<defs>
									<rect id="SVGID_20_" x="-0.8" y="90.6" width="1891.2" height="806.8"/>
								</defs>
								<defs>
									<rect id="SVGID_21_" x="-0.8" y="90.6" width="1891.2" height="806.8"/>
								</defs>
								<defs>
									<rect id="SVGID_22_" x="-0.8" y="90.6" width="1891.2" height="806.8"/>
								</defs>
								<defs>
									<rect id="SVGID_23_" x="-0.8" y="90.6" width="1891.2" height="806.8"/>
								</defs>
								<defs>
									<rect id="SVGID_24_" x="-0.8" y="90.6" width="1891.2" height="806.8"/>
								</defs>
								<defs>
									<rect id="SVGID_25_" x="-0.8" y="90.6" width="1891.2" height="806.8"/>
								</defs>
								<defs>
									<rect id="SVGID_26_" x="-0.8" y="90.6" width="1891.2" height="806.8"/>
								</defs>
								<defs>
									<rect id="SVGID_27_" x="-0.8" y="90.6" width="1891.2" height="806.8"/>
								</defs>
								<defs>
									<rect id="SVGID_28_" x="-0.8" y="90.6" width="1891.2" height="806.8"/>
								</defs>
								<defs>
									<rect id="SVGID_29_" x="-0.8" y="90.6" width="1891.2" height="806.8"/>
								</defs>
								<defs>
									<rect id="SVGID_30_" x="-0.8" y="90.6" width="1891.2" height="806.8"/>
								</defs>
								<defs>
									<rect id="SVGID_31_" x="-0.8" y="90.6" width="1891.2" height="806.8"/>
								</defs>
								<defs>
									<rect id="SVGID_32_" x="-0.8" y="90.6" width="1891.2" height="806.8"/>
								</defs>
								<defs>
									<rect id="SVGID_33_" x="-0.8" y="90.6" width="1891.2" height="806.8"/>
								</defs>
								<defs>
									<rect id="SVGID_34_" x="-0.8" y="90.6" width="1891.2" height="806.8"/>
								</defs>
								<defs>
									<rect id="SVGID_35_" x="-0.8" y="90.6" width="1891.2" height="806.8"/>
								</defs>
								<defs>
									<rect id="SVGID_36_" x="-0.8" y="90.6" width="1891.2" height="806.8"/>
								</defs>
								<defs>
									<rect id="SVGID_37_" x="-0.8" y="90.6" width="1891.2" height="806.8"/>
								</defs>
								<defs>
									<rect id="SVGID_38_" x="-0.8" y="90.6" width="1891.2" height="806.8"/>
								</defs>
								<defs>
									<rect id="SVGID_39_" x="-0.8" y="90.6" width="1891.2" height="806.8"/>
								</defs>
								<defs>
									<rect id="SVGID_40_" x="-0.8" y="90.6" width="1891.2" height="806.8"/>
								</defs>
								<defs>
									<rect id="SVGID_41_" x="-0.8" y="90.6" width="1891.2" height="806.8"/>
								</defs>
								<defs>
									<rect id="SVGID_42_" x="-0.8" y="90.6" width="1891.2" height="806.8"/>
								</defs>
								<defs>
									<rect id="SVGID_43_" x="-0.8" y="90.6" width="1891.2" height="806.8"/>
								</defs>
								<defs>
									<rect id="SVGID_44_" x="-0.8" y="90.6" width="1891.2" height="806.8"/>
								</defs>
								<defs>
									<rect id="SVGID_45_" x="-0.8" y="90.6" width="1891.2" height="806.8"/>
								</defs>
								<defs>
									<rect id="SVGID_46_" x="-0.8" y="90.6" width="1891.2" height="806.8"/>
								</defs>
								<defs>
									<rect id="SVGID_47_" x="-0.8" y="90.6" width="1891.2" height="806.8"/>
								</defs>
								<defs>
									<rect id="SVGID_48_" x="-0.8" y="90.6" width="1891.2" height="806.8"/>
								</defs>
								<defs>
									<rect id="SVGID_49_" x="-0.8" y="90.6" width="1891.2" height="806.8"/>
								</defs>
								<defs>
									<rect id="SVGID_50_" x="-0.8" y="90.6" width="1891.2" height="806.8"/>
								</defs>
								<defs>
									<rect id="SVGID_51_" x="-0.8" y="90.6" width="1891.2" height="806.8"/>
								</defs>
								<defs>
									<rect id="SVGID_52_" x="-0.8" y="90.6" width="1891.2" height="806.8"/>
								</defs>
								<defs>
									<rect id="SVGID_53_" x="-0.8" y="90.6" width="1891.2" height="806.8"/>
								</defs>
								<defs>
									<rect id="SVGID_54_" x="-0.8" y="90.6" width="1891.2" height="806.8"/>
								</defs>
								<defs>
									<rect id="SVGID_55_" x="-0.8" y="90.6" width="1891.2" height="806.8"/>
								</defs>
								<defs>
									<rect id="SVGID_56_" x="-0.8" y="90.6" width="1891.2" height="806.8"/>
								</defs>
								<defs>
									<rect id="SVGID_57_" x="-0.8" y="90.6" width="1891.2" height="806.8"/>
								</defs>
								<defs>
									<rect id="SVGID_58_" x="-0.8" y="90.6" width="1891.2" height="806.8"/>
								</defs>
								<defs>
									<rect id="SVGID_59_" x="-0.8" y="90.6" width="1891.2" height="806.8"/>
								</defs>
								<defs>
									<rect id="SVGID_60_" x="-0.8" y="90.6" width="1891.2" height="806.8"/>
								</defs>
								<defs>
									<rect id="SVGID_61_" x="-0.8" y="90.6" width="1891.2" height="806.8"/>
								</defs>
								<defs>
									<rect id="SVGID_62_" x="-0.8" y="90.6" width="1891.2" height="806.8"/>
								</defs>
								<defs>
									<rect id="SVGID_63_" x="-0.8" y="90.6" width="1891.2" height="806.8"/>
								</defs>
								<defs>
									<rect id="SVGID_64_" x="-0.8" y="90.6" width="1891.2" height="806.8"/>
								</defs>
								<defs>
									<rect id="SVGID_65_" x="-0.8" y="90.6" width="1891.2" height="806.8"/>
								</defs>
								<defs>
									<rect id="SVGID_66_" x="-0.8" y="90.6" width="1891.2" height="806.8"/>
								</defs>
								<defs>
									<rect id="SVGID_67_" x="-0.8" y="90.6" width="1891.2" height="806.8"/>
								</defs>
								<defs>
									<rect id="SVGID_68_" x="-0.8" y="90.6" width="1891.2" height="806.8"/>
								</defs>
								<defs>
									<rect id="SVGID_69_" x="-0.8" y="90.6" width="1891.2" height="806.8"/>
								</defs>
								<defs>
									<rect id="SVGID_70_" x="-0.8" y="90.6" width="1891.2" height="806.8"/>
								</defs>
								<defs>
									<rect id="SVGID_71_" x="-0.8" y="90.6" width="1891.2" height="806.8"/>
								</defs>
								<defs>
									<rect id="SVGID_72_" x="-0.8" y="90.6" width="1891.2" height="806.8"/>
								</defs>
								<defs>
									<rect id="SVGID_73_" x="-0.8" y="90.6" width="1891.2" height="806.8"/>
								</defs>
								<defs>
									<rect id="SVGID_74_" x="-0.8" y="90.6" width="1891.2" height="806.8"/>
								</defs>
								<defs>
									<rect id="SVGID_75_" x="-0.8" y="90.6" width="1891.2" height="806.8"/>
								</defs>
								<defs>
									<rect id="SVGID_76_" x="-0.8" y="90.6" width="1891.2" height="806.8"/>
								</defs>
								<defs>
									<rect id="SVGID_77_" x="-0.8" y="90.6" width="1891.2" height="806.8"/>
								</defs>
								<defs>
									<rect id="SVGID_78_" x="-0.8" y="90.6" width="1891.2" height="806.8"/>
								</defs>
								<defs>
									<rect id="SVGID_79_" x="-0.8" y="90.6" width="1891.2" height="806.8"/>
								</defs>
								<defs>
									<rect id="SVGID_80_" x="-0.8" y="90.6" width="1891.2" height="806.8"/>
								</defs>
								<defs>
									<rect id="SVGID_81_" x="-0.8" y="90.6" width="1891.2" height="806.8"/>
								</defs>
								<defs>
									<rect id="SVGID_82_" x="-0.8" y="90.6" width="1891.2" height="806.8"/>
								</defs>
								<defs>
									<rect id="SVGID_83_" x="-0.8" y="90.6" width="1891.2" height="806.8"/>
								</defs>
								<defs>
									<rect id="SVGID_84_" x="-0.8" y="90.6" width="1891.2" height="806.8"/>
								</defs>
								<defs>
									<rect id="SVGID_85_" x="-0.8" y="90.6" width="1891.2" height="806.8"/>
								</defs>
								<defs>
									<rect id="SVGID_86_" x="-0.8" y="90.6" width="1891.2" height="806.8"/>
								</defs>
								<defs>
									<rect id="SVGID_87_" x="-0.8" y="90.6" width="1891.2" height="806.8"/>
								</defs>
								<defs>
									<rect id="SVGID_88_" x="-0.8" y="90.6" width="1891.2" height="806.8"/>
								</defs>
								<defs>
									<rect id="SVGID_89_" x="-0.8" y="90.6" width="1891.2" height="806.8"/>
								</defs>
								<defs>
									<rect id="SVGID_90_" x="-0.8" y="90.6" width="1891.2" height="806.8"/>
								</defs>
								<defs>
									<rect id="SVGID_91_" x="-0.8" y="90.6" width="1891.2" height="806.8"/>
								</defs>
								<defs>
									<rect id="SVGID_92_" x="-0.8" y="90.6" width="1891.2" height="806.8"/>
								</defs>
								<defs>
									<rect id="SVGID_93_" x="-0.8" y="90.6" width="1891.2" height="806.8"/>
								</defs>
								<defs>
									<rect id="SVGID_94_" x="-0.8" y="90.6" width="1891.2" height="806.8"/>
								</defs>
								<defs>
									<rect id="SVGID_95_" x="-0.8" y="90.6" width="1891.2" height="806.8"/>
								</defs>
								<defs>
									<rect id="SVGID_96_" x="-0.8" y="90.6" width="1891.2" height="806.8"/>
								</defs>
								<defs>
									<rect id="SVGID_97_" x="-0.8" y="90.6" width="1891.2" height="806.8"/>
								</defs>
								<defs>
									<rect id="SVGID_98_" x="-0.8" y="90.6" width="1891.2" height="806.8"/>
								</defs>
								<defs>
									<rect id="SVGID_99_" x="-0.8" y="90.6" width="1891.2" height="806.8"/>
								</defs>
								<defs>
									<rect id="SVGID_100_" x="-0.8" y="90.6" width="1891.2" height="806.8"/>
								</defs>
								<defs>
									<rect id="SVGID_101_" x="-0.8" y="90.6" width="1891.2" height="806.8"/>
								</defs>
								<defs>
									<rect id="SVGID_102_" x="-0.8" y="90.6" width="1891.2" height="806.8"/>
								</defs>
								<defs>
									<rect id="SVGID_103_" x="-0.8" y="90.6" width="1891.2" height="806.8"/>
								</defs>
								<defs>
									<rect id="SVGID_104_" x="-0.8" y="90.6" width="1891.2" height="806.8"/>
								</defs>
								<defs>
									<rect id="SVGID_105_" x="-0.8" y="90.6" width="1891.2" height="806.8"/>
								</defs>
								<defs>
									<rect id="SVGID_106_" x="-0.8" y="90.6" width="1891.2" height="806.8"/>
								</defs>
								<defs>
									<rect id="SVGID_107_" x="-0.8" y="90.6" width="1891.2" height="806.8"/>
								</defs>
								<defs>
									<rect id="SVGID_108_" x="-0.8" y="90.6" width="1891.2" height="806.8"/>
								</defs>
								<defs>
									<rect id="SVGID_109_" x="-0.8" y="90.6" width="1891.2" height="806.8"/>
								</defs>
								<defs>
									<rect id="SVGID_110_" x="-0.8" y="90.6" width="1891.2" height="806.8"/>
								</defs>
								<defs>
									<rect id="SVGID_111_" x="-0.8" y="90.6" width="1891.2" height="806.8"/>
								</defs>
								<defs>
									<rect id="SVGID_112_" x="-0.8" y="90.6" width="1891.2" height="806.8"/>
								</defs>
								<clipPath id="SVGID_113_">
									<use xlink:href="#SVGID_5_"  style="overflow:visible;"/>
								</clipPath>
								<clipPath id="SVGID_114_" class="st4">
									<use xlink:href="#SVGID_6_"  style="overflow:visible;"/>
								</clipPath>
								<clipPath id="SVGID_115_" class="st5">
									<use xlink:href="#SVGID_7_"  style="overflow:visible;"/>
								</clipPath>
								<clipPath id="SVGID_116_" class="st6">
									<use xlink:href="#SVGID_8_"  style="overflow:visible;"/>
								</clipPath>
								<clipPath id="SVGID_117_" class="st7">
									<use xlink:href="#SVGID_9_"  style="overflow:visible;"/>
								</clipPath>
								<clipPath id="SVGID_118_" class="st8">
									<use xlink:href="#SVGID_10_"  style="overflow:visible;"/>
								</clipPath>
								<clipPath id="SVGID_119_" class="st9">
									<use xlink:href="#SVGID_11_"  style="overflow:visible;"/>
								</clipPath>
								<clipPath id="SVGID_120_" class="st10">
									<use xlink:href="#SVGID_12_"  style="overflow:visible;"/>
								</clipPath>
								<clipPath id="SVGID_121_" class="st11">
									<use xlink:href="#SVGID_13_"  style="overflow:visible;"/>
								</clipPath>
								<clipPath id="SVGID_122_" class="st12">
									<use xlink:href="#SVGID_14_"  style="overflow:visible;"/>
								</clipPath>
								<clipPath id="SVGID_123_" class="st13">
									<use xlink:href="#SVGID_15_"  style="overflow:visible;"/>
								</clipPath>
								<clipPath id="SVGID_124_" class="st14">
									<use xlink:href="#SVGID_16_"  style="overflow:visible;"/>
								</clipPath>
								<clipPath id="SVGID_125_" class="st15">
									<use xlink:href="#SVGID_17_"  style="overflow:visible;"/>
								</clipPath>
								<clipPath id="SVGID_126_" class="st16">
									<use xlink:href="#SVGID_18_"  style="overflow:visible;"/>
								</clipPath>
								<clipPath id="SVGID_127_" class="st17">
									<use xlink:href="#SVGID_19_"  style="overflow:visible;"/>
								</clipPath>
								<clipPath id="SVGID_128_" class="st18">
									<use xlink:href="#SVGID_20_"  style="overflow:visible;"/>
								</clipPath>
								<clipPath id="SVGID_129_" class="st19">
									<use xlink:href="#SVGID_21_"  style="overflow:visible;"/>
								</clipPath>
								<clipPath id="SVGID_130_" class="st20">
									<use xlink:href="#SVGID_22_"  style="overflow:visible;"/>
								</clipPath>
								<clipPath id="SVGID_131_" class="st21">
									<use xlink:href="#SVGID_23_"  style="overflow:visible;"/>
								</clipPath>
								<clipPath id="SVGID_132_" class="st22">
									<use xlink:href="#SVGID_24_"  style="overflow:visible;"/>
								</clipPath>
								<clipPath id="SVGID_133_" class="st23">
									<use xlink:href="#SVGID_25_"  style="overflow:visible;"/>
								</clipPath>
								<clipPath id="SVGID_134_" class="st24">
									<use xlink:href="#SVGID_26_"  style="overflow:visible;"/>
								</clipPath>
								<clipPath id="SVGID_135_" class="st25">
									<use xlink:href="#SVGID_27_"  style="overflow:visible;"/>
								</clipPath>
								<clipPath id="SVGID_136_" class="st26">
									<use xlink:href="#SVGID_28_"  style="overflow:visible;"/>
								</clipPath>
								<clipPath id="SVGID_137_" class="st27">
									<use xlink:href="#SVGID_29_"  style="overflow:visible;"/>
								</clipPath>
								<clipPath id="SVGID_138_" class="st28">
									<use xlink:href="#SVGID_30_"  style="overflow:visible;"/>
								</clipPath>
								<clipPath id="SVGID_139_" class="st29">
									<use xlink:href="#SVGID_31_"  style="overflow:visible;"/>
								</clipPath>
								<clipPath id="SVGID_140_" class="st30">
									<use xlink:href="#SVGID_32_"  style="overflow:visible;"/>
								</clipPath>
								<clipPath id="SVGID_141_" class="st31">
									<use xlink:href="#SVGID_33_"  style="overflow:visible;"/>
								</clipPath>
								<clipPath id="SVGID_142_" class="st32">
									<use xlink:href="#SVGID_34_"  style="overflow:visible;"/>
								</clipPath>
								<clipPath id="SVGID_143_" class="st33">
									<use xlink:href="#SVGID_35_"  style="overflow:visible;"/>
								</clipPath>
								<clipPath id="SVGID_144_" class="st34">
									<use xlink:href="#SVGID_36_"  style="overflow:visible;"/>
								</clipPath>
								<clipPath id="SVGID_145_" class="st35">
									<use xlink:href="#SVGID_37_"  style="overflow:visible;"/>
								</clipPath>
								<clipPath id="SVGID_146_" class="st36">
									<use xlink:href="#SVGID_38_"  style="overflow:visible;"/>
								</clipPath>
								<clipPath id="SVGID_147_" class="st37">
									<use xlink:href="#SVGID_39_"  style="overflow:visible;"/>
								</clipPath>
								<clipPath id="SVGID_148_" class="st38">
									<use xlink:href="#SVGID_40_"  style="overflow:visible;"/>
								</clipPath>
								<clipPath id="SVGID_149_" class="st39">
									<use xlink:href="#SVGID_41_"  style="overflow:visible;"/>
								</clipPath>
								<clipPath id="SVGID_150_" class="st40">
									<use xlink:href="#SVGID_42_"  style="overflow:visible;"/>
								</clipPath>
								<clipPath id="SVGID_151_" class="st41">
									<use xlink:href="#SVGID_43_"  style="overflow:visible;"/>
								</clipPath>
								<clipPath id="SVGID_152_" class="st42">
									<use xlink:href="#SVGID_44_"  style="overflow:visible;"/>
								</clipPath>
								<clipPath id="SVGID_153_" class="st43">
									<use xlink:href="#SVGID_45_"  style="overflow:visible;"/>
								</clipPath>
								<clipPath id="SVGID_154_" class="st44">
									<use xlink:href="#SVGID_46_"  style="overflow:visible;"/>
								</clipPath>
								<clipPath id="SVGID_155_" class="st45">
									<use xlink:href="#SVGID_47_"  style="overflow:visible;"/>
								</clipPath>
								<clipPath id="SVGID_156_" class="st46">
									<use xlink:href="#SVGID_48_"  style="overflow:visible;"/>
								</clipPath>
								<clipPath id="SVGID_157_" class="st47">
									<use xlink:href="#SVGID_49_"  style="overflow:visible;"/>
								</clipPath>
								<clipPath id="SVGID_158_" class="st48">
									<use xlink:href="#SVGID_50_"  style="overflow:visible;"/>
								</clipPath>
								<clipPath id="SVGID_159_" class="st49">
									<use xlink:href="#SVGID_51_"  style="overflow:visible;"/>
								</clipPath>
								<clipPath id="SVGID_160_" class="st50">
									<use xlink:href="#SVGID_52_"  style="overflow:visible;"/>
								</clipPath>
								<clipPath id="SVGID_161_" class="st51">
									<use xlink:href="#SVGID_53_"  style="overflow:visible;"/>
								</clipPath>
								<clipPath id="SVGID_162_" class="st52">
									<use xlink:href="#SVGID_54_"  style="overflow:visible;"/>
								</clipPath>
								<clipPath id="SVGID_163_" class="st53">
									<use xlink:href="#SVGID_55_"  style="overflow:visible;"/>
								</clipPath>
								<clipPath id="SVGID_164_" class="st54">
									<use xlink:href="#SVGID_56_"  style="overflow:visible;"/>
								</clipPath>
								<clipPath id="SVGID_165_" class="st55">
									<use xlink:href="#SVGID_57_"  style="overflow:visible;"/>
								</clipPath>
								<clipPath id="SVGID_166_" class="st56">
									<use xlink:href="#SVGID_58_"  style="overflow:visible;"/>
								</clipPath>
								<clipPath id="SVGID_167_" class="st57">
									<use xlink:href="#SVGID_59_"  style="overflow:visible;"/>
								</clipPath>
								<clipPath id="SVGID_168_" class="st58">
									<use xlink:href="#SVGID_60_"  style="overflow:visible;"/>
								</clipPath>
								<clipPath id="SVGID_169_" class="st59">
									<use xlink:href="#SVGID_61_"  style="overflow:visible;"/>
								</clipPath>
								<clipPath id="SVGID_170_" class="st60">
									<use xlink:href="#SVGID_62_"  style="overflow:visible;"/>
								</clipPath>
								<clipPath id="SVGID_171_" class="st61">
									<use xlink:href="#SVGID_63_"  style="overflow:visible;"/>
								</clipPath>
								<clipPath id="SVGID_172_" class="st62">
									<use xlink:href="#SVGID_64_"  style="overflow:visible;"/>
								</clipPath>
								<clipPath id="SVGID_173_" class="st63">
									<use xlink:href="#SVGID_65_"  style="overflow:visible;"/>
								</clipPath>
								<clipPath id="SVGID_174_" class="st64">
									<use xlink:href="#SVGID_66_"  style="overflow:visible;"/>
								</clipPath>
								<clipPath id="SVGID_175_" class="st65">
									<use xlink:href="#SVGID_67_"  style="overflow:visible;"/>
								</clipPath>
								<clipPath id="SVGID_176_" class="st66">
									<use xlink:href="#SVGID_68_"  style="overflow:visible;"/>
								</clipPath>
								<clipPath id="SVGID_177_" class="st67">
									<use xlink:href="#SVGID_69_"  style="overflow:visible;"/>
								</clipPath>
								<clipPath id="SVGID_178_" class="st68">
									<use xlink:href="#SVGID_70_"  style="overflow:visible;"/>
								</clipPath>
								<clipPath id="SVGID_179_" class="st69">
									<use xlink:href="#SVGID_71_"  style="overflow:visible;"/>
								</clipPath>
								<clipPath id="SVGID_180_" class="st70">
									<use xlink:href="#SVGID_72_"  style="overflow:visible;"/>
								</clipPath>
								<clipPath id="SVGID_181_" class="st71">
									<use xlink:href="#SVGID_73_"  style="overflow:visible;"/>
								</clipPath>
								<clipPath id="SVGID_182_" class="st72">
									<use xlink:href="#SVGID_74_"  style="overflow:visible;"/>
								</clipPath>
								<clipPath id="SVGID_183_" class="st73">
									<use xlink:href="#SVGID_75_"  style="overflow:visible;"/>
								</clipPath>
								<clipPath id="SVGID_184_" class="st74">
									<use xlink:href="#SVGID_76_"  style="overflow:visible;"/>
								</clipPath>
								<clipPath id="SVGID_185_" class="st75">
									<use xlink:href="#SVGID_77_"  style="overflow:visible;"/>
								</clipPath>
								<clipPath id="SVGID_186_" class="st76">
									<use xlink:href="#SVGID_78_"  style="overflow:visible;"/>
								</clipPath>
								<clipPath id="SVGID_187_" class="st77">
									<use xlink:href="#SVGID_79_"  style="overflow:visible;"/>
								</clipPath>
								<clipPath id="SVGID_188_" class="st78">
									<use xlink:href="#SVGID_80_"  style="overflow:visible;"/>
								</clipPath>
								<clipPath id="SVGID_189_" class="st79">
									<use xlink:href="#SVGID_81_"  style="overflow:visible;"/>
								</clipPath>
								<clipPath id="SVGID_190_" class="st80">
									<use xlink:href="#SVGID_82_"  style="overflow:visible;"/>
								</clipPath>
								<clipPath id="SVGID_191_" class="st81">
									<use xlink:href="#SVGID_83_"  style="overflow:visible;"/>
								</clipPath>
								<clipPath id="SVGID_192_" class="st82">
									<use xlink:href="#SVGID_84_"  style="overflow:visible;"/>
								</clipPath>
								<clipPath id="SVGID_193_" class="st83">
									<use xlink:href="#SVGID_85_"  style="overflow:visible;"/>
								</clipPath>
								<clipPath id="SVGID_194_" class="st84">
									<use xlink:href="#SVGID_86_"  style="overflow:visible;"/>
								</clipPath>
								<clipPath id="SVGID_195_" class="st85">
									<use xlink:href="#SVGID_87_"  style="overflow:visible;"/>
								</clipPath>
								<clipPath id="SVGID_196_" class="st86">
									<use xlink:href="#SVGID_88_"  style="overflow:visible;"/>
								</clipPath>
								<clipPath id="SVGID_197_" class="st87">
									<use xlink:href="#SVGID_89_"  style="overflow:visible;"/>
								</clipPath>
								<clipPath id="SVGID_198_" class="st88">
									<use xlink:href="#SVGID_90_"  style="overflow:visible;"/>
								</clipPath>
								<clipPath id="SVGID_199_" class="st89">
									<use xlink:href="#SVGID_91_"  style="overflow:visible;"/>
								</clipPath>
								<clipPath id="SVGID_200_" class="st90">
									<use xlink:href="#SVGID_92_"  style="overflow:visible;"/>
								</clipPath>
								<clipPath id="SVGID_201_" class="st91">
									<use xlink:href="#SVGID_93_"  style="overflow:visible;"/>
								</clipPath>
								<clipPath id="SVGID_202_" class="st92">
									<use xlink:href="#SVGID_94_"  style="overflow:visible;"/>
								</clipPath>
								<clipPath id="SVGID_203_" class="st93">
									<use xlink:href="#SVGID_95_"  style="overflow:visible;"/>
								</clipPath>
								<clipPath id="SVGID_204_" class="st94">
									<use xlink:href="#SVGID_96_"  style="overflow:visible;"/>
								</clipPath>
								<clipPath id="SVGID_205_" class="st95">
									<use xlink:href="#SVGID_97_"  style="overflow:visible;"/>
								</clipPath>
								<clipPath id="SVGID_206_" class="st96">
									<use xlink:href="#SVGID_98_"  style="overflow:visible;"/>
								</clipPath>
								<clipPath id="SVGID_207_" class="st97">
									<use xlink:href="#SVGID_99_"  style="overflow:visible;"/>
								</clipPath>
								<clipPath id="SVGID_208_" class="st98">
									<use xlink:href="#SVGID_100_"  style="overflow:visible;"/>
								</clipPath>
								<clipPath id="SVGID_209_" class="st99">
									<use xlink:href="#SVGID_101_"  style="overflow:visible;"/>
								</clipPath>
								<clipPath id="SVGID_210_" class="st100">
									<use xlink:href="#SVGID_102_"  style="overflow:visible;"/>
								</clipPath>
								<clipPath id="SVGID_211_" class="st101">
									<use xlink:href="#SVGID_103_"  style="overflow:visible;"/>
								</clipPath>
								<clipPath id="SVGID_212_" class="st102">
									<use xlink:href="#SVGID_104_"  style="overflow:visible;"/>
								</clipPath>
								<clipPath id="SVGID_213_" class="st103">
									<use xlink:href="#SVGID_105_"  style="overflow:visible;"/>
								</clipPath>
								<clipPath id="SVGID_214_" class="st104">
									<use xlink:href="#SVGID_106_"  style="overflow:visible;"/>
								</clipPath>
								<clipPath id="SVGID_215_" class="st105">
									<use xlink:href="#SVGID_107_"  style="overflow:visible;"/>
								</clipPath>
								<clipPath id="SVGID_216_" class="st106">
									<use xlink:href="#SVGID_108_"  style="overflow:visible;"/>
								</clipPath>
								<clipPath id="SVGID_217_" class="st107">
									<use xlink:href="#SVGID_109_"  style="overflow:visible;"/>
								</clipPath>
								<clipPath id="SVGID_218_" class="st108">
									<use xlink:href="#SVGID_110_"  style="overflow:visible;"/>
								</clipPath>
								<clipPath id="SVGID_219_" class="st109">
									<use xlink:href="#SVGID_111_"  style="overflow:visible;"/>
								</clipPath>
								<clipPath id="SVGID_220_" class="st110">
									<use xlink:href="#SVGID_112_"  style="overflow:visible;"/>
								</clipPath>
								<polygon class="st111" points="5.7,-303.2 -178.9,534.5 -62,22.3 								"/>
								<polygon class="st111" points="1439.8,-64.9 1113.8,-44.6 1294.2,86.7 								"/>
								<polygon class="st111" points="1439.8,-64.9 1294.2,86.7 1565.1,22.2 								"/>
								<polygon class="st111" points="1799.1,-37.7 1738.1,43.8 1970.6,128.3 								"/>
								<polygon class="st111" points="1799.1,-37.7 1970.6,128.3 1989,-1.8 								"/>
								<polygon class="st111" points="244.3,-123.6 -62,22.3 172,97.2 								"/>
								<polygon class="st111" points="244.3,-123.6 172,97.2 358.6,-113.2 								"/>
								<polygon class="st111" points="358.6,-113.2 172,97.2 348.4,164.3 								"/>
								<polygon class="st111" points="358.6,-113.2 348.4,164.3 617,71.6 								"/>
								<polygon class="st111" points="788.2,-96.9 617,71.6 681.9,137.6 								"/>
								<polygon class="st111" points="788.2,-96.9 681.9,137.6 870,153.5 								"/>
								<polygon class="st111" points="788.2,-96.9 870,153.5 998.7,71.5 								"/>
								<polygon class="st111" points="998.7,71.5 870,153.5 1119.9,224.2 								"/>
								<polygon class="st111" points="998.7,71.5 1119.9,224.2 1294.2,86.7 								"/>
								<polygon class="st111" points="998.7,71.5 1294.2,86.7 1113.8,-44.6 								"/>
								<polygon class="st111" points="1294.2,86.7 1119.9,224.2 1379.6,203.7 								"/>
								<polygon class="st111" points="1294.2,86.7 1379.6,203.7 1565.1,22.2 								"/>
								<polygon class="st111" points="1565.1,22.2 1379.6,203.7 1505.6,280.3 								"/>
								<polygon class="st111" points="1505.6,280.3 1699.5,220.5 1565.1,22.2 								"/>
								<polygon class="st111" points="1565.1,22.2 1699.6,220.5 1738.1,43.8 								"/>
								<polygon class="st111" points="1738.1,43.8 1699.6,220.5 1970.6,128.3 								"/>
								<polygon class="st111" points="1970.6,128.3 1699.6,220.5 1967.1,291.3 								"/>
								<polygon class="st111" points="-62,22.2 -99.1,193.6 110.7,188.4 								"/>
								<polygon class="st111" points="-62,22.2 110.7,188.4 172,97.2 								"/>
								<polygon class="st111" points="172,97.2 110.7,188.4 240.1,300.1 								"/>
								<polygon class="st111" points="172,97.2 240.1,300.1 348.4,164.3 								"/>
								<polygon class="st111" points="348.4,164.3 240.1,300.1 481,362 								"/>
								<polygon class="st111" points="348.4,164.3 481,362 617,71.6 								"/>
								<polygon class="st111" points="617,71.6 481,362 681.9,137.6 								"/>
								<polygon class="st111" points="681.9,137.6 481,362 747.6,266.9 								"/>
								<polygon class="st111" points="681.9,137.6 747.6,266.9 870,153.5 								"/>
								<polygon class="st111" points="870,153.5 747.6,266.9 948,402.7 								"/>
								<polygon class="st111" points="870,153.5 948,402.7 1027,382.5 								"/>
								<polygon class="st111" points="870,153.5 1027,382.5 1119.9,224.2 								"/>
								<polygon class="st111" points="1119.9,224.2 1027,382.5 1220.5,435 								"/>
								<polygon class="st111" points="1119.9,224.2 1220.5,435 1379.6,203.7 								"/>
								<polygon class="st111" points="1379.6,203.7 1220.5,435 1433,397.7 								"/>
								<polygon class="st111" points="1379.6,203.7 1433,397.7 1505.6,280.3 								"/>
								<polygon class="st111" points="1505.6,280.3 1433,397.7 1678.9,470.8 								"/>
								<polygon class="st111" points="1678.9,470.8 1699.6,220.5 1505.6,280.3 								"/>
								<polygon class="st111" points="1699.6,220.5 1678.9,470.8 1967.1,291.3 								"/>
								<polygon class="st111" points="1967.1,291.3 1678.9,470.8 1915.9,501.1 								"/>
								<polygon class="st111" points="1967.1,291.4 1907.4,549.1 1875.3,923.1 								"/>
								<polygon class="st111" points="-99.1,193.6 -47.3,392.7 110.7,188.4 								"/>
								<polygon class="st111" points="110.7,188.4 -47.3,392.7 154.8,382.4 								"/>
								<polygon class="st111" points="110.7,188.4 154.8,382.4 240.1,300.1 								"/>
								<polygon class="st111" points="240.1,300.1 154.8,382.4 203,483.9 								"/>
								<polygon class="st111" points="240.1,300.1 203,483.9 481,362 								"/>
								<polygon class="st111" points="481,362 203,483.9 542,508.3 								"/>
								<polygon class="st111" points="481,362 542,508.3 650.5,458.8 								"/>
								<polygon class="st111" points="481,362 650.5,458.8 747.6,266.9 								"/>
								<polygon class="st111" points="747.6,266.9 650.5,458.8 872.6,492.4 								"/>
								<polygon class="st111" points="747.6,266.9 872.6,492.4 948,402.7 								"/>
								<polygon class="st111" points="948,402.7 872.6,492.4 1108.6,573.6 								"/>
								<polygon class="st111" points="948,402.7 1108.6,573.6 1027,382.5 								"/>
								<polygon class="st111" points="1027,382.5 1108.6,573.6 1220.5,435 								"/>
								<polygon class="st111" points="1220.5,435 1108.6,573.6 1298.1,587.4 								"/>
								<polygon class="st111" points="1220.5,435 1298.1,587.4 1433,397.7 								"/>
								<polygon class="st111" points="1433,397.7 1298.1,587.4 1510.1,621.8 								"/>
								<polygon class="st111" points="1433,397.7 1510.1,621.8 1678.9,470.8 								"/>
								<polygon class="st111" points="1678.9,470.8 1510.1,621.8 1589.4,688.6 								"/>
								<polygon class="st111" points="1678.9,470.8 1589.4,688.6 1801.4,613.1 								"/>
								<polygon class="st111" points="1678.9,470.8 1801.4,613.1 1915.9,501.1 								"/>
								<polygon class="st111" points="1915.9,501.1 1801.4,613.1 1895.7,806.9 								"/>
								<polygon class="st111" points="-47.3,392.7 -16,608.8 203,483.9 								"/>
								<polygon class="st111" points="-47.3,392.7 203,483.9 154.8,382.4 								"/>
								<polygon class="st111" points="203,483.9 -16,608.8 225.7,566.7 								"/>
								<polygon class="st111" points="203,483.9 225.7,566.7 542,508.3 								"/>
								<polygon class="st111" points="542,508.3 225.7,566.7 531.3,603.6 								"/>
								<polygon class="st111" points="542,508.3 531.3,603.6 650.5,458.8 								"/>
								<polygon class="st111" points="650.5,458.8 531.3,603.6 712.8,720 								"/>
								<polygon class="st111" points="650.5,458.8 712.8,720 872.6,492.4 								"/>
								<polygon class="st111" points="872.6,492.4 712.8,720 810.8,737.1 								"/>
								<polygon class="st111" points="872.6,492.4 810.8,737.1 1108.6,573.6 								"/>
								<polygon class="st111" points="1108.6,573.6 810.8,737.1 1081.4,790.2 								"/>
								<polygon class="st111" points="1108.6,573.6 1081.4,790.2 1195.2,727.1 								"/>
								<polygon class="st111" points="1108.6,573.6 1195.2,727.1 1298.1,587.4 								"/>
								<polygon class="st111" points="1298.1,587.4 1195.2,727.1 1487,783.5 								"/>
								<polygon class="st111" points="1298.1,587.4 1487,783.5 1510.1,621.8 								"/>
								<polygon class="st111" points="1510.1,621.8 1487,783.5 1589.4,688.6 								"/>
								<polygon class="st111" points="1589.4,688.6 1487,783.5 1598.5,800.3 								"/>
								<polygon class="st111" points="1589.4,688.6 1598.5,800.3 1801.4,613.1 								"/>
								<polygon class="st111" points="1801.4,613.1 1598.5,800.3 1895.7,806.9 								"/>
								<polygon class="st111" points="-16,608.8 -8.1,777.4 225.7,566.7 								"/>
								<polygon class="st111" points="225.7,566.7 -8.1,777.4 225.7,846.2 								"/>
								<polygon class="st111" points="225.7,566.7 225.7,846.2 452.1,771.9 								"/>
								<polygon class="st111" points="225.7,566.7 452.1,771.9 531.3,603.6 								"/>
								<polygon class="st111" points="531.3,603.6 452.1,771.9 542.9,839.2 								"/>
								<polygon class="st111" points="531.3,603.6 542.9,839.2 712.8,720 								"/>
								<polygon class="st111" points="712.8,720 542.9,839.2 787.4,837.4 								"/>
								<polygon class="st111" points="712.8,720 787.4,837.4 810.8,737.1 								"/>
								<polygon class="st111" points="810.8,737.1 787.4,837.4 1081.5,790.2 								"/>
								<polygon class="st111" points="1081.4,790.2 787.4,837.4 1066.9,893.4 								"/>
								<polygon class="st111" points="1081.4,790.2 1066.9,893.4 1232.2,969.9 								"/>
								<polygon class="st111" points="1081.4,790.2 1232.2,969.9 1195.2,727.1 								"/>
								<polygon class="st111" points="1195.2,727.1 1232.2,969.9 1487,783.5 								"/>
								<polygon class="st111" points="1487,783.5 1232.2,969.9 1351.4,1025.7 								"/>
								<polygon class="st111" points="1487,783.5 1351.4,1025.7 1630.2,1013.9 								"/>
								<polygon class="st111" points="1487,783.5 1630.2,1013.9 1598.5,800.3 								"/>
								<polygon class="st111" points="1598.5,800.3 1630.2,1013.9 1895.7,806.9 								"/>
								<polygon class="st111" points="1895.7,806.9 1630.2,1013.9 1847.5,1080.2 								"/>
								<polygon class="st111" points="-139.9,804.9 1351.4,1025.7 225.7,846.2 								"/>
								<polygon class="st111" points="-139.9,804.9 225.7,846.2 -8.1,777.4 								"/>
								<polygon class="st111" points="225.7,846.2 1351.4,1025.7 542.9,839.2 								"/>
								<polygon class="st111" points="225.7,846.2 542.9,839.2 452.1,771.9 								"/>
								<polygon class="st111" points="542.9,839.2 1351.4,1025.7 1232.2,969.9 								"/>
								<polygon class="st111" points="542.9,839.2 1232.2,969.9 787.4,837.4 								"/>
								<polygon class="st111" points="787.4,837.4 1232.2,969.9 1066.9,893.4 								"/>
							</g>
						</g>
					</g>
				</g>
			</g>
			
				<linearGradient id="SVGID_221_" gradientUnits="userSpaceOnUse" x1="948.3" y1="207.7353" x2="948.3" y2="1017.4557" gradientTransform="matrix(1 0 0 -1 0 998)">
				<stop  offset="0" style="stop-color:#822FF7"/>
				<stop  offset="1" style="stop-color:#822FF7;stop-opacity:0"/>
			</linearGradient>
			<rect y="347" class="st112" width="1896.6" height="551"/>
		</g>
	</g>
</g>
</svg>
