<?xml version="1.0" encoding="utf-8"?>
<!-- Generator: Adobe Illustrator 19.2.1, SVG Export Plug-In . SVG Version: 6.00 Build 0)  -->
<svg version="1.1" id="Layer_1" xmlns="http://www.w3.org/2000/svg" xmlns:xlink="http://www.w3.org/1999/xlink" x="0px" y="0px"
	 viewBox="0 0 1896.6 997" style="enable-background:new 0 0 1896.6 997;" xml:space="preserve">
<style type="text/css">
	.st0{clip-path:url(#SVGID_2_);}
	.st1{clip-path:url(#SVGID_4_);enable-background:new    ;}
	.st2{clip-path:url(#SVGID_6_);}
	.st3{clip-path:url(#SVGID_8_);fill:none;stroke:#6311AA;stroke-width:1;stroke-miterlimit:10;}
	.st4{fill:url(#SVGID_9_);}
</style>
<g>
	<defs>
		<polygon id="SVGID_1_" points="0,159.4 1889.9,0 1889.9,897 0,774.6 		"/>
	</defs>
	<clipPath id="SVGID_2_">
		<use xlink:href="#SVGID_1_"  style="overflow:visible;"/>
	</clipPath>
	<g class="st0">
		<defs>
			<rect id="SVGID_3_" y="-8843.9" width="1889.9" height="10816.3"/>
		</defs>
		<clipPath id="SVGID_4_">
			<use xlink:href="#SVGID_3_"  style="overflow:visible;"/>
		</clipPath>
		<g class="st1">
			<g>
				<defs>
					<rect id="SVGID_5_" x="-0.8" y="1.8" width="1891.2" height="895.7"/>
				</defs>
				<clipPath id="SVGID_6_">
					<use xlink:href="#SVGID_5_"  style="overflow:visible;"/>
				</clipPath>
				<g class="st2">
					<defs>
						<rect id="SVGID_7_" x="-0.8" y="1.8" width="1891.2" height="895.7"/>
					</defs>
					<clipPath id="SVGID_8_">
						<use xlink:href="#SVGID_7_"  style="overflow:visible;"/>
					</clipPath>
					<polygon class="st3" points="5.7,-435.4 -178.9,494.6 -62,-74.1 					"/>
					<polygon class="st3" points="1439.8,-170.8 1113.8,-148.3 1294.2,-2.6 					"/>
					<polygon class="st3" points="1439.8,-170.8 1294.2,-2.6 1565.1,-74.2 					"/>
					<polygon class="st3" points="1799.1,-140.7 1738.1,-50.2 1970.6,43.6 					"/>
					<polygon class="st3" points="1799.1,-140.7 1970.6,43.6 1989,-100.8 					"/>
					<polygon class="st3" points="244.3,-236 -62,-74.1 172,9.1 					"/>
					<polygon class="st3" points="244.3,-236 172,9.1 358.6,-224.5 					"/>
					<polygon class="st3" points="358.6,-224.5 172,9.1 348.4,83.6 					"/>
					<polygon class="st3" points="358.6,-224.5 348.4,83.6 617,-19.3 					"/>
					<polygon class="st3" points="788.2,-206.4 617,-19.3 681.9,53.9 					"/>
					<polygon class="st3" points="788.2,-206.4 681.9,53.9 870,71.6 					"/>
					<polygon class="st3" points="788.2,-206.4 870,71.6 998.7,-19.4 					"/>
					<polygon class="st3" points="998.7,-19.4 870,71.6 1119.9,150.1 					"/>
					<polygon class="st3" points="998.7,-19.4 1119.9,150.1 1294.2,-2.6 					"/>
					<polygon class="st3" points="998.7,-19.4 1294.2,-2.6 1113.8,-148.3 					"/>
					<polygon class="st3" points="1294.2,-2.6 1119.9,150.1 1379.6,127.3 					"/>
					<polygon class="st3" points="1294.2,-2.6 1379.6,127.3 1565.1,-74.2 					"/>
					<polygon class="st3" points="1565.1,-74.2 1379.6,127.3 1505.6,212.4 					"/>
					<polygon class="st3" points="1505.6,212.4 1699.5,146 1565.1,-74.2 					"/>
					<polygon class="st3" points="1565.1,-74.2 1699.6,146 1738.1,-50.2 					"/>
					<polygon class="st3" points="1738.1,-50.2 1699.6,146 1970.6,43.6 					"/>
					<polygon class="st3" points="1970.6,43.6 1699.6,146 1967.1,224.6 					"/>
					<polygon class="st3" points="-62,-74.2 -99.1,116.1 110.7,110.4 					"/>
					<polygon class="st3" points="-62,-74.2 110.7,110.4 172,9.1 					"/>
					<polygon class="st3" points="172,9.1 110.7,110.4 240.1,234.4 					"/>
					<polygon class="st3" points="172,9.1 240.1,234.4 348.4,83.6 					"/>
					<polygon class="st3" points="348.4,83.6 240.1,234.4 481,303.1 					"/>
					<polygon class="st3" points="348.4,83.6 481,303.1 617,-19.3 					"/>
					<polygon class="st3" points="617,-19.3 481,303.1 681.9,53.9 					"/>
					<polygon class="st3" points="681.9,53.9 481,303.1 747.6,197.5 					"/>
					<polygon class="st3" points="681.9,53.9 747.6,197.5 870,71.6 					"/>
					<polygon class="st3" points="870,71.6 747.6,197.5 948,348.3 					"/>
					<polygon class="st3" points="870,71.6 948,348.3 1027,325.8 					"/>
					<polygon class="st3" points="870,71.6 1027,325.8 1119.9,150.1 					"/>
					<polygon class="st3" points="1119.9,150.1 1027,325.8 1220.5,384.1 					"/>
					<polygon class="st3" points="1119.9,150.1 1220.5,384.1 1379.6,127.3 					"/>
					<polygon class="st3" points="1379.6,127.3 1220.5,384.1 1433,342.7 					"/>
					<polygon class="st3" points="1379.6,127.3 1433,342.7 1505.6,212.4 					"/>
					<polygon class="st3" points="1505.6,212.4 1433,342.7 1678.9,423.9 					"/>
					<polygon class="st3" points="1678.9,423.9 1699.6,146 1505.6,212.4 					"/>
					<polygon class="st3" points="1699.6,146 1678.9,423.9 1967.1,224.6 					"/>
					<polygon class="st3" points="1967.1,224.6 1678.9,423.9 1915.9,457.5 					"/>
					<polygon class="st3" points="1967.1,224.7 1907.4,510.8 1875.3,926 					"/>
					<polygon class="st3" points="-99.1,116.1 -47.3,337.2 110.7,110.4 					"/>
					<polygon class="st3" points="110.7,110.4 -47.3,337.2 154.8,325.7 					"/>
					<polygon class="st3" points="110.7,110.4 154.8,325.7 240.1,234.4 					"/>
					<polygon class="st3" points="240.1,234.4 154.8,325.7 203,438.4 					"/>
					<polygon class="st3" points="240.1,234.4 203,438.4 481,303.1 					"/>
					<polygon class="st3" points="481,303.1 203,438.4 542,465.5 					"/>
					<polygon class="st3" points="481,303.1 542,465.5 650.5,410.5 					"/>
					<polygon class="st3" points="481,303.1 650.5,410.5 747.6,197.5 					"/>
					<polygon class="st3" points="747.6,197.5 650.5,410.5 872.6,447.8 					"/>
					<polygon class="st3" points="747.6,197.5 872.6,447.8 948,348.3 					"/>
					<polygon class="st3" points="948,348.3 872.6,447.8 1108.6,538 					"/>
					<polygon class="st3" points="948,348.3 1108.6,538 1027,325.8 					"/>
					<polygon class="st3" points="1027,325.8 1108.6,538 1220.5,384.1 					"/>
					<polygon class="st3" points="1220.5,384.1 1108.6,538 1298.1,553.3 					"/>
					<polygon class="st3" points="1220.5,384.1 1298.1,553.3 1433,342.7 					"/>
					<polygon class="st3" points="1433,342.7 1298.1,553.3 1510.1,591.5 					"/>
					<polygon class="st3" points="1433,342.7 1510.1,591.5 1678.9,423.9 					"/>
					<polygon class="st3" points="1678.9,423.9 1510.1,591.5 1589.4,665.6 					"/>
					<polygon class="st3" points="1678.9,423.9 1589.4,665.6 1801.4,581.8 					"/>
					<polygon class="st3" points="1678.9,423.9 1801.4,581.8 1915.9,457.5 					"/>
					<polygon class="st3" points="1915.9,457.5 1801.4,581.8 1895.7,797 					"/>
					<polygon class="st3" points="-47.3,337.2 -16,577 203,438.4 					"/>
					<polygon class="st3" points="-47.3,337.2 203,438.4 154.8,325.7 					"/>
					<polygon class="st3" points="203,438.4 -16,577 225.7,530.3 					"/>
					<polygon class="st3" points="203,438.4 225.7,530.3 542,465.5 					"/>
					<polygon class="st3" points="542,465.5 225.7,530.3 531.3,571.3 					"/>
					<polygon class="st3" points="542,465.5 531.3,571.3 650.5,410.5 					"/>
					<polygon class="st3" points="650.5,410.5 531.3,571.3 712.8,700.5 					"/>
					<polygon class="st3" points="650.5,410.5 712.8,700.5 872.6,447.8 					"/>
					<polygon class="st3" points="872.6,447.8 712.8,700.5 810.8,719.5 					"/>
					<polygon class="st3" points="872.6,447.8 810.8,719.5 1108.6,538 					"/>
					<polygon class="st3" points="1108.6,538 810.8,719.5 1081.4,778.4 					"/>
					<polygon class="st3" points="1108.6,538 1081.4,778.4 1195.2,708.4 					"/>
					<polygon class="st3" points="1108.6,538 1195.2,708.4 1298.1,553.3 					"/>
					<polygon class="st3" points="1298.1,553.3 1195.2,708.4 1487,771 					"/>
					<polygon class="st3" points="1298.1,553.3 1487,771 1510.1,591.5 					"/>
					<polygon class="st3" points="1510.1,591.5 1487,771 1589.4,665.6 					"/>
					<polygon class="st3" points="1589.4,665.6 1487,771 1598.5,789.6 					"/>
					<polygon class="st3" points="1589.4,665.6 1598.5,789.6 1801.4,581.8 					"/>
					<polygon class="st3" points="1801.4,581.8 1598.5,789.6 1895.7,797 					"/>
					<polygon class="st3" points="-16,577 -8.1,764.2 225.7,530.3 					"/>
					<polygon class="st3" points="225.7,530.3 -8.1,764.2 225.7,840.6 					"/>
					<polygon class="st3" points="225.7,530.3 225.7,840.6 452.1,758.1 					"/>
					<polygon class="st3" points="225.7,530.3 452.1,758.1 531.3,571.3 					"/>
					<polygon class="st3" points="531.3,571.3 452.1,758.1 542.9,832.8 					"/>
					<polygon class="st3" points="531.3,571.3 542.9,832.8 712.8,700.5 					"/>
					<polygon class="st3" points="712.8,700.5 542.9,832.8 787.4,830.8 					"/>
					<polygon class="st3" points="712.8,700.5 787.4,830.8 810.8,719.5 					"/>
					<polygon class="st3" points="810.8,719.5 787.4,830.8 1081.5,778.4 					"/>
					<polygon class="st3" points="1081.4,778.4 787.4,830.8 1066.9,893 					"/>
					<polygon class="st3" points="1081.4,778.4 1066.9,893 1232.2,977.9 					"/>
					<polygon class="st3" points="1081.4,778.4 1232.2,977.9 1195.2,708.4 					"/>
					<polygon class="st3" points="1195.2,708.4 1232.2,977.9 1487,771 					"/>
					<polygon class="st3" points="1487,771 1232.2,977.9 1351.4,1039.9 					"/>
					<polygon class="st3" points="1487,771 1351.4,1039.9 1630.2,1026.8 					"/>
					<polygon class="st3" points="1487,771 1630.2,1026.8 1598.5,789.6 					"/>
					<polygon class="st3" points="1598.5,789.6 1630.2,1026.8 1895.7,797 					"/>
					<polygon class="st3" points="1895.7,797 1630.2,1026.8 1847.5,1100.4 					"/>
					<polygon class="st3" points="-139.9,794.8 1351.4,1039.9 225.7,840.6 					"/>
					<polygon class="st3" points="-139.9,794.8 225.7,840.6 -8.1,764.2 					"/>
					<polygon class="st3" points="225.7,840.6 1351.4,1039.9 542.9,832.8 					"/>
					<polygon class="st3" points="225.7,840.6 542.9,832.8 452.1,758.1 					"/>
					<polygon class="st3" points="542.9,832.8 1351.4,1039.9 1232.2,977.9 					"/>
					<polygon class="st3" points="542.9,832.8 1232.2,977.9 787.4,830.8 					"/>
					<polygon class="st3" points="787.4,830.8 1232.2,977.9 1066.9,893 					"/>
				</g>
			</g>
		</g>
	</g>
</g>
<linearGradient id="SVGID_9_" gradientUnits="userSpaceOnUse" x1="948.2914" y1="965.8468" x2="948.2914" y2="-325.9036">
	<stop  offset="0" style="stop-color:#822FF7"/>
	<stop  offset="1" style="stop-color:#822FF7;stop-opacity:0"/>
</linearGradient>
<rect y="217" class="st4" width="1896.6" height="780"/>
</svg>
