<svg xmlns="http://www.w3.org/2000/svg" viewBox="0 0 251 61">
  <path class="text" fill="#000" fill-rule="nonzero" d="M81.78 19.54h-8.89v-5.31H96.7v5.31h-8.9v26.53h-6"/>
  <path class="text" fill="#000" fill-rule="nonzero" d="M102.19 41.77c2.415-.012 4.814-.383 7.12-1.1l.91 4.4c-2.745.99-5.642 1.49-8.56 1.48-7.31 0-9.85-3.39-9.85-9V31.4c0-4.92 2.2-9.08 9.66-9.08s9.13 4.35 9.13 9.37v5h-13v1.2c.05 2.78 1.05 3.88 4.59 3.88zM97.65 32h7.41v-1.18c0-2.2-.67-3.73-3.54-3.73s-3.87 1.53-3.87 3.73V32zm28.54-4.33c-2.148.97-4.217 2.102-6.19 3.39v15h-5.83V22.79h4.92l.38 2.58c1.897-1.284 3.955-2.313 6.12-3.06l.6 5.36zm14.24 0c-2.14.97-4.204 2.103-6.17 3.39v15h-5.83V22.79h4.92l.38 2.58c1.897-1.284 3.955-2.313 6.12-3.06l.58 5.36zm19.51 18.4h-4.78l-.43-1.58c-2.062 1.342-4.47 2.058-6.93 2.06-4.25 0-6.07-2.92-6.07-6.93 0-4.73 2.06-6.55 6.79-6.55h5.59v-2.44c0-2.58-.72-3.49-4.45-3.49-2.17.024-4.33.266-6.45.72l-.72-4.45c2.606-.72 5.296-1.09 8-1.1 7.31 0 9.47 2.58 9.47 8.41l-.02 15.35zm-5.83-8.8h-4.3c-1.91 0-2.44.53-2.44 2.29s.53 2.34 2.34 2.34c1.544-.024 3.058-.436 4.4-1.2v-3.43zm23.75-19.79c-1.1-.237-2.224-.364-3.35-.38-2.29 0-2.63 1-2.63 2.77v2.92h5.93l-.33 4.64h-5.59v18.64h-5.83V27.43h-3.73v-4.64h3.73v-3.25c0-4.83 2.25-7.22 7.41-7.22 1.69-.006 3.372.22 5 .67l-.61 4.49zm11.38 29.07c-8 0-10.13-4.4-10.13-9.18v-5.88c0-4.78 2.15-9.18 10.13-9.18s10.13 4.4 10.13 9.18v5.88c.01 4.78-2.15 9.18-10.13 9.18zm0-19.27c-3.11 0-4.3 1.39-4.3 4v6.26c0 2.63 1.2 4 4.3 4 3.1 0 4.3-1.39 4.3-4V31.3c0-2.63-1.19-4.02-4.3-4.02zm25.14.39c-2.14.97-4.204 2.103-6.17 3.39v15h-5.83V22.79h4.92l.38 2.58c1.897-1.284 3.954-2.313 6.12-3.06l.58 5.36zm16.02 18.4V29.82c0-1.24-.53-1.86-1.86-1.86-2.137.254-4.2.934-6.07 2v16.11h-5.83V22.79h4.45l.57 2c2.906-1.47 6.088-2.315 9.34-2.48 1.843-.174 3.6.82 4.4 2.49 2.91-1.49 6.104-2.34 9.37-2.49 3.87 0 5.26 2.72 5.26 6.88v16.88h-5.83V29.82c0-1.24-.53-1.86-1.86-1.86-2.14.236-4.208.917-6.07 2v16.11h-5.87z"/>
  <path class="rect-dark" fill="#4040B2" d="M36.4 39.13l16.4-9.46V10.72L36.4 20.2"/>
  <path class="rect-light" fill="#5C4EE5" d="M18.2 10.72l16.4 9.48v18.93l-16.4-9.47"/>
  <path class="rect-light" fill="#5C4EE5" d="M0 19.09l16.4 9.47V9.62L0 .15m18.2 50.53l16.4 9.47V41.21l-16.4-9.47"/>
</svg>
