<svg version="1.1" xmlns="http://www.w3.org/2000/svg" xmlns:xlink="http://www.w3.org/1999/xlink" x="0px" y="0px" width="260px" height="68px" viewBox="0 0 260 68" xml:space="preserve" aria-hidden="true">
    <style type="text/css">
        .st0{fill:#FFFFFF;}
        .st1{opacity:0.7;fill:#FFFFFF;}
    </style>
    <g id="Wordmark">
        <path class="st0" d="M86.4,25.4h-8.9V20h23.9v5.3h-8.9V52h-6 M106,37.8h7.4v-1.2c0-2.2-0.7-3.7-3.6-3.7c-2.9,0-3.9,1.5-3.9,3.7
            V37.8L106,37.8z M110.6,47.7c2.3,0,4.6-0.3,7.2-1.1l0.9,4.4c-2.6,1-5.8,1.5-8.6,1.5c-7.3,0-9.9-3.4-9.9-9v-6.2
            c0-4.9,2.2-9.1,9.7-9.1s9.2,4.4,9.2,9.4v5h-13v1.2C106,46.6,107,47.7,110.6,47.7L110.6,47.7z M134.7,33.5c-2.3,1-4.1,2.1-6.2,3.4
            V52h-5.9V28.6h4.9l0.4,2.6c1.3-0.9,4.1-2.5,6.1-3.1L134.7,33.5L134.7,33.5z M149,33.5c-2.3,1-4.1,2.1-6.2,3.4V52h-5.9V28.6h4.9
            l0.4,2.6c1.3-0.9,4.1-2.5,6.1-3.1L149,33.5L149,33.5z M162.7,43.2h-4.3c-1.9,0-2.5,0.5-2.5,2.3c0,1.6,0.5,2.4,2.4,2.4
            c1.7,0,3.3-0.6,4.4-1.2V43.2z M168.6,52h-4.8l-0.4-1.6c-2.1,1.4-4.6,2.1-7,2.1c-4.3,0-6.1-2.9-6.1-7c0-4.8,2.1-6.6,6.8-6.6h5.6
            v-2.4c0-2.6-0.7-3.5-4.5-3.5c-2.1,0-4.4,0.3-6.5,0.7l-0.7-4.5c2.2-0.7,5.4-1.1,8-1.1c7.3,0,9.5,2.6,9.5,8.5L168.6,52L168.6,52z
             M186.6,23.3c-1.1-0.2-2.4-0.4-3.4-0.4c-2.3,0-2.6,1-2.6,2.8v2.9h6l-0.3,4.7h-5.6V52h-5.9V33.3H171v-4.7h3.7v-3.3
            c0-4.8,2.3-7.2,7.4-7.2c1.8,0,3.5,0.2,5,0.7L186.6,23.3L186.6,23.3z M198,33.1c-3.1,0-4.3,1.4-4.3,4v6.3c0,2.6,1.2,4,4.3,4
            s4.3-1.4,4.3-4v-6.3C202.3,34.5,201.1,33.1,198,33.1 M198,52.5c-8,0-10.2-4.4-10.2-9.2v-5.9c0-4.8,2.2-9.2,10.2-9.2
            c8,0,10.2,4.4,10.2,9.2v5.9C208.2,48.1,206,52.5,198,52.5 M224.2,33.5c-2.3,1-4.1,2.1-6.2,3.4V52h-5.9V28.6h4.9l0.4,2.6
            c1.3-0.9,4.1-2.5,6.1-3.1L224.2,33.5L224.2,33.5z M240.3,52V35.7c0-1.2-0.5-1.9-1.9-1.9c-1.4,0-4,0.9-6.1,2V52h-5.9V28.6h4.5l0.6,2
            c2.9-1.4,6.6-2.4,9.4-2.4c2.3,0,3.7,0.9,4.4,2.5c2.8-1.4,6.6-2.5,9.4-2.5c3.9,0,5.3,2.7,5.3,6.9V52h-5.9V35.7
            c0-1.2-0.5-1.9-1.9-1.9c-1.4,0-4.3,0.9-6.1,2V52H240.3L240.3,52z"/>
    </g>
    <g id="Logo">
        <path class="st1" d="M59.8,12L41.3,22.7v21.5l18.6-10.7L59.8,12z"/>
        <path class="st0" d="M20.6,12l18.6,10.7v21.5L20.6,33.4V12z"/>
        <path class="st0" d="M20.6,57.3L39.2,68V46.5L20.6,35.8V57.3z"/>
        <path class="st0" d="M0,0l18.6,10.7v21.5L0,21.5V0z"/>
    </g>
</svg>
