<?xml version="1.0" encoding="utf-8"?>
<!-- Generator: Adobe Illustrator 19.2.1, SVG Export Plug-In . SVG Version: 6.00 Build 0)  -->
<svg version="1.1" id="Layer_1" xmlns="http://www.w3.org/2000/svg" xmlns:xlink="http://www.w3.org/1999/xlink" x="0px" y="0px"
	 viewBox="0 0 357.3 38.4" style="enable-background:new 0 0 357.3 38.4;" xml:space="preserve">
<style type="text/css">
	.st0{fill:#FFFFFF;}
</style>
<g>
	<path class="st0" d="M7.8,6.3H0V1.7h20.9v4.7h-7.8v23.3H7.8V6.3z"/>
	<path class="st0" d="M29.7,25.9c2,0,4-0.3,6.3-1l0.8,3.9c-2.3,0.9-5.1,1.3-7.5,1.3c-6.4,0-8.7-3-8.7-7.9v-5.4c0-4.3,1.9-8,8.5-8
		s8,3.8,8,8.2v4.4H25.7v1.1C25.7,24.9,26.6,25.9,29.7,25.9z M25.7,17.3h6.5v-1c0-1.9-0.6-3.3-3.1-3.3s-3.4,1.3-3.4,3.3V17.3z"/>
	<path class="st0" d="M52.3,13.5c-2,0.9-3.6,1.8-5.4,3v13.2h-5.1V9.2h4.3l0.3,2.3c1.1-0.8,3.6-2.2,5.4-2.7L52.3,13.5z"/>
	<path class="st0" d="M66.3,13.5c-2,0.9-3.6,1.8-5.4,3v13.2h-5.1V9.2h4.3l0.3,2.3c1.1-0.8,3.6-2.2,5.4-2.7L66.3,13.5z"/>
	<path class="st0" d="M84.8,29.7h-4.2l-0.4-1.4c-1.8,1.2-4,1.8-6.1,1.8c-3.7,0-5.3-2.6-5.3-6.1c0-4.2,1.8-5.8,6-5.8h4.9v-2.1
		c0-2.3-0.6-3.1-3.9-3.1c-1.8,0-3.9,0.3-5.7,0.6l-0.6-3.9c1.9-0.6,4.7-1,7-1c6.4,0,8.3,2.3,8.3,7.4V29.7z M79.6,21.9h-3.8
		c-1.7,0-2.1,0.5-2.1,2c0,1.4,0.5,2.1,2.1,2.1c1.5,0,2.9-0.5,3.9-1V21.9z"/>
	<path class="st0" d="M102,4.5c-1-0.2-2.1-0.3-2.9-0.3c-2,0-2.3,0.9-2.3,2.4v2.6h5.2l-0.3,4.1h-4.9v16.4h-5.1V13.3h-3.3V9.2h3.3V6.3
		c0-4.2,2-6.3,6.5-6.3c1.6,0,3.1,0.2,4.4,0.6L102,4.5z"/>
	<path class="st0" d="M113.1,30.1c-7,0-8.9-3.9-8.9-8.1v-5.2c0-4.2,1.9-8.1,8.9-8.1s8.9,3.9,8.9,8.1V22
		C122,26.2,120.1,30.1,113.1,30.1z M113.1,13.1c-2.7,0-3.8,1.2-3.8,3.5v5.5c0,2.3,1.1,3.5,3.8,3.5s3.8-1.2,3.8-3.5v-5.5
		C116.9,14.4,115.8,13.1,113.1,13.1z"/>
	<path class="st0" d="M137.5,13.5c-2,0.9-3.6,1.8-5.4,3v13.2H127V9.2h4.3l0.3,2.3c1.1-0.8,3.6-2.2,5.4-2.7L137.5,13.5z"/>
	<path class="st0" d="M153,29.7V15.4c0-1.1-0.5-1.6-1.6-1.6c-1.3,0-3.5,0.8-5.3,1.7v14.2H141V9.2h3.9l0.5,1.7
		c2.6-1.3,5.8-2.1,8.2-2.1c2,0,3.2,0.8,3.9,2.2c2.5-1.3,5.8-2.2,8.2-2.2c3.4,0,4.6,2.4,4.6,6v14.8h-5.1V15.4c0-1.1-0.5-1.6-1.6-1.6
		c-1.3,0-3.7,0.8-5.3,1.7v14.2H153z"/>
	<path class="st0" d="M185.6,1.7h16.5v3.2h-12.9v8.8h11.9v3.2h-11.9v9.5h12.9v3.2h-16.5V1.7z"/>
	<path class="st0" d="M220.4,29.7V14c0-1.3-0.7-1.9-2-1.9c-1.5,0-4.7,0.9-6.8,2.1v15.5h-3.5V9.2h2.9l0.3,1.8
		c2.3-1.1,5.8-2.2,8.2-2.2c3.3,0,4.5,2.1,4.5,5.2v15.7H220.4z"/>
	<path class="st0" d="M241.1,29.3c-1.3,0.5-2.8,0.8-4.3,0.8c-3.4,0-5.1-1.3-5.1-4.7V12.1h-3.6V9.2h3.6v-5l3.5-0.5v5.5h5.8l-0.3,2.9
		h-5.5v12.7c0,1.5,0.2,2.3,2.1,2.3c1,0,2-0.2,3.3-0.5L241.1,29.3z"/>
	<path class="st0" d="M253.3,27.1c2,0,4.2-0.4,6.5-1l0.5,2.8c-1.9,0.7-4.7,1.2-7.2,1.2c-6,0-8.1-2.9-8.1-7.5v-6.1
		c0-4.2,1.9-7.6,8-7.6c6,0,7.7,3.5,7.7,7.7v4.3h-12.2v1.7C248.4,25.8,249.3,27.1,253.3,27.1z M248.4,17.9h8.8v-1.7
		c0-2.9-1-4.5-4.3-4.5c-3.3,0-4.5,1.6-4.5,4.5V17.9z"/>
	<path class="st0" d="M275.5,12c-1.9,0.9-4.2,2.4-5.8,3.5v14.1h-3.5V9.2h3.1l0.2,2.9c1.5-1.2,3.6-2.4,5.6-3.3L275.5,12z"/>
	<path class="st0" d="M295.1,23.4c0,4.1-1.8,6.7-6.6,6.7c-1.8,0-4.2-0.3-5.8-0.6v8.5l-3.5,0.5V9.2h3l0.3,1.8
		c1.7-1.3,4.1-2.3,6.8-2.3c4,0,6,2.1,6,6.3V23.4z M282.6,26.3c1.9,0.4,4.2,0.6,5.6,0.6c2.4,0,3.3-1.1,3.3-3.6V15
		c0-2.1-0.7-3.2-3.2-3.2c-2,0-4.3,1.1-5.8,2.4V26.3z"/>
	<path class="st0" d="M310.4,12c-1.9,0.9-4.2,2.4-5.8,3.5v14.1h-3.5V9.2h3.1l0.2,2.9c1.5-1.2,3.6-2.4,5.6-3.3L310.4,12z"/>
	<path class="st0" d="M314,5.9V0.8h3.5v5.1H314z M314,29.7V9.2h3.5v20.5H314z"/>
	<path class="st0" d="M329.9,30.1c-2.1,0-4.9-0.5-6.5-1.1l0.5-2.8c1.8,0.5,4.1,0.8,5.8,0.8c3.2,0,3.8-0.6,3.8-2.8s-0.2-2.4-4.3-3.4
		c-5.1-1.3-5.5-2.3-5.5-6.6c0-3.8,1.7-5.5,7.1-5.5c2,0,4.1,0.3,5.8,0.7l-0.3,2.9c-1.7-0.3-4-0.6-5.7-0.6c-3,0-3.4,0.7-3.4,2.6
		c0,2.3,0,2.7,3.5,3.5c5.9,1.5,6.3,2.2,6.3,6.3C337,28.1,335.7,30.1,329.9,30.1z"/>
	<path class="st0" d="M350,27.1c2,0,4.2-0.4,6.5-1l0.5,2.8c-1.9,0.7-4.7,1.2-7.2,1.2c-6,0-8.1-2.9-8.1-7.5v-6.1c0-4.2,1.9-7.6,8-7.6
		c6,0,7.7,3.5,7.7,7.7v4.3h-12.2v1.7C345.2,25.8,346,27.1,350,27.1z M345.2,17.9h8.8v-1.7c0-2.9-1-4.5-4.3-4.5
		c-3.3,0-4.5,1.6-4.5,4.5V17.9z"/>
</g>
</svg>
