<svg xmlns="http://www.w3.org/2000/svg" viewBox="0 0 250 60">
  <g fill="#FFFFFF">
    <path d="M81.78 19.39h-8.89v-5.31H96.7v5.31h-8.9v26.53h-6z"/>
    <path d="M102.19 41.62a24.39 24.39 0 0 0 7.12-1.1l.91 4.4a25 25 0 0 1-8.56 1.48c-7.31 0-9.85-3.39-9.85-9v-6.16c0-4.92 2.2-9.08 9.66-9.08s9.13 4.35 9.13 9.37v5h-13v1.2c.05 2.79 1.05 3.89 4.59 3.89zm-4.54-9.8h7.41v-1.15c0-2.2-.67-3.73-3.54-3.73s-3.87 1.53-3.87 3.73z"/>
    <path d="M126.19 27.51a45.65 45.65 0 0 0-6.19 3.4v15h-5.83V22.64h4.92l.38 2.58a26.09 26.09 0 0 1 6.12-3.06z"/>
    <path d="M140.43 27.51a45.65 45.65 0 0 0-6.17 3.39v15h-5.83V22.64h4.92l.38 2.58a26.09 26.09 0 0 1 6.12-3.06z"/>
    <path d="M159.94 45.92h-4.78l-.43-1.58a12.73 12.73 0 0 1-6.93 2.06c-4.25 0-6.07-2.92-6.07-6.93 0-4.73 2.06-6.55 6.79-6.55h5.59v-2.44c0-2.58-.72-3.49-4.45-3.49a32.53 32.53 0 0 0-6.45.72l-.72-4.45a30.38 30.38 0 0 1 8-1.1c7.31 0 9.47 2.58 9.47 8.41zm-5.83-8.8h-4.3c-1.91 0-2.44.53-2.44 2.29s.53 2.34 2.34 2.34a9.18 9.18 0 0 0 4.4-1.2z"/>
    <path d="M177.86 17.33a17.11 17.11 0 0 0-3.35-.38c-2.29 0-2.63 1-2.63 2.77v2.92h5.93l-.33 4.64h-5.59v18.64h-5.83V27.27h-3.73v-4.63h3.73v-3.25c0-4.83 2.25-7.22 7.41-7.22a18.47 18.47 0 0 1 5 .67z"/>
    <path d="M189.24 46.4c-8 0-10.13-4.4-10.13-9.18v-5.88c0-4.78 2.15-9.18 10.13-9.18s10.13 4.4 10.13 9.18v5.88c.01 4.78-2.15 9.18-10.13 9.18zm0-19.27c-3.11 0-4.3 1.39-4.3 4v6.26c0 2.63 1.2 4 4.3 4s4.3-1.39 4.3-4v-6.24c0-2.63-1.19-4.02-4.3-4.02z"/>
    <path d="M214.38 27.51a45.65 45.65 0 0 0-6.17 3.39v15h-5.83V22.64h4.92l.38 2.58a26.08 26.08 0 0 1 6.12-3.06z"/>
    <path d="M230.4 45.92V29.66c0-1.24-.53-1.86-1.86-1.86a16.08 16.08 0 0 0-6.07 2v16.12h-5.83V22.64h4.45l.57 2a23.32 23.32 0 0 1 9.34-2.48 4.42 4.42 0 0 1 4.4 2.49 22.83 22.83 0 0 1 9.37-2.49c3.87 0 5.26 2.72 5.26 6.88v16.88h-5.83V29.66c0-1.24-.53-1.86-1.86-1.86a15.43 15.43 0 0 0-6.07 2v16.12z"/>
    <path d="M18.2 10.57l16.4 9.47v18.94l-16.4-9.47V10.57z"/>
    <path d="M36.4 20.04v18.94l16.4-9.47V10.57l-16.4 9.47z"/>
    <path d="M0 0v18.94l16.4 9.47V9.47L0 0z"/>
    <path d="M18.2 50.53L34.6 60V41.06l-16.4-9.47v18.94z"/>
    <path d="M81.77 51.63h4.8v.94h-3.75v2.56h3.48v.94h-3.48v2.77h3.76v.94h-4.81z"/>
    <path d="M90.11 52.85v6.95h-1v-8.17h1.45l3.55 7v-7h1v8.17h-1.44z"/>
    <path d="M99.56 52.58h-2.43v-.94h5.93v.94h-2.44v7.22h-1.06z"/>
    <path d="M105.07 51.63h4.8v.94h-3.75v2.56h3.48v.94h-3.48v2.77h3.76v.94h-4.82z"/>
    <path d="M115.46 56.84h-2v3h-1.05v-8.21h3.11c1.75 0 2.37.76 2.37 2v1.18a1.72 1.72 0 0 1-1.3 1.9l2.12 3.08h-1.21zm0-4.27h-2v3.33h2c1 0 1.35-.28 1.35-1.08v-1.16c.03-.81-.32-1.08-1.32-1.08z"/>
    <path d="M120.88 51.63h3c1.75 0 2.37.76 2.37 2v1.21c0 1.26-.61 2-2.37 2h-1.9v2.96h-1.05zm2.92.94h-1.86v3.36h1.86c1 0 1.35-.28 1.35-1.08v-1.2c0-.8-.34-1.07-1.35-1.07z"/>
    <path d="M131.49 56.84h-2v3h-1.05v-8.21h3.11c1.75 0 2.37.76 2.37 2v1.18a1.72 1.72 0 0 1-1.3 1.9l2.12 3.08h-1.21zm0-4.27h-2v3.33h2c1 0 1.35-.28 1.35-1.08v-1.16c.02-.81-.32-1.08-1.33-1.08z"/>
    <path d="M138 59.8h-1v-8.17h1z"/>
    <path d="M143 59.92a7 7 0 0 1-2.43-.43l.17-.86A7.75 7.75 0 0 0 143 59c1.31 0 1.58-.34 1.58-1.27 0-1.1 0-1.2-1.69-1.58-2-.44-2.21-.82-2.21-2.51 0-1.42.59-2.11 2.61-2.11a9.3 9.3 0 0 1 2.21.27l-.09.89a10 10 0 0 0-2.1-.23c-1.34 0-1.58.27-1.58 1.21 0 1.13 0 1.18 1.62 1.58 2.17.54 2.28.86 2.28 2.45.04 1.41-.38 2.22-2.63 2.22z"/>
    <path d="M148.23 51.63H153v.94h-3.75v2.56h3.48v.94h-3.48v2.77h3.76v.94h-4.82z"/>
  </g>
</svg>
