<?xml version="1.0" encoding="utf-8"?>
<!-- Generator: Adobe Illustrator 19.2.1, SVG Export Plug-In . SVG Version: 6.00 Build 0)  -->
<svg version="1.1" id="Layer_1" xmlns="http://www.w3.org/2000/svg" xmlns:xlink="http://www.w3.org/1999/xlink" x="0px" y="0px"
	 viewBox="0 0 91.6 29.8" style="enable-background:new 0 0 91.6 29.8;" xml:space="preserve">
<style type="text/css">
	.st0{clip-path:url(#SVGID_1_);}
	.st1{clip-path:url(#SVGID_2_);fill:#FEFEFE;}
	.st2{clip-path:url(#SVGID_3_);}
	.st3{clip-path:url(#SVGID_4_);fill:#FEFEFE;}
	.st4{clip-path:url(#SVGID_5_);}
	.st5{clip-path:url(#SVGID_6_);fill:#FEFEFE;}
	.st6{clip-path:url(#SVGID_7_);}
	.st7{clip-path:url(#SVGID_8_);fill:#FEFEFE;}
	.st8{clip-path:url(#SVGID_9_);}
	.st9{clip-path:url(#SVGID_10_);fill:#FEFEFE;}
	.st10{clip-path:url(#SVGID_11_);}
	.st11{clip-path:url(#SVGID_12_);fill:#FEFEFE;}
	.st12{clip-path:url(#SVGID_13_);}
	.st13{clip-path:url(#SVGID_14_);fill:#FEFEFE;}
	.st14{clip-path:url(#SVGID_15_);}
	.st15{clip-path:url(#SVGID_16_);fill:#FEFEFE;}
	.st16{clip-path:url(#SVGID_17_);}
	.st17{clip-path:url(#SVGID_18_);fill:#FEFEFE;}
	.st18{clip-path:url(#SVGID_19_);}
	.st19{clip-path:url(#SVGID_20_);fill:#FEFEFE;}
	.st20{clip-path:url(#SVGID_21_);}
	.st21{clip-path:url(#SVGID_22_);fill:#FEFEFE;}
	.st22{clip-path:url(#SVGID_23_);}
	.st23{clip-path:url(#SVGID_24_);fill:#FEFEFE;}
	.st24{clip-path:url(#SVGID_25_);}
	.st25{clip-path:url(#SVGID_26_);fill:#FEFEFE;}
</style>
<g>
	<defs>
		<path id="SVGID_53_" d="M62.1,21.6C62.1,21.6,62.1,21.6,62.1,21.6c-3.9,2.5-8.5,5.1-13.5,7.9l-0.2,0.1c-0.1,0-0.1,0.1,0,0.2
			c0,0.1,0.1,0.1,0.2,0l0.2-0.1c4.2-2,9.1-4.4,13.9-6.8c0,0,0.1,0,0.1,0C62.5,22.5,62.3,22,62.1,21.6 M87.7,2.8
			C81.6-3.4,42,2.2,25.2,5.5l-0.4,0.1c-0.1,0-0.1,0.1-0.1,0.2c0,0.1,0.1,0.1,0.2,0.1l0.4-0.1C39.2,3.5,68.2,0.4,74.4,6
			c1.9,1.7,1.4,3.9-0.8,6.5c1.2,0.7,2,1.8,2.4,3.1C84.7,10.5,90.5,5.5,87.7,2.8"/>
	</defs>
	<clipPath id="SVGID_1_">
		<use xlink:href="#SVGID_53_"  style="overflow:visible;"/>
	</clipPath>
	<g class="st0">
		<defs>
			<rect id="SVGID_55_" x="-836.3" y="-1474.9" width="1610.8" height="9218.9"/>
		</defs>
		<clipPath id="SVGID_2_">
			<use xlink:href="#SVGID_55_"  style="overflow:visible;"/>
		</clipPath>
		<rect x="19" y="-5.7" class="st1" width="75.1" height="41.2"/>
	</g>
</g>
<g>
	<defs>
		<path id="SVGID_57_" d="M64.6,20c0.1,2.2,1.6,3.9,3.6,3.9c3.8,0,5.4-4.2,5.3-7.1c-0.1-2.2-1.6-3.9-3.6-3.9
			C66.6,12.9,64.5,17.1,64.6,20 M62.6,19.8c-0.1-3.7,3-7.5,7.7-7.5c3.1,0,5.1,1.9,5.2,4.7c0.1,3.9-2.8,7.5-7.7,7.5
			C64.8,24.6,62.7,22.7,62.6,19.8"/>
	</defs>
	<clipPath id="SVGID_3_">
		<use xlink:href="#SVGID_57_"  style="overflow:visible;"/>
	</clipPath>
	<g class="st2">
		<defs>
			<rect id="SVGID_59_" x="-836.3" y="-1474.9" width="1610.8" height="9218.9"/>
		</defs>
		<clipPath id="SVGID_4_">
			<use xlink:href="#SVGID_59_"  style="overflow:visible;"/>
		</clipPath>
		<rect x="56.9" y="6.7" class="st3" width="24.3" height="23.6"/>
	</g>
</g>
<g>
	<defs>
		<path id="SVGID_61_" d="M18.7,18.9c-0.2,0.1-0.4,0.1-0.6,0.2c-0.3,0.1-0.7,0.1-1.4,0.2c-0.5,0.1-0.8,0.2-1,0.3
			c-0.2,0.1-0.3,0.3-0.3,0.4c0,0.2,0,0.3,0.2,0.5c0.2,0.1,0.5,0.2,0.9,0.2c0.3,0,0.6,0,1-0.1c0.3-0.1,0.6-0.2,0.8-0.4
			c0.2-0.1,0.3-0.3,0.3-0.4C18.6,19.5,18.7,19.3,18.7,18.9 M22.8,16.6c0,0.3-0.1,0.6-0.2,1.2l-0.7,3.5c-0.1,0.3,0.1,0.6,0.4,0.7
			l0,0.1l-3.9,0l0-0.9c-0.6,0.3-1.3,0.6-1.9,0.7c-0.6,0.1-1.1,0.2-1.9,0.2c-1.3,0-2-0.1-2.5-0.5c-0.5-0.4-0.8-0.7-0.7-1.2
			c0-0.3,0.2-0.7,0.5-1c0.3-0.3,0.6-0.5,1-0.7c0.4-0.2,0.9-0.3,1.6-0.4c0.7-0.1,1.7-0.2,2.9-0.3c0.7-0.1,1.1-0.2,1.3-0.3
			c0.3-0.1,0.4-0.2,0.4-0.4c0.1-0.4-0.1-0.6-0.6-0.7c-1.4-0.3-4,0.2-5.4,0.5l0.7-1.8c1.8-0.2,3.5-0.4,5.2-0.4
			C21.9,14.9,22.8,15.7,22.8,16.6"/>
	</defs>
	<clipPath id="SVGID_5_">
		<use xlink:href="#SVGID_61_"  style="overflow:visible;"/>
	</clipPath>
	<g class="st4">
		<defs>
			<rect id="SVGID_63_" x="-836.3" y="-1474.9" width="1610.8" height="9218.9"/>
		</defs>
		<clipPath id="SVGID_6_">
			<use xlink:href="#SVGID_63_"  style="overflow:visible;"/>
		</clipPath>
		<rect x="5.7" y="9.3" class="st5" width="22.7" height="18.5"/>
	</g>
</g>
<g>
	<defs>
		<path id="SVGID_65_" d="M34.1,22.1l1.4-6.9h3.7l-1.4,6.9H34.1 M35.6,13.5c0.1-0.6,1.1-1,2.2-1c1.1,0,1.9,0.5,1.8,1
			c-0.1,0.6-1.1,1-2.2,1C36.3,14.6,35.5,14.1,35.6,13.5"/>
	</defs>
	<clipPath id="SVGID_7_">
		<use xlink:href="#SVGID_65_"  style="overflow:visible;"/>
	</clipPath>
	<g class="st6">
		<defs>
			<rect id="SVGID_67_" x="-836.3" y="-1474.9" width="1610.8" height="9218.9"/>
		</defs>
		<clipPath id="SVGID_8_">
			<use xlink:href="#SVGID_67_"  style="overflow:visible;"/>
		</clipPath>
		<rect x="28.4" y="6.8" class="st7" width="16.9" height="20.9"/>
	</g>
</g>
<g>
	<defs>
		<path id="SVGID_69_" d="M52.4,18.9C52.3,18.9,52,19,51.8,19c-0.3,0.1-0.7,0.1-1.5,0.2c-0.5,0.1-0.8,0.2-1,0.3
			C49.1,19.7,49,19.8,49,20c0,0.2,0,0.3,0.2,0.5c0.2,0.1,0.5,0.2,0.9,0.2c0.3,0,0.6,0,1-0.1c0.3-0.1,0.6-0.2,0.8-0.4
			c0.1-0.1,0.3-0.3,0.3-0.4C52.3,19.6,52.3,19.3,52.4,18.9 M56.4,16.6c0,0.3-0.1,0.6-0.2,1.2l-0.7,3.5c-0.1,0.3,0.1,0.5,0.4,0.7
			l0,0.1l-3.9,0l0-0.9c-0.6,0.3-1.3,0.6-1.9,0.7c-0.6,0.1-1.1,0.2-1.9,0.2c-1.3,0-2-0.1-2.5-0.5c-0.5-0.4-0.8-0.7-0.7-1.2
			c0-0.3,0.2-0.7,0.5-1c0.3-0.3,0.6-0.5,1-0.7c0.4-0.2,0.9-0.3,1.6-0.4c0.7-0.1,1.7-0.2,2.9-0.3c0.7-0.1,1.1-0.2,1.3-0.3
			c0.3-0.1,0.4-0.2,0.4-0.4c0.1-0.4-0.1-0.6-0.6-0.7c-1.4-0.3-4,0.2-5.4,0.5l0.7-1.8c1.8-0.2,3.5-0.4,5.2-0.4
			C55.6,14.9,56.5,15.7,56.4,16.6"/>
	</defs>
	<clipPath id="SVGID_9_">
		<use xlink:href="#SVGID_69_"  style="overflow:visible;"/>
	</clipPath>
	<g class="st8">
		<defs>
			<rect id="SVGID_71_" x="-836.3" y="-1474.9" width="1610.8" height="9218.9"/>
		</defs>
		<clipPath id="SVGID_10_">
			<use xlink:href="#SVGID_71_"  style="overflow:visible;"/>
		</clipPath>
		<rect x="39.4" y="9.3" class="st9" width="22.7" height="18.5"/>
	</g>
</g>
<g>
	<defs>
		<path id="SVGID_73_" d="M10.9,19.6c-1.2,0.2-1.9,0.3-3.1,0.3c-1.8,0-3.2-0.8-3.1-2.3c0.1-1,1.3-3.1,4.6-3.1c1,0,1.8,0.2,2.9,0.7
			l0.5-2.4c-1.5-0.5-2.4-0.6-3.7-0.6c-4.3,0-8.4,1.8-8.9,5.4c-0.5,3.6,4.4,4.6,6.6,4.5c1.3,0,2.6-0.1,3.8-0.2L10.9,19.6"/>
	</defs>
	<clipPath id="SVGID_11_">
		<use xlink:href="#SVGID_73_"  style="overflow:visible;"/>
	</clipPath>
	<g class="st10">
		<defs>
			<rect id="SVGID_75_" x="-836.3" y="-1474.9" width="1610.8" height="9218.9"/>
		</defs>
		<clipPath id="SVGID_12_">
			<use xlink:href="#SVGID_75_"  style="overflow:visible;"/>
		</clipPath>
		<rect x="-5.7" y="6.6" class="st11" width="23.9" height="21.3"/>
	</g>
</g>
<g>
	<defs>
		<path id="SVGID_77_" d="M41.2,15.1l0.3-1.4l3.9-0.8L45,15.1h1.9l-0.4,1.4l-1.9,0l-1.1,5.6c0,0-3.8,0-3.8,0l1.1-5.6h-1.4l0.3-1.4
			H41.2"/>
	</defs>
	<clipPath id="SVGID_13_">
		<use xlink:href="#SVGID_77_"  style="overflow:visible;"/>
	</clipPath>
	<g class="st12">
		<defs>
			<rect id="SVGID_79_" x="-836.3" y="-1474.9" width="1610.8" height="9218.9"/>
		</defs>
		<clipPath id="SVGID_14_">
			<use xlink:href="#SVGID_79_"  style="overflow:visible;"/>
		</clipPath>
		<rect x="33.8" y="7.2" class="st13" width="18.8" height="20.5"/>
	</g>
</g>
<g>
	<defs>
		<polygon id="SVGID_81_" points="60.2,22.1 56.4,22.1 58.3,12.4 62.1,12.5 		"/>
	</defs>
	<clipPath id="SVGID_15_">
		<use xlink:href="#SVGID_81_"  style="overflow:visible;"/>
	</clipPath>
	<g class="st14">
		<defs>
			<rect id="SVGID_83_" x="-836.3" y="-1474.9" width="1610.8" height="9218.9"/>
		</defs>
		<clipPath id="SVGID_16_">
			<use xlink:href="#SVGID_83_"  style="overflow:visible;"/>
		</clipPath>
		<rect x="50.8" y="6.7" class="st15" width="17" height="21"/>
	</g>
</g>
<g>
	<defs>
		<path id="SVGID_85_" d="M29.1,16.8c-0.5,0-0.9,0.1-1.3,0.4c-0.4,0.3-0.6,0.7-0.7,1.2c-0.1,0.6,0,1,0.2,1.3
			c0.3,0.3,0.7,0.4,1.2,0.4c0.3,0,0.7-0.1,1-0.2c0.3-0.2,0.5-0.3,0.7-0.6c0.2-0.3,0.3-0.6,0.4-0.9c0.1-0.5,0-1-0.3-1.2
			C30,16.9,29.6,16.8,29.1,16.8z M22.3,24.5l1.8-9.3h3.3l-0.3,1.2c0.3-0.4,0.7-0.6,1.4-0.9c0.6-0.2,1.3-0.4,2.1-0.4
			c0.9,0,1.4,0,2,0.3c0.6,0.3,1.1,0.7,1.3,1.3c0.2,0.6,0.3,1.2,0.2,1.9c-0.2,1.1-0.8,2-1.8,2.7c-1,0.7-1.9,0.8-3.2,0.8
			c-0.5,0-0.8,0-1.2-0.1c-0.3-0.1-0.6-0.2-0.7-0.3c-0.2-0.1-0.4-0.3-0.6-0.5L26,24.5H22.3z"/>
	</defs>
	<clipPath id="SVGID_17_">
		<use xlink:href="#SVGID_85_"  style="overflow:visible;"/>
	</clipPath>
	<g class="st16">
		<defs>
			<rect id="SVGID_87_" x="-836.3" y="-1474.9" width="1610.8" height="9218.9"/>
		</defs>
		<clipPath id="SVGID_18_">
			<use xlink:href="#SVGID_87_"  style="overflow:visible;"/>
		</clipPath>
		<rect x="16.7" y="9.4" class="st17" width="23.3" height="20.7"/>
	</g>
</g>
<g>
	<defs>
		<path id="SVGID_89_" d="M90.1,17.6c0-0.6-0.3-0.9-1-0.9c-1.5,0-3.2,2.7-3.4,3.8C88.2,20.5,90.2,19.1,90.1,17.6 M90.5,21.9l0.3,0.2
			c-0.7,1.4-2.3,2.5-4.1,2.5c-1.5,0-2.7-0.9-2.7-2.5c-0.1-3,2.9-5.7,5.5-5.7c1.1,0,2.1,0.4,2.1,1.5c0.1,2.4-3.6,3.1-6,3.1
			c-0.1,0.2-0.1,0.5-0.1,0.9c0,1,0.7,1.8,2,1.8C88.7,23.6,89.9,22.7,90.5,21.9"/>
	</defs>
	<clipPath id="SVGID_19_">
		<use xlink:href="#SVGID_89_"  style="overflow:visible;"/>
	</clipPath>
	<g class="st18">
		<defs>
			<rect id="SVGID_91_" x="-836.3" y="-1474.9" width="1610.8" height="9218.9"/>
		</defs>
		<clipPath id="SVGID_20_">
			<use xlink:href="#SVGID_91_"  style="overflow:visible;"/>
		</clipPath>
		<rect x="78.3" y="10.6" class="st19" width="18.9" height="19.6"/>
	</g>
</g>
<g>
	<defs>
		<path id="SVGID_93_" d="M75.5,17.5c0.3,0,0.7-0.1,0.9-0.1c0.3,0,0.5,0,0.5,0.3c0,0.1-0.3,1.2-0.3,1.4L76,21.5
			c-0.2,1-0.5,2-0.7,2.7h1.5l0.8-3.7c2.6-2.4,3.6-3.2,4.2-3.2c0.3,0,0.5,0.1,0.5,0.4c0,0.4-0.3,1.4-0.4,1.7L81,22.2
			c-0.2,0.6-0.3,1.2-0.3,1.5c0,0.6,0.4,0.9,1,0.9c1.1,0,1.9-1,2.6-2.1L84,22.2c-0.3,0.4-0.9,1.3-1.4,1.3c-0.2,0-0.3-0.1-0.3-0.3
			c0-0.3,0.1-0.8,0.2-1.1l1-3.2c0.3-0.9,0.4-1.4,0.4-1.7c0-0.6-0.4-0.9-1-0.9c-1,0-2.3,0.7-5.1,3.5h0l0.3-1.4
			c0.2-0.8,0.4-1.6,0.6-2.1c-1,0.3-2.3,0.7-3.2,0.8L75.5,17.5"/>
	</defs>
	<clipPath id="SVGID_21_">
		<use xlink:href="#SVGID_93_"  style="overflow:visible;"/>
	</clipPath>
	<g class="st20">
		<defs>
			<rect id="SVGID_95_" x="-836.3" y="-1474.9" width="1610.8" height="9218.9"/>
		</defs>
		<clipPath id="SVGID_22_">
			<use xlink:href="#SVGID_95_"  style="overflow:visible;"/>
		</clipPath>
		<rect x="69.6" y="10.6" class="st21" width="20.3" height="19.6"/>
	</g>
</g>
<g>
	<defs>
		<path id="SVGID_97_" d="M86.5,16c0,0.1,0,0.1,0,0.2c0.1,0.1,0.1,0.1,0.3,0.1c0.1,0,0.1,0,0.2,0c0.1,0,0.1-0.1,0.1-0.2
			c0-0.1,0-0.1-0.1-0.1c0,0-0.1,0-0.2-0.1l-0.2,0c-0.1,0-0.2,0-0.2-0.1c-0.1,0-0.1-0.1-0.1-0.2c0-0.1,0-0.2,0.1-0.2
			c0.1-0.1,0.2-0.1,0.3-0.1c0.1,0,0.2,0,0.3,0.1c0.1,0.1,0.1,0.1,0.1,0.3h-0.2c0-0.1,0-0.1-0.1-0.1c0-0.1-0.1-0.1-0.2-0.1
			c-0.1,0-0.2,0-0.2,0.1c0,0-0.1,0.1-0.1,0.1c0,0.1,0,0.1,0.1,0.1c0,0,0.1,0,0.2,0.1l0.2,0c0.1,0,0.1,0,0.2,0.1
			c0.1,0.1,0.1,0.1,0.1,0.2c0,0.1,0,0.2-0.1,0.3c-0.1,0.1-0.2,0.1-0.3,0.1c-0.1,0-0.3,0-0.3-0.1c-0.1-0.1-0.1-0.2-0.1-0.3H86.5"/>
	</defs>
	<clipPath id="SVGID_23_">
		<use xlink:href="#SVGID_97_"  style="overflow:visible;"/>
	</clipPath>
	<g class="st22">
		<defs>
			<rect id="SVGID_99_" x="-731.8" y="-1298.4" width="1420" height="8127"/>
		</defs>
		<clipPath id="SVGID_24_">
			<use xlink:href="#SVGID_99_"  style="overflow:visible;"/>
		</clipPath>
		<rect x="81.4" y="10.2" class="st23" width="10.9" height="11.2"/>
	</g>
</g>
<g>
	<defs>
		<path id="SVGID_101_" d="M87.5,15.2h0.2l0.4,0.9l0.3-0.9h0.2v1.1h-0.2v-0.7c0,0,0-0.1,0-0.1c0-0.1,0-0.1,0-0.2l-0.4,0.9H88
			l-0.4-0.9v0c0,0,0,0.1,0,0.1c0,0.1,0,0.1,0,0.1v0.7h-0.2V15.2"/>
	</defs>
	<clipPath id="SVGID_25_">
		<use xlink:href="#SVGID_101_"  style="overflow:visible;"/>
	</clipPath>
	<g class="st24">
		<defs>
			<rect id="SVGID_103_" x="-731.8" y="-1298.4" width="1420" height="8127"/>
		</defs>
		<clipPath id="SVGID_26_">
			<use xlink:href="#SVGID_103_"  style="overflow:visible;"/>
		</clipPath>
		<rect x="82.5" y="10.2" class="st25" width="11.2" height="11.1"/>
	</g>
</g>
</svg>
