<?xml version="1.0" encoding="utf-8"?>
<!-- Generator: Adobe Illustrator 19.2.1, SVG Export Plug-In . SVG Version: 6.00 Build 0)  -->
<svg version="1.1" id="Layer_1" xmlns="http://www.w3.org/2000/svg" xmlns:xlink="http://www.w3.org/1999/xlink" x="0px" y="0px"
	 viewBox="0 0 61.5 24" style="enable-background:new 0 0 61.5 24;" xml:space="preserve">
<style type="text/css">
	.st0{fill-rule:evenodd;clip-rule:evenodd;fill:#FFFFFF;}
</style>
<g>
	<path class="st0" d="M48.9,16.5c2.6,0,4.8-2,4.8-4.6c0-2.5-2.1-4.6-4.8-4.6c-2.6,0-4.8,2-4.8,4.6C44.1,14.5,46.2,16.5,48.9,16.5"/>
	<path class="st0" d="M48.9,0c-5.5,0-10.2,3.4-11.9,8c0.1-0.5,0.1-1,0.1-1.5c0-1.7-1-3.6-2.5-4.6c-1.4-1-2.8-1.5-4.5-1.5H19.2v23.6
		h10.2c2,0,3.7-0.7,5.5-1.9c1.6-1.1,2.6-3,2.6-4.8c0-0.1,0-0.2,0-0.3c2,4.1,6.4,7,11.4,7c6.9,0,12.6-5.4,12.6-12
		C61.5,5.4,55.9,0,48.9,0z M25.6,5.5h2.7c1.3,0,2.7,0.2,2.7,1.8c0.1,1.4-0.8,2.3-2.6,2.3l-2.7,0V5.5z M30.5,18.1
		c-0.6,0.4-1.3,0.4-2,0.4h-3v-4.3h2.7c1.6,0,3,0.4,3.1,2.2C31.4,17,31,17.8,30.5,18.1z M36.5,13.6c-0.5-0.6-1.2-1.2-2.2-1.8
		c1.2-0.6,1.9-1.3,2.3-2.2c-0.2,0.8-0.2,1.5-0.2,2.3C36.4,12.5,36.4,13.1,36.5,13.6z M48.9,18.2c-3.6,0-6.5-2.8-6.5-6.2
		s2.9-6.2,6.5-6.2c3.6,0,6.5,2.8,6.5,6.2S52.5,18.2,48.9,18.2z"/>
	<polygon class="st0" points="11.5,9 6.3,9 6.3,0.3 0,0.3 0,24 6.3,24 6.3,14.7 11.4,14.7 11.4,24 17.8,24 17.8,0.3 11.5,0.3 	"/>
</g>
</svg>
