<?xml version="1.0" encoding="utf-8"?>
<!-- Generator: Adobe Illustrator 19.2.1, SVG Export Plug-In . SVG Version: 6.00 Build 0)  -->
<svg version="1.1" id="Layer_1" xmlns="http://www.w3.org/2000/svg" xmlns:xlink="http://www.w3.org/1999/xlink" x="0px" y="0px"
	 viewBox="0 0 51 51" style="enable-background:new 0 0 51 51;" xml:space="preserve">
<style type="text/css">
	.st0{fill-rule:evenodd;clip-rule:evenodd;fill:#FFFFFF;}
</style>
<g>
	<path class="st0" d="M48.4,49.7c0.6,0,1.2-0.5,1.2-1.2c0-0.7-0.5-1.2-1.2-1.2c-0.7,0-1.2,0.5-1.2,1.2
		C47.2,49.2,47.7,49.7,48.4,49.7z M48.4,47.6c0.4,0,0.6,0.1,0.6,0.5c0,0.3-0.2,0.4-0.4,0.5l0.5,0.7h-0.3l-0.4-0.7h-0.3l0,0.7h-0.2
		l0-1.7H48.4z"/>
	<path class="st0" d="M48.4,48.4c0.2,0,0.4,0,0.4-0.3c0-0.2-0.2-0.2-0.4-0.2h-0.3l0,0.5H48.4z"/>
	<path class="st0" d="M9.2,49.6l-7.9-7.9c-0.6-0.6-0.6-0.7-1.3-0.3c0,0,0,0,0,0V51h9.5c0,0,0,0,0,0C9.9,50.2,9.8,50.2,9.2,49.6z"/>
	<path class="st0" d="M49.2,7L51,8.7V0h-8.9l1.9,1.9C44,2,44.3,2.3,43.8,2.7c-0.3,0.3-0.5,0.2-0.8,0c-1.6-0.8-3.1-0.8-4.6,0.3
		l-0.9-0.9L39.7,0H0v39.7l3.6-3.6c0.1-0.1,0.6-0.5,1-0.1c0.2,0.2,0.2,0.5,0.1,0.7c-0.4,0.7-0.3,0.8,0.3,1.3l7.9,7.9
		c0.6,0.6,0.6,0.7,1.3,0.3c0.3-0.1,0.5-0.1,0.7,0.1c0.4,0.4,0,1-0.1,1L11.2,51h14.5c0-0.1,0.1-0.1,0.1-0.2c0.1-0.2-0.1-0.4-0.3-0.5
		l-4.4-4.4c-0.1-0.1-0.3-0.4-0.5-0.3c-0.2,0.1-0.4,0.2-0.6,0c-0.2-0.2,0-0.5,0.1-0.6l2.2-2.2l6.3,6.3L26.7,51H51V26.7l-2,2
		c0,0-0.3,0.3-0.6,0.1c-0.1-0.1-0.1-0.3,0-0.4c0.2-0.4,0.1-0.4-0.2-0.7l-5.4-5.4l2.1-2.1l5.4,5.4c0.3,0.3,0.4,0.4,0.7,0.2V11.2
		l-2.2,2.2l-0.9-0.9c1.1-1.4,1.2-3.1,0.4-4.7c-0.1-0.3-0.3-0.7,0-0.9C48.8,6.4,49.2,6.9,49.2,7z M42.3,3.8c0.5-0.5,0.9,0.2,1.1,0.3
		l3.2,3.2c0.1,0.1,0.7,0.6,0.3,1.1c-0.3,0.3-0.6,0.2-1,0c-0.7-0.4-1.6-0.7-2.4-0.3l-0.9-0.9c0.5-0.8,0.2-1.7-0.3-2.4
		C42.1,4.5,42,4.2,42.3,3.8z M31.2,8.5c0.1-0.1,0.6-0.5,1-0.1c0.2,0.2,0.2,0.5,0.1,0.7c-0.4,0.7-0.3,0.8,0.3,1.3l7.9,7.9
		c0.6,0.6,0.6,0.7,1.3,0.3c0.3-0.1,0.5-0.1,0.7,0.1c0.4,0.4,0,1-0.1,1L38.2,24c-0.1,0.1-0.6,0.5-1,0.1c-0.2-0.2-0.2-0.5-0.1-0.7
		c0.4-0.7,0.3-0.8-0.3-1.3l-7-7l6.1,11.3l-0.4,0.4l-12.4-6.2c-0.3-0.2-0.6-0.3-0.9-0.4c-0.4-0.1-0.6-0.2-0.9,0
		c-0.2,0.2-0.6,0.5-1,0.2c-0.5-0.5,0-0.9,0.2-1.1l3.8-3.8l6.2,3l0,0l-3.2-6L31.2,8.5z M31.1,38.1c-0.1-0.2-0.2-0.4,0-0.6
		c0.3-0.3,0.5,0.1,0.6,0.2l1.8,1.8c0.1,0.1,0.4,0.3,0.2,0.6c-0.2,0.2-0.4,0.1-0.5,0c-0.4-0.2-0.9-0.4-1.3-0.2l-0.5-0.5
		C31.5,39,31.3,38.5,31.1,38.1z M32,36.9c-0.1,0.1-0.3,0.1-0.4,0c-0.9-0.5-1.8-0.4-2.6,0.2l-0.5-0.5l1.9-1.9l1.7,1.7
		C32.1,36.5,32.2,36.7,32,36.9z M25.7,33.1l-7.8-7.8C17.5,24.9,17,24.5,16,25l-0.9-0.9c3.5-2.9,7.5-1.8,10.5,1.2
		c3,3,4.1,7.1,1.2,10.5L26,34.9C26.4,34,26,33.5,25.7,33.1z M29.9,27.5l-5.1-5.1l0,0l3.3,1.6l2.6,2.6c2.1,1.6,2.5,0.1,3.1,0.7
		c0.5,0.5-0.2,1-0.3,1.2l-1.7,1.7c-0.2,0.2-0.7,0.8-1.2,0.3C30,30,31.6,29.6,29.9,27.5z M24.2,9.8c-0.1-0.2-0.1-0.3,0-0.5
		c0.3-0.3,0.5,0,0.5,0l1.6,1.6l-1.8,1.8L24,12.3C24.6,11.6,24.7,10.7,24.2,9.8z M23.5,10.2c-0.2,0.2-0.3,0.1-0.5,0
		c-0.4-0.2-0.8-0.4-1.3-0.1l-0.5-0.5c0.2-0.4,0.1-0.9-0.1-1.3c-0.1-0.2-0.2-0.3,0-0.5c0.2-0.2,0.5,0.1,0.6,0.1l1.7,1.7
		C23.4,9.7,23.7,9.9,23.5,10.2z M20.3,5.1l1.6,1.6c0,0,0.2,0.2-0.1,0.4c-0.1,0.1-0.3,0.1-0.4,0c-0.9-0.4-1.6-0.4-2.5,0.2l-0.5-0.5
		L20.3,5.1z M16.1,9.3l2.1-2.1l5.9,5.9L22,15.3c0,0-0.3,0.3-0.5,0c-0.1-0.1-0.1-0.3,0-0.4c0.2-0.4,0.1-0.4-0.2-0.7L17.1,10
		c-0.3-0.3-0.3-0.3-0.7-0.2c-0.1,0.1-0.3,0.1-0.4,0C15.8,9.6,16.1,9.3,16.1,9.3z M13.1,12.3l2.2-2.2c0,0,0.3-0.3,0.5,0
		c0.1,0.1,0.1,0.3,0,0.4c-0.2,0.4-0.1,0.4,0.2,0.7l4.2,4.2c0.3,0.3,0.3,0.3,0.7,0.2c0.1-0.1,0.3-0.1,0.4,0c0.2,0.2,0,0.5,0,0.5
		L19,18.3c0,0-0.3,0.3-0.5,0c-0.1-0.1-0.1-0.3,0-0.4c0.2-0.4,0.1-0.4-0.2-0.7l-1.9-1.9L15.7,16l-0.5-0.5l0.7-0.7L14.1,13
		c-0.3-0.3-0.3-0.3-0.7-0.2c-0.1,0.1-0.3,0.1-0.4,0C12.8,12.6,13.1,12.3,13.1,12.3z M10.1,15.3l2.3-2.3c0,0,0.3-0.3,0.5,0
		c0.1,0.1,0.1,0.3,0,0.4c-0.2,0.4-0.1,0.4,0.2,0.7l4.2,4.2c0.3,0.3,0.3,0.3,0.7,0.2c0.1-0.1,0.3-0.1,0.4,0c0.2,0.2,0,0.5,0,0.5
		L16,21.3c0,0-0.3,0.3-0.5,0c-0.1-0.1-0.1-0.3,0-0.4c0.2-0.4,0.1-0.4-0.2-0.7l-4.2-4.2c-0.3-0.3-0.3-0.3-0.7-0.2
		c-0.1,0.1-0.3,0.1-0.4,0C9.8,15.6,10.1,15.3,10.1,15.3z M9.6,15.8l1.9,1.9c0,0,0.2,0.3,0,0.5c-0.2,0.2-0.5,0.1-0.7-0.1
		c-0.5-0.3-1.1-0.8-1.8-0.6L8.4,17L9.6,15.8z M8.1,17.3l5.1,5.1c0.3,0.3,0.3,0.3,0.7,0.2c0.1-0.1,0.3-0.1,0.4,0c0.2,0.2,0,0.5,0,0.5
		l-2.2,2.3c0,0-0.3,0.3-0.5,0c-0.1-0.1-0.1-0.3,0-0.4c0.2-0.4,0.1-0.4-0.2-0.7l-5.1-5.1L8.1,17.3z M4.6,20.8l1.1-1.1l0.5,0.5
		c-0.1,0.7,0.3,1.3,0.6,1.8c0.2,0.2,0.3,0.4,0.1,0.7c-0.2,0.2-0.5,0.1-0.5,0L4.6,20.8z M20.5,41.7l-4.2,4.2c-0.1,0.1-0.6,0.5-1,0.1
		c-0.2-0.2-0.2-0.5-0.1-0.7c0.4-0.7,0.3-0.8-0.3-1.3l-3.6-3.6L10,41.7l-0.9-0.9l1.3-1.3L7,36.1c-0.6-0.6-0.6-0.7-1.3-0.3
		c-0.3,0.1-0.5,0.1-0.7-0.1c-0.4-0.4,0-1,0.1-1l4.2-4.2c0.1-0.1,0.6-0.5,1-0.1c0.2,0.2,0.2,0.5,0.1,0.7c-0.4,0.7-0.3,0.8,0.3,1.3
		l7.9,7.9c0.6,0.6,0.6,0.7,1.3,0.3c0.3-0.1,0.5-0.1,0.7,0.1C21.1,41.1,20.6,41.6,20.5,41.7z M15.7,35.3c-3-3-4.1-7.1-1.2-10.5
		l0.9,0.9c-0.5,1-0.1,1.5,0.3,1.8l7.8,7.8c0.4,0.4,0.9,0.8,1.8,0.3l0.9,0.9C22.7,39.4,18.7,38.3,15.7,35.3z M29,48.7l-0.5-0.5
		c0.4-0.6,0-1.1-0.3-1.4l-3.6-3.6c-0.3-0.3-0.8-0.8-1.4-0.3l-0.5-0.5c1.4-1.5,3.6-1.7,5.9,0.4C30.6,44.7,30.4,47.3,29,48.7z
		 M32.1,45.6c0,0-0.3,0.3-0.6,0.1c-0.1-0.1-0.1-0.3,0-0.4c0.2-0.4,0.1-0.4-0.2-0.7L26.9,40c-0.3-0.3-0.4-0.4-0.7-0.2
		c-0.1,0.1-0.3,0.1-0.4,0c-0.2-0.2,0-0.5,0.1-0.6L28,37l6.3,6.3L32.1,45.6z M34.7,43l-0.5-0.5c0.6-0.8,0.7-1.8,0.2-2.7
		c-0.1-0.2-0.2-0.4,0-0.5c0.3-0.3,0.5,0,0.5,0l1.7,1.7L34.7,43z M39.7,38l-2.4,2.4c0,0-0.3,0.2-0.5,0c-0.1-0.1-0.1-0.3-0.1-0.4
		c0.2-0.4,0.1-0.4-0.2-0.7l-4.4-4.4c-0.3-0.3-0.4-0.4-0.7-0.2c-0.1,0.1-0.3,0.1-0.4,0c-0.2-0.2,0-0.5,0.1-0.6l2.2-2.2l5.4,5.4
		c0.3,0.3,0.4,0.4,0.7,0.2c0.1-0.1,0.3-0.1,0.4,0C40,37.7,39.7,38,39.7,38z M39.1,32.3c-0.1-0.1-0.2-0.2-0.3-0.4
		c0.2,0.4,0.2,0.9,0.1,1.5c-0.2,0.6-0.6,1.2-1.4,2L37,34.9c0.4-0.6,0.1-1-0.3-1.4l-1.3-1.3c-0.4-0.4-0.8-0.7-1.3-0.3l-0.5-0.5
		c0.8-0.8,1.4-1.2,2-1.4c1-0.2,1.8,0,2.5,0.7c-0.8-1.4-0.8-3,0.4-4.5l0.5,0.5c-0.3,0.5,0,0.8,0.2,1l4.4,4.4c0.2,0.2,0.5,0.4,1,0.2
		l0.5,0.5C43.1,34.6,40.8,34,39.1,32.3z M48.4,47c0.8,0,1.4,0.6,1.4,1.4c0,0.8-0.7,1.4-1.4,1.4c-0.8,0-1.5-0.6-1.5-1.4
		C46.9,47.6,47.6,47,48.4,47z M42.9,23.1c-0.1,0.8,0.3,1.4,0.7,2c0.2,0.2,0.3,0.5,0.1,0.7c0.4,0.2,0.7,0.5,1,0.9
		c1.7,1.7,2.3,4,0.7,5.9l-0.5-0.5c0.3-0.5,0-0.8-0.2-1l-4.4-4.4c-0.2-0.2-0.5-0.4-1-0.2L38.8,26c1.2-1,2.5-1.2,3.7-0.8l-1.3-1.3
		l1.2-1.2L42.9,23.1z M48.4,21.1c-0.2,0.2-0.5,0.1-0.7-0.1c-0.5-0.4-1.2-0.8-2-0.7l-0.5-0.5l1.2-1.2l2,2
		C48.4,20.6,48.6,20.8,48.4,21.1z M48.1,14.1l-4,4c-0.1,0.1-0.6,0.5-1,0.1c-0.2-0.2-0.2-0.5-0.1-0.7c0.4-0.7,0.3-0.8-0.3-1.3
		l-7.9-7.9c-0.6-0.6-0.6-0.7-1.3-0.3C33.3,8,33,8,32.8,7.8c-0.4-0.4,0-1,0.1-1l4-4L48.1,14.1z"/>
</g>
</svg>
