<?xml version="1.0" encoding="utf-8"?>
<!-- Generator: Adobe Illustrator 19.2.1, SVG Export Plug-In . SVG Version: 6.00 Build 0)  -->
<svg version="1.1" id="Layer_1" xmlns="http://www.w3.org/2000/svg" xmlns:xlink="http://www.w3.org/1999/xlink" x="0px" y="0px"
	 viewBox="0 0 123.4 16.7" style="enable-background:new 0 0 123.4 16.7;" xml:space="preserve">
<style type="text/css">
	.st0{fill:#FFFFFF;}
</style>
<g>
	<path id="XMLID_84_" class="st0" d="M72.2,13.7c-0.8,0-1.4,0.6-1.4,1.4c0,0.8,0.6,1.4,1.4,1.4c0.8,0,1.4-0.6,1.4-1.4
		C73.6,14.3,73,13.7,72.2,13.7"/>
	<path id="XMLID_76_" class="st0" d="M95,3.7c-0.6-0.2-1.2-0.2-1.8-0.2c-0.8,0-1.4,0.1-1.9,0.2c-2.6,0.7-4.4,2.9-4.6,5.9
		c0,0.1,0,0.1,0,0.2c-1,2-3,4.7-6,4.6c-1.2,0-2.4-0.5-3.1-1.4c-0.6-0.7-0.9-1.8-0.9-2.9c0-2.6,1.7-4.4,4-4.4c0.9,0,2.1,0.2,3,1.3
		c0.2,0.3,0.5,0.4,0.9,0.4c0.5,0,0.9-0.3,1.1-0.7c0.2-0.4,0.1-0.8-0.2-1.1c-1.3-1.5-2.7-2.1-4.6-2.1c-3.8,0-6.4,2.5-6.6,6.2
		c-0.1,1.8,0.4,3.6,1.5,4.9c1.2,1.4,3.1,2.2,5,2.2c3.2,0,5.5-2.1,6.6-3.7c0.2,0.5,0.5,1,0.9,1.4c1.2,1.5,3,2.3,5,2.3
		c2,0,3.8-0.8,5-2.3c1.1-1.3,1.6-2.9,1.5-4.8C99.4,6.7,97.7,4.5,95,3.7 M96.3,12.9c-0.8,0.9-2,1.4-3.1,1.4c-1.2,0-2.4-0.5-3.1-1.4
		c-0.6-0.7-1-1.7-1-2.8C89.1,8,90.2,6.4,92,6c0.4-0.1,0.8-0.2,1.2-0.2c0.4,0,0.8,0.1,1.2,0.2c1.8,0.5,2.9,2.1,2.9,4.2
		C97.3,11.1,96.9,12.2,96.3,12.9"/>
	<path id="XMLID_73_" class="st0" d="M115.7,3.6c-1.7,0-3.5,0.7-4.6,2c-1.1-1.3-2.9-2-4.6-2c-2.8,0-5.8,1.9-5.8,5.4v6.3
		c0,0.7,0.5,1.2,1.2,1.2c0.7,0,1.2-0.5,1.2-1.2V9.1c0-1.8,1.5-3.1,3.4-3.1c1.8,0,3.3,1.4,3.4,3.1v6.3c0,0.7,0.5,1.2,1.2,1.2h0h0
		c0.7,0,1.2-0.5,1.2-1.2V9.1c0-1.8,1.5-3.1,3.4-3.1c1.8,0,3.3,1.4,3.4,3.1v6.3c0,0.7,0.5,1.2,1.2,1.2c0.7,0,1.2-0.5,1.2-1.2V9
		C121.6,5.5,118.6,3.6,115.7,3.6"/>
	<path id="XMLID_65_" class="st0" d="M46.3,3.4L46.3,3.4L46.3,3.4c-1.4-0.2-2.7-0.1-3.9,0.3c-2,0.7-3.5,2.3-4,4.4
		c-0.4,1.5-0.3,3,0.2,4.4c-1,0.9-2.8,1.6-2.8,1.6l-0.1,0c-0.1,0.1-0.5,0.1-0.9,0.1c0,0-0.1,0-0.1,0c-1.1-0.1-1.5-0.7-1.5-2.4V6h2.2
		c0.5,0,0.8-0.2,0.9-0.4c0.2-0.2,0.3-0.5,0.3-0.8c0-0.6-0.4-1.2-1.2-1.2h-2.2V1.3C33.3,0.5,32.6,0,32,0c-0.6,0-1.3,0.4-1.3,1.3v2.3
		h-1.4c-0.8,0-1.2,0.6-1.2,1.2c0,0.3,0.1,0.6,0.3,0.8C28.6,5.8,28.9,6,29.3,6h1.4v5.9c0,2,0.4,4.6,4,4.8c0.1,0,0.2,0,0.3,0
		c0.6,0,1.2-0.1,1.8-0.3c1.3-0.4,2.5-1.2,3.1-1.7c0,0.1,0.1,0.1,0.1,0.2c1.2,1.4,3.3,2.1,5.4,1.9c0,0,0.1,0,0.1,0
		c1.8-0.1,3.3-0.8,4.3-1.9c0.4-0.5,0.5-1,0.3-1.4c-0.2-0.4-0.7-0.7-1.2-0.6c-0.3,0-0.6,0.2-0.9,0.4c-1,0.8-2.1,1.1-2.9,1.1
		c-1.9,0.1-3.6-0.9-4.2-2.6l9.1-0.6c0.5,0,1-0.2,1.2-0.5c0.2-0.3,0.3-0.7,0.2-1.1C51.3,6.3,49.3,4,46.3,3.4 M40.7,9.5
		c0.1-1.7,1.1-3.1,2.7-3.6c0.6-0.2,1.4-0.3,2.1-0.2l0.3,0C47.4,6.1,48.6,7.3,49,9L40.7,9.5z"/>
	<path id="XMLID_62_" class="st0" d="M12.6,0c-0.6,0-1.2,0.4-1.2,1.2v6.1h-9V1.2C2.4,0.4,1.8,0,1.2,0C0.6,0,0,0.4,0,1.2v14.2
		c0,0.4,0.1,0.7,0.4,0.9c0.2,0.2,0.5,0.3,0.8,0.3c0.6,0,1.2-0.4,1.2-1.2V9.5h9v5.9c0,0.5,0.2,0.8,0.4,0.9c0.2,0.2,0.5,0.3,0.8,0.3
		c0.6,0,1.2-0.4,1.2-1.2V1.2C13.9,0.4,13.2,0,12.6,0"/>
	<path id="XMLID_50_" class="st0" d="M23.8,3.7c-0.6-0.2-1.2-0.2-1.8-0.2c-0.8,0-1.4,0.1-1.9,0.2c-2.6,0.7-4.4,2.9-4.6,5.9
		c-0.1,1.9,0.4,3.5,1.5,4.8c1.2,1.5,3,2.3,5,2.3c2,0,3.8-0.8,5-2.3c1.1-1.3,1.6-2.9,1.5-4.8C28.2,6.7,26.5,4.5,23.8,3.7 M25.1,12.9
		c-0.8,0.9-2,1.4-3.1,1.4c-1.2,0-2.4-0.5-3.1-1.4c-0.6-0.7-1-1.7-1-2.8C17.9,8,19,6.4,20.8,6c0.4-0.1,0.8-0.2,1.2-0.2
		c0.4,0,0.8,0.1,1.2,0.2c1.8,0.5,2.9,2.1,2.9,4.2C26.1,11.1,25.7,12.2,25.1,12.9"/>
	<path id="XMLID_36_" class="st0" d="M54.3,0c-0.7,0-1.2,0.5-1.2,1.2v14.2c0,0.7,0.5,1.2,1.2,1.2c0.7,0,1.2-0.5,1.2-1.2V1.2
		C55.5,0.5,55,0,54.3,0"/>
	<path id="XMLID_27_" class="st0" d="M63.5,8.8L63.5,8.8c-0.2,0-0.4,0-0.5,0c-2-0.1-2.8-0.3-2.8-1.2c0-1.2,1.8-1.7,3.1-1.7
		c1.9,0,2.9,0.4,3.2,1.2c0.2,0.4,0.6,0.7,1.1,0.7c0.4,0,0.8-0.2,1.1-0.5c0.2-0.3,0.3-0.7,0.2-1l0,0c-0.7-1.8-2.5-2.7-5.5-2.7
		c-2.7,0-5.5,1.4-5.5,4c0,3.2,2.9,3.5,5.5,3.7l0.3,0c2,0.1,3.2,0.3,3.2,1.4c0,1.3-2.3,1.8-3.3,1.8c-1.8,0-3.3-0.6-3.5-1.3
		c-0.1-0.6-0.6-1-1.1-1c-0.4,0-0.8,0.2-1,0.5c-0.2,0.3-0.3,0.6-0.2,0.9c0.6,2.8,4.3,3.1,5.8,3.1c2.1,0,5.7-0.9,5.7-4.1
		C69.2,9.3,66.2,9,63.5,8.8"/>
	<path id="XMLID_4_" class="st0" d="M122.5,2.4c0.5,0,0.9,0.4,0.9,0.9c0,0.5-0.4,0.9-0.9,0.9c-0.5,0-0.9-0.4-0.9-0.9
		C121.6,2.8,122,2.4,122.5,2.4 M122.5,4.1c0.4,0,0.8-0.3,0.8-0.8c0-0.4-0.4-0.8-0.8-0.8c-0.4,0-0.8,0.4-0.8,0.8
		C121.7,3.8,122.1,4.1,122.5,4.1 M122.3,3.8c0,0.1,0,0.1-0.1,0.1c0,0-0.1-0.1-0.1-0.1V2.9c0,0,0-0.1,0-0.1h0.4
		c0.2,0,0.4,0.1,0.4,0.3c0,0.2-0.1,0.3-0.2,0.3l0.2,0.3c0,0,0,0.1,0,0.1c0,0,0,0.1-0.1,0.1c0,0-0.1,0-0.1-0.1l-0.3-0.4h-0.2V3.8z
		 M122.3,3.3h0.2c0.1,0,0.3,0,0.3-0.2c0-0.2-0.1-0.2-0.2-0.2h-0.2V3.3z"/>
</g>
</svg>
