<?xml version="1.0" encoding="utf-8"?>
<!-- Generator: Adobe Illustrator 19.2.1, SVG Export Plug-In . SVG Version: 6.00 Build 0)  -->
<svg version="1.1" id="Layer_1" xmlns="http://www.w3.org/2000/svg" xmlns:xlink="http://www.w3.org/1999/xlink" x="0px" y="0px"
	 viewBox="0 0 80.5 38.8" style="enable-background:new 0 0 80.5 38.8;" xml:space="preserve">
<style type="text/css">
	.st0{clip-path:url(#SVGID_2_);}
	.st1{clip-path:url(#SVGID_4_);fill:#FEFEFE;}
	.st2{clip-path:url(#SVGID_6_);}
	.st3{clip-path:url(#SVGID_8_);fill:#FEFEFE;}
	.st4{clip-path:url(#SVGID_10_);}
	.st5{clip-path:url(#SVGID_12_);fill:#FEFEFE;}
</style>
<g>
	<defs>
		<path id="SVGID_1_" d="M80,12.1c-0.1,0-10.7,2.7-23,5.7l0.6-1.6h-6l2-4.9h5L60,7.6h-5l1.7-4.2H62L63.4,0H53h0h-5.4l-5.4,6l2.5-6
			h-5.2l-8.1,20.1h5.2l3.5-8.4l0.2,8.4l7.4,0C33.6,23.6,20.2,27,20.2,27c-7.5,2-16.1-2.3-9.9-13.8c-7.2,7.8-14,18.2-8,23
			c5.8,4.6,13.1,1.9,18.1,0.1c5-1.8,59.8-23.8,59.8-23.8C80.7,12.2,80.6,11.9,80,12.1z M45,8.3l7.8-7.9l-7.5,18.4L45,8.3z"/>
	</defs>
	<clipPath id="SVGID_2_">
		<use xlink:href="#SVGID_1_"  style="overflow:visible;"/>
	</clipPath>
	<g class="st0">
		<defs>
			<rect id="SVGID_3_" x="-441" y="-1294.1" width="1420" height="8127"/>
		</defs>
		<clipPath id="SVGID_4_">
			<use xlink:href="#SVGID_3_"  style="overflow:visible;"/>
		</clipPath>
		<rect x="-5" y="-5" class="st1" width="90.5" height="48.8"/>
	</g>
</g>
<g>
	<defs>
		<polygon id="SVGID_5_" points="19.7,11.2 19.1,20.1 24.6,20.1 32.8,0 27.6,0 24,9 24.6,0 19.1,0 10.9,20.1 16.1,20.1 		"/>
	</defs>
	<clipPath id="SVGID_6_">
		<use xlink:href="#SVGID_5_"  style="overflow:visible;"/>
	</clipPath>
	<g class="st2">
		<defs>
			<rect id="SVGID_7_" x="-441" y="-1294.1" width="1420" height="8127"/>
		</defs>
		<clipPath id="SVGID_8_">
			<use xlink:href="#SVGID_7_"  style="overflow:visible;"/>
		</clipPath>
		<rect x="5.9" y="-5" class="st3" width="31.9" height="30.1"/>
	</g>
</g>
<g>
	<defs>
		<polygon id="SVGID_9_" points="30.4,20.1 38.6,0 33.5,0 25.3,20.1 		"/>
	</defs>
	<clipPath id="SVGID_10_">
		<use xlink:href="#SVGID_9_"  style="overflow:visible;"/>
	</clipPath>
	<g class="st4">
		<defs>
			<rect id="SVGID_11_" x="-441" y="-1294.1" width="1420" height="8127"/>
		</defs>
		<clipPath id="SVGID_12_">
			<use xlink:href="#SVGID_11_"  style="overflow:visible;"/>
		</clipPath>
		<rect x="20.3" y="-5" class="st5" width="23.4" height="30.1"/>
	</g>
</g>
</svg>
