<?xml version="1.0" encoding="utf-8"?>
<!-- Generator: Adobe Illustrator 19.2.1, SVG Export Plug-In . SVG Version: 6.00 Build 0)  -->
<svg version="1.1" id="Layer_1" xmlns="http://www.w3.org/2000/svg" xmlns:xlink="http://www.w3.org/1999/xlink" x="0px" y="0px"
	 viewBox="0 0 52.8 52.9" style="enable-background:new 0 0 52.8 52.9;" xml:space="preserve">
<style type="text/css">
	.st0{clip-path:url(#SVGID_2_);}
	.st1{clip-path:url(#SVGID_4_);fill:#FEFEFE;}
</style>
<g>
	<defs>
		<path id="SVGID_1_" d="M0,26.5C0,11.8,11.8,0,26.4,0C41,0,52.8,11.8,52.8,26.5c0,14.6-11.8,26.5-26.4,26.5
			C11.8,52.9,0,41.1,0,26.5 M26.4,44c9.7,0,17.5-7.9,17.5-17.6c0-9.7-7.9-17.6-17.5-17.6S8.9,16.8,8.9,26.5
			C8.9,36.2,16.7,44,26.4,44 M26.4,35.4c5,0,9.1-4.1,9.1-9.1c0-5-4.1-9.1-9.1-9.1c-5,0-9.1,4.1-9.1,9.1
			C17.3,31.3,21.4,35.4,26.4,35.4"/>
	</defs>
	<clipPath id="SVGID_2_">
		<use xlink:href="#SVGID_1_"  style="overflow:visible;"/>
	</clipPath>
	<g class="st0">
		<defs>
			<rect id="SVGID_3_" x="-900" y="-1288" width="1420" height="8127"/>
		</defs>
		<clipPath id="SVGID_4_">
			<use xlink:href="#SVGID_3_"  style="overflow:visible;"/>
		</clipPath>
		<rect x="-5" y="-5" class="st1" width="62.8" height="62.9"/>
	</g>
</g>
</svg>
